<?xml version="1.0" encoding="UTF-8"?>
<svg id="Layer_1" data-name="Layer 1" xmlns="http://www.w3.org/2000/svg" viewBox="0 0 1000 1000">
  <defs>
    <style>
      .cls-1 {
        fill: #141414;
      }
    </style>
  </defs>
  <g>
    <path class="cls-1" d="M600.87,273.59v-10.25h29.75v115.25h-10.5v20.25h50v-20.25h-10.5v-115.25h29.5v10.25h20.25v-30.5h-128.5v30.5h20ZM552.38,398.84v-27.25h-20v7h-50v-47.5h26.25v6.75h20.25v-33.75h-20.25v7h-26.25v-47.75h50v7h20v-27.25h-109.25v20.25h10.5v115.25h-10.5v20.25h109.25ZM329.88,307.84v-44.5h38l11,10.75v23l-11,10.75h-38ZM329.88,378.59v-50.75h38l11,11v29.25l-11,10.5h-38ZM384.63,398.84l23-23v-42.25l-15.75-15.75,15.75-15.75v-36l-23-23h-94v20.25h10.5v115.25h-10.5v20.25h94Z"/>
    <path class="cls-1" d="M600.87,273.59h2.5v-7.75h24.75v110.25h-10.5v25.25h55v-25.25h-10.5v-110.25h24.5v10.25h25.25v-35.5h-133.5v35.5h25v-2.5h-2.5v-2.5h-17.5v-25.5h123.5v25.5h-15.25v-10.25h-34.5v120.25h10.5v15.25h-45v-15.25h10.5v-120.25h-34.75v12.75h2.5v-2.5,2.5ZM552.38,398.84h2.5v-29.75h-25v7h-45v-42.5h21.25v6.75h25.25v-38.75h-25.25v7h-21.25v-42.75h45v7h25v-32.25h-114.25v25.25h10.5v110.25h-10.5v25.25h114.25v-2.5h-2.5v-2.5h-106.75v-15.25h10.5v-120.25h-10.5v-15.25h104.25v22.25h-15v-7h-55v52.75h31.25v-7h15.25v28.75h-15.25v-6.75h-31.25v52.5h55v-7h15v24.75h2.5v-2.5,2.5ZM329.88,307.84h2.5v-42h34.48l9.52,9.3v20.89l-9.52,9.3h-36.98v2.5h2.5-2.5v2.5h39.02l12.48-12.2v-25.11l-12.48-12.2h-41.52v49.5h2.5v-2.5ZM329.88,378.59h2.5v-48.25h34.46l9.54,9.54v27.15l-9.5,9.07h-37v2.5h2.5-2.5v2.5h39l12.5-11.93v-31.36l-12.46-12.46h-41.54v55.75h2.5v-2.5ZM384.63,398.84l1.77,1.77,23.73-23.73v-44.32l-14.71-14.71,14.71-14.71v-38.07l-24.46-24.46h-97.54v25.25h10.5v110.25h-10.5v25.25h97.54l.73-.73-1.77-1.77v-2.5h-91.5v-15.25h10.5v-120.25h-10.5v-15.25h90.46l21.54,21.54v33.93s-16.79,16.79-16.79,16.79l16.79,16.79v40.18l-22.27,22.27,1.77,1.77v-2.5,2.5Z"/>
  </g>
  <g>
    <path class="cls-1" d="M279.42,651.62c2.09-.72,4.22-1.43,6.33-2.13h0c2-.66,4-1.31,5.98-1.95h.01s.3-.1.3-.1c2.09-.67,4.17-1.33,6.26-1.97h0c2.08-.64,4.15-1.28,6.22-1.9,2.07-.62,4.13-1.23,6.19-1.83,2.06-.6,4.12-1.18,6.17-1.75l.08-.02h0c2.02-.56,4.03-1.12,6.05-1.66,2.04-.55,4.07-1.09,6.11-1.61,2.03-.53,4.06-1.04,6.08-1.55,2.02-.5,4.03-1,6.04-1.48,1.96-.47,3.92-.93,5.87-1.38h0s.14-.04.14-.04c2-.46,4-.91,5.99-1.35,1.98-.44,3.97-.87,5.96-1.29h0c1.99-.42,3.97-.83,5.95-1.23,1.98-.4,3.95-.79,5.91-1.17h0c1.97-.38,3.94-.75,5.9-1.11,1.97-.36,3.92-.71,5.87-1.05,1.95-.34,3.91-.67,5.86-1,1.95-.32,3.89-.64,5.83-.94,1.94-.3,3.88-.6,5.81-.89,1.93-.29,3.86-.56,5.79-.83,1.93-.27,3.86-.53,5.79-.78h0c1.92-.25,3.84-.49,5.75-.73,1.91-.23,3.83-.46,5.74-.68,1.92-.22,3.83-.43,5.74-.63h0c1.91-.2,3.81-.39,5.71-.57l.19-.02h0c1.84-.18,3.67-.34,5.51-.51h0c1.91-.17,3.8-.32,5.7-.48,1.9-.15,3.79-.29,5.68-.43,1.89-.13,3.78-.26,5.68-.38,1.88-.12,3.77-.23,5.66-.33,1.89-.1,3.78-.2,5.67-.28,1.87-.08,3.73-.16,5.6-.23h.01s.05,0,.05,0c1.87-.07,3.75-.13,5.63-.19,1.88-.05,3.76-.1,5.64-.14,1.89-.04,3.77-.07,5.65-.09,1.88-.02,3.76-.04,5.64-.05.94,0,1.88,0,2.82,0s1.88,0,2.82,0c1.88,0,3.76.02,5.64.05,1.88.02,3.76.06,5.64.09,1.89.04,3.77.09,5.64.14,1.89.05,3.77.12,5.65.19h.06c1.87.07,3.73.15,5.6.24,1.88.09,3.77.18,5.61.28h.03s.03,0,.03,0c1.88.1,3.76.21,5.66.33,1.89.12,3.78.24,5.67.38,1.89.13,3.79.28,5.68.43,1.9.15,3.8.31,5.69.48,1.9.17,3.8.34,5.65.52h.03s.03,0,.03,0c1.9.18,3.8.38,5.71.57,1.91.2,3.82.41,5.73.62h.11c1.87.23,3.76.45,5.65.68,1.91.23,3.83.48,5.75.73,1.93.25,3.86.51,5.79.78,1.92.27,3.85.55,5.79.83,1.94.29,3.87.58,5.82.89,1.95.31,3.89.62,5.83.94,1.95.32,3.91.66,5.86,1,1.95.34,3.9.69,5.87,1.05,1.96.36,3.93.73,5.9,1.11,1.97.38,3.94.77,5.93,1.17,1.98.4,3.96.81,5.94,1.23,1.98.42,3.97.85,5.97,1.29,1.99.44,3.99.89,6,1.35h0c2,.46,4.01.93,6.01,1.41,2.01.48,4.03.98,6.05,1.48,2.02.5,4.04,1.02,6.07,1.55,2.02.52,4.06,1.06,6.1,1.61,2.04.55,4.08,1.11,6.12,1.68,2.06.57,4.11,1.16,6.18,1.76,2.06.6,4.12,1.2,6.19,1.82,2.07.62,4.15,1.25,6.24,1.9h0c2.08.65,4.16,1.3,6.25,1.97l.15.05h0c2.04.65,4.09,1.32,6.14,2,2.1.7,4.21,1.41,6.33,2.13l.56.19h0c1.68.58,3.38,1.17,5.07,1.77l71.11-29.53v-200.42H202.67v200.42l71.04,29.55c1.91-.67,3.82-1.34,5.72-1.99ZM594.12,580.89h11l57.75-57.5-57.75-57.75h-11v-20.25h63.75v20.25h-15.5l39.25,39,38.75-39h-15.25v-20.25h61.5v20.25h-8.5l-57.75,57.75,57.75,57.5h8.5v20.25h-61.5v-20.25h15.25l-38.75-38.75-39.25,38.75h15.5v20.25h-63.75v-20.25ZM429.88,580.89h7.5l38.5-115.25h-11.25v-20.25h73.75v20.25h-12.25l38.25,115.25h7.75v20.25h-48v-20.25h9.75l-9.25-27.25h-47.75l-9,27.25h9.75v20.25h-47.75v-20.25ZM233.38,580.89h10.5v-115.25h-10.5v-20.25h39l48.25,80.25,47.75-80.25h39.25v20.25h-10.5v115.25h10.5v20.25h-49.75v-20.25h10.25v-87.75l-47.5,79.5-48-79.5v87.75h10.5v20.25h-49.75v-20.25Z"/>
    <path class="cls-1" d="M598.76,704.17c-1.74-.29-3.46-.57-5.18-.84-1.72-.27-3.44-.53-5.16-.79-1.72-.25-3.43-.5-5.15-.74-1.71-.24-3.41-.47-5.11-.69l-.16-.02h0c-1.65-.22-3.31-.43-4.96-.63-1.7-.21-3.4-.41-5.1-.6-1.7-.19-3.39-.38-5.08-.55-1.7-.18-3.39-.35-5.08-.51h0c-1.69-.16-3.37-.32-5.06-.47-1.69-.15-3.37-.29-5.05-.42-1.68-.13-3.36-.26-5.04-.38-1.66-.12-3.32-.23-4.98-.33h-.01s-.06,0-.06,0c-1.67-.1-3.34-.2-5.02-.29-1.67-.09-3.34-.17-5.01-.25-1.67-.08-3.34-.15-5.01-.21h0c-1.68-.06-3.35-.12-5.01-.17-1.68-.05-3.35-.09-5.01-.13-1.67-.03-3.34-.06-5.01-.08-1.67-.02-3.34-.03-5.01-.04-.83,0-1.67,0-2.5,0s-1.67,0-2.51,0c-1.67,0-3.33.02-5.01.04-1.67.02-3.33.05-4.99.08h-.1s0,0,0,0c-1.64.03-3.28.08-4.92.12h-.12c-1.63.05-3.27.11-4.91.17h0c-1.67.06-3.34.13-5.01.21-1.62.07-3.24.15-4.86.24h-.01s-.17,0-.17,0c-1.67.09-3.34.19-5.02.29-1.67.1-3.35.22-5.03.34-1.68.12-3.36.25-5.04.38-1.67.13-3.34.27-5.01.42h0s-.04,0-.04,0c-1.68.15-3.37.3-5.06.47-1.69.16-3.38.33-5.07.51h-.07s0,0,0,0c-1.64.17-3.27.35-4.91.54h-.01s-.1.01-.1.01c-1.69.19-3.39.39-5.09.6l-.14.02h0c-1.6.2-3.21.4-4.82.61h-.01s-.15.02-.15.02c-1.7.22-3.41.45-5.11.69-1.71.24-3.43.49-5.15.74-1.71.25-3.43.52-5.16.79-1.72.27-3.45.55-5.18.84-1.41.23-2.82.48-4.24.72l102.72,42.73,103.02-42.78c-1.33-.23-2.66-.46-3.98-.68Z"/>
  </g>
  <polygon class="cls-1" points="481 535 519 535 500 477.75 481 535"/>
  <g>
    <polygon class="cls-1" points="541.87 623.95 541.88 623.95 541.88 623.95 541.87 623.95"/>
    <polygon class="cls-1" points="627.4 634.84 627.4 634.84 627.41 634.84 627.4 634.84"/>
    <polygon class="cls-1" points="680.96 647.47 680.96 647.47 680.96 647.47 680.96 647.47"/>
    <polygon class="cls-1" points="463.72 623.63 463.72 623.63 463.73 623.63 463.72 623.63"/>
    <polygon class="cls-1" points="190.79 697.81 190.79 697.81 190.79 697.81 190.79 697.81"/>
    <polygon class="cls-1" points="409.58 647.18 400.36 648.44 398.11 651.5 401.64 677.2 404.63 679.46 413.85 678.19 416.11 675.21 412.58 649.51 409.58 647.18"/>
    <polygon class="cls-1" points="429.98 626.31 429.98 626.31 429.99 626.31 429.98 626.31"/>
    <polygon class="cls-1" points="743.34 668.21 743.34 668.21 743.34 668.21 743.34 668.21"/>
    <polygon class="cls-1" points="503.63 649.1 503.55 643.07 500.74 640.38 490.8 640.5 490.94 651.97 500.87 651.86 503.63 649.1"/>
    <path class="cls-1" d="M787.48,759.41l-20.91-46.02,49.43-12.04c-2.27-1.2-4.54-2.38-6.79-3.54h0c-2.25-1.16-4.5-2.3-6.74-3.43h0c-2.24-1.13-4.48-2.23-6.71-3.32-2.24-1.09-4.46-2.16-6.68-3.21-2.22-1.05-4.43-2.08-6.64-3.1h0c-2.2-1.02-4.41-2.02-6.61-3h0c-2.19-.98-4.38-1.95-6.57-2.9-2.18-.95-4.36-1.88-6.53-2.8-2.17-.92-4.34-1.82-6.5-2.71h0c-2.16-.89-4.32-1.76-6.46-2.61h0c-2.15-.86-4.29-1.7-6.43-2.52-2.14-.83-4.27-1.64-6.39-2.44h0c-2.13-.8-4.25-1.58-6.36-2.35-2.11-.77-4.22-1.53-6.32-2.27-2.1-.74-4.2-1.47-6.28-2.18h0c-2.09-.72-4.18-1.42-6.26-2.11h0c-2.08-.69-4.15-1.36-6.22-2.02h0c-2.06-.66-4.12-1.31-6.19-1.95h.01c-2.07-.64-4.12-1.26-6.16-1.88-2.04-.61-4.08-1.21-6.12-1.8-2.04-.59-4.07-1.17-6.1-1.73-2.02-.57-4.04-1.12-6.06-1.66h0c-2.02-.54-4.04-1.08-6.04-1.59-2.01-.52-4.01-1.03-6-1.53-2-.5-3.99-.99-5.98-1.46-1.99-.48-3.97-.94-5.95-1.4h.01c-1.98-.46-3.96-.9-5.93-1.34-1.97-.43-3.93-.86-5.89-1.27-1.96-.42-3.92-.82-5.88-1.22h0c-1.96-.39-3.91-.78-5.85-1.15-1.95-.38-3.9-.74-5.83-1.1h0c-1.95-.36-3.88-.7-5.81-1.04-1.93-.34-3.86-.67-5.79-.99-1.91-.32-3.83-.63-5.76-.93-1.92-.3-3.83-.59-5.75-.88-1.91-.28-3.82-.56-5.72-.82-1.91-.27-3.81-.52-5.72-.77h.01c-1.9-.25-3.8-.49-5.7-.72-1.9-.23-3.79-.45-5.67-.67h-.01c-1.88-.21-3.77-.42-5.66-.62-1.88-.2-3.76-.39-5.64-.57h-.01c-1.88-.18-3.75-.35-5.63-.52-1.87-.16-3.75-.32-5.62-.47-1.88-.15-3.75-.29-5.62-.42-1.87-.13-3.74-.26-5.61-.37-1.88-.12-3.74-.23-5.6-.33h-.01c-1.86-.1-3.73-.19-5.59-.28-1.86-.08-3.72-.16-5.58-.23h-.01c-1.85-.07-3.71-.13-5.58-.19-1.85-.05-3.71-.1-5.58-.14-1.86-.04-3.72-.07-5.57-.09-1.86-.02-3.72-.04-5.57-.05-.93,0-1.86,0-2.79,0s-1.86,0-2.79,0c-1.86,0-3.72.02-5.57.05-1.86.02-3.72.05-5.58.09h.01c-1.86.04-3.72.08-5.59.14h.01c-1.87.05-3.73.12-5.58.19h-.01c-1.86.07-3.72.15-5.58.23-1.86.09-3.73.18-5.6.28-1.87.1-3.73.21-5.59.33-1.87.12-3.74.24-5.61.37-1.87.13-3.74.27-5.62.42-1.87.15-3.75.3-5.63.47h0c-1.88.16-3.76.34-5.63.52h-.01c-1.88.18-3.76.37-5.65.57-1.88.2-3.77.4-5.66.62h.01c-1.9.21-3.79.44-5.68.67h.01c-1.9.23-3.8.47-5.71.72h.01c-1.9.25-3.81.5-5.72.77-1.9.27-3.81.54-5.72.82-1.91.28-3.83.58-5.75.88-1.92.3-3.84.61-5.76.93-1.93.32-3.86.65-5.79.99-1.93.34-3.86.68-5.81,1.04h0c-1.94.35-3.88.72-5.84,1.1h0c-1.95.37-3.9.76-5.85,1.16h0c-1.96.39-3.92.8-5.88,1.22h0c-1.97.41-3.94.84-5.9,1.27-1.97.44-3.94.88-5.92,1.34h0c-1.98.46-3.96.92-5.94,1.4-1.99.48-3.98.97-5.98,1.46h.01c-2,.5-4.01,1.01-6.01,1.53-2.01.52-4.02,1.05-6.03,1.6-2.02.54-4.03,1.1-6.05,1.66h-.01c-2.02.57-4.06,1.15-6.09,1.74h0c-2.04.59-4.08,1.19-6.13,1.8-2.05.61-4.1,1.24-6.15,1.88h0c-2.06.64-4.12,1.29-6.19,1.95h0c-2.06.66-4.14,1.34-6.22,2.03h.01c-2.08.69-4.17,1.39-6.26,2.1h0c-2.09.71-4.18,1.44-6.29,2.18-2.1.74-4.21,1.5-6.32,2.27-2.11.77-4.23,1.55-6.35,2.35h0c-2.13.8-4.26,1.61-6.39,2.44h0c-2.13.83-4.27,1.67-6.42,2.53h0c-2.14.86-4.29,1.73-6.46,2.61h0c-2.15.89-4.32,1.79-6.5,2.71h.01c-2.17.92-4.35,1.85-6.53,2.8-2.19.95-4.38,1.92-6.57,2.9h0c-2.2.99-4.4,1.99-6.6,3h0c-2.21,1.02-4.42,2.05-6.64,3.1-2.22,1.05-4.45,2.12-6.68,3.21h0c-2.24,1.09-4.47,2.19-6.72,3.31h0c-2.24,1.12-4.49,2.27-6.75,3.43-2.26,1.16-4.52,2.34-6.79,3.54l43.89,12.62-15.37,45.44c2.06-1.09,4.12-2.16,6.17-3.22h0c2.05-1.06,4.1-2.1,6.14-3.12h0c2.05-1.02,4.08-2.03,6.11-3.01h0c2.03-.99,4.06-1.97,6.07-2.92,2.02-.96,4.03-1.9,6.04-2.82h0c2.01-.93,4.02-1.84,6.01-2.73h0c2-.89,3.99-1.77,5.98-2.64,1.99-.87,3.97-1.72,5.94-2.55h.01c1.97-.84,3.94-1.66,5.91-2.47h0c1.96-.8,3.92-1.6,5.88-2.38h0c1.95-.78,3.9-1.54,5.85-2.3h0c1.95-.75,3.88-1.49,5.81-2.21h0c1.93-.72,3.86-1.44,5.78-2.14,1.92-.7,3.84-1.39,5.75-2.06,1.91-.67,3.81-1.34,5.72-1.99h0c1.9-.65,3.79-1.29,5.68-1.91h.01c1.89-.63,3.77-1.24,5.66-1.85h0c1.89-.6,3.76-1.19,5.63-1.77h0c1.87-.58,3.74-1.15,5.6-1.71,1.86-.56,3.72-1.1,5.57-1.64h0c1.85-.54,3.7-1.06,5.54-1.58h-.01c1.85-.51,3.69-1.02,5.52-1.51,1.84-.49,3.67-.98,5.49-1.45,1.83-.47,3.64-.94,5.45-1.39h.01c1.81-.46,3.62-.9,5.43-1.33,1.81-.43,3.62-.86,5.42-1.28h0c1.8-.41,3.6-.82,5.39-1.21,1.8-.4,3.59-.78,5.36-1.16h0c1.78-.38,3.56-.75,5.33-1.1h0c1.77-.36,3.55-.71,5.32-1.05h0c1.77-.34,3.53-.68,5.29-1h0c1.76-.32,3.51-.64,5.27-.95,1.76-.31,3.51-.61,5.26-.9,1.75-.29,3.5-.57,5.25-.85,1.75-.27,3.49-.54,5.23-.8s3.48-.51,5.21-.75c1.73-.24,3.46-.48,5.18-.7h.01c1.72-.23,3.45-.44,5.17-.65h.01c1.72-.21,3.44-.41,5.16-.61h.01c1.71-.2,3.43-.38,5.14-.56h.01c1.71-.18,3.42-.35,5.14-.52h-.01c1.72-.16,3.43-.32,5.13-.47h0c1.7-.15,3.4-.29,5.11-.43,1.7-.14,3.4-.26,5.11-.38,1.71-.12,3.41-.23,5.1-.34,1.7-.11,3.4-.21,5.09-.3h.01c1.69-.09,3.39-.18,5.08-.25,1.7-.08,3.39-.15,5.09-.21h-.01c1.7-.06,3.4-.12,5.08-.17h.01c1.69-.05,3.37-.09,5.07-.13h.01c1.68-.04,3.37-.06,5.06-.08,1.69-.02,3.38-.04,5.07-.04.85,0,1.69,0,2.54,0s1.69,0,2.53,0c1.69,0,3.38.02,5.07.04,1.69.02,3.38.05,5.07.08,1.69.03,3.38.08,5.08.13,1.69.05,3.38.1,5.08.17h-.01c1.69.06,3.39.13,5.09.21,1.7.08,3.39.16,5.09.25,1.7.09,3.4.19,5.08.3h.01c1.7.11,3.4.22,5.1.34,1.71.12,3.41.25,5.11.38,1.7.13,3.41.28,5.12.43,1.71.15,3.42.31,5.13.47h-.01c1.71.16,3.43.34,5.15.52,1.71.18,3.42.37,5.15.56h-.01c1.73.19,3.45.4,5.17.61,1.73.21,3.45.43,5.18.65h.01c1.72.23,3.45.46,5.18.7,1.74.24,3.48.49,5.21.75,1.74.26,3.48.52,5.22.8,1.74.27,3.49.56,5.25.85,1.75.29,3.5.59,5.26.9,1.76.31,3.52.62,5.27.95h0c1.76.33,3.53.66,5.29,1h0c1.77.34,3.54.69,5.32,1.05h0c1.77.36,3.55.73,5.33,1.11,1.79.38,3.58.77,5.37,1.16,1.79.4,3.58.8,5.38,1.21h.01c1.79.42,3.6.84,5.41,1.27,1.8.43,3.62.88,5.43,1.33,1.81.45,3.64.92,5.46,1.39,1.83.47,3.65.96,5.48,1.45h0c1.83.5,3.67,1,5.52,1.51h0c1.84.51,3.68,1.04,5.53,1.58,1.85.54,3.71,1.08,5.57,1.64,1.87.56,3.73,1.13,5.59,1.71h.01c1.87.58,3.74,1.17,5.63,1.78h0c1.89.6,3.77,1.22,5.66,1.84h0c1.89.63,3.78,1.27,5.68,1.92h0c1.91.65,3.81,1.31,5.72,1.99,1.91.68,3.83,1.36,5.75,2.06,1.93.7,3.85,1.41,5.77,2.14h0c1.93.73,3.87,1.47,5.81,2.22h0c1.94.75,3.89,1.52,5.84,2.3h0c1.96.78,3.91,1.57,5.87,2.38h0c1.96.81,3.93,1.63,5.91,2.47,1.98.84,3.96,1.69,5.94,2.55,1.98.86,3.97,1.74,5.97,2.64h0c1.99.89,3.99,1.8,6.01,2.73h0c2.01.92,4.02,1.86,6.04,2.82,2.02.96,4.05,1.93,6.07,2.92,2.04.99,4.07,2,6.12,3.02h0c2.04,1.02,4.09,2.06,6.15,3.12,2.06,1.06,4.11,2.13,6.17,3.22ZM372.72,655.63l-.52-2.83-7.14,1.31,5.64,30.8,2.89-.53,1.2,6.57-14.75,2.7-1.2-6.57,2.89-.53-5.64-30.8-7.21,1.32.43,2.34.09.49-6.49,1.19-1.72-9.4,36.37-6.66,1.72,9.39-6.56,1.2ZM419.75,684.12l-19,2.61-.21.03-7.59-5.76-4.25-30.89,5.75-7.6,19.2-2.64,7.59,5.76,4.25,30.89-5.75,7.59ZM469.73,672.49l-6.22,7.28-19.24,1.6-7.27-6.16-2.59-31.14-2.93.24-.55-6.65,14.88-1.24.55,6.65-2.93.24,2.38,28.55,2.99,2.42,9.15-.76,2.48-2.87-2.38-28.56-2.93.24-.56-6.65,14.88-1.24.55,6.66-2.86.24,2.59,31.14ZM503.98,678.33l-.21-17.11-2.82-2.76-9.93.12.16,13.23,2.94-.03.07,6.18v.5s-14.92.18-14.92.18l-.08-6.68,2.94-.04-.38-31.31-2.94.04-.08-6.68,27.02-.32,6.81,6.66.13,10.5-4.15,4.26,4.25,4.16.15,12.32,2.94-.04.08,6.68-11.99.14ZM566.11,643.83l-2.93-.24-2.51,31.21,2.93.24-.54,6.65-12.36-1-14.67-29.55-1.73,21.53,2.93.24-.5,6.16-.04.5-14.88-1.2.54-6.65,2.93.24,2.51-31.21-2.93-.24.54-6.65,12.01.97,14.97,30.2,1.79-22.15-2.93-.24.54-6.65,14.88,1.2-.54,6.65ZM605.54,651.37l-6.53-.93.28-1.94-12.87-1.83-1.74,12.26,6.29.89.27-1.94,6.6.94-1.47,10.36-6.6-.94.26-1.87-6.29-.89-1.73,12.19,12.87,1.82.28-1.94,6.53.93-1.14,8.06-.07.5-31.27-4.43.94-6.61,2.91.41,4.39-31-2.91-.41.93-6.61,31.27,4.43-1.21,8.55ZM657.56,658.99l-2.6-.5-17.65,14-2.67,13.99,2.89.55-1.35,7.04-14.59-2.79,1.35-7.04,2.82.54,2.67-13.99-11.18-19.51-3.29-.63,1.25-6.56,18.51,3.54-1.25,6.56-3.75-.72,5.57,10.86,9.06-8.06-3.69-.7,1.25-6.56,17.89,3.42-1.25,6.56Z"/>
  </g>
</svg>