<?xml version="1.0" encoding="UTF-8"?>
<svg id="Layer_1" data-name="Layer 1" xmlns="http://www.w3.org/2000/svg" viewBox="0 0 1000 1000">
  <defs>
    <style>
      .cls-1 {
        fill: #fff;
      }
    </style>
  </defs>
  <polygon class="cls-1" points="412.12 364.2 401.34 353.66 362.24 353.66 362.24 398.44 401.34 398.44 412.12 387.9 412.12 364.2"/>
  <polygon class="cls-1" points="362.24 426.93 362.24 478.81 401.36 478.81 412.12 468.53 412.13 437.73 401.32 426.93 362.24 426.93"/>
  <g>
    <path class="cls-1" d="M283.03,570.79h-.01c2.35-.68,4.7-1.34,7.03-2h.01c2.33-.65,4.66-1.29,6.99-1.92,2.32-.63,4.65-1.24,6.96-1.84,2.31-.6,4.63-1.19,6.94-1.77h-.01c2.31-.57,4.61-1.14,6.9-1.69,2.29-.55,4.58-1.09,6.86-1.61h.01c2.28-.53,4.56-1.04,6.84-1.55,2.27-.5,4.53-.99,6.81-1.47,0,0,0,0,0,0h.01s0,0,0,0c2.26-.48,4.53-.95,6.78-1.4h-.01c2.26-.45,4.51-.9,6.76-1.33h0c2.25-.43,4.5-.86,6.74-1.27h-.01c2.25-.41,4.48-.81,6.71-1.2,2.23-.39,4.45-.77,6.68-1.14,2.22-.37,4.44-.73,6.65-1.07,2.21-.35,4.42-.69,6.63-1.01,2.21-.33,4.41-.64,6.6-.95,2.2-.31,4.4-.6,6.6-.89h-.01c2.2-.29,4.39-.56,6.59-.83h-.01c2.19-.27,4.37-.52,6.56-.77h-.01c2.19-.25,4.37-.48,6.55-.71h-.01c2.19-.23,4.36-.45,6.53-.65h.01c2.17-.21,4.33-.41,6.5-.6h-.01c2.18-.19,4.35-.37,6.5-.54,2.17-.17,4.33-.33,6.48-.49,2.16-.15,4.31-.3,6.48-.43,2.15-.13,4.3-.26,6.46-.38,0,0,0,0,.01,0h0c2.16-.12,4.3-.22,6.45-.32,2.15-.1,4.3-.19,6.45-.27h.01c2.14-.08,4.29-.15,6.44-.21h-.01c2.15-.06,4.3-.12,6.45-.16h-.01c2.15-.05,4.3-.08,6.45-.11,2.14-.03,4.29-.04,6.43-.05,1.07,0,2.14,0,3.22,0s2.14,0,3.22,0c2.14,0,4.29.03,6.43.05,2.15.03,4.29.06,6.44.11,2.15.04,4.3.1,6.44.16,2.15.06,4.3.13,6.44.21h.01c2.15.08,4.3.17,6.45.27,2.15.1,4.3.21,6.45.32h.01c2.14.12,4.29.24,6.46.38,2.15.13,4.31.28,6.47.43,2.16.15,4.32.32,6.48.49s4.33.35,6.49.54c2.17.19,4.34.39,6.5.6h.01c2.17.21,4.34.43,6.51.66,2.18.23,4.36.47,6.54.71h.01c2.17.25,4.36.51,6.55.77,2.18.27,4.37.54,6.57.83,2.2.29,4.4.58,6.6.89,2.19.31,4.4.62,6.6.95,2.21.33,4.42.66,6.63,1.01,2.22.35,4.44.71,6.65,1.07,2.23.37,4.45.75,6.68,1.14,2.23.39,4.46.79,6.71,1.2h-.01c2.24.41,4.48.83,6.73,1.27,0,0,0,0,0,0h.01s0,0,0,0c2.24.43,4.49.88,6.75,1.33h0c2.26.45,4.52.92,6.79,1.4,2.26.48,4.53.97,6.8,1.47,2.27.5,4.56,1.02,6.85,1.55h-.01c2.29.52,4.58,1.06,6.87,1.61,2.3.55,4.6,1.11,6.9,1.69,2.3.58,4.61,1.16,6.93,1.76,2.31.6,4.64,1.21,6.97,1.84h0c2.33.62,4.66,1.26,7,1.92,2.34.65,4.69,1.32,7.04,2,2.35.68,4.7,1.37,7.06,2.08.09.03.18.05.26.08v-274.98h-444.45v274.36c1.75-.52,3.5-1.04,5.24-1.54ZM485.11,478.81h11.93v-125.15h-11.93v-28.77h48.82l53.17,88.42,52.61-88.42h49.11v28.77h-11.93v125.15h11.93v28.77h-62.28v-28.77h11.64v-86.34s-51.06,85.46-51.06,85.46l-51.65-85.55v86.43h11.93v28.77h-62.29v-28.77ZM311.88,478.81h11.93s0-125.15,0-125.15h-11.93v-28.77h110.86l27.82,27.82v43.28l-16.7,16.7,16.7,16.7v50.39l-26.97,26.97-.84.85h-110.86v-28.77Z"/>
    <path class="cls-1" d="M638.92,645.54h0c-2.05-.42-4.09-.82-6.14-1.21h-.01c-2.04-.4-4.07-.78-6.11-1.15h-.01c-2.03-.37-4.06-.74-6.09-1.09-2.03-.36-4.05-.7-6.07-1.03-2.03-.34-4.05-.66-6.06-.98-2.01-.32-4.03-.62-6.03-.92-2.01-.3-4.01-.59-6.02-.87-2-.28-3.99-.55-5.99-.81h-.01c-1.99-.26-3.98-.51-5.98-.76-1.98-.24-3.97-.48-5.97-.7h.01c-1.99-.22-3.98-.44-5.95-.65-1.99-.21-3.97-.41-5.94-.6h.01c-1.98-.19-3.96-.37-5.93-.54-1.98-.17-3.95-.34-5.91-.49-1.96-.16-3.93-.3-5.9-.44-1.96-.14-3.92-.27-5.89-.39h-.01c-1.94-.12-3.9-.24-5.87-.34-1.96-.11-3.92-.2-5.88-.29-1.96-.09-3.92-.17-5.87-.24h.01c-1.96-.07-3.92-.14-5.87-.19-1.96-.06-3.91-.11-5.86-.15-1.95-.04-3.91-.07-5.86-.1-1.95-.02-3.9-.04-5.86-.05-.97,0-1.95,0-2.93,0s-1.95,0-2.93,0c-1.95,0-3.9.02-5.85.05-1.95.02-3.9.06-5.84.1h-.01c-1.95.04-3.9.09-5.85.15h-.01c-1.95.06-3.9.12-5.87.2h.01c-1.96.07-3.91.15-5.87.24-1.96.09-3.91.19-5.87.29h-.01c-1.95.11-3.91.22-5.88.34-1.96.12-3.92.25-5.89.39-1.97.14-3.93.29-5.9.44-1.97.16-3.94.32-5.9.49h-.01c-1.97.17-3.94.36-5.93.55-1.98.19-3.95.39-5.92.6h-.01c-1.98.21-3.96.42-5.94.65h-.01c-1.98.23-3.96.46-5.95.7h-.01c-1.98.24-3.97.49-5.96.75h-.01c-1.99.26-3.99.53-5.98.81-2.01.28-4.01.57-6.02.87-2.01.3-4.02.6-6.03.92-2.01.32-4.03.64-6.06.98-2.02.33-4.04.68-6.07,1.03-2.03.35-4.06.72-6.09,1.09h-.01c-2.03.38-4.07.76-6.11,1.15h0c-2.04.4-4.09.8-6.14,1.22h-.01c-1.28.26-2.57.53-3.85.8l144.85,55.68,144.12-55.4c-1.74-.37-3.48-.73-5.21-1.08Z"/>
  </g>
  <g>
    <polygon class="cls-1" points="406.56 575.82 395.92 577.29 393.32 580.81 397.4 610.48 400.84 613.09 411.49 611.63 414.1 608.18 410.02 578.51 406.56 575.82"/>
    <polygon class="cls-1" points="515.13 578.04 515.05 571.08 511.8 567.98 500.33 568.12 500.49 581.36 511.95 581.23 515.13 578.04"/>
    <path class="cls-1" d="M778.81,599.58c-1.58-.6-3.16-1.21-4.72-1.8h0c-2.46-.92-4.91-1.83-7.34-2.71-2.44-.89-4.87-1.76-7.29-2.62-2.43-.86-4.85-1.7-7.25-2.52h0c-2.41-.83-4.82-1.64-7.22-2.43h0c-2.4-.79-4.8-1.57-7.18-2.34h0c-2.38-.77-4.76-1.52-7.14-2.25h.01c-2.39-.74-4.76-1.46-7.11-2.16-2.36-.71-4.72-1.4-7.06-2.08-2.35-.68-4.7-1.35-7.04-2-2.34-.65-4.67-1.29-7-1.92h0c-2.34-.63-4.66-1.24-6.97-1.84-2.32-.6-4.63-1.19-6.93-1.76-2.31-.58-4.61-1.14-6.9-1.69-2.29-.55-4.58-1.09-6.87-1.62h.01c-2.29-.53-4.57-1.04-6.85-1.54-2.28-.5-4.54-.99-6.8-1.47-2.27-.48-4.53-.95-6.79-1.4h0c-2.26-.46-4.51-.9-6.75-1.33-2.25-.44-4.5-.86-6.73-1.27h.01c-2.25-.41-4.48-.81-6.71-1.2-2.22-.39-4.45-.77-6.68-1.14-2.21-.37-4.43-.72-6.65-1.07-2.21-.35-4.42-.68-6.63-1.01-2.21-.33-4.41-.64-6.6-.95-2.2-.31-4.4-.6-6.6-.89-2.2-.29-4.38-.56-6.57-.83-2.19-.27-4.38-.52-6.55-.77h-.01c-2.17-.25-4.35-.49-6.54-.71-2.17-.23-4.34-.45-6.51-.66h-.01c-2.17-.21-4.33-.41-6.5-.6-2.16-.19-4.33-.37-6.49-.54s-4.33-.33-6.48-.49c-2.16-.15-4.32-.3-6.47-.43-2.17-.14-4.32-.26-6.46-.38h-.01c-2.15-.12-4.3-.22-6.45-.32-2.15-.1-4.3-.19-6.45-.27h-.01c-2.14-.08-4.29-.15-6.44-.21-2.14-.06-4.28-.12-6.44-.16-2.14-.04-4.29-.08-6.44-.11-2.14-.03-4.29-.04-6.43-.05-1.07,0-2.14,0-3.22,0s-2.14,0-3.22,0c-2.14,0-4.29.03-6.43.05-2.14.03-4.29.06-6.45.11h.01c-2.15.04-4.3.1-6.45.16h.01c-2.15.06-4.3.13-6.44.21h-.01c-2.15.08-4.3.17-6.45.27-2.15.1-4.3.21-6.46.32-2.16.12-4.31.24-6.46.38-2.16.14-4.32.28-6.48.43s-4.32.32-6.48.49c-2.16.17-4.33.35-6.5.54h.01c-2.17.19-4.34.39-6.5.6h-.01c-2.17.21-4.34.43-6.53.66h.01c-2.18.23-4.36.46-6.55.71h.01c-2.19.25-4.38.5-6.56.77h.01c-2.19.27-4.39.54-6.59.83h.01c-2.2.28-4.4.58-6.6.89-2.19.31-4.4.62-6.6.95-2.21.33-4.42.66-6.63,1.01-2.21.35-4.43.71-6.65,1.07-2.23.37-4.45.75-6.68,1.14-2.22.39-4.46.79-6.71,1.2h.01c-2.24.41-4.48.83-6.74,1.27h0c-2.25.43-4.5.88-6.76,1.33h.01c-2.26.45-4.52.92-6.78,1.4-2.27.48-4.54.97-6.81,1.47-2.27.5-4.55,1.02-6.84,1.54h-.01c-2.28.53-4.57,1.07-6.86,1.62-2.3.55-4.6,1.11-6.9,1.69h.01c-2.31.57-4.63,1.16-6.94,1.76-2.32.6-4.64,1.22-6.96,1.84-2.33.63-4.66,1.27-6.99,1.92h-.01c-2.34.66-4.68,1.32-7.03,2h.01c-2.35.68-4.71,1.37-7.08,2.08-2.36.71-4.73,1.43-7.1,2.17h0c-2.38.74-4.76,1.49-7.14,2.25h0c-2.38.77-4.77,1.55-7.18,2.34h.01c-2.4.79-4.81,1.6-7.23,2.43h0c-2.41.82-4.83,1.66-7.26,2.52-2.42.86-4.85,1.73-7.29,2.62-2.43.89-4.88,1.79-7.33,2.71h0c-1.94.73-3.88,1.47-5.82,2.22l56.88,19.55-29.89,50.31c1.17-.45,2.35-.9,3.52-1.34h0c2.23-.84,4.45-1.66,6.68-2.47,2.22-.81,4.43-1.6,6.64-2.38,2.2-.78,4.4-1.54,6.6-2.29h0c2.19-.75,4.38-1.49,6.55-2.21h.01c2.18-.73,4.35-1.43,6.53-2.13h0c2.18-.69,4.34-1.38,6.5-2.05h0c2.16-.67,4.31-1.33,6.46-1.97,2.15-.64,4.29-1.27,6.42-1.89h.01c2.14-.62,4.27-1.23,6.39-1.82h-.01c2.14-.59,4.26-1.18,6.38-1.74,2.12-.57,4.23-1.13,6.34-1.68,2.11-.55,4.21-1.08,6.3-1.6h.01c2.09-.53,4.18-1.04,6.27-1.54,2.09-.5,4.18-.99,6.26-1.47h-.01c2.08-.48,4.15-.94,6.22-1.4,2.08-.46,4.14-.9,6.19-1.34h.01c2.06-.44,4.11-.86,6.16-1.28h.01c2.05-.42,4.09-.82,6.14-1.21h0c2.04-.4,4.07-.78,6.11-1.15h.01c2.03-.37,4.06-.74,6.09-1.09,2.03-.36,4.06-.7,6.07-1.03,2.02-.34,4.04-.66,6.06-.98,2.01-.32,4.03-.62,6.03-.92,2.01-.3,4.01-.59,6.02-.87,2-.28,3.99-.55,5.98-.81h.01c1.99-.26,3.98-.51,5.96-.76h.01c1.99-.24,3.97-.48,5.95-.7h.01c1.98-.23,3.96-.44,5.94-.65h.01c1.97-.21,3.94-.41,5.92-.6,1.98-.19,3.96-.37,5.93-.54h.01c1.96-.17,3.93-.34,5.9-.49,1.96-.16,3.93-.3,5.9-.44,1.97-.14,3.93-.27,5.89-.39,1.96-.12,3.92-.24,5.88-.34h.01c1.95-.11,3.91-.2,5.87-.29,1.96-.09,3.91-.17,5.87-.24h-.01c1.96-.07,3.92-.14,5.87-.19h.01c1.95-.06,3.9-.1,5.85-.15h.01c1.94-.04,3.89-.07,5.84-.1,1.95-.02,3.9-.04,5.85-.05.98,0,1.95,0,2.93,0s1.95,0,2.93,0c1.95,0,3.9.02,5.86.05,1.95.02,3.91.06,5.86.1,1.95.04,3.9.09,5.86.15,1.95.06,3.9.12,5.87.2h-.01c1.96.07,3.91.15,5.87.24,1.96.09,3.92.19,5.88.29,1.97.11,3.92.22,5.87.34h.01c1.96.12,3.93.25,5.89.39,1.97.14,3.94.29,5.9.44,1.97.16,3.94.32,5.91.49,1.97.17,3.95.35,5.93.54h-.01c1.97.19,3.96.39,5.94.6,1.97.21,3.95.42,5.95.65h-.01c1.99.22,3.98.46,5.97.7,1.99.24,3.98.49,5.98.75h.01c1.99.26,3.99.53,5.99.81,2.01.28,4.01.57,6.02.87,2.01.3,4.02.6,6.03.92,2.01.32,4.03.64,6.06.98,2.02.33,4.04.68,6.07,1.03,2.03.36,4.06.72,6.09,1.09h.01c2.03.38,4.07.76,6.11,1.15h.01c2.05.4,4.09.8,6.14,1.22h0c2.05.42,4.1.84,6.16,1.28,2.06.44,4.13.88,6.2,1.34,2.07.46,4.14.92,6.21,1.4h.01c2.07.48,4.15.97,6.25,1.47,2.08.5,4.17,1.01,6.27,1.54,2.09.52,4.2,1.06,6.31,1.61,2.11.55,4.22,1.1,6.32,1.67h0c2.11.57,4.24,1.15,6.37,1.75h0c2.12.59,4.25,1.2,6.38,1.82,2.14.62,4.28,1.25,6.43,1.89,2.16.65,4.31,1.3,6.46,1.97h.01c2.15.67,4.32,1.36,6.5,2.05h0c2.18.7,4.35,1.4,6.53,2.13h0c2.18.72,4.37,1.46,6.56,2.21h0c2.2.75,4.4,1.52,6.6,2.29,2.21.78,4.42,1.57,6.64,2.38,2.23.81,4.45,1.63,6.67,2.47h0c2.1.79,4.2,1.59,6.3,2.41l-31.27-52.64,54.39-18.69ZM364.01,585.59l-.6-3.26-8.24,1.51,6.51,35.55,3.34-.61,1.39,7.58-17.03,3.12-1.39-7.58,3.34-.61-6.51-35.55-8.32,1.52.49,2.7.1.57-7.49,1.37-1.99-10.85,41.99-7.68,1.99,10.84-7.57,1.39ZM418.3,618.47l-21.93,3.02-.24.03-8.76-6.65-4.9-35.66,6.64-8.77,22.17-3.05,8.76,6.65,4.9,35.66-6.64,8.77ZM476,605.05l-7.18,8.41-22.21,1.85-8.39-7.11-2.99-35.95-3.38.28-.64-7.68,17.17-1.43.64,7.68-3.38.28,2.74,32.96,3.45,2.79,10.57-.88,2.87-3.31-2.74-32.97-3.38.28-.64-7.68,17.17-1.43.64,7.68-3.3.27,2.99,35.95ZM515.53,611.79l-.24-19.75-3.25-3.18-11.46.14.18,15.27,3.39-.04.09,7.13v.58s-17.23.21-17.23.21l-.09-7.71,3.39-.04-.43-36.14-3.39.04-.09-7.71,31.19-.37,7.86,7.69.15,12.13-4.8,4.92,4.91,4.8.17,14.22,3.39-.04.09,7.71-13.84.17ZM587.26,571.96l-3.38-.27-2.9,36.03,3.38.27-.62,7.68-14.27-1.15-16.93-34.11-2,24.85,3.38.27-.57,7.11-.05.57-17.18-1.39.62-7.68,3.38.27,2.9-36.03-3.38-.27.62-7.68,13.87,1.12,17.28,34.87,2.06-25.57-3.38-.27.62-7.68,17.18,1.39-.62,7.68ZM632.78,580.66l-7.54-1.07.32-2.24-14.86-2.11-2.01,14.16,7.26,1.03.32-2.24,7.62,1.08-1.69,11.96-7.62-1.08.31-2.16-7.26-1.03-2,14.08,14.86,2.11.32-2.24,7.54,1.07-1.32,9.3-.08.57-36.1-5.12,1.08-7.63,3.36.48,5.07-35.79-3.36-.48,1.08-7.63,36.1,5.12-1.4,9.88ZM691.05,591.8l-2.97-.72-21.13,15.16-3.87,15.98,3.3.8-1.95,8.04-16.67-4.03,1.95-8.04,3.22.78,3.86-15.98-11.79-23.12-3.76-.91,1.81-7.49,21.15,5.12-1.81,7.49-4.28-1.04,5.82,12.83,10.9-8.79-4.21-1.02,1.81-7.49,20.44,4.95-1.81,7.49Z"/>
  </g>
</svg>