<?xml version="1.0" encoding="UTF-8"?>
<svg id="Layer_1" data-name="Layer 1" xmlns="http://www.w3.org/2000/svg" viewBox="0 0 1000 1000">
  <defs>
    <style>
      .cls-1 {
        fill: #2c8a58;
      }

      .cls-2 {
        fill: #007b49;
      }

      .cls-3 {
        fill: #ffda00;
      }
    </style>
  </defs>
  <g>
    <polygon class="cls-1" points="202.67 623.55 499.72 747.13 797.33 623.55 202.67 623.55"/>
    <g>
      <path class="cls-1" d="M600.87,273.09v-10.25h29.75v115.25h-10.5v20.25h50v-20.25h-10.5v-115.25h29.5v10.25h20.25v-30.5h-128.5v30.5h20ZM552.38,398.34v-27.25h-20v7h-50v-47.5h26.25v6.75h20.25v-33.75h-20.25v7h-26.25v-47.75h50v7h20v-27.25h-109.25v20.25h10.5v115.25h-10.5v20.25h109.25ZM329.88,307.34v-44.5h38l11,10.75v23l-11,10.75h-38ZM329.88,378.09v-50.75h38l11,11v29.25l-11,10.5h-38ZM384.63,398.34l23-23v-42.25l-15.75-15.75,15.75-15.75v-36l-23-23h-94v20.25h10.5v115.25h-10.5v20.25h94Z"/>
      <path class="cls-1" d="M600.87,273.09h2.5v-7.75h24.75v110.25h-10.5v25.25h55v-25.25h-10.5v-110.25h24.5v10.25h25.25v-35.5h-133.5v35.5h25v-2.5h-2.5v-2.5h-17.5v-25.5h123.5v25.5h-15.25v-10.25h-34.5v120.25h10.5v15.25h-45v-15.25h10.5v-120.25h-34.75v12.75h2.5v-2.5,2.5ZM552.38,398.34h2.5v-29.75h-25v7h-45v-42.5h21.25v6.75h25.25v-38.75h-25.25v7h-21.25v-42.75h45v7h25v-32.25h-114.25v25.25h10.5v110.25h-10.5v25.25h114.25v-2.5h-2.5v-2.5h-106.75v-15.25h10.5v-120.25h-10.5v-15.25h104.25v22.25h-15v-7h-55v52.75h31.25v-7h15.25v28.75h-15.25v-6.75h-31.25v52.5h55v-7h15v24.75h2.5v-2.5,2.5ZM329.88,307.34h2.5v-42h34.48l9.52,9.3v20.89l-9.52,9.3h-36.98v2.5h2.5-2.5v2.5h39.02l12.48-12.2v-25.11l-12.48-12.2h-41.52v49.5h2.5v-2.5ZM329.88,378.09h2.5v-48.25h34.46l9.54,9.54v27.15l-9.5,9.07h-37v2.5h2.5-2.5v2.5h39l12.5-11.93v-31.36l-12.46-12.46h-41.54v55.75h2.5v-2.5ZM384.63,398.34l1.77,1.77,23.73-23.73v-44.32l-14.71-14.71,14.71-14.71v-38.07l-24.46-24.46h-97.54v25.25h10.5v110.25h-10.5v25.25h97.54l.73-.73-1.77-1.77v-2.5h-91.5v-15.25h10.5v-120.25h-10.5v-15.25h90.46l21.54,21.54v33.93s-16.79,16.79-16.79,16.79l16.79,16.79v40.18l-22.27,22.27,1.77,1.77v-2.5,2.5Z"/>
    </g>
    <g>
      <path class="cls-1" d="M202.67,423.13v200.42h594.66v-200.42H202.67ZM407.63,465.14h-10.5v115.25h10.5v20.25h-49.75v-20.25h10.25v-87.75l-47.5,79.5-48-79.5v87.75h10.5v20.25h-49.75v-20.25h10.5v-115.25h-10.5v-20.25h39l48.25,80.25,47.75-80.25h39.25v20.25ZM572.13,600.64h-48v-20.25h9.75l-9.25-27.25h-47.75l-9,27.25h9.75v20.25h-47.75v-20.25h7.5l38.5-115.25h-11.25v-20.25h73.75v20.25h-12.25l38.25,115.25h7.75v20.25ZM766.62,465.14h-8.5l-57.75,57.75,57.75,57.5h8.5v20.25h-61.5v-20.25h15.25l-38.75-38.75-39.25,38.75h15.5v20.25h-63.75v-20.25h11l57.75-57.5-57.75-57.75h-11v-20.25h63.75v20.25h-15.5l39.25,39,38.75-39h-15.25v-20.25h61.5v20.25Z"/>
      <polygon class="cls-1" points="481.88 538.89 519.88 538.89 500.88 481.64 481.88 538.89"/>
    </g>
  </g>
  <g>
    <path class="cls-3" d="M212.52,759.91c2.06-1.09,4.12-2.16,6.17-3.22h0c2.05-1.06,4.1-2.1,6.14-3.12h0c2.05-1.02,4.08-2.03,6.11-3.01h0c2.03-.99,4.06-1.97,6.07-2.92,2.02-.96,4.03-1.9,6.04-2.82h0c2.01-.93,4.02-1.84,6.01-2.73h0c2-.89,3.99-1.77,5.98-2.64,1.99-.87,3.97-1.72,5.94-2.55h.01c1.97-.84,3.94-1.66,5.91-2.47h0c1.96-.8,3.92-1.6,5.88-2.38h0c1.95-.78,3.9-1.54,5.85-2.3h0c1.95-.75,3.88-1.49,5.81-2.22h0c1.93-.72,3.86-1.44,5.78-2.14,1.92-.7,3.84-1.39,5.75-2.06,1.91-.67,3.81-1.34,5.72-1.99h0c1.9-.65,3.79-1.29,5.68-1.91h.01c1.88-.63,3.77-1.24,5.66-1.85h0c1.89-.6,3.76-1.19,5.63-1.77h0c1.87-.58,3.74-1.15,5.6-1.71,1.86-.56,3.72-1.1,5.57-1.64h0c1.85-.54,3.7-1.06,5.54-1.58h-.01c1.85-.51,3.69-1.02,5.52-1.51,1.84-.49,3.67-.98,5.49-1.45,1.83-.47,3.64-.94,5.45-1.39h.01c1.81-.46,3.62-.9,5.43-1.33,1.81-.43,3.62-.86,5.42-1.28h0c1.8-.41,3.6-.82,5.39-1.21,1.8-.4,3.59-.78,5.36-1.16h0c1.78-.38,3.56-.75,5.33-1.11h0c1.77-.36,3.55-.71,5.32-1.05h0c1.77-.34,3.53-.67,5.29-1h0c1.76-.32,3.51-.64,5.27-.95,1.76-.31,3.51-.61,5.26-.9,1.75-.29,3.5-.57,5.25-.85,1.75-.27,3.49-.54,5.23-.8s3.48-.51,5.21-.75c1.73-.24,3.46-.47,5.18-.7h.01c1.72-.23,3.45-.44,5.17-.65h.01c1.72-.21,3.44-.41,5.16-.61h.01c1.71-.2,3.43-.38,5.14-.56h.01c1.71-.18,3.42-.35,5.14-.52h-.01c1.72-.16,3.43-.32,5.13-.47h0c1.7-.15,3.4-.29,5.11-.43,1.7-.14,3.4-.26,5.11-.38,1.71-.12,3.4-.23,5.1-.34,1.7-.11,3.4-.21,5.09-.3h.01c1.69-.09,3.39-.18,5.08-.25,1.7-.08,3.39-.15,5.09-.21h-.01c1.7-.06,3.39-.12,5.08-.17h.01c1.69-.05,3.37-.09,5.07-.13h.01c1.68-.04,3.37-.06,5.06-.08,1.69-.02,3.38-.03,5.07-.04.85,0,1.69,0,2.54,0s1.69,0,2.53,0c1.69,0,3.38.02,5.07.04,1.69.02,3.38.05,5.07.08,1.69.03,3.38.08,5.08.13,1.69.05,3.38.11,5.08.17h-.01c1.69.06,3.39.13,5.09.21,1.7.08,3.39.16,5.09.25h-.01c1.71.09,3.4.19,5.09.3h.01c1.7.11,3.4.22,5.1.34,1.71.12,3.41.25,5.11.38,1.7.14,3.41.28,5.12.43,1.71.15,3.42.31,5.13.47h-.01c1.71.16,3.43.34,5.15.52,1.71.18,3.42.37,5.15.56h-.01c1.73.19,3.45.4,5.17.61,1.73.21,3.45.43,5.18.65h.01c1.72.23,3.45.46,5.18.7,1.74.24,3.48.49,5.21.75s3.48.52,5.23.8c1.74.27,3.49.56,5.25.85,1.75.29,3.5.59,5.26.9,1.76.31,3.52.62,5.27.95h0c1.76.33,3.53.66,5.29,1h0c1.77.34,3.54.69,5.32,1.05h0c1.77.36,3.55.73,5.33,1.11,1.79.38,3.58.77,5.37,1.16,1.79.4,3.58.8,5.38,1.21h.01c1.79.42,3.6.84,5.41,1.27,1.8.43,3.62.88,5.43,1.33,1.81.45,3.64.92,5.46,1.39,1.83.47,3.65.96,5.48,1.45h0c1.83.5,3.67,1,5.52,1.52h0c1.84.51,3.68,1.04,5.53,1.58,1.85.54,3.71,1.08,5.57,1.64,1.87.56,3.73,1.13,5.59,1.71h.01c1.87.58,3.74,1.17,5.63,1.78h0c1.89.6,3.77,1.22,5.66,1.84h0c1.89.63,3.78,1.26,5.68,1.92h0c1.91.65,3.81,1.31,5.72,1.99,1.91.68,3.83,1.36,5.75,2.06,1.93.7,3.85,1.41,5.77,2.14h0c1.93.73,3.87,1.47,5.81,2.22h0c1.94.75,3.89,1.52,5.84,2.3h0c1.96.78,3.91,1.57,5.87,2.38h0c1.96.81,3.93,1.63,5.91,2.47,1.98.84,3.96,1.69,5.94,2.55,1.98.86,3.97,1.74,5.97,2.64h0c1.99.89,3.99,1.8,6.01,2.73h0c2.01.92,4.02,1.87,6.04,2.82,2.02.96,4.05,1.93,6.07,2.92,2.04.99,4.07,2,6.12,3.02h0c2.04,1.02,4.09,2.06,6.15,3.12h0c2.06,1.05,4.12,2.13,6.18,3.22l-20.91-46.02,49.43-12.04c-2.27-1.2-4.54-2.38-6.79-3.54h0c-2.25-1.16-4.5-2.3-6.74-3.43h0c-2.24-1.13-4.48-2.23-6.71-3.32-2.24-1.09-4.46-2.16-6.68-3.21-2.22-1.05-4.43-2.09-6.64-3.1h0c-2.2-1.02-4.41-2.02-6.61-3h0c-2.19-.98-4.38-1.95-6.57-2.9-2.18-.95-4.36-1.88-6.53-2.8-2.17-.92-4.34-1.82-6.5-2.71h0c-2.16-.89-4.32-1.76-6.46-2.61h0c-2.15-.86-4.29-1.7-6.43-2.53h0c-2.14-.83-4.27-1.64-6.39-2.44h0c-2.13-.8-4.25-1.58-6.36-2.35-2.11-.77-4.22-1.53-6.32-2.27-2.1-.74-4.2-1.47-6.28-2.18h0c-2.09-.72-4.18-1.42-6.26-2.11h0c-2.08-.69-4.15-1.36-6.22-2.02h0c-2.06-.66-4.12-1.31-6.19-1.95h.01c-2.07-.64-4.12-1.26-6.16-1.88-2.04-.61-4.08-1.21-6.12-1.8-2.04-.59-4.07-1.17-6.1-1.73h0c-2.02-.56-4.04-1.12-6.06-1.66h0c-2.02-.54-4.04-1.08-6.04-1.59-2.01-.52-4.01-1.03-6-1.53-2-.5-3.99-.99-5.98-1.46-1.99-.48-3.97-.94-5.95-1.4h.01c-1.98-.46-3.96-.9-5.93-1.34-1.97-.44-3.93-.86-5.89-1.27-1.96-.42-3.92-.82-5.88-1.22h0c-1.96-.4-3.91-.78-5.85-1.16h0c-1.95-.38-3.9-.74-5.84-1.1h0c-1.95-.36-3.88-.7-5.81-1.04-1.93-.34-3.86-.67-5.79-.99-1.91-.32-3.83-.63-5.76-.93-1.92-.3-3.83-.59-5.75-.88-1.91-.28-3.82-.56-5.72-.82-1.91-.27-3.81-.52-5.72-.77h.01c-1.9-.25-3.8-.49-5.7-.72-1.9-.23-3.79-.45-5.67-.67h-.01c-1.88-.21-3.77-.42-5.66-.62-1.88-.2-3.76-.39-5.64-.57h-.01c-1.88-.18-3.75-.35-5.63-.52-1.87-.16-3.75-.32-5.62-.47-1.88-.15-3.75-.29-5.62-.42-1.87-.13-3.74-.26-5.61-.37h.01c-1.88-.12-3.75-.23-5.6-.33h-.01c-1.86-.1-3.73-.19-5.59-.28-1.86-.09-3.72-.16-5.58-.23h-.01c-1.85-.07-3.71-.13-5.58-.19-1.85-.05-3.71-.1-5.58-.14-1.86-.04-3.72-.07-5.57-.09-1.86-.02-3.72-.04-5.57-.05-.93,0-1.86,0-2.79,0s-1.86,0-2.79,0c-1.86,0-3.72.02-5.57.05-1.86.02-3.72.05-5.58.09h.01c-1.86.04-3.72.08-5.59.14h.01c-1.87.05-3.73.12-5.58.18h-.01c-1.86.07-3.72.15-5.58.23-1.86.09-3.73.18-5.6.28h.01c-1.87.1-3.74.21-5.6.33-1.87.12-3.74.24-5.61.37-1.87.13-3.74.27-5.62.42-1.87.15-3.75.3-5.63.47h0c-1.88.16-3.76.34-5.63.52h-.01c-1.88.18-3.76.37-5.65.57h.01c-1.89.2-3.78.4-5.67.62h.01c-1.9.21-3.79.44-5.68.67h.01c-1.9.23-3.8.47-5.71.72h.01c-1.9.25-3.81.5-5.72.77-1.9.27-3.81.54-5.72.82-1.91.28-3.83.58-5.75.88-1.92.3-3.84.61-5.76.93-1.93.32-3.86.65-5.79.99-1.93.34-3.86.68-5.81,1.04h0c-1.94.35-3.88.72-5.84,1.1h0c-1.95.37-3.9.76-5.85,1.16h0c-1.96.39-3.92.8-5.88,1.22h0c-1.97.41-3.94.84-5.9,1.27-1.97.44-3.94.88-5.92,1.34h0c-1.98.46-3.96.92-5.94,1.4-1.99.48-3.98.97-5.98,1.46h.01c-2,.5-4.01,1.01-6.01,1.53-2.01.52-4.02,1.05-6.03,1.6-2.02.54-4.03,1.1-6.05,1.66h-.01c-2.02.57-4.06,1.15-6.09,1.74h0c-2.04.59-4.08,1.19-6.13,1.8-2.05.61-4.1,1.24-6.15,1.88h0c-2.06.64-4.12,1.29-6.19,1.95h0c-2.06.66-4.14,1.34-6.22,2.03h.01c-2.08.69-4.17,1.39-6.26,2.1h0c-2.09.71-4.18,1.44-6.29,2.18-2.1.74-4.21,1.5-6.32,2.27-2.11.77-4.23,1.55-6.35,2.35h0c-2.13.8-4.26,1.61-6.39,2.44h0c-2.13.83-4.27,1.67-6.42,2.53h0c-2.14.86-4.29,1.73-6.46,2.61h0c-2.15.89-4.32,1.79-6.5,2.71h.01c-2.17.92-4.35,1.85-6.53,2.8-2.19.95-4.38,1.92-6.57,2.9h0c-2.2.99-4.4,1.99-6.6,3h0c-2.21,1.02-4.42,2.05-6.64,3.1-2.22,1.05-4.45,2.12-6.68,3.21h0c-2.24,1.09-4.47,2.19-6.72,3.31h0c-2.24,1.13-4.49,2.27-6.75,3.43h0c-2.26,1.16-4.52,2.34-6.79,3.54l43.89,12.62-15.37,45.44Z"/>
    <g>
      <polygon class="cls-2" points="348.82 660 348.3 657.17 356.49 655.67 362.31 687.46 359.42 687.98 360.44 693.57 374.21 691.05 373.19 685.46 370.3 685.99 364.48 654.21 372.6 652.73 373.12 655.55 378.7 654.53 377.16 646.12 341.77 652.6 343.31 661.01 348.82 660"/>
      <polygon class="cls-2" points="348.82 660 349.31 659.91 348.88 657.57 356.09 656.26 361.73 687.05 358.84 687.58 360.04 694.15 374.79 691.45 373.59 684.88 370.7 685.41 365.06 654.61 372.2 653.31 372.72 656.13 379.28 654.93 377.56 645.54 341.19 652.2 342.91 661.59 349.4 660.4 349.31 659.91 348.82 660 348.73 659.51 343.71 660.43 342.35 653 376.76 646.7 378.11 654.13 373.52 654.97 373 652.14 363.9 653.81 369.89 686.57 372.79 686.05 373.63 690.65 360.84 692.99 360 688.39 362.89 687.86 356.89 655.09 347.72 656.77 348.33 660.09 348.82 660 348.73 659.51 348.82 660"/>
      <path class="cls-2" d="M401.17,677.97l-3.59-26.11,2.5-3.39,9.64-1.32,3.32,2.58,3.59,26.11-2.51,3.32-9.64,1.32-3.31-2.52ZM400.68,686.74l18.79-2.58,5.5-7.26-4.19-30.48-7.26-5.51-18.79,2.58-5.5,7.26,4.19,30.48,7.26,5.51Z"/>
      <path class="cls-2" d="M401.17,677.97l.5-.07-3.56-25.9,2.26-3.05,9.22-1.27,3,2.33,3.53,25.7-2.26,2.99-9.22,1.27-3.15-2.39-.3.4.5-.07-.5.07-.3.4,3.48,2.64,10.05-1.38,2.76-3.64-3.65-26.51-3.65-2.84-10.05,1.38-2.75,3.72,3.64,26.51.17.12.3-.4ZM400.68,686.74l.07.5,19-2.61,5.75-7.59-4.25-30.89-7.59-5.76-19.2,2.64-5.75,7.6,4.25,30.89,7.59,5.76.21-.03-.07-.5.3-.4-7.09-5.38-4.14-30.07,5.25-6.94,18.38-2.53,6.93,5.26,4.13,30.07-5.25,6.94-18.58,2.56.07.5.3-.4-.3.4Z"/>
      <polygon class="cls-2" points="434.87 644.03 437.48 675.46 444.43 681.36 463.27 679.79 469.22 672.82 466.6 641.39 469.46 641.16 468.99 635.5 455.11 636.65 455.58 642.31 458.51 642.07 460.95 671.33 458.19 674.51 448.64 675.31 445.32 672.63 442.89 643.37 445.82 643.12 445.35 637.47 431.47 638.62 431.94 644.28 434.87 644.03"/>
      <polygon class="cls-2" points="434.87 644.03 434.37 644.08 437 675.71 444.27 681.87 463.51 680.27 469.73 672.99 467.14 641.85 470 641.61 469.45 634.96 454.57 636.2 455.13 642.85 458.05 642.61 460.43 671.16 457.95 674.03 448.79 674.79 445.8 672.38 443.43 643.82 446.36 643.58 445.8 636.93 430.93 638.17 431.48 644.82 434.91 644.53 434.87 644.03 434.37 644.08 434.87 644.03 434.82 643.54 432.39 643.74 432 639.08 444.89 638.01 445.28 642.67 442.35 642.91 444.84 672.89 448.48 675.83 458.44 675 461.46 671.5 458.97 641.53 456.04 641.77 455.65 637.11 468.53 636.04 468.92 640.7 466.06 640.94 468.7 672.66 463.02 679.31 444.6 680.84 437.96 675.22 435.32 643.49 434.82 643.54 434.87 644.03"/>
      <path class="cls-2" d="M490.45,652.98l-.15-12.47,10.64-.13,3.11,2.98.08,6.45-3.04,3.05-10.64.13ZM493.69,678.45l-.07-5.68-2.94.04-.17-14.23,10.64-.13,3.12,3.05.2,16.82,10.99-.13-.07-5.68-2.94.04-.15-12.61-4.46-4.36,4.36-4.47-.12-10.09-6.52-6.37-26.31.31.07,5.68,2.94-.03.39,32.31-2.94.04.07,5.68,13.93-.17Z"/>
      <path class="cls-2" d="M490.45,652.98h.5s-.14-11.98-.14-11.98l9.93-.12,2.82,2.69.07,6.02-2.75,2.76-10.43.12v.5s.51,0,.51,0h-.5s0,.51,0,.51l10.84-.13,3.33-3.34-.08-6.87-3.41-3.26-11.34.14.16,13.47h.5s0-.51,0-.51ZM493.69,678.45h.5s-.07-6.18-.07-6.18l-2.94.03-.16-13.23,9.93-.12,2.82,2.76.21,17.11,11.99-.14-.08-6.68-2.94.04-.15-12.32-4.25-4.16,4.15-4.26-.13-10.5-6.81-6.66-27.02.32.08,6.68,2.94-.04.38,31.31-2.94.04.08,6.68,14.93-.18v-.5s-.51,0-.51,0v-.5s-13.43.16-13.43.16l-.06-4.68,2.94-.03-.4-33.31-2.94.04-.06-4.68,25.61-.3,6.22,6.08.12,9.68-4.56,4.68,4.67,4.57.15,12.91,2.94-.04.06,4.68-9.99.12-.2-16.53-3.41-3.34-11.34.14.18,15.23,2.94-.04.06,5.18h.5s0-.51,0-.51v.5Z"/>
      <polygon class="cls-2" points="536.23 679.53 536.69 673.87 533.76 673.64 535.67 649.82 551.02 680.72 562.6 681.66 563.06 676 560.13 675.76 562.72 643.56 565.65 643.8 566.11 638.14 552.22 637.02 551.77 642.68 554.7 642.91 552.73 667.36 537.09 635.8 525.85 634.89 525.4 640.55 528.33 640.79 525.73 672.99 522.8 672.75 522.35 678.41 536.23 679.53"/>
      <polygon class="cls-2" points="536.23 679.53 536.73 679.57 537.22 673.42 534.29 673.18 536.03 651.65 550.7 681.2 563.06 682.2 563.6 675.54 560.67 675.31 563.18 644.1 566.11 644.33 566.65 637.68 551.77 636.48 551.23 643.13 554.16 643.37 552.38 665.52 537.41 635.32 525.4 634.35 524.86 641.01 527.79 641.24 525.28 672.45 522.34 672.22 521.81 678.87 536.69 680.07 536.73 679.57 536.23 679.53 536.27 679.03 522.88 677.96 523.26 673.29 526.19 673.53 528.87 640.33 525.94 640.09 526.31 635.43 536.76 636.27 553.08 669.19 555.24 642.45 552.31 642.22 552.68 637.56 565.57 638.6 565.19 643.26 562.26 643.02 559.59 676.22 562.52 676.46 562.14 681.12 551.34 680.25 535.32 647.98 533.22 674.09 536.15 674.33 535.73 679.49 536.23 679.53 536.27 679.03 536.23 679.53"/>
      <polygon class="cls-2" points="600.06 686.97 601.13 679.41 595.59 678.62 595.32 680.56 581.45 678.6 583.32 665.41 590.6 666.45 590.34 668.32 595.95 669.12 597.28 659.75 591.66 658.95 591.39 660.9 584.11 659.86 585.99 646.61 599.85 648.58 599.57 650.52 605.12 651.3 606.19 643.74 575.91 639.45 575.11 645.07 578.02 645.48 573.49 677.47 570.58 677.06 569.78 682.68 600.06 686.97"/>
      <polygon class="cls-2" points="600.06 686.97 600.56 687.04 601.7 678.98 595.17 678.06 594.89 680 582.02 678.17 583.75 665.98 590.03 666.87 589.77 668.74 596.37 669.68 597.84 659.32 591.24 658.39 590.96 660.33 584.67 659.44 586.41 647.18 599.28 649 599.01 650.94 605.54 651.87 606.75 643.31 575.48 638.88 574.54 645.49 577.45 645.9 573.06 676.9 570.15 676.49 569.21 683.1 600.49 687.54 600.56 687.04 600.06 686.97 600.13 686.48 570.34 682.25 571 677.62 573.91 678.03 578.58 645.05 575.67 644.64 576.33 640.01 605.62 644.16 604.69 650.74 600.14 650.09 600.41 648.15 585.56 646.04 583.55 660.29 591.81 661.46 592.09 659.52 596.71 660.17 595.52 668.55 590.9 667.9 591.16 666.02 582.9 664.85 580.89 679.02 595.74 681.13 596.01 679.19 600.57 679.83 599.57 686.9 600.06 686.97 600.13 686.48 600.06 686.97"/>
      <polygon class="cls-2" points="617.56 651.34 628.94 671.21 626.14 685.87 623.32 685.33 622.17 691.39 635.78 693.99 636.94 687.94 634.05 687.38 636.85 672.72 654.82 658.46 657.16 658.91 658.23 653.33 641.32 650.1 640.25 655.68 644.44 656.48 634.14 665.64 627.81 653.3 632.07 654.11 633.13 648.54 615.6 645.18 614.54 650.76 617.56 651.34"/>
      <polygon class="cls-2" points="617.56 651.34 617.13 651.59 628.42 671.3 625.75 685.29 622.93 684.75 621.58 691.79 636.18 694.58 637.52 687.54 634.63 686.99 637.31 673 654.96 658.99 657.56 659.49 658.81 652.93 640.92 649.51 639.67 656.07 643.35 656.78 634.29 664.84 628.72 653.98 632.47 654.7 633.72 648.14 615.21 644.6 613.95 651.16 617.47 651.83 617.56 651.34 617.13 651.59 617.56 651.34 617.66 650.85 615.12 650.36 616 645.77 632.55 648.93 631.67 653.53 626.89 652.61 633.99 666.44 645.53 656.18 640.84 655.28 641.71 650.68 657.64 653.73 656.76 658.32 654.69 657.93 636.39 672.45 633.46 687.78 636.35 688.33 635.38 693.41 622.75 690.99 623.72 685.92 626.54 686.46 629.47 671.12 617.88 650.89 617.66 650.85 617.56 651.34"/>
    </g>
  </g>
</svg>