<?xml version="1.0" encoding="UTF-8"?>
<svg id="Layer_1" data-name="Layer 1" xmlns="http://www.w3.org/2000/svg" viewBox="0 0 481.14 481.14">
  <defs>
    <style>
      .cls-1 {
        fill: #ffc00e;
        fill-rule: evenodd;
      }
    </style>
  </defs>
  <path class="cls-1" d="M147.43,347.01c.38-.11.5-.34.41-.67-.1.24-.56.31-.41.67Z"/>
  <path class="cls-1" d="M146.96,346.03c.02-.28.55-.31.4-.67-.2.19-.68.26-.4.67Z"/>
  <path class="cls-1" d="M149.21,344.81c.3-.17.05-.29.14-.7-.25.04-.27.19-.41.28.06.21.22.19.27.42Z"/>
  <path class="cls-1" d="M159.19,340.86c.15-.05.3-.1.45-.16-.2-.29.06-.35-.08-.61-.41.11-.54.37-.37.77Z"/>
  <path class="cls-1" d="M147.65,344.74c.17.22.66-.18.49-.44-.29-.14-.18.14-.57.21.11.08.21.16.08.23Z"/>
  <path class="cls-1" d="M159.87,339.86c.14-.3.4-.18.68-.24-.19-.25-.48-.3-.84-.22l.16.46Z"/>
  <path class="cls-1" d="M151.86,341.02c.23.23.6-.28.3-.62-.45.04.08.55-.3.62Z"/>
  <path class="cls-1" d="M161.89,337.26c.08-.1.07-.38.19-.19.25-.06-.08-.42-.08-.61.35.02.59-.17.87-.42-.62-.3-.31-.79-.3-1.29-.13.22-.15.5-.57.57.42.2.18.25.23.68-.11-.03-.23-.06-.38,0,.08.29-.02.5-.31.61.08.28.17.55.34.64Z"/>
  <path class="cls-1" d="M152.57,340.12l.46-.16c-.11-.06-.28-.25-.12-.34-.16-.22-.6.21-.34.5Z"/>
  <path class="cls-1" d="M150.89,338.16c.2-.19.23-.46.11-.81-.17.22-.49.61-.11.81Z"/>
  <path class="cls-1" d="M166.76,331.73c.34-.1.47-.52.15-.68-.08.21-.24.39-.15.68Z"/>
  <path class="cls-1" d="M152.17,335.9c.16-.24.68-.31.38-.78-.22.21-.45.42-.38.78Z"/>
  <path class="cls-1" d="M161.11,330.3c.3-.26-.06-.39-.03-.88-.07.09-.15.18-.31.23.45.37-.15.55.34.65Z"/>
  <path class="cls-1" d="M152.38,332.74c-.2-.22-.48.33-.92.32.23.4.66-.16.92-.32Z"/>
  <path class="cls-1" d="M154.27,330.31c.1-.27.36-.46.24-.85-.27.25-.42.56-.77.77.02.34.51-.27.53.07Z"/>
  <path class="cls-1" d="M167.16,325.94c.42.33.31-.4.46-.52-.33-.29-.33.4-.46.52Z"/>
  <path class="cls-1" d="M165.85,324.59c-.38.03-.02.44-.5.41.13.24.33.34.6.31-.27-.4.28-.53-.1-.72Z"/>
  <path class="cls-1" d="M172.49,322.53c.32-.18.6-.38.51-.78-.2.25-.48.45-.51.78Z"/>
  <path class="cls-1" d="M148.97,330.08c.35-.02.24-.27.54-.31-.06-.38-.36-.28-.69-.15l.15.46Z"/>
  <path class="cls-1" d="M151.92,328.94c.43-.05.44-.29.61-.47-.19-.21-.88.13-.61.47Z"/>
  <path class="cls-1" d="M150.02,328.56c.1-.01.09-.08.08-.16.69-.43.63-1.24,1.24-1.71-.08-.47-.44-.38-.6-.69-.4.24.12.41-.05.66-.34.19-.42-.1-.57.2.41.22.07.61.18.97-.38.04-.38.26-.65.35-.02.42.4-.04.38.38Z"/>
  <path class="cls-1" d="M168.34,321.29c-.17.11-.12-.43-.03-.5-.31-.36-.09.32-.42.26.02.4.29.3.41.51.25-.12.43-.29.61-.44-.14-.33-.47-.03-.57.18Z"/>
  <path class="cls-1" d="M140.47,330.65c.3-.18.78-.27.53-.72-.21.22-.59.36-.53.72Z"/>
  <path class="cls-1" d="M139.9,330.46c.21.25.48-.28.34-.52-.51-.02-.14.39-.34.52Z"/>
  <path class="cls-1" d="M141.05,329.66c-.08-.3-.3-.3-.42-.5-.14.1-.11.27-.27.36.15.2.41.2.69.14Z"/>
  <path class="cls-1" d="M168.66,320.31c.45.27.46-.52.82-.62-.39-.47-.72.34-.82.62Z"/>
  <path class="cls-1" d="M134.68,330.16c.21-.2.16-.66-.03-1.3,0,.42-.22.75.03,1.3Z"/>
  <path class="cls-1" d="M170.65,317.71c-.24-.13-.77.08-.62.44.23.12.85-.03.62-.44Z"/>
  <path class="cls-1" d="M145.63,325.96c.42-.11.62-1.12-.03-.9.29.44-.02.58.03.9Z"/>
  <path class="cls-1" d="M153.21,322.98c.44.15.8-.56.56-1.08-.18.11-.25-.02-.3-.16-.54.18.16.99-.26,1.23Z"/>
  <path class="cls-1" d="M139.19,327.07c.53-.13.67-.46.63-.87-.07.36-.75.41-.63.87Z"/>
  <path class="cls-1" d="M171.64,316.42c.08-.1.16-.2.23-.07-.08-.66.64-.87.54-1.54-.33.72-1.38.6-.77,1.61Z"/>
  <path class="cls-1" d="M147.66,322.68c.42-.01.07-.42.05-.66-.07.09-.15.19-.31.24.12.07.21.22.26.43Z"/>
  <path class="cls-1" d="M172.49,314.66c.18.32.21-.18.46-.14-.53-.1.11-.28-.09-.72-.49-.04.13.52-.36.48.06.16.12.32-.01.38Z"/>
  <path class="cls-1" d="M173.13,313.85c.38-.41,1.02-.2.9-.76-.5.33-.43-.4-.91-.11.52.3-.14.49.01.87Z"/>
  <path class="cls-1" d="M144.52,320.78c.27-.32.29-.96-.25-.82.09.42-.04.51.25.82Z"/>
  <path class="cls-1" d="M174.52,311.33c.5-.11.38-.56.65-.8.26-.05.33.22.39.51.49-.41-.27-.79.22-1.43-.4-.03-.26.06-.69.2.1.48.15-.07.49-.01-.27.56-1.05.84-1.06,1.54Z"/>
  <path class="cls-1" d="M160.07,313.38c.39-.22.27-.77.08-1.04-.22.31-.42.69-.08,1.04Z"/>
  <path class="cls-1" d="M152.11,315.54c.17-.27.15-.04.46-.15-.11-.23-.32-.24-.48-.35-.15.09,0,.32.02.51Z"/>
  <path class="cls-1" d="M156.78,308.94c.24-.3.47-.61.31-1.12-.03.39-.66.83-.31,1.12Z"/>
  <path class="cls-1" d="M145.41,309.1c.3-.08.31-.3.52-.43,0-.35-.53.26-.53-.09-.15.09-.02.33.01.51Z"/>
  <path class="cls-1" d="M139.23,311.05c.35-.22.34-.62.19-1.11-.08.35-.48.88-.19,1.11Z"/>
  <path class="cls-1" d="M163.36,302.25c.15-.04.31-.09.46-.13-.1-.08-.2-.17-.06-.23-.15-.27-.6.11-.4.37Z"/>
  <path class="cls-1" d="M144.78,306.34c.43-.21.32-.7.92-.81-.1-.23-.38-.14-.56-.21-.02-.29.43-.48.07-.67-.21.12.03.49-.37.51.45.42-.21.64-.06,1.18Z"/>
  <path class="cls-1" d="M162.47,299.85c.07-.13.3-.16.29-.34-.07-.36-.53-.3-.65-.07-.04.42.4-.02.36.4Z"/>
  <path class="cls-1" d="M146.92,301.64c.39.17,1.04-.8.59-1.1-.14.4-.12.88-.59,1.1Z"/>
  <path class="cls-1" d="M143.94,300.91c.37-.14.44-.44.27-.87-.07.3-.35.49-.27.87Z"/>
  <path class="cls-1" d="M150.25,298.41c.2-.23.55-.37.43-.77-.24.2-.48.41-.43.77Z"/>
  <path class="cls-1" d="M152.4,295.95c.23-.11.15-.39.38-.5-.08-.15-.32-.01-.5.02l.12.48Z"/>
  <path class="cls-1" d="M152.82,294.67c.38-.05.23-.41.49-.53-.11-.19-.76.17-.49.53Z"/>
  <path class="cls-1" d="M169.34,289.47c0-.11-.07-.1-.15-.09-.01-.14.19-.15.33-.21.02-.23-.46-.4-.14-.59-.11-.41-.33.35-.38-.03-.1.26-.24,1.12.34.91Z"/>
  <path class="cls-1" d="M169.32,288.34c.21-.01.2-.15.18-.3.16-.05.33-.11.38.03.15-.08.03-.32,0-.5l-.59.15c.18.31-.09.35.02.62Z"/>
  <path class="cls-1" d="M171.74,287.47c.21-.14.24-.39.21-.68-.38.04-.32.35-.21.68Z"/>
  <path class="cls-1" d="M156.19,290.98c.28-.28-.26-.55-.5-.49-.23.39.32.31.5.49Z"/>
  <path class="cls-1" d="M154.95,291.09c.35-.33.9-.78.45-1.28-.07.47-.75.59-.45,1.28Z"/>
  <path class="cls-1" d="M156.42,290.41c.08-.29.36-.47.3-.85-.22.21-.29.51-.59.68.06.12.25.01.29.17Z"/>
  <path class="cls-1" d="M158.43,289.83c.24-.75.58-.77-.44-.77.03.45.28.54.44.77Z"/>
  <path class="cls-1" d="M172.94,285.15c.36-.12.51-.36.45-.74-.21.21-.55.34-.45.74Z"/>
  <path class="cls-1" d="M175.79,281.93c.02-.94.73-1.34.41-2.09-.32.55-.61,1.12-.72,1.79-.14.01-.15-.19-.2-.33-.57.34,0,.71.51.62Z"/>
  <path class="cls-1" d="M160.35,284.82c.44-.28-.48-.47-.14-.6-.46-.3-.11.63.14.6Z"/>
  <path class="cls-1" d="M160.36,284.31c.23-.17.35-.41.19-.81-.22.18-.28.45-.19.81Z"/>
  <path class="cls-1" d="M177.33,278.2l.47-.11c-.03-.22-.2-.22-.22-.45-.05.21-.34.27-.25.56Z"/>
  <path class="cls-1" d="M165.23,280.34c-.1-.22-.39-.13-.37-.54-.3.31,0,1.06.37.54Z"/>
  <path class="cls-1" d="M165.22,265.88c.66-.1.35-.7.08-.91-.14.23-.09.58-.08.91Z"/>
  <path class="cls-1" d="M170.35,258.46c.47-.15-.18-.52.37-.72.37.02,0,.41.1.61.36-.19.33-.58.1-.9-.16.18-.28.21-.48.11-.14-.56.62-.52.44-1.11-.12.17-.16.4-.56.38.07.66-.34.94-.7,1.04.26.18.74,0,.73.59Z"/>
  <path class="cls-1" d="M172.11,255.55l.48-.1c-.06-.46.08-.38-.12-.73-.42.1-.09.93-.44.35-.3.08.03.42.08.49Z"/>
  <path class="cls-1" d="M173.21,254.68c-.19-.12-.21-.5-.26-.83l-.36.08c.04.14,0,.22-.08.27.26.19.24.05.2.46.21-.06.28.1.5.02Z"/>
  <path class="cls-1" d="M174.29,253.69c-.1-.43.29-.52.22-.93-.38.21-.27.76-.86.82.22.35.26.01.64.11Z"/>
  <path class="cls-1" d="M174.39,252.02c.02.33.13.52.44.41.05-.11.09-.22.06-.39-.12-.07-.29-.07-.5-.02Z"/>
  <path class="cls-1" d="M174.75,251.95c.21-.06.28.09.5.02,0-.22-.25-.27-.06-.36-.06-.16-.32-.04-.5-.02l.06.37Z"/>
  <path class="cls-1" d="M174.49,251.12c.12.14.94-.14.78-.55-.3.16-.69.25-.78.55Z"/>
  <path class="cls-1" d="M178.15,247.35c-.14-.36.06-.47.01-.76-.39-.02-.18.38-.57.37.08.27.16.56.56.39Z"/>
  <path class="cls-1" d="M179.54,244.94c.3-.08.44-.27.41-.58l-.48.09.07.49Z"/>
  <path class="cls-1" d="M180.58,243.6c.29-.23.5-.52.75-.78,0-.35-.64.22-.64-.13-.2.13.01.23.05.37-.02.2-.36.18-.17.54Z"/>
  <path class="cls-1" d="M180.49,242.11c.25-.08.06-.48.3-.56-.28-.15-.46.02-.71.26.04.23.41.01.41.3Z"/>
  <path class="cls-1" d="M182.74,241.2c-.08-.72.62-.87.95-1.3-.22-.59-.86.19-1.35.12.34.35.45.26.23.84-.52.1-.71-.1-.96.3.35.34.55.23,1.12.05Z"/>
  <path class="cls-1" d="M181.9,240.47c.32-.24.38-.68.76-.89-.21-.11-.96.33-.76.89Z"/>
  <path class="cls-1" d="M182.67,238.7c.22-.02.24-.2.47-.21-.06-.35-.54-.12-.56-.53-.15.11-.19.3-.18.53.44-.14.28-.27.27.2Z"/>
  <path class="cls-1" d="M184.14,236.56c.26,0,.31-.14.47-.21-.2-.06-.23-.36-.53-.29.23.21,0,.16.06.49Z"/>
  <path class="cls-1" d="M204.68,213.37c.5-.16.63-.64.69-1.18-.36.2-.8.34-1.08.6.08.25.28.37.4.58Z"/>
  <path class="cls-1" d="M209.16,205.75c.39.07.25-.34.48-.41-.09-.26-.65.05-.48.41Z"/>
  <path class="cls-1" d="M215.56,199.22c.24.22.77-.33.74-.78-.34.18-.5.52-.74.78Z"/>
  <path class="cls-1" d="M218.64,196.09c.12-.47.65-1.05.5-1.39-.3.3-.77.94-.5,1.39Z"/>
  <path class="cls-1" d="M224.16,189.2c.37-.1.46-.47.76-.64-.17-.21-.83.17-.76.64Z"/>
  <path class="cls-1" d="M231.52,183.4c-.12-.16-.09-.45-.21-.62-.17.08-.24.27-.27.5.22-.02.25.15.48.12Z"/>
  <path class="cls-1" d="M272.55,184.38c.65-.24.67-1.27,1.32-1.51-.65-.29-1.03.91-1.32,1.51Z"/>
  <path class="cls-1" d="M273.77,182.63c.38.04.55-.19.55-.63-.25.12-.44.33-.55.63Z"/>
  <path class="cls-1" d="M242.59,170.62c-.04-.15-.13-.26-.35-.26.46-.4.6-.47.98-1.07-.59.23-1.05.63-1.36,1.18.39-.07.44.15.73.15Z"/>
  <path class="cls-1" d="M245.54,169.65c-.18-.19-.03-.65-.43-.64-.27.25.04.62.43.64Z"/>
  <path class="cls-1" d="M243.88,168.95c.02.17.3.12.48.15.07-.28.03-.48-.06-.62-.26.02-.09.55-.42.48Z"/>
  <path class="cls-1" d="M259.2,153.68c.36-.09.24-.48.25-.73-.18.06-.27.24-.33.47.12.02.07.16.08.26Z"/>
  <path class="cls-1" d="M259.63,151.98c.28-.02.22-.64.14-.73-.32.22-.33.49-.14.73Z"/>
  <path class="cls-1" d="M261.25,151.42c.76-.3,1.23-.99,1.81-1.53-.38-.22.06-.45.17-.86-.86.68-1.13,1.53-1.97,2.39Z"/>
  <path class="cls-1" d="M263.25,149.53c.4-.01.45-.52.66-.8-.37.06-.62.28-.66.8Z"/>
  <path class="cls-1" d="M264.2,148.52c.29-.22.69-.28.88-.65-.22-.19-.85.08-.88.65Z"/>
  <path class="cls-1" d="M265.35,148.41c.37-.25.62-.22.93-.26-.01-.44.12-.57-.34-.8.28.51-.48.6-.58,1.06Z"/>
  <path class="cls-1" d="M263.05,144.21c.13.38.54-.17.59-.43-.25-.08-.34.05-.52.06-.07.21.15.35-.08.37Z"/>
  <path class="cls-1" d="M268.37,144.31c-.05.1.02.12.1.14l.24.04c-.03-.47.95-.73,1.09-1.48-.15,0-.21-.06-.22-.16-.22.43-.59.65-.76,1.15-.61-.08,0-.37-.23-.66-.33-.1-.05.68-.38.57-.06.16.68.26.16.4Z"/>
  <path class="cls-1" d="M264.29,143.1c.5-.31.94-.7,1.2-1.35-.48.33-.86.82-1.2,1.35Z"/>
  <path class="cls-1" d="M270.13,142.67c.22-.2.55.28.89,0-.32-.19-.37-.4-.08-.77-.41.05-.59.43-.81.76Z"/>
  <path class="cls-1" d="M270.32,141.82c.46-.08.63-.59.87-1.01-.59.25-.52.55-.87,1.01Z"/>
  <path class="cls-1" d="M273.68,139.43c.01-.18-.36-.11-.31-.31-.53.31-.57,1.36-1.34,1.3.53.77.97-.93,1.65-1Z"/>
  <path class="cls-1" d="M271.69,140.25c.66-.16.89-.98,1.27-1.57-.7.1-.89.99-1.27,1.57Z"/>
  <path class="cls-1" d="M272.16,138.29c.21.41.54-.4.68-.64-.39-.03-.33.61-.68.64Z"/>
  <path class="cls-1" d="M272.75,138.52c.5-.19,1.08-.25,1.17-1.07-.22.62-.96.43-1.17,1.07Z"/>
  <path class="cls-1" d="M275.31,137.57c-.67-.04-.34-.7.06-.75.39.14.06.49-.06.75.42.21.31-.42.71-.26-.28-.73.28-2.11.57-2.7-.35-.49-.78,1.09-.63,1.42-.33-.38-.64.3-.71-.25-.29.83-.41,1.69-.75,2.91.5-.02.67-.53.8-1.13Z"/>
  <path class="cls-1" d="M276.88,135.43c0,.17.28.15.46.21.17-.19.2-.6.44-.69-.05-.14-.25-.18-.15-.41-.2.03-.35.13-.55.16-.09.33.37.66-.19.73Z"/>
  <path class="cls-1" d="M278.17,135.4c.21-.19.63-.73.07-.75-.19.36,0,.47-.07.75Z"/>
  <path class="cls-1" d="M278.09,134.24c.08.44.36-.2.64-.01-.1-.32-.2-.27.04-.63-.4-.06-.41.5-.68.64Z"/>
  <path class="cls-1" d="M144.75,349.95c-.24.04-.25-.41-.58-.17.09.2-.05.29.05.5.34-.62,1.26.89.57-.21.38-.65.55-1.39,1.26-1.89-.2-.46-.03-.51.33-.51-.07-.11-.25,0-.31-.14-.02-.37.34.04.57-.21-.34-.24-.22-.38-.63-1.06-.27.22-.06.67-.02,1.04-.54.03-.36.4-.41.67-.94.19-.91,1.15-1.35,1.28.17.5.76-.14.8-.3.21.48-.53.52-.29,1.01Z"/>
  <path class="cls-1" d="M150.76,344.49c.39-.32.5-.77.58-1.24-.29.21-.35-.05-.6.09.58.45-.06.68.02,1.15Z"/>
  <path class="cls-1" d="M151.76,342.59c.11-.23-.04-.39-.34-.26-.03-.14.17-.17.3-.24-.04-.38-.26-.37-.35-.64.24-.46.6-.86.52-1.47,1.05-.19.64-1.09,1.13-1.56.6.33-.2.97.31,1.3.17-.98.96-1.23.82-2.47.45-.07.81-.08.53-.7.43-.05.76.24.73.64.27-.02.09-.28.26-.35-.33.03-.34-.59-.76-.37.66-.35.35-1.17.71-1.66-.02.86.1,1.48.05,1.65.67.04.31-1.24.41-1.81.41.16.57-.43.65-.73-.07-.12-.25,0-.3-.15,0-.1.08-.16.04-.27.14.04.2.22.42.11.33-.63.34-1.43.58-2.1.1-.01.15.07.26.04-.18.76-.03,1.12-.16,1.84.61-.36.58-1.05,1.04-1.49-.19-.32-.21.19-.46.15-.13-.22-.02-.33-.04-.5.4-.24.66.2.84-.15-.05-.21-.22-.19-.26-.42-.11.04-.04.17-.04.27-.26.09-.85-.25-.46.16-.64.25-.55-.38-.34-.65.04.5.49-.31.68.15.24-.13-.19-.61,0-.76.4-.08.33.57.26.8.11.29.5.01.6.31.33-.18.13-.64.5-.8.33.18.08.42.38.76.57-.06.13-.64.65-.72-.21-.28-.3.28-.68.23.12-.22.18-.48.42-.65-.48.19-.57-.08-.87-.35,0-.1.08-.15.04-.27.32-.27.21.34.53.08-.33-.58.93-2.19,1.45-1.75-.18-.34.1-.53-.22-.69.44-.28.52.1.88-.03-.28.34-.16.88-.5,1.18.45-.06.93-.93,1.04-1.48.23-.07.24.27.53.08-.07-.44-.15-.91.52-1.17-.37-.24-.15-.54-.67-.54.44-.06.1-.59.62-.83-.66-.06.1-.74-.29-.92.51-.43.29.55.72.28-.19-.39-.09-.62.13-.8.19.06.33.23.49.35-.21.88-.88,1.49-.8,2.27.38-.03.02-.44.5-.41-.35-1.43,1.5-1.72,1.31-3.06,1.25-.56,1.36-2.74,2.41-2.77.22-.27.38-.57.63-.82-.49-.46.2-.76.27-1.21.14.04.2.23.41.13-.38-.24-.1-.78.21-.56,0-1.07,1.09-1.54,1.26-2.51-.34.12-.25-.37-.29-.54.25-.04.18.5.4.51.74-.5.64-1.46.98-2.17.55.32,1.04-.49.76-.84.35,0,.25-.25.55-.28-.61-.82,1.4-1.7,1.17-2.94,1.19-.19.51-2.15,1.62-2.2-.21.17-.21.46-.3.71.5.06.34-1,.83-1.48.2-.2,1.12-.78.7-1.06-.09-.24.4-.16.55-.27,0-.68.56-1.04.53-1.75.63-.44,1.3-1.79,1.88-2.72,8.02-11.83,15.68-23.75,23.46-35.55,7.78-11.8,15.64-23.54,24.16-34.77.31-.06.33.23.4.45-1.8,1.24-2.29,3.59-3.98,4.93.18.34.07.4-.05.72-.18-.04.03-.15-.03-.36-.37.13-.09.8-.64.77.01.34.38.25.42.56-1.2.19-1.88,1.47-2.24,2.68-.67.67-1.44,1.26-1.64,2.32-.14.03-.21,0-.25-.09-.5,1.48-2.24,2.76-2.29,3.93-.32.05-.26-.17-.48.05.04.14.23.08.37.08-1.57,1.18-1.57,3.05-3.26,4.22.35.47-.63.93-.9,1.31-.45.63-.31,1.4-.88,1.42-.1.76-.46,1.32-1.2,1.6-.09.4.39.04.31.44.11.18-.52.27-.47.06.1.63-.48.76-.52,1.28-.19.07-.24-.06-.27-.2.03.75-.56,1.04-.7,1.66-.56-.32-.08,0-.57.2.18.13.22.41.1.59-.12-.08-.29-.09-.49-.05.3.69-.89.86-.78,1.91-.2.04-.32-.04-.39-.18-.4.91-1.82,2.73-1.62,3.15-.21.47-.95.56-.73,1.33-.59.16-1.25.72-1.01,1.13-2.03,2.42-3.17,5.13-5.2,7.7,0,.19.15.18.19.33-.35.08-.32.2-.78.39-.51,1.74-2.61,3.3-3,5.46-.21.06-.28-.09-.49-.02-.34.71-.57,1.5-1.15,2.06.22.1.95.33.72,1.06-.41,0-.48-.26-.85.05-.29-.04-.27-.7.11-.63-.18-.48-.8.16-.42.33-1.12.55-.87,1.97-2,2.51.38.51-.15,1.02-.83,1.16,0,.21.14.2.29.18-.74.66-1.05,1.59-1.81,2.24.08.14.25.14.32.3-.97,1.01-1.42,2.94-2.61,3.43.03.11.16.06.26.06-.9,1.22-1.43,2.68-2.65,3.71-.22,1.12-1.44,2.47-2.16,3.62,0,.38.38.14.39.52-.02.12-.05.23-.17.29-.65-.75-.9.69-1.35.97.32.36.26-.29.55-.26.39.05.03.46.04.61-1.23-.06-1.21,1.26-2.01,1.76,0,.38.38.14.39.52,0,.13-.21.14-.17.29-.17,0-.18-.26-.24-.43-.32.11-.44.33-.31.7.14.09.44-.08.44.25.23-.06.06-.35.4-.35.16.42-.39.42-.13.9-.57,0-.51.36-.72.56-.4-.14.36-.44.16-.78-.77.19-.07-.31-.16-.58-.94.41-.3.68-1.06,1.15.08.21.41-.04.52.11.03.11-.12.13-.2.18.13.22.25.2.38.02.21.61-.16.88.04,1.48-.28.14-.36.26-.61.04-.17.32.26.99-.17,1.17-.24.09-.17-.4-.28-.54-.34.13-.08.54.16.58.1.35-.55.27-.45.62-.19,0-.2-.33-.53-.1.38.65-.11,1.85-.68,1.55-.13.34-.57.52-.31,1.08-.82.07-.45,1.05-1.11.93.67.87-1.23,1.11-.88,2.12-.53.51-.63,1.26-1.23,1.74-.32.09.18-.39-.3-.16.16,1.37-1.34,1.84-1.46,3.06.21-.05.2-.21.43-.25.13,0,.15.21.3.16-.31.41-.91.66-1.17,1.1.15.18.21-.05.34-.1.34.01-.24.3.06.61-.21-.08-.33-.05-.46.14.64.83-.93,1.03-.65,1.95-.34.17-.54.06-.6-.32-.38.06-.2.4-.46.52.08.14.32,0,.49-.03.21.37.02.52-.01.76-.21.03-.32-.12-.37-.39.02.68-.52,1.07-.75,1.62-.2,0-.21-.33-.53-.09.63.7-.74,2.03-.65,2.72-.46-.02-.67.63-.76-.01-.25.28-.06.42.18.57-.11.34-.93.03-.81.63.34-.02.16-.3.38-.37.02.14.09.2.19.19-.42.74-1.24,1.27-1.01,2.34-.41-.23-.39-.14-.91-.08.11.35.49.15.79.12.42.72-.77.62-.46,1.29-.51.32-.46-.47-.87-.34.14.42.49.4.72.65.13.43-.44.15-.38.38-.17.02-.19-.25-.26-.42-.24.21-.23.74.11.72-.78.28-.31.5-1.06.61.05.65-.09.64-.53,1.06.17.17.51-.01.53.45l.57-.19c.15-.27-.33-.33.23-.45-.02-.21-.16-.19-.3-.15.26-.46.82-2.01,1.44-1.36.25-.06-.08-.42-.07-.61.44-.11.59.23.57.57.17-.11.52-.9,0-.76.05-.39.55-.54.27-1.1.25-.05.2.49.42.5.44-.11.24-1.18.8-.64.27-.1-.1-.39-.23-.31.12-.29.28-.55.65-.71-.09-.14-.26-.11-.34-.27-.04-.24.24-.32.2-.56.13.05.24.15.34.27.03-.81.4-1.44.87-2.03.3-.06-.1.25.15.46.33-.11.11-.51.58-.56.01.39-.13.69-.62.82.52.55-.64.98-.48,1.65.71-.89,1-1.86,1.56-2.62-.18-.32-.21.19-.46.14-.17-.7.91-.16.73-.86-.15.11-.23.26-.38.37-.29-.41.3-.35.01-.76.23-.13.27.09.34.27.09-.11.03-.3.27-.34-.45-.39.52-1.53.98-2.06.43.05-.34.25-.08.53.41-1.09.91-2.13,1.69-3.02.17-.01.18.26.25.42.55-.12.15-.63-.09-.72.15-.49.44.23.84-.12.05-.5-.51.11-.56-.21.36-.6.23-1.47,1.08-1.81-.41-.51-.01-.65.03-1.13.29-.19.35.07.61-.05-.07-.64.27-1.07.54-1.53.34.04-.02.49-.06.64.47-.15.56-.82.46-1.38.33-.19.32.25.64.06.14.34-.23.55.09.72.53-.92.66-1.65.7-2.69.45-.29.3.5.71.3.4-.8.74-1.64,1.61-2.18-.27-.66.29-.71.5-.88-.07-.23-.36-.06-.36-.4.81-.3.75-2.07,1.48-1.77.42-.96,1.58-1.98,1.55-2.88.68-.22.5-.94,1.32-1.08-.24-.56.32-.65.04-1.24.3-.18.34.09.61-.03,1-1.68,1.78-3.49,3.26-4.88-.16-.15-.23-.44-.41-.15,1.1-1.23,2.13-2.49,2.66-4.06.02-.45.75-.45.9-.82-.06-.12-.25-.02-.29-.18.41-.34.91-.77.95-1.57l.7-.16c.51-1.68,1.68-2.95,2.78-4.26-.04-.09-.14-.09-.17-.21,1.85-2.31,3.15-4.97,4.93-7.32-.2-.66,1.29-2.1,1.99-3.17.38-.58.41-1.2,1.05-1.39l-.09-.47c.71.06.41-1.02,1.22-1.18.28-1.49,1.99-2.77,2.51-4.41l.47-.08c.72-2.09,2.52-3.42,3.21-5.54.96-.47.81-1.73,1.79-2.18-.08-.74.73-.83.71-1.53,1.18-1.05,1.92-2.42,2.62-3.82,2.14-2.66,3.67-5.79,5.84-8.42l-.06-.47c.02-.17.21-.03.25.09.87-1.61,1.71-2.63,2.57-4.28l.47-.04c.17-.3-.41-.49.15-.73.18.03-.03.15.04.35.22-.11.37-.45.16-.61,8.07-10.69,15.12-21.69,23.75-31.89v-.35c1.4-1.15,2.03-3.1,3.64-4.04.15-.3-.06-.9.36-.57,0-.35.4-1.01.96-1.14v-.47c.47-.43.99-.79,1.2-1.49,2.39-1.9,3.85-4.81,6.58-6.33l.02-.47c.63-.06,1.2-.76,1.12-1.21.21,0,.24.17.47.16-.27-.62.2-.51.51-.54.22-.93,1.01-1.48,1.79-2.2.2.01.3.12.34.27.24-.11-.2-.64.4-.67,0-.12-.14-.11-.23-.14.08-.28.47-.21.4-.67.2-.03.21.11.22.26.06-.36.29-.92.67-1.24.45.17-.05.36-.05.71.46-.99,1.08-1.78,1.62-2.67l.59.07c.19.34.04-.31-.34-.16.06-.62.44-.82.72-1.46.32.2.67-.29.58.19.3-.08-.12-.56.64-.52.06-.52-.33-.07-.47-.05.15-.72.85-.78.97-1.55.13.04.08.23.08.37.19-.03.13-.36.49-.18-.42-.26.1-.33.07-.83,1.48-.46,1.6-2.83,3.17-2.9-.28-.76.49-1.22.79-1.68.33.43-.46.57-.47,1.01.21.04.26-.11.48-.05-.22.48-.28,1.17-.54,1.59-.53-.71-.95.78-1.07,1.03,1-.28,2.01-1.5,2.21-2.66.16.06.06.31.06.49.32-.41,1.13-1.09.67-1.69.14-.33.37.13.58.09.39-1.02.83-1.42,1.27-2.56,1-.78,1.98-1.57,2.47-3.05.66-.36,1.35-1.42,1.4-2.17,1.45-.75,2.43-4.09,4.83-4.38-1.05-.56.64-1.23-.01-1.95.4-.2.2-1.29.91-1.04.88-1.83,2.31-2.89,4.18-3.22.03-.36.08-.72-.18-.89.17-.24.48-.29.89-.17,0-.48.3-.46.5-.62-.17-.45.06-.53-.03-.99-.26-.1-.2.31-.42.27.57-1.15,2.09-2.16,3.68-2.18-.2-.61.12-.99.65-1.19.19-1.64.97-2.97,1.87-4.11l.69.18c-.41-.39.41-.76.57-1.21.09.08.18.16.17.29.91-.85,1.82-1.56,2.25-2.73,1-.83,2.33-1.98,2.7-3.38.79-.38,1.7-2.05,2.11-2.75.71-1.17,1.38-2.16,1.72-3.4-.29.16-.43-.09-.69-.21.08-.35.38-.28.46-.63-.45.07-.46.44-.85.25-.08.73-1.13.37-.95.98-.1.25-.51-.1-.73-.09-.42.39-.87.71-1.34.99.23-.61.42-.75.67-1.7-.84.62-1.85,1.3-2.84,2.12-.97.84-1.91,1.8-2.63,2.91-.15.21-.4.23-.69.19.05.13.16.23.28.33-.22.14-.38.39-.55.61-.72-.47-.92,1.13-1.03,1.85-.36-.12-.19-.54-.12-.9-.15.21-.59.2-.74-.07.17-.54.41-.3.38-.9-.3-.12-.08.68-.49.37-.19.3.08.35-.05.61-.08.09-.16.18-.3.17-.15-.24.03-.67-.12-.91.05-.09.15-.09.18-.2.1.55.52-.18.75-.43.22.04.21.21.44.24.52-.62.19-1.44.69-1.95.22.23-.19.83-.22,1.2.28-.15.74-.65.39-.9.86-.18,1.22-1.26,1.74-2.06-.58.04-.7.89-1.03,1.37-.15-.87.62-1.63,1.34-1.54.36-.74.73-1.45,1.47-1.5,1.25-2.04,3.22-2.77,4.59-4.63-.6-.14-.87.36-1.56.05-.36.39-.8.62-1.44.47-.1.18.04.23,0,.38-.6-.32-.68.35-1.13.31-.25-.09-.16-.36-.05-.65-.57-.07-.79.52-1.25.66-.41,0-.04-.43-.36-.48-.72.12-.74.85-1.36,1.4-.43-.29.17-1.07.33-1.43-.14.06-.31.05-.52-.02-.03.11.12.13.2.18-.21.36-.55.16-.46.64-.22-.04-.2-.21-.43-.24-.37.56-.91.79-1.46,1.02-.08.3.03.5.33.59-.05.28-.16.45-.3.56-.33-.2-.56-.46-.8-.72.56-.46,1.14-1.59.96-2.3.84-.75,1.68-1.52,2.78-1.8-.58-.45.25-.67.67-.83.29.25-.42.21-.43.52.59.1.66-.79,1.02-1.12.41.03.02.47.43.25-.19-.56.87-1.18,1.5-1.37.21-.73.86-.82,1.39-1.41-.22-.54-.62.21-.87.27.37-.6,1.38-1.93,2.64-1.93.34-.98,2.95-1.57,2.44-2.99.68-.13.55-.92,1.15-.94.14.26-.22.34.01.66,1.01-1.2,1.88-2.65,1.44-3.73-.42-.08-1.08-.03-1.13-.49-.87.02-1.91.7-2.59-.15-.11.59-.79.74-.62,1.25.15.02.18-.18.25-.31.31.21.06.22-.06.5-.36-.18-.61-.15-.8.02-.33-.06-.33-.28-.18-.57-.24.06-.4.23-.3.43-.79-.28-1.68.81-2.31,1.52-1.27-.22-1.68,1.27-2.3,2.33l-.24-.07c-.06-1.01.8-1.55.97-2.34-.27-.13-.34.15-.64-.05-.92,1.61-1.92,1.79-2.94,3.09-.09-.05-.08-.15-.2-.18.43-.37.95-1.15.99-1.68-.33-.11-.41.28-.73.19.27.26.1.45-.29.44.18.16.28.36.31.6-.56.09-1.45.96-.9,1.44-.06.35-.34-.42-.52-.01-.13-.12.23-.33-.08-.54-.35.13-.31.86-.09,1.01-.15.23-.4-.29-.68-.31-.31.45.1.53-.04.89-.11.28-.41-.08-.32-.21-.41.05-.07.47-.08.62-.11.03-.55.02-.73-.19.04-.38.27-.4.37-.68-.62,0-.53.66-.33.94-.52.38-1,.73-1.03,1.54-.52.04-.18-.42-.48-.51.25-.31.53-.55.79-.84-.47-.12-.63-.42-.48-.9-.29-.03-.38.25-.28.45-.24-.33-.39.2-.72-.18-.2.66-.61.89-1.19,1.26-.24-.15.2-.63.52-.39.05-.1-.01-.12-.08-.15l.08-.24c-.46-.08-.63.38-.87.69-.33-.2-.32-.6-.65-.8.01.41-.08.27-.23.72-.4,0-.4-.23-.69-.29-.13.24-.02.34-.03.51-.31-.02-.19-.28-.57-.26-.38.46-.88.69-1.35.97-.4-.2.08-.3.11-.74-.35-.06-.33.53-.76.34.07.12-.03.34.13.41-1.33.41-2.07,1.82-3.32,2.34-.02.15.19.15.33.2-.07.3-.15.59-.33.7-1.01-.95-1.32,1.27-2.11,1.48-.45-1.15.56-1.4.91-2.24-.48-.02-.55.75-.99.31l-.21.72c-.27,0-.3-.15-.45-.22.22-.12.23-.58.54-.53-.31-.25.08-.31-.07-.65-.7-.34-.29,1.2-1.02.82-.1.62-.21,1.26-.28,1.86-.43,0-.39-.29-.35-.58-.48-.2-.58.23-.88.34.18.16.22.4.04.77.21-.01.21-.36.56-.14-.15.34-.42.5-.79.48l-.31,1.08c-.39-.34-.07-.43-.62-.12-.49.05-.07-.49-.51-.48.34.77-.22.84-.33,1.73-.53.19-.99.5-1.57.61.1.91-.26,1.34-.53,2.07-.47.04,0-.55-.21-.67-.65.53-.7,1.95-.67,2.66.82-.32.4-1.4.73-1.89.21.03.29.15.31.31.28,0,.29-.64.03-.63,1.01.12,1.11-2.4,2.49-2.22.02,1.19-1.1,2.02-1.91,2.45.18,1.3-.93,1.95-1.83,2.71-.02-.61-.08-1.03-.37-1.58,0,.44-.3.43-.34.82-1.19-.29-.65,1.04-1.74.83-.46.83-.3.58-.8,1.27.29-.02.12.26.31.3-.13.25-.38.3-.41.7-.52-.02-.22-.48.02-.63-.29-.27-.86.75-.61,1.04-.31.18-.42.68-.99.48-.44.26-.37,1.29-.93,1.37-.56-.2-.39-.9-.44-1.45-.5.44-.31,1.17-1.11,1.6-.46-.08-.36-.24-.64.03-.06.43.53-.24.47.19.24-.13.49-.25.62-.53.36.28.27.29.64-.03.14.04.05.24.04.38-.11.27-.65-.09-.79.13.08.11,0,.34.17.4-.17.29-.52.32-.75.52-.24-.1-.22-.23-.04-.38.09-.17.15.07.37.05-.11-.23-.15-.51-.51-.58-.22,1.81-1.21,2.5-1.78,3.77-.18-.01-.35-.02-.34-.17.08.28-.37,1.23-.82,1.65-.33-.3.31-1.08.11-1.24.42.15.48-.16.02-.12-.56.95-1.17,1.67-1.79,2.15-.59-.27.52-.88.13-1.36-.26.23-.46.16-.36.58-1.21.38-2.11,2.72-2.93,3.65-.35-.01.28-.79-.26-.66.17.48-.09.88-.33,1.22.26-.1.56-.16.69-.43.09.03.1.14.22.15-.24.58-1.03.43-1.08,1.26-.22,0-.23-.18-.47-.17-.09.58-.58.63-.79,1.04-.21-.01-.3-.12-.33-.28-.24.03-.17.47-.55.32-.08.2.06.24.21.27-1.34,1-2.1,1.83-3.23,3.04-.21-.05-.25-.24-.17-.51-.24.13-.32.47-.58.58-.19.45.43.23.28.65-.54,0-.76.39-.87.93-.3.03-.24-.24-.6-.17,0,.25.3.27.3.52-.69-.05-.28.3-.73.82-.3.03-.24-.25-.6-.17.03.15.12.26.34.27-.27.56-1.57.93-1.93.48-.44.8.85-.06.78.68-.24.19-.32-.04-.75.07-.1.52-.69.61-.4,1.21-.29.26-.6.6-1.04.3l-.08.61c.55.13-.15-.35.4-.22.22.63-1.06,1.17-1.35,2.03-.13-.34-.38-.5-.15-.88-.77.06-.11.98-.53,1.46-.66-.14-.66.51-.84.95-.69-.02-.92.49-1.21.93-.34-.19.26-.41.2-.73-.3-.07-.15-.54-.43-.64-.03.71-.5,1.25-.45,1.96-.22-.02-.28.23-.65.34-.48-.24.73-.79-.17-.75-.02-.44.47-.28.45-.72-.47-.12-.56.9-.91.45-.01.42-.34.54-.48,1.09-.45-.53-.39.34-1.03.33-.08.73-.55,1-.76,1.59.23.26.73.14.76-.23.36.47-.44.76-.69.97-.24-.14-.25-.5-.19-.63-.24-.16-.43.01-.72-.27.5.58-.24.51-.22,1.24.45.19.26-.34.63-.23-.19.23-.2.67-.66.6-.18-.06.06-.16.03-.37-.21-.03-.34.2-.37,0-.42.04.29.49-.28.36.26.14.59.23.57.63-.31.3-.21-.19-.6-.14-.05.31.16.39.33.5-.09.12-.29.12-.27.36-.6.05-.3-.72-.8-.76.08.23.12.5.32.63.04.49-.69.13-.55.73-.38.08-.44-.14-.73-.14-.05.52-.48.63-.81.85.25.58-.35.91-.71,1.22-.3.04.11-.56-.34-.38.07.65-.43.77-.82,1.23-.13.4.39.17.34.5-.31.43-.42-.3-.85-.13-.15.18-.16.31-.03.5-1.28-.06-.93,1.62-1.94,1.86.18.62-.02.69-.19,1.36-.1.12-.43-.04-.63.25-.37-.23.22-.54.17-.86-.58.2-.63.74-.68,1.23-.42.21-.42-.08-.86-.12-.17.34-.49.31-.28.74h-.49c.44.22-.11,1.02-.77.88.25.64-.12.63-.52.88-.04.47.1.04.36.12.01.31-.28.31-.38.5-.53-.03-.36-.21-.47-.49-.27.28-.61.49-1.24.4-.02-.14.03-.22.13-.25-.27-.18-.73.53-1.01.77.83-.51,1.11,0,1.86-.54-.06,1.11-1.03.34-1.38.9.28.24,1.02.02,1.22.34-.4-.05-.78.43-1.24.28.09.43.35.69.46,1.1-.37-.49-.65-.15-1.11-.1-.29-.03-.06-.58-.48-.48.09.3.03.36.35.61-.15.18-.61.2-.13.37-.19.19-.55.21-.87.27-.2-.17.55-.61.02-.86-.12.56-1.07,2.61-1.52,1.65-.21.17-.11.65-.5.64.33.83-.78,1.1-.63,2.14-.52-.27-.63.39-.86-.09-.3.13.17.47,0,.87-.5.47-1.14.81-1.24,1.67-.4-.26-.7.26-.49.52-.51-.11-.48.28-.86.29.26.13.36.03.74.21-.2.29-.72.35-.99.3-.38.29.21.51-.61.65.08.12.28.11.25.36.18-.36.54-.56.99-.67-.45.47-.95.91-1.35,1.43-.1-.02-.12-.12-.25-.11.08-.34.72-.51.36-.89-.52.17-.28.93-1.09,1.06.01.18.02.35-.12.38.06.15.16.24.37.22-.04.49-.53.57-.6,1.03-.34.13-.32-.15-.61-.08-.07.4.44.14.13.49-.39.1-.18-.43-.49-.09-.06.28.24.16.25.35-1.68.37-2.02,2.3-3.14,2.82-.23,0-.08-.41-.26-.47-.46.27-.22,1.16-1.09,1.07.06.15.16.24.38.22.11.34-.17.33-.11.63-.26.08-.24-.16-.26-.35-.34.05-.32.43-.59.55.02.14.23.08.37.09.1.33-.23.27-.23.52-.13-.07-.14-.27-.37-.22l.02.5c-.29.08-.27-.2-.62-.07-.46.75-.92,1.49-1.51,2.12l.37-.03c-.16.17-.03.61-.34.65-.26.08-.24-.15-.26-.35-.5.27-.77,1.27-.79,1.56-.36-.12-.56-.01-.6.43.55-.14.29.18.27.47.4-.73,1-.68,1.41-1.49-.06-.17-.11.02-.24.02-.17-.38.39-.13.22-.52.5.06.42-.02.98-.09-.95.56-1.31,2.1-2.24,2.31.03.1.13.11.13.23-.09.37-.2-.27-.5-.08.18.86-.49.99-.92,1.33.27.42,0,.68-.31.91-.18-.31-.24-.77-.66-.8.08-.27.47-.54.2-.77-.17.3-.24.26-.6.19.2.36-.01.49.16.73-.09.32-.52.34-.44.8-.7-.12-.95.72-1.14,1.37-.41-.31-.58-.04-.58.56-.15-.04-.26-.13-.27-.34-.56.31-.5,1.14-1.01,1.48.03.23.41.04.39.32.07.29-.56,0-.34.41-.21.03-.32-.05-.38-.2-.24.17.38.28-.09.51-.28.07-.46.02-.51-.19-.09.51-.97.85-.65,1.32-.29.09-.28-.19-.62-.04.41.33-.22.42-.21.4-.33.54.08,1.12-.75,1.35.32.4-.32.84-.52,1.19-.13-.06-.15-.27-.39-.2.27.56-.42.57-.26,1.28.19.33.64-.08.59-.33.16-.08.05.56-.07.63.22.38.33-.26.46-.31.17.02.13.29.16.48-.05.14-.73.07-.55.7-.3.06-.59.1-.63-.16-.44.07-.29.61-.81.61.13.2.42.31.18.6-.38-.54-.31-1.34-.18-2.09-.23.2-.56.31-.82.49.05.21.3.45-.08.51.06.16.23.16.28.33-.07.45-.3.06-.72.22.61.38-.29,1.68-.99,1.38.34.26-.23.3-.05.76.42-.05.25-.56.68-.6.24.2-.45.62-.65.85.12.13.19.31.18.6.03.29-.34,0-.27-.21-.29.17.15.53.41.44.03-.24.32-.27.18-.65.19.03.33.13.51.17-.06.48-.72.49-.76.99-.32-.12-.39-1.07-.8-.63.43.19.11.24.06.62-.43-.26,0-.38-.62-.03.24.23.31.32.2.72-.6-.27-.22.67-.92.64.57-.92.65-1.91,1.7-2.64-.73,0,.28-.81-.35-1.07-.22.02-.24.19-.47.2.34.47-.43.83-.79.75.54.09.1.6.68.64-.17.17-.09.54-.43.57-.33-.02.46-.56-.28-.33-.19-.38.38-.15.19-.53-.22.05-.27-.11-.5-.05.14.76-.3.61-.69.48.56.44-.5,1.07-.7,1.61.14.34.2.11.5.05.1.82-.92,1.29-.67,1.85-.38.17-.29-.28-.53-.29.27-.39.47-.85.87-1.14-.08-.27-.26-.4-.54-.41.07.2-.07.25-.22.28.07.1.13.2.27.21-.71.09-1.1,1.48-.9,2.02-.56-.69-.72.27-1.35.09.03.21-.06.33-.2.41.27.41.31-.27.6-.22.38.09.25.64.39,1.31-.62.05-.16-.59-.46-.8-.53.17-.18.3-.28.8.25,0,.35.19.53.29-.02.25-.46.18-.3.56.5-.11.16-.85.89-.78-.01-.57.02-1.11.34-1.43.26,0-.13.41-.19.53.14.31.53-.19.22-.29,1.4.88-1.31,2.2-1.67,3.66.17-.04.34-.08.38.06.32-.02.04-.49.44-.45.22.1.06.85-.39.82.43.09.43,1.01-.12,1.02-.14.03.01-.64.28-.67-.48-.19-.29-.44-.59-.78-.39.2-.42.03-.83.27.22-.63.72-.73.65-1.75-.55.07-.31-.26-.86.03.24.16.66.05.58.65-.34.49-.84.86-1.06,1.44.27-.08.46-.05.51.16.22-.17.38-.38.54-.6.18.16.1.52.09.74-.2.08-.24-.06-.27-.2-.49.28.32.39-.15.78-.23-.12-.3-.45-.56-.53.15.88-1.07,1.49-.93,2.42-.24-.01-.26-.31-.64-.14-.03.38-.41.51-.24,1.04.28-.09.47-.07.62.01-.08.46-.46.7-.47,1.21-.4-.03-.62-.81.01-.87-.33.02-.34-.4-.67-.38.28.64-.16.83-.28,1.67.4.03.11-.43.43-.46.33.25-.25.46-.12.9-.21.06-.27-.1-.5-.03.64.69-.62.84-.53,1.48-.66-.15.02-.82-.28-1.08-.11.03-.07.17-.08.27-.37.23-.15-.38-.52-.15.03.41-.47.64-.01.76.13.46-.48.39-.51.73-.22-.07-.4-.39-.07-.49-.52-.28-.26,1.21-1,.82l.11.73c.24-.1.33.02.5.03-.03.4-.3.22-.59.24.25.83-.59.91-1.39,1.53.1.7-1.15,1.26-1.29,2.14.33.24.29-.26.56-.37.29.35-.28,1.03-.52,1.37-.44-.11.31-.47-.1-.61-.31.12-.54.24-.72.15.02.27.23.89.34,1.32-.12.41-.54.01-.84.18-.17.15-.11.99-.52.62,0,.83-.48,1.33-.94,1.84-.44.2-.24-.56-.68-.36-.08.57.51.16.48.65-.01.47-.6.12-.96.21.01.29-.33.35-.4.59-.15-.18-.38-.24-.76-.09.1.08.24.29.06.37.08.31.18-.21.48-.11.12.37-.24.41-.4.59.08.28.45-.11.46-.23.18.08.29.27.44.41-.17.3-.44.13-.16.54-.54.11-.2-.24-.44-.4-.4.18-.02.38.1.61-.12.42-.52.65-.69,1.04-.23-.12-.28-.5-.49-.65-.32.26-1.09.21-1.1.76-.63.01-.9-.07-1.39.58.27-.1.45-.35.72-.17.06.36-.19.52-.37.72.05.24.35.08.33.43.16-.31.9-.61.58-.9.19.07.41.09.45.4-.13.28-.52-.08-.27.57-.36.24-.16-.37-.52-.13.47.22.19.62-.23.81.15.36.4.12.48-.11.06.21-.1.29-.03.51-.22-.02-.68.31-.74.05-.12.11-.02.9-.41.48-.29.16.39.79-.06,1.03-.17,0-.16-.28-.21-.46-.29.34-1.13.78-.78,1.2-.01.15-.48.6-.48.11-.37.69-.47,1.84.24,2.6-.09.19-.27.32-.26.57-.43.15-.31-.57-.81-.31-.06-.54.13-.42.38-.6-.02-.5-.21-.73-.62-.61.03.12.16.06.26.06-.01.31.02.65-.36.73-.31.05.12-.25-.1-.49-.42.01-.05.53-.52.51.61.57-.4,1.1-1.09,1.42.1.41.48.92.83.43-.45-.11-.13-.34.14-.55.18,0,.05.21-.07.27.4.08.65-.85,1.02-1.15-.26,1.53-1.79,3.15-2.41,4.8-.14.02-.15-.19-.19-.33-.23.14-.41.3-.23.69-.54-.16-.25.27-.67.42-.31.12-.03-.7-.46-.39.3.57-.07.55-.54,1.03.23.45.29.88-.42,1,.18.46-.21.57-.03,1.03-1.49.21-1.6,2.12-2.93,3.22.34.16.4.67-.13.55-.02.41.2.43.37.54-.03.12-.06.24-.18.3-.2-.17-.47-.2-.52-.62-.55.27.54.47-.22.7.45.43.18.45-.05.91-.26.05-.32-.23-.37-.53-.04.96-1.06,1.88-.47,2.94-.05.46-.29.32-.5.53-.34.08-.33-.45-.7-.31.03.39.26.45.5.5-.3.33,0,.37-.07.79-.52,0-.73-.78-.52-1.14-.2.09-.27-.04-.15-.09-.72.28-1.61.76-1.28,2.04-.36.17-.18-.58-.58-.34.26.51-.65,1-.9,1.55.04.22.21.21.23.45-.14-.04-.19-.24-.41-.14-.14.3.05.15.11.48-.13,0-.14-.22-.29-.17-.5.16-.43.65-.06.79-.14.02-.2.09-.21.19-.14.02-.15-.19-.2-.32-.43.71-1.63,1.53-1.33,2.32-.8.48-.16.6-.67.85.36.73.13.92.16,1.63.3-.07.31-.3.53-.42.13.38-.39.39-.32.74-.14.02-.16-.19-.21-.32-.31.47-.88.8-1.2,1.27-.14.02-.15-.19-.21-.33-.16.22-.4.39-.32.75.67.7-1.32,1.64-1.22,2.7.63-.84,1.2-1.72,1.89-2.52.02.42-.32.64-.52.94.28.31.31-.36.53-.42.06.24.12.48.18.72-.21.08-.28-.07-.5.02-.17.76.54,1.11-.19,1.73-.3-.07-.03-.69-.13-.99-.19-.07-.46.02-.56-.21.02.22.72,1.11.01,1.54-.21.04-.32-.12-.36-.4-.44.18.3.96-.16,1.34-.37.22-.28-.44-.68-.17,0,.11.07.1.15.08.21.09-.19.44.28.56-.14.1-.52.58-.07.67-.16.15-.07.44-.37.51-.28-.13-.26-.83-.61-.84-.01.24-.04.59,0,.91-.27.14-.31-.14-.62.07-.15.53-.51.94-.76,1.41-.26.07.07-.35-.16-.6-.55.48.41,1.17-.49,1.46-.02.2.3.57.04.63.11.3.16-.23.47-.15l.1.36c-.54.32-.49.95-1.06,1.25-.39-.18-.09-.86.39-.9-.07-.31-.09-.59.04-.79-.11.27-.99.59-.68,1.26-.4.2-.4-.33-.8-.13.37.59-.17,1.5-.53,2.25-.37.04.04-.29-.13-.47-.17.34-.35.05-.7.23,0,.54-.42.86-.36,1.43-.77.34-.2.63-.14,1.74.13-.37.13-.8.46-1.07-.01-.22-.15-.19-.3-.16,0-.27.11-.48.33-.63.23-.12.07.35-.02.4.3.02,1.39-.4,1.11-1.03.58-.02,1.02-.92,1.11-1.53.32-.07.45.12.29-.35.93-.55,1.47-1.3,1.68-2.23.53.25.57-.8.93-.3-.09-.21.07-.46.16-.83-.21.05-.21.23-.43.27.01-.2.09-.35.1-.55.16,0,.28.07.33.28.35-.08.29-.38.64-.46-.02-.2-.17-.17-.21-.32.31-.06.59-.15.37-.51.18-.07.46-.09.43-.27.27-.14.08.56.45.25-.42-.62.57-1.83,1.14-1.91.33-.19-.18-.22-.12-.48,0-.1.09-.15.05-.27.34-.2.4.1.74-.1-.19-.77.78-1.54,1.33-2.21-.18-.34,0-.47-.06-.75-.54.21.1.46-.32.74-.13-.32-.09-.23-.56-.21-.2-.77.3-1.07.75-1,.15.36-.57.22-.35.62.2-.34.72-.27.8.14.27-.49.76-.86,1.04-1.35.33.37.2.21.62-.06-.05.31-.31.51-.73.61.07.22.41-.04.44.25.05-.34.43-.5.55-.81-.09-.3-.45-.12-.76-.03.14-.5.61-.81.51-1.44-.16-.17-.45-.12-.59-.34.15-.53.39.21.73-.09.19,0,0,.17.09.36.76-.17,1.01-1.38,1.88-1.58-.11-.89.56-1.32.92-1.93.5,0,.08.61.47.89.56-.3-.16-.86.62-.56-.16-.28-.41-.42-.73-.43.13-.64.52-1.13,1.01-1.57-.47-.49.05-.9.33-1.25.14-.02.15.19.2.33,0,.17-.27.18-.44.25.01.15.08.21.17.21l.06.24c.35-.17.08-.71.71-.71.09.29-.19.36-.24.58.34.32.45-.34.65-.44.33.86.45-.53.94-.78-.25-.1-.61-.45-.44-.77.25.43.49.02.94.25-.05-.13-.02-.22.06-.27-.49-.1-.14-.58-.46-.89.18-.17.99-.57.85-1.25.36-.16.4.21.58.35.44-.32.71-.7,1.07-.8-.04-.16-.07-.32-.11-.48l-.47.13c.24.53-.4.52-.58.79-.1-.54.57-.62.5-1.15.88.54.88-.6,1.66-.96-.23.17-.16.52-.48.64.35.24.59-.46.72-.7-.15-.19-.36-.27-.49-.5.14-.48.5.02.74-.07-.09-.19.04-.25.18-.3-.45-.28-.23-.64.46-.76-.62-.06-.09-.21-.31-.81.66-.19.03.75.72.44-.46-.45-.14-.65-.36-1.05.57-.17.08.64.39.66.23-.37.27-.45.05-.9.52-.16.02.36.34.42.91-.35.42-.92.63-1.69.28-.07.39.12.74-.06-.13-.53.39-.66.39-1.11.25.02.35.3.57.36.07.19-.07.23-.04.39-.3.16-.28-.19-.43-.27-.21.5-.04.79-.49,1.26.32-.25.78-.42.82-.84.36-.13-.23.42.19.33-.36.26-.51.66-.8.96.06.12.25.02.29.18-.02.38-.33-.08-.59.15.05.2-.02.33-.16.42.89.58-.65.61-.32,1.35-.36.16-.4-.33-.62.04.16.39.62.28.78.68.34-.07.19-.43.51-.51-.05-.13-.24-.04-.38-.03-.1-.41.25-.54.45-.75.29.11-.02.31.25.57-.13.33-.43.56-.4.99-.36.16-.4-.33-.62.04.78,1.12-.98,2.31-1.5,3.31-.22-.07-.21-.53-.49-.5.66-.84,1.45-1.59,1.93-2.54-.18-.3-.47.18-.27.45-.39.08-.5.43-.64-.08-.09.29-.18.58-.31.84-.23-.05-.26-.44-.67-.2.28.49.09.48-.19.81-.34.19-.3-.27-.64-.08-.45.46-.57,1.29-.47,1.77-.12-.08-.34.02-.41-.14-.07-.33.39.2.18-.3-.56.28-.58.89-1.11,1.19l.2.84c-.28.04-.49-.07-.85.11.32.6.6.08.91.13.1.44-.83.26-.56.8-.5.19-.41-.65-.96-.37.03.12.17.05.26.05-.08.74-.65,1.18-1.09,1.71.14.49.74.19.85-.11-.03.36.51,1.05.02,1.14-.36-.02.1-.37-.23-.44-.42-.04,0,.41-.41.37.18.34.4.19.29.68-.25.09-.4,0-.44-.26-.54.25.37.72-.15.93-.29-.01-.2-.67-.61-.46,0,.39.23.4.29.68-.03.12-.05.24-.18.3-.25-.12,0-.55-.41-.65-.19.41-.37.18-.91.39-.69.56-.74,1.54-1.01,2.07-.29-.74-1,1.07-1.51,1.48-.38-.25.46-.69.19-1.21-.71.42-.25,1.41-.98,1.58.06.13.24.04.38.01.24.41-.2.43-.05.79-1.05.17-.79,1.32-1.54,1.36-.05.9-.7,1.1-.51,1.95.18-.27.15-.03.47-.14,0,1.12-.96.9-1.61.62.19.36.58.36.8.65-.27.29-.42.64-.78.88-.26,0,.05-.5-.07-.75.22.01-.92,1.03-.92,1.31-.17.15-.57-.08-.3-.16-.36-.18-.17.31-.25.47.06.13.24.03.38,0-.31.65-1.74,1.16-1.79,2.25l-.58.19c.06.24-.28.25-.1.55-1.16.25-.73,1.35-1.84,1.63,0,.91-.66,1.46-1.51,1.91,0-.56-.16-.67-.18-1.1-.4.79-.29,1.86-.96,2,.65.31.66,1.03,1.49,1.19-.29.35-.69.64-.99.98.69.31.99-1.31,1.78-.86.09.25-.39.19-.54.31.44.31-.3.66-.04,1.18-.22-.18-.45-.35-.91-.08.38.16.33.45.39.91-.42.09-1.03.35-.59.59-.35.18-.53-.1-.7.23-.37.01-.18-.13-.25-.43-.24.31-.49.61-.46,1.06-.39.14-.35-.55-.75-.39.04.2.6.62.09.75.15.14.22.42.57.2-.06.53-.09.43.24.82.18.29-.57.1-.4.39.1.51.4-.04.61-.08-.04.24-.37.34-.33.63-.28.06-.23-.53-.6-.31.28.26-.15.63-.28.35.34.77-.35,1.44-1.23,1.86.16.11.24.4.41.51.32-.26.26-.1.69-.24-.02-.27-.23-.17-.42-.12.21-.72,1-1.14,1.53-1.7-.02.69-.91.93-.92,1.62.24-.24.47-.49.82-.67.01.4-.54.52-.18,1.1-.28.06-.34-.33-.68-.15.08.2-.07.3.03.51-.23.14-.27-.09-.34-.27-.23.08-.05.37-.39.4.39.3-.13.68.29.94-.47.3-.5-.26-.91-.07.07.44-.57,1.03-.86.96.03.63-.44.39-.48.95-.37.05.03-.29-.14-.47-.55.29-.44.9-.9,1.23.15.29.21.36.56.58-.21.23-.32.8.06,1.02-.33.28-.2-.35-.53-.07-.21.19-.05.57-.43.68.05.4.33.28.18.58-.38.14-.32-.62-.6-.7-.13-.3.68-.12.35-.52-.39-.1-.66.55-.59.99-.3.21-.35-.06-.61.09.06.53-.02,1.5-.43,1.47-.15.1.06.21.19.19-.09.32-.13.66-.65.76.2.33-.09.42.11.75-.09-.47.86-.43.58-1,.49-.05.48.36.99-.1.29.71-.33.58-.42.68.22.5.43-.18.76-.02-.17-.28-.09-.44.23-.48-.19-.35.1-.44-.19-.59-.3.18-.2.5-.57.21-.05-.25.5-.21.34-.52.36,0,.29.41.65.02-.6-.09.18-.35.31-.63.11,0,.52.3.26.42.1-.23.86-.49.86-.96.8.03.62-.68,1.35-.61.06-.47-.29-.58-.06-1.02.17-.02.19.26.26.43.65-.1.53-.59.89-.83-.14-.22-.26-.18-.38,0-.27-.41.28-.56-.1-.74.08,0,.53.13.46-.16.37-.01.18.13.26.43.48-.28.32-.89,1.09-1.03-.73-.55.66-.4.17-1.1.43.32.35-.24.73-.12-.09.32-.13.65-.66.75.51.58-.38,1.06-.98,1.38.21.14.43.29.49.74-.35-1.12,2.2-1.72,1.19-3.14.32-.46.46-1.02.98-1.38-.14-.22-.26-.19-.38,0l-.21-.7c.03-.18.18-.3.39-.39.12.36-.27.46.01.9.32-.13.42-.38.74-.51l-.14-.47c.05-.14.16-.25.28-.35.26-.07.34.21.41.51.44-.51-.57-.68.03-1.17-.09-.13-.22-.19-.42-.12-.05-.22-.04-.42.09-.55.5.65,1.31-.47,1.82-.74-.05.55-1.1,1.47-.51,1.72-.23.47-.74.81-.88,1.33.41.27.42-.5.71-.62.01.47-.16.39.13.86-.76-.14-.31.42-1.08.23.07.53.44.49.79.5-.02.37-.5.14-.69.24.09.27-.09.41.1.74-.29.21-.35-.06-.61.08.2.54-.09.21-.35.51.05.49-.32.75-.25,1.25-.34.23-.33-.22-.57-.19.06-.45.78-.97.13-1.21-.15.19.03.54-.01.78-.11-.03-.23-.06-.38,0,.16.51.15.6-.28.75.05.59.58.23.64.81,0,.1-.08.16-.04.28-.34.18-.42-.18-.61-.31-.47.03-.24.41-.62.48.02.21.16.19.3.15-.05.56-1,.68-.56,1.49-.69.73-.68,1.54-1.56,1.97.25.45-.17.57-.24.87.32.27.46.2.57.58.51-.21.42-.26.92-.33-.29-.36-.26-.16-.45-.62.07-.39.51-.6.28-1.14.38-.06.39.61.64.81.29-.09.32-.81.73-.52.38-.46.09-1.26.94-1.49.08.43-.22.67-.17,1.09.17-.17.19-.43.62-.47-.28-.24-.24-.32.16-.31-.24-.87.88-1.06.98-1.76.31-.24.29.19.38.39.38-.07.2-.42.46-.55-.34,0-.62-.13-1.11.13-.13-.05-.24-.15-.34-.27.06-.2.23-.34.35-.51.2-.01.21.33.53.07-.03-.26-.17-.28-.26-.43-.01-.14.2-.16.16-.31.42-.03.09.26.38.39.08.33-.5.33-.28.74,1.53-2.26,2.75-4.69,4.53-6.81-.54-.48.19-1.09.72-1.01-.24-.33-.7-.25-.94-.59.08-.53.66-.17.67-.74.14-.02.16.18.22.31.29-.34.14-.92.53-1.2.57.89.93-.69,1.86-.99.02-.39-.32-.12-.53-.09.36-.61.3-.29.8-.76-.07-.16-.36.07-.41-.12.03-.18.19-.3.4-.38-.14-.1-.24-.27-.28-.55-.05-.47.52-.03.33-.62.21-.04.32.12.37.4.72-.8.87-.54,1.26-1.8.16,0,.28.07.33.28-.05-.95.76-1.44.86-2.31.12.02.24.04.3.16.17-.27.08-.69-.07-1.13.28-.16.43-.08.45.25.32-1.02,1.65-1.48,1.36-2.84.33-.19.31.26.65.06.06.23-.28.24-.11.54.28-.78.33-1.92,1.18-2.63-.26-.3-.56.47-.68-.18.53-.23.96-.41,1.04-.81-.34-.49-.21.3-.52.41-.17-.46.17-.64.25-.96.25.13.46.34.65.57.32-.83.08-1.7.87-2.41.13,0,.14.21.3.17.21-.05.21-.22.43-.25-.13-.44-.22-.3-.19-.71.16.06.35.07.61-.05.06-.47.37-.79.58-1.17.29-.07.12.38-.03.39.62-.03.46-.97.14-1.43.42-.28.42.18.5.49.31-.53,0-1.41.55-1.79.21-.11.31.49-.03.39.37.09.65-.13.88-.5-.04.13-.16.51.21.32,0,.2-.34.2-.11.54.42-.09.28-.5.58-.66-.25-.02-.51-.43-.15-.59-.09-.16-.14.09-.35.1.04-.38.18-.7-.06-1.25.41-.24.29.39.67.2-.11-.36.11-.74-.24-.95.46-.59,1.09-1.2,1.2-1.72-.17-.11-.39-.12-.38-.53.56,0,.53.56.99-.02.18.38-.14.45-.2.69.39.19.34-.74.65-.93-.11-.1-.3-.05-.32-.29.3-.15.29-.38.8-.33,0-.38-.29-.29-.29-.68.09-.25.91-.05.57-.77.27-.12.31.15.62-.04.09.29-.09.42-.24.57,1.39-.68,1.76-2.86,2.78-4.11.2.1.32.35.4.65.26-.22.18-.63.57-.77-.05-.3-.27-.33-.46-.38.38-.67,1.81-1.45,1.26-2.69.46-.02.1.41.37.53.31-.46.36-.58.67-.91-.08-.15-.25-.14-.31-.3.16-.57,1.5-.87,1.04-1.5.28-.07.39.12.73-.05.05-.27-.15-.71.34-.71-.54-.81.96-1.15.79-2.06.11.15.46-.09.52.13.07-.47.04-1,.76-1.06-.1-.27-.07-.46,0-.62.11.04.22.08.38.04-.18-.21.07-.61.19-.29-.06-.36.24-.71.66-1.01-.37-.11-.27-.31-.12-.59.14-.01.14.19.19.33.35-.29.43-.75.78-1.04.16.51-.31.33.02.74.21-.17.46-.32.5-.61.17,0,.16.28.21.45-.18.26-.81.23-.59.75.11-.38.6.13.69-.28.38.12.23.41.14.71-.25.02-.3-.26-.45-.4-.38.16-.08.49.03.74-.16.24-.19.56-.61.63.42-.49-.2-.69.16-1.03-.17-.3-.42.38-.43-.28-.05-.43.4.35.35-.08-.06-.57-.14-.16-.52-.13.03-.12.06-.24.19-.29-.47.15-.66,1.36-1.25,1.77.51.11-.1.33.24.57.2-.35.38-.72.38-1.2,1.07.44,0,1.43.03,1.98-.7.31-.73-.43-1.3-.32.46.32-.43.41-.17.92.07-.27.64-.82.91-.34-.73.11.01.54-.67.91-.4.16-.38-.35-.78-.19l.13.6c.17-.05.33-.1.38.03-.07.91-.64,1.51-.86,2.32.48,0,.36-.39.63-.52-.01.56-.28,1.42-.97,1.23.17-.16.23-.4.08-.76-.22-.25-.31.3-.5,0-.21.51.12,1.26-.74,1.17.19.36-.1.41-.25.56.12.07.14.31.31.3-.58.39-.65,1.63-1.39,1.58-.16.34-.23.74-.37,1.1-.13-.06-.23-.17-.32-.3-.32.19.16.36.14.59-.42.15-.56-.17-.72-.44-.33.26-.42.78-.97.62.23.27.69.17.78.68.5-.33-.53-.56.16-.92.35.08.45.3.4.65-.21.65-1.26.79-1.39,1.48-.53-.03-.09-.39-.17-.71-.36.12-.27.51-.3.83.11.04.22.07.38.03-.03.25-.33.17-.03.38-.55.24-.04,1.12-.98,1.13.3.25-.02.9-.45.74.48.62.03,1.3-.49,1.63.01.2.16.17.2.32-.48.24-.51.81-.99.52.07.27.14.55.21.83-.54.37-.4-.44-.82-.29.11.5-.14.79-.49,1.02.22.19.28.64.47.88-.41.04-.38-.7-.88-.52.71.42.12,1.36-.46,1.64-.08.47.39.67,0,1-.25-.17-.39-.63-.53-.11-.27-.05-.37-.38-.44-.76-.1,0-.1.08-.09.15l-.23.06c.06.35.35.29.41.64,0,.51-.57.12-1.02.41.13.44-.45.48-.41.87.59-.06.66-.42.67-.82.17.1.45.02.73-.08-.26.28.09.43-.47.63-.05.42.4-.01.35.4-.55.12-.87.87-1.28,1.36.14.2.49-.31.5-.52.64.23.13.92-.19,1.19-.48.02.27-.54-.12-.47-.6.17.1.45-.31.72-.46-.84-.54,1.22-1.52,1.33.21.35.06,1.01.18,1.59-.63-.41-.74,1.14-.61,1.44-.16.06-.32.12-.38-.02.16.25-.28.42-.13.92-.68-.06-.3.52-.44,1.14-.23.02-.3-.27-.64-.06-.14,1.16-.76,1.47-1.04,2.59-.25,0-.33-.28-.5.02.59.34-.03.66-.56.68.54.09.6.76.18,1.09-.44-.07.26-.48-.17-.59-.21.05-.2.22-.43.26.13.22.41.12.25.43-.17.02-.14-.34-.33-.28-.46.38-.32.66-.03.77-.07.45-.47-.26-.58.18.39.15.34.55.27.93-.52-.1-.14.23-.66.33.32.17.08.54-.18.69-.19-.07,0-.21-.33-.28.41.37-.75,1.29.05,1.51-.36.17.15.8-.23.96-.45.04-.1-.37-.35-.78-.27.22-.26.58-.53.8.88.63-.11,1.44-.09,1.82-.27-.17-.19-.61-.24-.82.18-.1.24.02.3.16.35-.25-.1-.36.02-.77-.36.46-.32.64-1.16.76.01.41.37.15.48.35-.79.17-1.13,2.27-1.67,2.85,0,.13-.03.79.33.66.13.57-.71.6-.1.93-.32.13-.39-.23-.6-.31-.01-.17.26-.19.43-.27-.17-.4-.57-.06-.44-.62-.21.39-.02.56-.03,1.16-.11-.03-.22-.06-.38,0,.13.39.27-.07.57.2.02.3-.37.39-.13.81.98-.99,1.62-2.15,2.29-3.3.33-.26.2.35.53.08.15-.29-.07-.3-.17-.58.46-.15.5.5.66.93-.36.64-1.42,1.02-1.38,2.11-.1.24-.53.31-.59.57.45-.04.37,0,0,.38.01.34.3.16.37.39-.88.28-.5.64-.79,1.15-.26.14-.32-.13-.61.07.35.14.44.49.1.73-.26.14-.1-.55-.45-.23.1.18-.02.25-.15.31.12.07.2.22.26.43-.51.58-.73.88-1.38,1.24.58.46-.41.43-.2.97-.37.02.06-.34-.18-.58-.12.29-.19.61-.5.81,0,.19.32.55.07.62.45.1.36.17.49.73.21-.64.82-.64.74-1.28.49-.11.18.32.57.19-.07-.43-.29-.56-.56-.58-.02-.24.15-.38.05-.66.51.23.51-.39.54-.7.43-.03.12.47.49.73.21-.26.08-.34-.07-.62.17-.04.58-.11.84-.54-.21-.1-.27-.46-.37-.77.3.03.49.27.91.08-.12-.32.24-.4.32-.61.13.17.41.08.57.2.28-.89.84-1.64,1.43-2.37-.24-.71.67-.82.57-1.46,1.2-.4.56-2.2,1.84-2.24-.2-.3.07-.35-.06-.62.39-.05.51-.25.77-.37.02.41-.42.5.02.89-.34-.34-.29.09-.54.3.22.36.29.02.46-.15.18.55-.22.79-.4,1.15-.22.06-.07-.47.09-.54-.46-.08-.46.92-.75,1.26.38-.03.12-.39.5-.42-.46.65-.22,1.11-.46,1.8-.29.13-.09-.68-.49-.35l.14.46c-.65.51-.8,1.43-.77,2.03-.19-.66-.45.14-.73.49.17.14.25.43.42.12.3.82-.62.46-.41,1.14-.34.1-.51-.12-.72-.27-.22.15.11.74.25.81.03.41-.96.67-.43,1.04-.07.14-.54.55-.65.35.21.48-.12,1.37-.78,1.92.03-.49.08-.41-.18-.96-.3.17-.54.37-.84.54-.02.27.66.03.34.27.33.34.17-.35.23-.46.53.18.42,1.25-.32,1.39-.29.5.45,1.51-.32,1.77l.15.46c-.28.18-.3-.16-.45-.23-.28.25.17.85-.31,1-.37.02-.05-.39-.19-.57-.23.97-.33,1.92-1.19,2.2-.1.27-.29.5-.07.93.21-.12.36-.1.42.11-.52.13-.43,1.21-1.13,1.55-.11-.28-.21-.55.03-.65-.34.03-.74.85-.98,1.25.21.54.13-.27.57-.2.13.38-.24.53-.07.92.16,0,.28.06.34.26.32-.1.17-.27.46-.16-.03.11-.06.23,0,.38-.77.12-.67.3-1.17.67-.25-.44.47-.41.22-.85-.38.04-.27.32-.64.36.38-.01.29.82.12,1.11-.14.03-.17-.17-.23-.3-.47.03-.23.4-.61.47.09.2.41-.07.53.07,0,.67-.64,1.03-.71,1.66.4.19.13-.42.45-.55.1-.01.15.07.27.03-.34.32-.1.57-.14,1.08.45.18.49-.26.18-.58.38-.26.3.56.53.07.12.35-.06.93.5.72ZM170.23,315.46c-.16-.44.3-.55.52-.78.09.4-.19.6-.52.78ZM185.73,294.5c.2.42-.38.75.29.67-.05.53-.4.87-.81,1.18-.18-.38.04-.31-.32-.78.17-.06.44-.06.44-.23-.04-.15-.23-.06-.29-.17.29-.19.06-.68.7-.66ZM298.13,136.38c.14-.38-.11-.64.41-.53.13.21-.07.64-.41.53ZM293.03,128.73c.39-.46.4-.57.54-1.28.36.22.45-.07.51-.39.44.17.5.16.89.47.24-.53-.21-.66-.49-.89.74-.22,1.09.52.93,1.13-.85-.23-.85,1.1-1.54,1.17-.46-.15.21-.35-.09-.54-.15.32-.58.61-.75.33ZM250.06,164.84c-.06.45-.56.36-.71.69.05-.47.33-.64.71-.69ZM230.45,185.12c-.32-.1-.7.37-.86,0,.45.1.69-.57.86,0ZM215.7,200.45c.21-.12.15-.51.61-.41.06.32-.42.73-.61.41ZM144.59,302.39c-.17.35-.33.7-.77.9.18-.28.39-1.07.77-.9ZM153.04,298.45c.32.21-.53,1.53-.87,1.03.59-.18.25-.87.87-1.03ZM137.53,325.45c-.08-.14-.23-.17-.26-.43.23-.05.22-.22.43-.28.13.33.21.64-.17.71ZM168.25,295.56c-.37.7-.56.99-.99,1.53.05-.67.43-1.15.99-1.53ZM160.15,310.18c-.17.21-.4.89-.68.72.12-.24.31-.94.68-.72ZM155.59,317.47c.11.05.51.6.06.62-.27.04-.3-.6-.06-.62ZM151.81,339.37c-.18.12.07.14.12.34-.6,0,.04.59-.57.59-.29-.46.18-1.05.45-.93ZM159.07,329.46c-.08.22.07.55-.31.61-.23-.53.26-.58.31-.61ZM166.88,320.23c.28.18.03.66-.39.75-.17-.41.14-.57.39-.75ZM168.13,318.09c.05.35-.42.93-.79.74.36-.19.22-.66.79-.74ZM144.33,325.9c.31-.5.34-1.14.79-1.57.15.69-.39,1.47-.79,1.57ZM176.74,314.29c.31.22.03.73-.36.86-.25-.49.01-.7.36-.86ZM161.22,318.98c-.15.25-.03.63-.4.76-.11-.32.04-1.01.4-.76ZM142.97,325.21c-.29,0-.2.67-.54.32.18-.18.21-.77.54-.32ZM143.02,324.55c.5.08.22-.2.5-.43.06.19.34-.05.42.11-.23.36-.46.12-.31.63l-.35.12c-.08-.15-.23-.17-.26-.43ZM144.75,323.56c-.09.28.06.68-.39.78-.24-.45-.01-.66.39-.78ZM157.38,317.53c-.05-.22-.04-.41.09-.54.07.47.91.62.43,1.01-.42-.05-.13-.62-.52-.47ZM145.74,321.01c.05.15.1.31.14.47l-.34.12c-.22-.34.06-.43.2-.59ZM138.71,323.47c-.59-.13-.12.34-.47.56-.52-.19.29-1.29.47-.56ZM158.11,315.77c.58-.33.18-1.3,1.03-1.21-.43-.28-.13-.8.23-.96-.29.79.31.94.27,1.81-.77-.03-.08.31-.69.22-.09.45-.16,1.41-.6,1.34.09-.04.23-.5,0-.39-.04.3-.22.54-.55.69-.16-.35.13-.45.47-.54-.1-.36.24-.74-.17-.97ZM171.55,312.31c.37.21.04.59-.14.8-.3-.18-.15-.65.14-.8ZM156.18,316.9l.46-.15c.11.25.1.45-.09.54.03-.42-.4.03-.37-.39ZM140.78,321.05c.22.41-.59.3-.28.75-.34.15-.53-.3-.73.13-.27-.82.71-.44,1.01-.88ZM147.44,318.63c.11.35.3.75-.14.82.1-.25-.26-.73.14-.82ZM142.97,320.28c-.57.06-.71-1-.25-1.22.29.14.38.47.33.67-.4-.19-.3.24-.09.55ZM161.85,311.69c-.39-.2-.3.23-.1.54-.13.19-.25.23-.46.14.08.73-.74.97-.64,1.71-.31.15-.65-.37-.43.26-.36.15-.97-.16-.52-.47.05.14.11.26.3.16-.82-.51-.08-1.26-.04-1.89l.58-.18c.13-.32-.15-.87.34-.99.4.39.11,1.14-.21,1.46.15-.02.11.11.07.23.16-.24.61-.32.71-.6-.22-.61-.34-1.17.24-1.34-.34.61.08.63.15.97ZM147.5,317.97c-.08-.22-.41.05-.45-.24.42.02-.02-.41.39-.39.13.37.41.43.51.86l-.35.12-.1-.35ZM181.42,307.18c.29.02.31.68-.07.64-.01-.23-.35-.65.07-.64ZM174.56,307.96c.41.46-.7.88-.45.62.2-.18.04-.56.45-.62ZM144.26,317.38l.14.47c-.14.03-.32.13-.38,0,.19-.1-.27-.36.24-.47ZM147.46,315.27c.05.22.2.24.42.12l.17.59c-.18.2-.5.33-.74.51.13-.36.08-.82.15-1.21ZM144.19,317.14c-.15-.27-.4-.32-.64-.43.23-.08.05-.37.39-.39.21.91.55-.43.88-.04-.39.2-.26,1.18-.87.94l.23-.08ZM149.24,314.42c-.61-.16-.29.5-.67.74-.57-.55.21-1.26.67-.74ZM149.72,313.88c.22-.25.52.16.46-.15-.11-.23-.38-.13-.49-.36l.46-.15c.07.18.1.41.33.28.1.28.19.56-.06.66-.05-.14-.12-.27-.3-.16,0,.36.25.25.29.55-.46.21-.47-.45-.7-.67ZM152.8,312.74c.14.5-.05.83-.6.97-.05-.46.21-.74.6-.97ZM144.73,315.93c.02-.49.7-.63.68-1.14.15.5-.03.68-.3,1.14-.06-.13-.22-.07-.38,0ZM162.05,309.34l.13.47c-.42.03-.53.23-.33.61l-.34.11c-.06-.52.3-.82.54-1.18ZM146.22,314.52c-.29.15-.25.47-.59.59-.17-.33.29-.83.59-.59ZM177.08,304.51c-.02.51-.57.72-.66,1.18-.41-.41.29-.91.66-1.18ZM143.22,315.14c-.2-.04-.28-.32-.4-.51.04-.25.15-.45.33-.63.27.03.43.27.64.43-.35-.65,0-.93.12-1.34.7-.06.78-.41,1.29-.82.27.44-.47,1.13-.81,1.57.2-.07.32,0,.42.12-.24.47-.44.54-.58.2-.1.41-.41,1.67-1.31,1.61.41-.28.08-.32.33-.63ZM148.91,312.86c.32.32.45.57.01.9.28-.52-.34-.41-.01-.9ZM144.7,314.52c.2-.13.22-.35.51-.43.15.36-.3.84-.51.43ZM162.63,308.28c.13-.09.19-.22.13-.42l.57-.18c-.08-.71.31-.66.38-1.37.06.23.36.05.36.4-.45.14-.46.53-.51.9.31.02.58.12.66.56-.23.17-.38.38-.74.48-.13-.36.2-.48,0-.89-.37-.04-.52.63-.86.51ZM163.12,308.26c.09.38-.12.59-.56.68-.04-.35.34-.47.56-.68ZM146.35,312.8c.33-.27.2.35.53.08.07.3-.03.51-.32.63-.2-.1-.32-.5-.21-.71ZM180.89,302.51c.06.3.14.6-.19.67-.15-.35.02-.51.19-.67ZM145.51,312.95c.21-.1.29.05.5-.04.13.3-.05.44-.36.51l-.14-.47ZM154.79,309.05c.2-.07.37-.09.5-.03-.1.38-.08.82-.61.96-.21-.44.34-.47.12-.93ZM146.88,311.98c.5-.26.31-.9.8-1.17-.28.38.05,1.09-.5,1.33-.05-.16-.24-.04-.3-.16ZM149.5,310.98l-.13-.47c.23,0,.5-.1.65.05-.38.03-.13.39-.52.42ZM145.85,311.93c-.15-.21-.67.3-.68-.16.2-.39.32.17.73-.11l.17.59c-.23,0-.38.51-.58.19.01-.23.29-.31.36-.51ZM164.55,305.69c-.35.23.15.46-.31.72-.2-.35-.06-1.02.31-.72ZM150.85,309.01c-.11.31-.12.67-.38.89-.21-.48.16-.65.38-.89ZM183.08,299.59c.01.23.09.51-.22.55-.29-.16-.22-.54.22-.55ZM153.6,307.5c-.25.23-.26.59-.68.73-.16-.39.44-.88.68-.73ZM165.48,304.03c.14-.38.47-.66.74-.97.14.49-.27,1.44-.74.97ZM145.58,307.88c.11.46.11.01.38,0,.21.35-.34.29-.22.59.55-.04.53-.39.87-.54.17,0,.83-.02.48.36-.2-.31-.25.25-.58.19.28.55-.41.58-.35,1.01-.49.04-.66.15-.86.54.06.19.34-.04.41.12-.77.48-.88-.08-1.35-.72.22-.11.27.08.42.12-.06-.2.3-.17.28-.35-.2.08-.37.09-.5.04-.09-.41.28-.48-.17-.59.1-.18.12-.41.52-.43.1.19-.09.36.1.36.13-.27.34-.49.57-.7ZM149.38,306.92c-.28-.14-.04-.36-.05-.63.52.1.44-.51.8-.77.25.6.18-.33.7-.22-.02.43-.53.58-.62.97.11.84,1.06,1.13.46,1.65-.03-.59-.64-1.6-1.29-1ZM184.1,296.86c.21.04.12.57.47.38.02-.52-.32-.46-.44-.75.23-.03.23-.19.44-.23.42.54.37.9.73,1.41-.88.19-.88.31-1.42.73-.08-.46-.15-1.07.22-1.54ZM166.49,302.23c.24.29.18.59-.16.8-.02-.31.09-.55.16-.8ZM143.8,309.24c.08.22.41-.05.45.24-.1.42-.77.07-.45-.24ZM151.14,305.97l.26.94c-.15.05-.12.2-.32.23-.37-.1-.35-.92.05-1.17ZM166.97,301.71c.29-.1.3-.33.5-.02-.23.07-.06.36-.4.37l-.1-.35ZM158.05,303.57c.58-.22.41.61.07.74-.18-.33.11-.41-.07-.74ZM146.52,307.58c.08-.16.57-.3.65.05-.28.11-.56.2-.65-.05ZM166.79,301c.03.07.05.13.15.08-.06-.2,0-.33.14-.42.09.38.02.67-.27.84-.03-.18-.16-.42,0-.5ZM165.26,300.43c-.4.11-.02.65-.42.76-.14-.35.07-1.01.42-.76ZM140.57,307.72c.25.32.31-.25.05-.28.28-.12.41.06.56.2-.26.31-.01.35-.41.79-.18-.23-.29-.48-.2-.71ZM187.5,292.23c.15.35-.21.4-.35.58-.15-.35-.03-.54.35-.58ZM160.85,298.93c.12.3-.06.43-.37.49-.12-.3.06-.43.37-.49ZM171.08,295.92c.42-.21.59.44.12.47-.07-.32-.26-.18-.12-.47ZM161.94,297.84c-.12-.51.39-1.18.86-1.01-.6.09-.3.69-.48,1.03-.14-.25-.14.2-.38-.02ZM190.11,288.8c-.1.37-.19.74-.65.88,0-.41.21-1.05.65-.88ZM145.6,301.42c-.2.1-.54.64-.79.38-.04-.23.57-.62.79-.38ZM153.35,297.2c.52-.05.49-.4.87-.52.11.43-.47.48-.1,1.06-.3.04-.2.29-.55.3-.06-.49-.03-.38-.22-.83ZM169.87,292.1c.39-.16.67-.14.7.31-.19.2-.62.05-.76.46-.23-.41.21-.42.06-.77ZM149.28,296.13c.1.43.16.84-.11,1.06-.09-.43-.33-.94.11-1.06ZM159.8,293.38c.11.3-.07.43-.38.49-.11-.3.07-.43.38-.49ZM155.69,294.06c.07.41.05.77-.4.89-.06-.41.22-.62.4-.89ZM158.15,292.84c.53-.24.36-.88.71-1.22.39.56-.1.91-.39,1.51.06.14.24.19-.06.27-.13-.11-.23-.27-.26-.56ZM167.21,289.41c.09.56-.17.91-.44,1.26-.11-.57.17-.91.44-1.26ZM149.62,293.97c.06.31-.11.49-.2.71-.16-.29-.51-.24-.65-.57.38-.22.5.04.85-.13ZM149.22,295.38c-.44-.08-.38.2-.79.37.22-.57-.36-1.44.4-1.41-.13.51.2.65.39,1.04ZM150.32,294.27c-.39,0-.29.78-.64.45.15-.29.21-.63.7-.73.04.22.19.24.41.13.05.37-.05.65-.29.86-.09-.2.18-.7-.18-.72ZM157.66,291.32c-.27.12-.12.48-.5.53-.15-.3.34-.74.5-.53ZM157.12,292.24c-.04-.32-.48.04-.47-.37.33-.26.75.15.47.37ZM159.54,291.3c-.15-.36.05-.51.06-.78.43-.02.46-.27.65-.44-.04.41.05.27.17.71-.36-.03-.54,0-.38.49-.2.07-.37.08-.5.01ZM177.28,285.68c.2.4-.13.64.2.82l-.23.06c.01.07.02.14-.09.15-.26-.33-.26-.83.13-1.03ZM193.34,282.71c.22-.12.15-.4.44-.22.18.38-.34.55-.44.22ZM150.35,293.36c-.1.25-.3.44-.61.57-.29-.41.52-.71.61-.57ZM173.83,285.8c0,.41-.18.7-.54.89,0-.41.18-.7.54-.89ZM152.56,290.63c-.19.11.06.15.09.36-.25.29-.7.06-.59.69.24.18.44-.36.65.06-.16.31-.4.42-.79.37-.19-.66.1-1.58.65-1.48ZM169.88,286.44c.3-.26.07-.84.66-.92.12.45-.16.65-.13,1.04-.26.1-.45.09-.52-.11ZM159.87,288.53c.11-.14.28-.24.56-.28.22.41-.46.64-.56.28ZM153.31,289.52c.03.17.12.25.21.33-.11.14-.28.25-.56.29-.06-.31.06-.51.36-.62ZM160.9,287.09c-.11.24.23.75-.18.82-.09-.36-.04-.64.18-.82ZM163.43,285.63c.18.5-.31.35.05.75-.21.06-.37.07-.5.01-.13-.42.03-.67.45-.76ZM162.3,287.21c.48-.12.06-.78.67-.82.27.51-.3,1.04-.67.82ZM154.81,288.95c.26.43-.19.44-.5.53-.13-.35.33-.36.5-.53ZM161.81,286.2c.18.38-.15.46-.21.69-.34-.2-.18-.63.21-.69ZM161.77,284.94c.07.58,0,.75.37,1.04-.15.28-.35.04-.61.04-.15-.36.05-.51.07-.78-.14.06-.22.28-.36.1.11-.56.52-.6.96-.77.07.15.22.18.23.44-.35.2-.41-.09-.65-.08ZM163.25,284.29c-.02.68-.36,1.15-.76,1.6-.65-.48.22-1.22.76-1.6ZM152.41,287.86c-.09.46-.49.75-.75,1.12.06-.48.21-.91.75-1.12ZM155.94,286.84c.18.14.53.39.14.6-.08-.05-.41-.49-.14-.6ZM153.95,286.39c.42-.33.16.51.47.38.27-.12-.06-.59.36-.62.1.61-.28.94-.57,1.32-.26-.29.12-.63-.26-1.08ZM164.48,284.21c-.16-.76.83-.89,1.15-.43-.43.06-.54-.08-1.15.43ZM163.59,283.57l.14.59c-.14.02-.33.11-.38-.02.32-.05-.26-.64.25-.57ZM158.28,284.51c.3-.12.36.16.47.38-.15.05-.12.2-.32.22l-.14-.6ZM155.84,284.82c.37-.01.63.15.76.55-.47.21-.89-.24-.76-.55ZM162.56,283.47c-.2-.42.43-.56.65-.43.11.57-.23.23-.65.43ZM156.53,283.47c.21-.05.36-.13.44-.25-.04.48-.38.38-.04.91-.53-.15-.31.33-.77.48-.08-.5.46-.62.36-1.13ZM158.53,281.76c-.79.18-.66,1.47-1.33,1.38.3-.43.57-1.91,1.33-1.38ZM158.26,282.22c.06.24.36.06.35.41-.15.08-.19.23-.45.25.1-.4-.23-.41.1-.66ZM159.65,279.42c.38,0,.15-.39.54-.4.02.29,0,.55-.22.7-.07-.17-.24-.15-.32-.3ZM168.56,275.57c-.13.28-.27,1.25-.73.69.45-.03.43-.9.73-.69ZM180.76,272.79c.41-.21.59.48.24.57,0-.29-.27-.21-.24-.57ZM168.06,275.57c.1.31-.18.37-.4.48,0-.28-.5-.56-.27-.69.15.18.46.12.67.21ZM167.56,274.94c.44-.26.75.4.36.54-.16-.11-.38-.13-.36-.54ZM162.25,275.92c.55.03.15-.54.63-.55,0,.53-.25.89-.47,1.27l-.16-.72ZM166.98,274.58l.1.48-.36.09c-.18-.36.11-.42.26-.57ZM169.26,274.14c-.12-.61.45-.18.75-.56-.04.33-.46.72-.75.56ZM170.23,273.4l.47-.12c.16.32-.08.91-.37.6.29-.09-.05-.41-.1-.48ZM182.14,270.38c-.06.2-.35.25-.54.37.57-1.08,1.15-2.14,2.13-2.95.33.64-.63.41-.43.96.29-.08.32-.31.5.02-.2.32-.42-.01-.83.18.15.55-.59.51-.4,1.08.19-.15.23-.4.66-.39.11.28-.17.31,0,.62-.28.19-.52-.42-.62,0,.03.32.48,0,.45.4-.05.18-.21.28-.43.34-.2-.16-.22-.59-.5-.64ZM168.25,273.5c.62-.1.5-.66.94-.86.17.38.57.27.41.78-.41.23-.43-.16-.67-.21-.05.28-.29.44-.21.81-.36.15-.43-.16-.48-.51ZM163.54,274.31c.08.4.23.84-.18.93.04-.32-.2-.82.18-.93ZM172.87,272.37l.1.48-.35.09c-.1-.3-.06-.53.25-.57ZM172.57,269.05c.02-.16.11-.28.31-.32.03.77-1.06.48-1.36.69l.12.6c-.79.3-1.07.92-1.29,1.58.31.29.45.68.44.9-.58-.31.02.4-.52.5-.09-.72-.07-1.24-.37-1.8.94-.08.77-1.38,1.08-2.03.1.16-.01.66.24.57-.04-.41.22-.62.17-1.05-.14.05-.23.28-.36.09.42-.12.38-1.08.84-.82-.43.24-.24,1.15.33,1.05-.49-.37.43-1.16.67-1.03-.19.26-.92.93-.29,1.07ZM172.05,268.29c-.16-.1-.15-.54-.02-.75.14.28.28-.3.57-.26.04.48-.29.72-.55,1.01ZM163.69,274.4c.14-.44.42-.78.78-1.08-.08.45-.3,1.22-.78,1.08ZM168.13,272.9c-.17.1-.02.4-.42.36-.3-.35.32-.61.42-.36ZM169.23,271.62c.09.31-.16.93-.49.63.26-.15.24-.48.49-.63ZM164.82,272.6c.21.13.14.62-.23.69-.13-.36.05-.53.23-.69ZM184.45,267.14c.28.27-.23.47.26.69-.43.23-.61-.61-.26-.69ZM184.91,266.3c.31.21-.03.51.18.95l-.35.07c-.06-.42-.22-.91.17-1.03ZM170.57,269.65c-.06.22-.14.95-.49.63.22-.17.15-.53.49-.63ZM167.46,269.65c.1.31.06.53-.26.57-.1-.31-.06-.53.26-.57ZM173.32,267.12c.16-.18.22-.41.38-.59.09.4.36.58.04.87-.06-.22-.41,0-.42-.28ZM174.97,265.99c.21-.04.37-.11.45-.23l.05.24c.07-.01.15-.01.14.09-.59.2.24.3.23.57-.22.1-.15.39-.55.38-.01-.5-.25-.66-.33-1.05ZM173.12,266.04c.18-.02.43-.14.5.01-.36.26-.17.87-.82.94.02-.52.47-.53.32-.95ZM208.53,259.24c.36-.11.42.19.45.53-.16.02-.25.09-.34.17-.19-.13-.25-.53-.12-.7ZM186.88,262.94c.01-.34.24-.53.63-.62.11.39.63.77.05.98-.14-.4-.28-.71-.68-.36ZM176.28,264.44c-.18.28-.46.19-.62.01,0,.74-.74,1.55-1.46,1.46.73-.42,1-1.27,1.01-1.86.13.22.38.25.66.23-.29-.23-.3-.27-.11-.6.22-.09.27.11.4.16-.28-.4-.02-.24.15-.54-.43.02-.2-.48.15-.54.25.16-.03.43.16.85-.41.46-.64.36-.34.83ZM166.51,266.08c.55-.2.05-.93.16-1.17.57-.08.22.35.52.76-.38-.04-.16.32-.15.54-.27.1-.45.08-.52-.13ZM174.91,263.74c.34-.24.55-.55.84-.82,0,.32-.06.59-.22.81-.02-.21-.44.57-.62.01ZM169.39,264.13c.19.12.34.67.02.75.03-.23-.28-.68-.02-.75ZM167.68,263.65c.16.35-.14.4.01.75.3-.09.33-.32.5,0-.24.17-.49.88-.89.59,0-.45-.17-1.03.37-1.35ZM176.77,262.44c.42.09.22-.76.55-.37-.06.26-.26.88-.55.37ZM173.15,262.25c-.09.37-.33.63-.44.98-.18-.15.07-1.19.44-.98ZM168.74,263.27c.03.17.11.25.19.34-.26.09-.54.7-.79.44.38-.14.12-.7.6-.77ZM178.7,259.28c-.09.59-.59,1.32-.9,1.94.24,0,.52-.07.54.26-.66-.31-.35.21-.92.44-.1-.45.05-.67-.53-.89,1.11.04,1.04-1.26,1.81-1.76ZM211.69,254.83c-.27.14-.02.68-.5.67.03-.26.2-.95.5-.67ZM190.28,257.83c.32.01.42-.13.3-.43.62.02.61,1.1.1,1.33,0-.62-.04-.61-.4-.91ZM169.85,261.87c-.12.56-.6.89-.87,1.34l-.07-.36c.43-.25.51-.73.94-.98ZM181.85,259.62c-.22.28-.54,1.04-.97.82.37-.17.44-1.11.97-.82ZM179.96,259.39c.57-.18.56-.75,1.07-.97.04.64-.67,1.31-1.01,1.33.18-.07.04-.28-.06-.36ZM170.1,261.19c.04.2.34-.01.4.16-.27.1-.14.47-.53.5-.07-.3-.13-.58.13-.66ZM171.23,259.91c.12.44-.07.67-.34.84.09-.3.01-.7.34-.84ZM179.1,258.7c-.04-.64.36-.48.9-.56.03.21.09.37.2.46l-.24.05c-.25-.37-.51-.24-.86.05ZM169.76,260c.34-.34.29-.95.92-1.1-.19.44.36.62.18.97-.41.31-.65-.44-.76-.08.09.22.38.14.35.55-.35.07-.49-.17-.68-.35ZM171.91,258.87c.12.12.22.29.23.58-.47-.03-.29.38-.67.41l-.04-.24c.42-.04.17-.42.49-.75ZM180.91,256.31c-.24.34-.21,1.74-.79,1.17.56-.18.19-1.01.79-1.17ZM183.51,254.91c0,.29-.03.54-.26.68-.21-.14-.12-.62.26-.68ZM182.8,254.3c-.47.33-.67,1.81-1.39,1.28.67-.21.82-1.36,1.39-1.28ZM186.3,253.01c.12.37-.07.52-.27.67-.22-.15-.03-.56.27-.67ZM184.91,252.78c.87,0,.68-.74,1.21-.98.26.54-.65,1.09-.99,1.55,0-.3-.26-.22-.21-.58ZM184.73,252.44c.67-.16-.2-.83.45-1.08-.04.56.03.32.23.7-.13.22-.44.86-.68.38ZM186.59,250.1c.13.42,0,.64-.25.79-.25-.19-.26-.82.25-.79ZM177.98,251.27c.2.5-.18.6-.36.83.09-.3.03-.7.36-.83ZM177.6,251.22c.11.3-.31.78-.54.49.31-.07.04-.55.54-.49ZM179.14,250.66c.05.22.42,0,.52.15.08.31.03.53-.29.56.04-.32-.61-.39-.23-.7ZM177.63,249.71c.09.11.12.56.47.66-.02-.27.26-.32.57-.36-.07.5.1,1.15-.42,1.33.05-.79-1.43-1.16-.62-1.63ZM189.63,248.3c.21.35-.23.75-.42.45.22-.09.02-.49.42-.45ZM179.44,249.35c.08.31.03.53-.29.56-.08-.31-.03-.53.29-.56ZM187.51,248.06c.17-.38.51-1.09.97-.92-.04-.42.69-.64.23-1.03l.48-.08c.13.37-.18.41.08.6-.47.28-.63.49-.25.91-.36.21-.32-.14-.52-.16l.09.61c-.65.07-.6-.43-1.09.08ZM189.78,245.8c.7-.1.36.98-.11,1.01-.05-.17-.23-.17-.29-.32.29-.5.73.03.4-.69ZM189.87,244.67c.51-.17.5.37.6.77-.19.04-.05.32-.33.3-.27-.59.11-.53-.27-1.07ZM192.74,244.06c-.03.31-.02.64-.4.68-.08-.39.06-.6.4-.68ZM223.76,236.99c0-.26.26-.85.54-.52-.3.04-.24.46-.06.6-.21.03-.37,0-.49-.08ZM194.46,239.45c.71-.1.4,1.34-.14.88.4-.17-.09-.48.14-.88ZM224.48,235.86c.16-.45.49-1.33,1.09-1.04-.58.3.17.47.2.82-.44.04-.61-.25-.88-.41.15.46-.04.93-.41.63ZM226.07,233.83c-.2.12-.15.45-.43.51-.44-.3.3-1.01.43-.51ZM188.83,235.51c-.01.36-.2.6-.54.71-.13-.47.21-.58.54-.71ZM189.4,233.92c-.39-.58.24-.35.43-.57-.5-.09-.48-.63-.59-.9.56-.12.26.87.82.74-.05-.16-.2-.21-.17-.47.07-.11.65-.38.73-.11-.54.23-.42,2.67-1.19,1.56-.22.28-.42,1.17-.89.89-.14-.36.4-1.23.87-1.13ZM189.05,232.98c-.03.54-.33.87-.61,1.22.07-.5.12-1.03.61-1.22ZM228.61,228.77c.4-.13.35-1.23.89-.88-.29.26-.32,1.21-.89.88ZM189.75,231.5c.18,0,.44-.11.5.05-.48.19-.52.4-.29.79-.55-.07-.28-.49-.21-.84ZM191.52,230.72c.38.04.1-.45.58-.34,0,.31-.47.76-.58.34ZM189.61,230.15c.27-.08.46-.04.51.17-.14.04-.35.03-.35.18-.02.1.02.24-.1.27l-.06-.61ZM231.23,225.53c.05.16.19.22.15.47-.38-.08-.35.21-.57.27,0-.38.03-.71.42-.74ZM193.34,228.07c.1.15.39-.19.48-.19-.04-.17-.22-.18-.28-.33.24-.41.7-.25.77.26-.36.33-.58.76-1.01,1.02.06-.39-.05-.63.05-.76ZM232.72,224.85l-.47.02c-.13-.45.53-.49.47-.02ZM195.05,226.47c.06-.3.17-.55.57-.57.06.39-.16.56-.43.68-.01-.07-.03-.14-.13-.11ZM234.18,221.24c.22-.06.28-.27.58-.26,0,.16.5.34.15.47-.05-.28-.34-.27-.36.01.18.06.3.18.38.34-.24,0-.13.33-.46.25.09-.48-.38-.34-.28-.82ZM196.06,223.85c.37-.2.65-1.08,1.03-.89-.26.13-.27.47-.44.68.23,0,.26-.17.48-.19-.04.29-.19.66.07.86-.43-.09-.81-.25-1.15-.47ZM235.31,220.01c.06.22.27.29.27.59-.31-.02-.73-.46-.27-.59ZM197.56,222.65c.56-.11.82.15,1.02.49-.17.02-.26.09-.35.17-.12-.35-.71-.11-.67-.66ZM236.12,219.75c.05.31-.01.51-.33.49-.05-.31.02-.51.33-.49ZM198.08,221.58c-.22.43-.41.89-.89,1.12.24-.46.19-.63.42-.93.03.09.11.13.25.09,0-.15.01-.3.22-.28ZM198.79,221.24c.05.17.28.11.38.2-.03.62-.4.97-.88,1.24,0-.37-.31-.34-.3-.71.33-.19.44-.56.8-.73ZM237.09,217.81c-.02.4.02.73.28.83-.33.03-.3.4-.57.49-.09-.72-.4-.05-.5-.46.5-.07.42-.67.79-.86ZM198.46,220.16c.23-.05.28.11.5.06,0-.12-.11-.13-.14-.23.4-.17.41.12.4.45-.14.04-.35.02-.36.17.14,0,.15.18.15.35l-.36.05c0-.61.05-.47-.19-.85ZM200.18,219.96c.03-.36.39-.45.57-.69.13.5-.17.99-.57.69ZM200.91,218.01c.12-.25.13-.59.45-.67.16.44-.23.43-.33.66.1.02.24-.02.25.1-.17.02-.27-.03-.37-.08ZM202.68,216.82c-.33.11-.27.55-.7.58-.02-.33.42-.88.7-.58ZM202.7,217.07c.09-.04.14-.12.11-.26.28-.07.46-.02.5.19-.17.05-.19.23-.35.29-.01-.16-.22-.09-.26-.22ZM204.07,215.55c.01.64-.32.97-.78,1.2.01-.61.6-.73.78-1.2ZM203.53,214.73c.34.52-.08.9-.42,1.17-.04-.54,0-1.02.42-1.17ZM205.81,213.75c.17.02.24.15.5.08-.01.5-.14.9-.69.93.27-.38.36-.85.19-1.01ZM208.3,208.94c.04.32.2-.19.49-.04.1.3-.5.57-.6.3.23-.05-.08-.2.11-.26ZM232.97,181.54c.26-.07.37-.31.75-.25,0,.53-.21.82-.43,1.11h-.37c.23-.49.23-.38.04-.87ZM235.4,179.82c-.57-.04-.45.85-.87.24.29,0,.62-.63.87-.24ZM277.09,176.55c-.23.95.74-.37.62.81-.44-.12-.4-.19-.72.02-.09-.23-.36-.79.1-.83ZM277.06,177.86c-.14,0-.33-.07-.37.07.02.21.52.58.15.74-.17-.12-.13-.4-.43-.42.3-.33-.18-.87.14-1.18.27.19.59.33.5.79ZM241.33,173.28c.04-.36.33-.44.55-.59.2.21-.15.41-.08.86-.34.08-.23-.25-.47-.26ZM278.03,175.72c.36.08.41.4.64.58-.28,0-.13.55-.52.4-.08-.49,0-.47-.12-.98ZM242.92,172.24c-.44.17.02.51-.43.6-.19-.09.14-1.1.43-.6ZM278.27,175.64c0-.26.14-.36.4-.3.06.22.08.38-.06.47,0-.14-.17-.16-.33-.17ZM261.73,153.59c-.43-.02-.37.61-.75.65-.05-.53.51-1.02.75-.65ZM262.79,152.6c-.38.24-.62.68-1.14.73.16-.54.52-.82,1.14-.73ZM263.05,151.88l-.09.49-.37-.04c-.03-.4.26-.36.46-.44ZM294.08,146.81c.39.1.36.44.29.82-.23.4-.76.7-1.09,1.36-.14-.05-.34-.06-.33-.2.14-.58.69-1.38,1.13-1.97ZM296.03,145.52c.21.07.37.17.41.35-.45.38-.78.94-1.3,1.18.27-.56.62-.97.89-1.53ZM275.5,140.88c.13.32-.24.98-.64,1.02.06-.58.39-.74.64-1.02ZM297.83,143.47c-.42.76-.88,1.25-.81,2.05l-.47-.11c.34-.43.26-1.72,1.27-1.94ZM279.39,135.11c.05-.21.13-.37.25-.47.6.08.17.83.93.81-.24.25-.31.76-.8.62.5-.32.33-.9-.39-.96ZM303.49,140.46c.33.07.19.41.33.59-.24-.01-.31.28-.65.08.08-.28.3-.29.32-.67ZM297.03,136.22c.27-.04.11-.64.13-.85.41-.04.23.26.4.36.06-.08.14-.11.27-.06-.34.3-.71.43-.25.82-.18.11-.46-.06-.56-.27ZM289.84,131.04c-.31-.11-.24.44-.6.24-.05-.4.55-.59.6-.24ZM292.05,129.78c-.26.46-.53.91-1.06.9.38-.25.52-.92,1.06-.9ZM293.72,129.03c-.13.27-.25.54-.63.36.11-.3.32-.42.63-.36ZM292.73,127.63c.34.12.42.07.32-.18.5.04-.03.75-.31.57.06-.16.03-.28,0-.39ZM308.48,122.62c.14.28-.18.67-.43.78-.1-.21.08-.88.43-.78Z"/>
  <path class="cls-1" d="M162.64,271.75c.08.18.19-.16.26.06-.17-1.27.88-1.77,1.06-2.81-.7.54-1.09,1.28-1.47,2.03.05.14.24.05.38.03-.1.22-.05.53-.24.69Z"/>
  <path class="cls-1" d="M161.21,337.87c.32-.16.09-.59.22-.84-.16.24-.42.43-.22.84Z"/>
  <path class="cls-1" d="M166.33,323.31c.03.25.17.28.26.42.15-.08,0-.32-.03-.49.11.03.22.06.38,0-.19-.34-.35-.06-.61.06Z"/>
  <path class="cls-1" d="M149.33,329.19c-.07.36.3-.46.69-.24-.11-.22-.33-.23-.49-.34-.4.23.21.35-.2.58Z"/>
  <path class="cls-1" d="M156.43,326.38c.06.26.21.34.45.23-.2-.1-.18-.32-.03-.5-.12-.26-.26.24-.42.27Z"/>
  <path class="cls-1" d="M154.15,326.38c-.14-.03-.2-.23-.42-.11.05.28.16.44.3.54.21-.09-.04-.41.23-.46-.06-.12-.13-.02-.11.04Z"/>
  <path class="cls-1" d="M170.47,320.89c.49-.09-.09-.29-.14-.46-.06-.3.25.1.46-.14-.22-.63.09-.97.49-1.27-.11-.15-.26-.24-.37-.39.06.45-.24,1.19-.77,1.6.25.35.07.51.32.65Z"/>
  <path class="cls-1" d="M151.95,326.23c.36-1,.79-1.57.79-2.71-.2.04-.23.3-.34.12-.31.27.02.26-.05.66-.35-.25-.66,1.13-.81.66-.39.05.1.94.4,1.28Z"/>
  <path class="cls-1" d="M175.07,318.27c.41-.07.83-.95.92-1.51-.29.51-.63,1-.92,1.51Z"/>
  <path class="cls-1" d="M134.02,330.53c.28.13,0,.33.23.7.4-.44.12-.55.12-.83-.11-.16-.13.1-.34.13Z"/>
  <path class="cls-1" d="M152.96,324.22c.06-.33.39-.51.2-.97-.49.1-.13.65-.2.97Z"/>
  <path class="cls-1" d="M170.59,317.1c.01.27.27.1.33.28.23-.1.14-.37.21-.56-.15-.26-.08.39-.54.29Z"/>
  <path class="cls-1" d="M142.06,324.37c-.04-.11-.17-.04-.27-.04-.13-.27.13-.33-.07-.62-.27.26-.57.5-.32,1.02.32-.22.17-.43.65-.36Z"/>
  <path class="cls-1" d="M150.9,317.86c0-.51.34-.26.55-.7-.26-.36-.28-.33-.44-.62.02.45-.34,1.08-.11,1.32Z"/>
  <path class="cls-1" d="M176.32,309.33c-.35-.02.09-.46-.28-.54-.31.05.04.47-.36.47.35.1.27.59.89.5-.04-.28-.02-.53.18-.67-.11-.26-.27.22-.43.24Z"/>
  <path class="cls-1" d="M177.36,308.17c.43-.21.07-.87.73-.95-.15-.39-.31.09-.41-.14-.09.37-.32.66-.32,1.08Z"/>
  <path class="cls-1" d="M177.86,306.41c-.2.07-.28-.08-.49.01-.04.53-.34.91-.78,1.21.66.27.56-.71,1.29-.73-.24-.46.14-.57.56-.65.13-.5-.05-.6-.06-1.11-.15.11-.24.25-.4.36,0,.27.27.1.33.28,0,.1-.08.15-.05.26-.2,0-.2-.34-.53-.1-.08.21-.05.33.13.46Z"/>
  <path class="cls-1" d="M137.81,312.32c.06.13.14.03.12-.04.16-.07.32-.13.38,0,.15-.09.01-.33-.02-.51-.22.15-.3.38-.48.55Z"/>
  <path class="cls-1" d="M143.85,305.74c.12.23,1.13-.72.91-1.33-.13.08-.12.72-.4.39-.34.22.05.84-.51.94Z"/>
  <path class="cls-1" d="M147.12,302.35c.31-.25.94-.1.8-.77-.64-.23-.56.81-1.16.37-.04.43.4-.03.36.4Z"/>
  <path class="cls-1" d="M166.6,293.5c.21.33.28-.22.44-.25-.02-.21-.28-.25-.09-.35,0-.11-.07-.1-.15-.09l-.23.06c.16-.02.33.68.09.35-.17.09.15.18-.06.27Z"/>
  <path class="cls-1" d="M152.64,293.95c.28.15.56-.56.82-.76.39.34,1.05-.12,1.31-.27-.43-.22-.97-.24-1.47-.33.71.48-.39.43-.64.96.17.13.2.25-.03.39Z"/>
  <path class="cls-1" d="M155.48,292.21c.36.07.67-.77,1-1.05-.13-.38-.44.46-.62.05.02.19.04.79-.39,1Z"/>
  <path class="cls-1" d="M153.85,292.3c.02.42.28.11.24-.07.2-.06.33,0,.41.13.14-.09.14-.26.3-.34-.21.07-.76-.1-.09-.36-.08-.15-.32-.01-.5.02.06.31-.06.51-.36.61Z"/>
  <path class="cls-1" d="M156.49,288.6c-.14.09-.13.26-.3.34,0,.39.38.14.38.53.12-.26-.06-.37-.08-.87Z"/>
  <path class="cls-1" d="M155.24,283.32c.25.18.02.16.11.48.34-.19.24.37.65.07l-.08-.36c-.28.03-.57.04-.2-.33-.1-.3-.16.22-.47.13Z"/>
  <path class="cls-1" d="M163.7,280.75c-.21.14.17.15.12-.03.18.04.28.2.34.42.24-.19-.09-.82-.4-.65.05.13.02.22-.06.27Z"/>
  <path class="cls-1" d="M177.96,277.67c.13-.05.04-.14-.02-.12-.1-.37.65-.21.34-.71-.51.02-.4.43-.6.64.06.12.25.03.29.18Z"/>
  <path class="cls-1" d="M159.64,274.82c-.48.12-.65.44-.7.83.62-.11.71-.54,1.22-.71-.41-.48.18-.83.22-1.34-.03.09-1.11.88-.74,1.22Z"/>
  <path class="cls-1" d="M160.75,274.15c.31-.37.2-1,.76-1.21-.77-.58.92-1.08.87-1.88-.12-.08-.34.01-.41-.15-.14.37.02.93-.69.94-.02.65-.52,1.01-.83,1.48.07.15.32.02.5,0,0,.31-.41.38-.21.82Z"/>
  <path class="cls-1" d="M158.58,273.96c.82.35,1.84-1.42,1.73-1.98-.49.68-.8,1.92-1.73,1.98Z"/>
  <path class="cls-1" d="M162.92,268.76c.28-.25.5-.53.71-.82-.3-.18-.63.51-.71.82Z"/>
  <path class="cls-1" d="M165.78,264.86c.6-.29,1.34-1.4,1.72-2.18-.6.05-.35.66-.91.47.48.39-.48.56-.3,1.08-.38.16-.37-.54-.64-.1.46.1.41.37.13.73Z"/>
  <path class="cls-1" d="M164.97,264.55c.39.25.48-.61.73-.81-.17-.33-.27.23-.6.14.13.45.26.43-.13.66Z"/>
  <path class="cls-1" d="M167.6,262.53c.56-.38.95-.87,1.24-1.43-1.04-.33-1.06.85-1.24,1.43Z"/>
  <path class="cls-1" d="M173.49,254.87c.21-.18.27-.45.48-.86l-.36.08c.2.43-.24.41-.12.78Z"/>
  <path class="cls-1" d="M175.29,249.93l.12.74c.36-.31-.2-.7.35-.96-.07-.28-.3.21-.47.22Z"/>
  <path class="cls-1" d="M178.56,245.89c.74.33-.04-.68.91-.56-.08-.09-.15-.17-.17-.35-.53.09-.47.62-.74.9Z"/>
  <path class="cls-1" d="M183.31,238.84c-.22.13.15.17.12-.02.26,0,.28.28.43.43.21-.22.06-.7.53-.72-.46-.79.26-.86.45-1.33.1-.42-.4-.03-.3-.45-.11.55-.7.74-.69,1.38-.22.05-.27-.11-.5-.04.22.15.12.56-.03.76Z"/>
  <path class="cls-1" d="M192.29,227.36c.6-.14.23-1.04.89-1.12-.05-.16-.31-.06-.5-.05.16.63-.56.55-.39,1.17Z"/>
  <path class="cls-1" d="M197.69,219.64c.25.2,1-.66.81-.84-.29.26-.39.68-.81.84Z"/>
  <path class="cls-1" d="M204.7,213.86c-.09-.25-.28-.37-.4-.58-.24.11-.31.37-.33.66.33.05.22-.28.34-.41.24-.01-.23.56.39.33Z"/>
  <path class="cls-1" d="M226.32,186.91c.28.36.54-.38.87-.39.03-.11-.04-.12-.12-.12h-.24c0,.36-.36.32-.51.51Z"/>
  <path class="cls-1" d="M269.02,188.23c.4-.24.67-.64,1.14-.81-.18-.51.45-.71.79-.97-.01-.1-.11-.13-.1-.25-.1,0-.11-.06-.11-.13-.47.85-1.28,1.28-1.72,2.16Z"/>
  <path class="cls-1" d="M263,148.87c.25-.47-.36-.3-.1-.77-.1.01-.15.11-.27.09l-.05.25c.51-.12-.08.55.42.43Z"/>
  <path class="cls-1" d="M266.55,146.8c.7.1-.43-.5.13-.61-.04-.34-.51-.01-.45.31.26,0,.38.08.32.3Z"/>
  <path class="cls-1" d="M308.69,285.73c.23-.03.47.11.71.32-.24.16-.69.05-.71-.32Z"/>
  <path class="cls-1" d="M295.67,318.46c.27.04,1.01.3.58.68-.35-.22-.38-.46-.58-.68Z"/>
  <path class="cls-1" d="M296.13,319.85c.22-.16.49.38.73.5-.23.26-.72-.27-.73-.5Z"/>
  <path class="cls-1" d="M302.12,318.25c.26-.02.72.17.74.49-.22.17-.5-.37-.74-.49Z"/>
  <path class="cls-1" d="M299.94,323.36c.44-.04.9.21,1.38.73-.43.13-.92-.43-1.38-.73Z"/>
  <path class="cls-1" d="M320.08,306.05c.6.46,2.09,1.09,2.14,1.87-.48-.86-1.67-1.1-2.14-1.87Z"/>
  <path class="cls-1" d="M314.33,316.17c1.18.07,2,1.76,3.23,2.18-.24.56-1.43-1.08-1.99-.94-.19-.22-.29-.45-.41-.67-.29-.18-.78-.08-.83-.57Z"/>
  <path class="cls-1" d="M322.24,324.97c.18-.26.37-.36.6-.12,0,.14-.07.29-.22.44l-.38-.32Z"/>
  <path class="cls-1" d="M328.6,324.83c.94.06,2.33,1.13,2.82,2.06.15.02.28-.13.44.06.49.31,1.37,1.29.4.49-1.45-.68-2.17-1.74-3.67-2.61Z"/>
  <path class="cls-1" d="M325.28,329.88c.26-.02.54.12.83.38-.26.17-.79-.19-.83-.38Z"/>
  <path class="cls-1" d="M336.04,318.39c.28-.12.62.47.93.63-.29-.03-.87-.26-.93-.63Z"/>
  <path class="cls-1" d="M327.27,328.89c.43-.05.92.46,1.36.52-.03.58-.96-.27-1.36-.52Z"/>
  <path class="cls-1" d="M326.66,330.57c.42-.13.92.41,1.38.69-.44.03-.93-.48-1.38-.69Z"/>
  <path class="cls-1" d="M338.76,316.92c.29-.29.64.05.97.19-.29.25-.65-.11-.97-.19Z"/>
  <path class="cls-1" d="M337.37,319.51c.53,0,1.55.93,2.04,1.41-.85-.33-1.35-.76-2.04-1.41Z"/>
  <path class="cls-1" d="M328.23,331.43c.85-.03,1.31.9,1.71,1.28-.66-.12-.97-1.11-1.71-1.28Z"/>
  <path class="cls-1" d="M333.03,328.09c.32,0,.66.22,1,.37-.27.45-.65-.12-1-.37Z"/>
  <path class="cls-1" d="M333.11,329.73c.42-.05.54.22.84.55-.25.15-.56-.42-.84-.55Z"/>
  <path class="cls-1" d="M333.04,331.55c.3-.16,1.07.38.51.75-.24-.13-.07-.28.04-.44-.2-.23-.35,0-.56-.31Z"/>
  <path class="cls-1" d="M344.6,323.4c.55.13.9.49,1.31.94-.39-.11-1.17-.7-1.31-.94Z"/>
  <path class="cls-1" d="M345.34,323.08c.09-.4.85.24.47.4l-.47-.4Z"/>
  <path class="cls-1" d="M350.17,318.84c.29-.08.63.11.81.37-.25.17-.78-.18-.81-.37Z"/>
  <path class="cls-1" d="M331.12,303.9c.26,0,.53.13.78.04-.02.62.79.73,1.04,1.23-.82,0-.91-.94-1.82-1.27Z"/>
  <path class="cls-1" d="M335.31,320.6c.26.16.06.34.4.49-.1.17-.22.08-.33.2.42.46.81.53,1.22.87-.11.03-.23.07-.33.19.95-.07.95,1.24,2.28,1.92-1.52-.33-3.62-2.67-4.67-3.3.44-.25,1,.75,1.43.42.26-.28-.49-.48.01-.78Z"/>
  <path class="cls-1" d="M329.24,330.24c.12.07.13-.05.08-.09.21-.19.46.3.48.4-.33.17-1.5-1.01-.56-.31Z"/>
  <path class="cls-1" d="M337.32,335l-.31.37c.64.48,1.71,1.19,1.85,1.87-.95-.32-2-2.23-3-2.06-.05-.2-.28-.39-.33-.59-2.19-.78-3.56-2.91-5.65-3.97,1.6-.36,2.33,2.46,4.06,2.16.11.17-.07.1-.17.01.8.62,2.04,1.98,3.54,2.19Z"/>
  <path class="cls-1" d="M346.15,322.51c.28-.05.59.13.87.11.07.09-.88.3-.87-.11Z"/>
  <path class="cls-1" d="M179.12,143.74c-.33-.43-1.05-.64-1.4-1.09-.84-1.05-1.19-2.3-2.2-3.23-.89-.82-2.08-1.33-2.94-2.24-.64-.67-.97-.81-1.46-1.21-1.44-1.18-2.16-2.49-3.63-2.37-1.43-.51-2.77-1.5-4.03-1.95-.2-.07-.37-.41-.45-.43-3.22-1.14-6.76-.68-9.86-2.57-.74.18-1.68.63-2.74.69-.47.03-1.02-.29-1.46-.2-1.62.33-2.79,1.94-4.47,1.57-.35.16-.29.41-.45.61-2.43,1.73-4.16,3.62-6.21,4.73-.57,1.52-1.97,2.3-2.6,3.62-.39.82-.5,1.95-.79,2.84-.33,1.03-.48,1.97-.89,2.92-.73.53-.38,1.28-.9,1.86.14,1.12-.04,2.18.12,3.31-.19.26-.19.56-.47.79.03,2.6-.25,5.47,1.05,8.13.12.24.37.74.57,1,1.33,1.69,3.08,4.52,2.81,6.15.16.37.39.18.55.55-.31.54-.47,2.11.16,2.88.22.27,1.19.27,1.75.78.85.75.68,2.22,1.42,2.92.34.32,1.19.28,1.61.56,1.1.74,2.44,2.92,2.9,3.9.36.77.11,1.37.59,1.79.43.38,1.19.33,1.88-.29,2.58.04,3.98,4.28,6.26,5.67.59,1.89,2.64,2.5,3.65,3.96.2.29.27.78.51,1.06.39.46,1.2.84,1.8,1.36,1.02.88,1.72,1.81,2.67,2.44.16,2.06,2.02,2.13,2.89,3.25.33.42.36,1.07.75,1.52.32.38.9.53,1.23.97.33.44.41,1.12.75,1.52.26.3.64.39.82.65.25.35.2.74.53,1.05.34.33,1,.39,1.34.72,1.25,1.22,2.12,2.94,3.86,3.6,1.37,2.73,3.96,3.89,5.66,7.07.75.5,1.3.87,1.72,1.72.2.1.41-.1.6.16.92,1.61,2.98,2.36,3.9,4.05.15-.04.3-.07.44-.04,1.3,2.31,3.43,4.81,5.3,5.85.61,1.57,2.33,2.49,3.67,3.9.63.66,1,1.54,1.68,2.08,1.33,1.05,2.59,2.87,3.81,3.94.36.32.93.43,1.29.73.65.55,1.02,1.46,1.77,2,2.86,2.11,5.3,5.32,7.43,7.52.66.68,1.5.99,2.33,1.66,1.38,1.1,2.19,2.86,3.52,4.02.34.29.81.43,1.12.69.83.67,1.35,1.56,2.15,2.34,1.97,1.89,4.37,3.35,5.78,5.55,2.88,1.74,6.04,5.32,8.86,7.88,1.07.12,1.26,1.09,1.95,1.64,2.14,1.7,5.15,3.57,6.84,5.91,4.67,3.76,9.28,7.75,13.86,11.75,2.29,1.99,4.57,4,6.9,5.91,2.35,1.89,4.72,3.72,7.14,5.44.36.98,1.64,1.7,2.47,1.99-.08.35.34.7.58,1.04,1.63.39,2.59,2.11,4.11,3.2.87-.27,1.31.92,2.24.93-.05.52-.55.01-.31.52,1.84-.28,4.5,2.88,6.14,3.78-.09-.09.02-.26.16-.18.1.55.72.16,1.08.5,2.62,2.04,5.32,2.53,7.79,3.98.14.38.47,1.46,1.05,1.28-.33-.4-.85-.79-.44-1.21.52.7,1.54,1.23,2.27,1.24.83.65,1.05,1.22,2.05,1.49.17.15.22-.61.59-.28.93,1.17,1.83,1.25,2.65,2.31.65-.18,1.94.68,2.12,1.21.48.09-.07-.66.3-.53,1.03.63,2.03,1.15,2.64,2.14.38-.03.74-.18,1.14.04.26.16-.41.36.05.52.53.03.1-.64.44-.89.58.23.68-.07,1.12-.14.43.78,1.29.63,2,.95.73.33,1.26,1.04,1.95,1.38.59.29,1.07.15,1.62.62.45.38.56,1.03,1.09,1.43.33.14.1-.49.5-.2,1.87,1.35,3.77,2.65,5.56,3.13-2.62-.9-3.49-2.84-5.78-3.64.08-.64-1-.4-.8-1.18-.32.14-.05.65-.41.28-.1-.14-.07-.29-.3-.42.66-.29.28-.6.42-1.06-1.52-1.21-2.88-1.95-4.18-3.01-.34-.08-.07.42-.41.28-.56-.33-.88-.71-1.57-1.06.13-.51-.11-1.02.49-1.32,1.72,1.48,4.68,2.72,6.82,4.36.65.5.99,1.41,1.84,1.13-1.08-.59-1.3-1.86-2.06-2.59-.98-.94-2.58-1.28-3.5-2.26-.26-.27-.24-.54-.5-.75-.2-.17-.78-.18-.99-.39-.23-.23-.08-.44-.31-.59-.47-.32-1.06-.29-1.54-.71-.8-.69-1.3-1.7-2.29-2.32-.03-.3.39-.65.65-.55,1.03.9,1.23,1.02,2.34,1.88-.09-.14-.09-.29.05-.44.31.3.33.52.74.48-.81-.64-.15-1.3.4-1.4,1.88,1.77,4.58,3.46,6,5.08.34-.05.67-.21,1.03-.05,2.02,1.3,3.89,3.23,6.08,4.58-1.84-2.36-4.45-3.97-7.24-5.91-.03-.17.26-.36-.04-.52-1.33-.66-2.57-1.8-3.51-2.42-.05-.72-.09-1.44-.1-2.16-3.01-1.93-3.65-5.21-6.26-7.37.25-.27.11-.52.2-.78.4-.05.79-.23,1.2-.23.44.34,1.01.55,1.22,1.06,2.89,1,5.51,4.17,8.64,5.95.71-.19.74-.76.84-1.34-1.09-1.36-2.83-1.7-3.74-3.43.41-1.5,1.56-1.83,2.69-1,1.86,1.37,4.83,4.02,5.86,5.12,1.44.92,2.82,1.89,4.19,2.89,1.38.98,2.74,1.99,4.1,3.01,2.71,2.04,5.43,4.11,8.35,6.01-2.84-2.62-6.1-4.25-8.47-6.81-.15.21-.33.22-.52.03-2.58-2.21-5.49-4.6-8.07-6.15-.41-1.46-2.91-2.22-3.32-3.7,1.11-.85,2.31-.67,3.53-.1-1.07-.79-1.74-1.92-2.54-2.7-.66-.64-2.14-1.33-2.31-1.85-.04-.13.3-.2.15-.35.27.26-.56-.37-.64-.4-.49-.2-.48-.06-.9-.47-.55-.53-.52-.53-.69-1.08-.94-.92-1.96-1.7-2.98-2.49-1-.81-2-1.62-2.89-2.58-.19-.2-.62-.54-.64-.58-.13-.23.18-.27-.03-.52-.12-.14-.25.13-.43-.07-.7-.75-1.5-1.6-2.29-2.24-1.98-1.6-4.04-3.81-5.65-5.12-.29-.37.44-.28-.04-.68-2.53-2.53-5.18-5.23-7.94-7.87-.19-.22.33-.46-.03-.69-.33-.42-.62.1-.95-.24-.11-.31-.2-.63-.12-.94-2.95-3.26-6.68-5.84-10.12-8.76-3.21-2.72-6.29-5.59-9.28-8.23-1.18-1.04-2.41-1.98-3.57-2.93-1.14-.97-2.22-1.95-3.11-3.05-3-2.32-5.33-4.6-7.92-7-.93-.87-1.86-1.83-2.76-2.75-.89-.93-1.76-1.8-2.61-2.46-.29-.23-.8-.34-1.11-.64-.46-.46-.64-1.21-1.09-1.67-1.23-1.25-2.85-2.16-4.07-3.41-1.35-1.42-2.65-2.78-3.97-4.18-.74-.79-1.74-1.27-2.51-2.02-.51-.5-.79-1.26-1.31-1.79-1.45-1.48-3.3-2.63-4.58-4.12-1.71-2-3.22-4.26-5.45-5.82-1.77-2.37-4.18-4.99-6.25-6.91-.84-2.32-3.2-3.37-4.77-5.43-.17-.22-.15-.48-.29-.72-2.07-3.38-5.92-5.75-7.56-8.52-1.26-.47-1.42-1.68-2.05-2.6-.66-1-1.69-1.56-2.45-2.42-.25-.28-.29-.7-.52-1-.69-.94-1.73-1.53-2.62-2.44-1.34-1.37-1.88-3.57-3.79-4.81-.78-1.55-1.97-3.82-3.64-4.93-1.4-3.08-4.32-4.94-6.16-7.77-.62-.95-.78-2.16-1.93-2.68-.24-1.33-1.42-2.19-2.27-3.35-.84-1.15-1.48-2.54-2.3-3.79-1.16-1.78-3.24-3.49-3.17-5.57,1.7-2.26-2.32-.87-2.93-2.54-.12-1.05.56-1.43,1.1-2.34-.17-.88-.83-1.32-1.48-1.79-.35-.88.22-2.15-.51-3.11ZM308.91,318.92c-.11.09-.12.18-.06.26-.58.27-.49-.75.06-.26ZM309.26,318.91c.83.63,2.31,1.15,2.61,1.96.15.13.3-.64.65-.55.15.51.42,1.02,1.01,1.51-.6.8-1.39-.63-2,0-.4-.44-.59-.66-1.09-.47-.72-1.03-1.31-.73-1.8-1.57.55-.28.15-.44.62-.89Z"/>
</svg>