<?xml version="1.0" encoding="UTF-8"?>
<svg id="Layer_1" data-name="Layer 1" xmlns="http://www.w3.org/2000/svg" viewBox="0 0 476.4 480.07">
  <defs>
    <style>
      .cls-1 {
        fill: #ffc00e;
        fill-rule: evenodd;
      }
    </style>
  </defs>
  <path class="cls-1" d="M130.78,119.6c-.15.4-.03.68.3.87-.14-.28.09-.71-.3-.87Z"/>
  <path class="cls-1" d="M131.89,120.01c.21.24-.08.7.3.87-.03-.32.21-.76-.3-.87Z"/>
  <path class="cls-1" d="M131.51,122.84c-.04.38.21.27.49.67.13-.24.01-.38.02-.57-.21-.12-.3.03-.52-.11Z"/>
  <path class="cls-1" d="M128.79,134.33c-.04.17-.09.34-.14.51.37.06.26.33.57.42.15-.44,0-.75-.43-.93Z"/>
  <path class="cls-1" d="M132.54,121.61c-.29-.04-.26.7.06.75.29-.13,0-.26.18-.63-.13.03-.26.05-.24-.12Z"/>
  <path class="cls-1" d="M129.24,135.7c.17.35-.09.49-.2.77.33.03.55-.17.69-.53-.16-.08-.32-.16-.48-.23Z"/>
  <path class="cls-1" d="M133.08,128.06c-.33.01-.13.72.35.74.24-.41-.51-.37-.35-.74Z"/>
  <path class="cls-1" d="M130.28,139.51c.04.15.29.36.06.31-.09.27.42.26.58.42-.22.28-.19.64-.14,1.08.62-.29.87.36,1.3.76-.11-.29-.35-.52-.17-.94-.42.2-.33-.04-.73-.35.09-.07.18-.15.22-.33-.3-.16-.42-.41-.35-.74-.29-.16-.58-.3-.76-.22Z"/>
  <path class="cls-1" d="M133.41,129.37l-.14.51c.12-.04.38-.04.36.17.29.04.18-.66-.22-.68Z"/>
  <path class="cls-1" d="M136.1,129.51c.04.32.25.56.62.73-.08-.32-.23-.89-.62-.73Z"/>
  <path class="cls-1" d="M132.29,148.08c-.11.38.19.82.51.67-.14-.24-.2-.51-.51-.67Z"/>
  <path class="cls-1" d="M137.24,132.36c.1.32-.15.81.43.92-.04-.35-.08-.71-.43-.92Z"/>
  <path class="cls-1" d="M136.8,144.33c.05.47.38.25.78.66-.04-.13-.07-.27-.02-.44-.58.1-.39-.56-.76-.22Z"/>
  <path class="cls-1" d="M139.79,135.01c.31,0,0-.66.27-1.01-.48-.12-.26.68-.27,1.01Z"/>
  <path class="cls-1" d="M140.78,138.47c.18.29.19.66.59.85-.06-.42-.24-.79-.22-1.24-.31-.25-.07.64-.38.39Z"/>
  <path class="cls-1" d="M137.2,152.95c-.53.11.18.58.21.81.44-.07-.17-.59-.21-.81Z"/>
  <path class="cls-1" d="M139.13,152.85c.19-.35-.38-.35-.08-.75-.29-.07-.49.03-.62.29.51.08.32.65.7.47Z"/>
  <path class="cls-1" d="M137.28,160.3c-.01.42.02.83.43,1.05-.12-.36-.15-.77-.43-1.05Z"/>
  <path class="cls-1" d="M144.1,134.18c-.19.31.08.41-.05.69.36.23.46-.09.53-.46l-.48-.23Z"/>
  <path class="cls-1" d="M143.35,137.53c-.21.39,0,.6.04.88.29,0,.41-.85-.04-.88Z"/>
  <path class="cls-1" d="M144.78,136.21c-.05.1.02.14.09.18-.04.91.69,1.47.74,2.34.45.29.58-.09.95.01.03-.52-.42-.2-.54-.54.04-.44.33-.29.17-.63-.43.18-.56-.4-.93-.58.19-.35,0-.52.08-.82-.35-.34-.2.37-.55.03Z"/>
  <path class="cls-1" d="M140.67,157.57c0-.24.45.22.46.35.49,0-.24-.32,0-.57-.36-.29-.43.03-.67-.03-.03.32.02.6.05.88.37.13.29-.4.16-.64Z"/>
  <path class="cls-1" d="M148.72,126.66c-.03.38-.25.85.27.99-.06-.34.05-.76-.27-.99Z"/>
  <path class="cls-1" d="M149.22,126.32c-.34-.02-.06.6.22.68.33-.41-.24-.41-.22-.68Z"/>
  <path class="cls-1" d="M149.2,127.88c.29.16.43-.02.67.03,0-.19-.16-.3-.14-.49-.26-.03-.41.19-.53.46Z"/>
  <path class="cls-1" d="M141.37,158.61c-.49.2.22.8.12,1.19.63,0,.09-.89-.12-1.19Z"/>
  <path class="cls-1" d="M152.66,122.25c.04.32.45.63,1.09.94-.35-.32-.49-.74-1.09-.94Z"/>
  <path class="cls-1" d="M142.66,162.32c.25-.12.34-.74-.06-.88-.24.11-.43.78.06.88Z"/>
  <path class="cls-1" d="M149.6,134.47c-.16.44.59,1.36.78.65-.55-.08-.48-.45-.78-.65Z"/>
  <path class="cls-1" d="M147.72,143.14c-.38.26.03,1.1.62,1.28.01-.24.16-.2.31-.14.16-.6-.96-.6-.93-1.14Z"/>
  <path class="cls-1" d="M152.48,128.29c-.2.53-.01.89.36,1.16-.26-.33.1-.93-.36-1.16Z"/>
  <path class="cls-1" d="M143.3,164.18c.05.15.09.3-.06.26.64.42.45,1.23,1.1,1.64-.48-.84.2-1.69-1.04-1.9Z"/>
  <path class="cls-1" d="M151.2,138.64c-.24.37.32.37.54.53-.04-.13-.07-.27-.02-.44-.13.05-.31,0-.52-.1Z"/>
  <path class="cls-1" d="M144.43,166.26c-.39-.08.05.33-.12.51.38-.4.19.3.7.46.3-.41-.54-.27-.24-.68-.18-.07-.35-.14-.34-.29Z"/>
  <path class="cls-1" d="M144.83,167.44c.18.65-.36,1.07.22,1.38-.04-.69.59-.09.58-.74-.54.25-.37-.49-.8-.64Z"/>
  <path class="cls-1" d="M154.65,137.39c.12.47.64.95.84.39-.41-.23-.41-.4-.84-.39Z"/>
  <path class="cls-1" d="M146.41,170.56c-.16.53.32.76.41,1.17-.08.27-.37.14-.67-.02.12.74.87.33,1.21,1.25.23-.34.08-.29.18-.77-.49-.26-.02.19-.24.46-.38-.66-.24-1.56-.88-2.09Z"/>
  <path class="cls-1" d="M152.3,156.16c-.02.5.54.8.88.82-.16-.42-.39-.87-.88-.82Z"/>
  <path class="cls-1" d="M154.83,147.67c.14.34-.05.16-.13.51.26.07.39-.11.58-.16,0-.19-.27-.24-.45-.35Z"/>
  <path class="cls-1" d="M158.04,156.46c.13.43.28.84.82,1.07-.33-.31-.38-1.17-.82-1.07Z"/>
  <path class="cls-1" d="M164.18,146.51c-.1.31.09.48.08.74.31.24.06-.63.37-.4,0-.19-.28-.24-.45-.34Z"/>
  <path class="cls-1" d="M166.04,139.87c-.02.45.34.73.83.94-.25-.31-.47-1.03-.83-.94Z"/>
  <path class="cls-1" d="M160.51,167c-.04.17-.08.34-.12.51.13-.03.25-.06.24.11.32.05.22-.62-.12-.62Z"/>
  <path class="cls-1" d="M166.94,147.87c-.06.51.43.76.2,1.35.26.08.33-.23.49-.34.27.18.18.7.54.52.01-.26-.45-.31-.24-.67-.62.1-.44-.62-1-.86Z"/>
  <path class="cls-1" d="M163.14,167.86c.08.15-.01.38.15.49.36.18.54-.27.4-.53-.36-.33-.19.37-.55.04Z"/>
  <path class="cls-1" d="M169.84,152.93c-.37.22.12,1.45.62,1.26-.27-.39-.7-.7-.62-1.26Z"/>
  <path class="cls-1" d="M172.11,150.84c-.08.41.13.68.6.82-.22-.27-.23-.63-.6-.82Z"/>
  <path class="cls-1" d="M170.88,158c.09.33.04.73.46.89-.05-.35-.1-.7-.46-.89Z"/>
  <path class="cls-1" d="M171.92,161.52c-.03.27.27.39.24.66.17.03.18-.27.24-.46l-.49-.21Z"/>
  <path class="cls-1" d="M172.83,162.75c-.15.37.25.48.21.79.23.03.25-.79-.21-.79Z"/>
  <path class="cls-1" d="M169.18,181.07c.1.07.13,0,.15-.08.14.08.05.28.04.44.2.17.59-.16.62.25.44.16-.17-.53.21-.33-.19-.26-.93-.94-1.02-.28Z"/>
  <path class="cls-1" d="M170.24,181.78c-.09.2.04.28.19.36-.03.19-.06.37-.21.33,0,.19.29.23.47.33l.14-.64c-.37-.04-.28-.31-.59-.38Z"/>
  <path class="cls-1" d="M169.91,184.58c.03.29.26.48.54.64.14-.38-.18-.52-.54-.64Z"/>
  <path class="cls-1" d="M174.38,168.15c.11.43.63.12.7-.13-.23-.45-.44.08-.7.13Z"/>
  <path class="cls-1" d="M174.92,166.98c.12.53.25,1.3.93,1.22-.39-.37-.15-1.05-.93-1.22Z"/>
  <path class="cls-1" d="M174.78,168.73c.22.26.24.63.62.81-.08-.34-.31-.59-.31-.97-.14-.02-.14.22-.3.15Z"/>
  <path class="cls-1" d="M174.28,170.89c.56.7.4,1.02.92.1-.42-.26-.63-.1-.92-.1Z"/>
  <path class="cls-1" d="M171.51,187.19c-.06.41.1.71.48.9-.1-.33-.06-.73-.48-.9Z"/>
  <path class="cls-1" d="M173.21,191.92c.89.61.95,1.53,1.81,1.69-.39-.64-.79-1.27-1.39-1.8.05-.14.25-.02.4.02-.07-.75-.68-.44-.83.09Z"/>
  <path class="cls-1" d="M177.85,175.85c.05.57.67-.14.62.25.5-.23-.53-.49-.62-.25Z"/>
  <path class="cls-1" d="M178.31,176.18c.04.32.2.57.65.68-.05-.31-.28-.53-.65-.68Z"/>
  <path class="cls-1" d="M176.08,195.7l-.1.51c.22.1.29-.05.52.07-.18-.18-.1-.48-.42-.58Z"/>
  <path class="cls-1" d="M179.62,183.09c.25.04.3-.28.67,0-.14-.46-.98-.66-.67,0Z"/>
  <path class="cls-1" d="M193.04,191.63c-.2.67.51.71.82.58-.15-.26-.5-.41-.82-.58Z"/>
  <path class="cls-1" d="M197.81,200.51c-.06.53.56.12.52.74-.17.34-.39-.22-.62-.22.03.45.42.61.82.57-.11-.24-.08-.37.09-.51.59.16.25.85.88.99-.11-.2-.31-.36-.13-.73-.66-.27-.77-.81-.7-1.21-.28.15-.32.7-.86.37Z"/>
  <path class="cls-1" d="M199.87,203.69l-.09.51c.46.18.33.27.75.26.07-.46-.85-.57-.16-.6.04-.32-.41-.19-.5-.18Z"/>
  <path class="cls-1" d="M200.26,205.19c.19-.12.56.06.89.18l.07-.38c-.15-.03-.22-.11-.23-.22-.28.15-.14.2-.52-.05-.03.23-.2.21-.22.47Z"/>
  <path class="cls-1" d="M200.78,206.73c.45.13.38.55.8.69-.05-.47-.62-.65-.44-1.24-.42.03-.11.24-.36.55Z"/>
  <path class="cls-1" d="M202.32,207.69c-.32-.15-.54-.14-.57.21.09.1.18.2.35.26.12-.08.19-.24.22-.47Z"/>
  <path class="cls-1" d="M202.25,208.07c-.02.23-.2.22-.21.47.21.1.36-.1.37.13.18.02.16-.28.22-.47l-.37-.13Z"/>
  <path class="cls-1" d="M203.15,208.25c-.18.04-.24.97.21,1.03-.03-.37.04-.79-.21-1.03Z"/>
  <path class="cls-1" d="M205.39,213.62c.4.04.43.28.73.38.16-.36-.3-.36-.14-.73-.3-.05-.6-.11-.59.34Z"/>
  <path class="cls-1" d="M207.21,216.13c-.04.33.1.56.41.68l.09-.51-.5-.17Z"/>
  <path class="cls-1" d="M208.13,217.79c.12.39.32.74.48,1.11.34.17.02-.73.35-.56-.05-.26-.22-.09-.37-.13-.19-.12-.04-.44-.46-.42Z"/>
  <path class="cls-1" d="M209.6,218.42c0,.28.45.28.44.55.25-.21.15-.46,0-.81-.24-.06-.16.4-.44.26Z"/>
  <path class="cls-1" d="M209.72,221.02c.74.25.65,1,.95,1.52.66.05.11-.93.34-1.37-.46.17-.41.32-.9-.16.08-.55.34-.64.03-1.06-.46.18-.41.43-.43,1.07Z"/>
  <path class="cls-1" d="M210.72,220.53c.13.42.54.68.62,1.14.18-.16,0-1.08-.62-1.14Z"/>
  <path class="cls-1" d="M212.2,222.08c-.05.23.11.32.05.55.36.1.3-.48.71-.31-.06-.2-.23-.32-.46-.42,0,.5.17.39-.29.18Z"/>
  <path class="cls-1" d="M213.8,224.47c-.09.25.03.37.05.55.13-.17.43-.07.46-.4-.28.14-.16-.06-.5-.16Z"/>
  <path class="cls-1" d="M231.55,253.93c.06.56.53.84,1.07,1.07-.14-.43-.18-.92-.4-1.3-.27,0-.44.16-.67.22Z"/>
  <path class="cls-1" d="M238.54,260.76c-.14.39.31.35.34.61.29-.02.06-.68-.34-.61Z"/>
  <path class="cls-1" d="M244.38,269c-.27.21.25.88.72.94-.14-.39-.48-.63-.72-.94Z"/>
  <path class="cls-1" d="M247.3,272.86c.48.22,1.04.88,1.4.79-.28-.37-.91-.98-1.4-.79Z"/>
  <path class="cls-1" d="M254.06,279.85c.08.4.47.55.63.88.22-.15-.14-.89-.63-.88Z"/>
  <path class="cls-1" d="M259.93,288.32c.17-.1.48-.05.65-.16-.09-.18-.28-.28-.52-.33.02.23-.16.25-.13.49Z"/>
  <path class="cls-1" d="M264.39,333.24c.47.74,1.63.78,2.1,1.52.13-.75-1.33-1.18-2.1-1.52Z"/>
  <path class="cls-1" d="M266.75,334.65c.08.43.39.62.89.61-.22-.29-.51-.5-.89-.61Z"/>
  <path class="cls-1" d="M273.79,300.62c.16-.04.26-.14.24-.36.46.47.55.61,1.22,1-.3-.61-.77-1.06-1.37-1.4.11.41-.12.46-.1.76Z"/>
  <path class="cls-1" d="M275.14,303.67c.17-.19.67-.04.62-.46-.29-.28-.65.05-.62.46Z"/>
  <path class="cls-1" d="M275.69,301.93c-.18.02-.09.31-.1.5.31.07.5.02.65-.07-.05-.27-.58-.08-.54-.43Z"/>
  <path class="cls-1" d="M293.97,316.4c.17.36.54.17.79.14-.1-.17-.3-.24-.55-.26.01.12-.15.09-.24.12Z"/>
  <path class="cls-1" d="M295.79,316.55c.09.28.7.11.77,0-.3-.29-.57-.25-.77,0Z"/>
  <path class="cls-1" d="M296.75,318.09c.49.71,1.32,1.03,2.03,1.49.12-.42.47-.03.91-.01-.91-.71-1.84-.79-2.93-1.48Z"/>
  <path class="cls-1" d="M299.18,319.71c.12.4.64.34.98.49-.16-.35-.45-.56-.98-.49Z"/>
  <path class="cls-1" d="M300.45,320.44c.3.25.47.64.89.74.13-.26-.32-.83-.89-.74Z"/>
  <path class="cls-1" d="M300.88,321.58c.36.32.39.58.52.88.44-.11.6,0,.7-.52-.43.39-.73-.35-1.22-.36Z"/>
  <path class="cls-1" d="M304.41,318.34c-.34.22.31.5.58.49.02-.27-.14-.33-.2-.5-.22-.02-.3.22-.38,0Z"/>
  <path class="cls-1" d="M305.84,323.61c-.11-.02-.11.05-.11.13l.04.25c.46-.15,1.03.72,1.81.66-.04-.14,0-.22.09-.26-.49-.1-.83-.4-1.38-.43-.12-.62.37-.1.58-.41,0-.35-.69.13-.69-.21-.18-.01-.04.73-.35.27Z"/>
  <path class="cls-1" d="M305.82,319.31c.44.41.94.75,1.65.84-.46-.39-1.04-.63-1.65-.84Z"/>
  <path class="cls-1" d="M308.01,324.88c.27.16-.1.62.28.87.08-.37.27-.47.73-.29-.18-.39-.61-.46-1.01-.58Z"/>
  <path class="cls-1" d="M308.91,324.83c.23.42.78.45,1.26.56-.44-.51-.7-.35-1.26-.56Z"/>
  <path class="cls-1" d="M312.34,327.42c.18-.04-.02-.38.19-.39-.49-.41-1.51-.13-1.71-.91-.56.75,1.22.68,1.53,1.31Z"/>
  <path class="cls-1" d="M310.88,325.73c.37.61,1.24.59,1.94.77-.34-.64-1.26-.55-1.94-.77Z"/>
  <path class="cls-1" d="M312.91,325.6c-.32.33.57.39.85.45-.11-.38-.7-.13-.85-.45Z"/>
  <path class="cls-1" d="M312.9,326.24c.36.41.61.98,1.43.78-.68,0-.75-.79-1.43-.78Z"/>
  <path class="cls-1" d="M314.73,328.36c-.21-.65.55-.56.74-.2,0,.41-.45.22-.74.2-.04.47.52.15.51.58.6-.51,2.12-.45,2.78-.39.33-.5-1.32-.36-1.58-.1.24-.44-.52-.5-.02-.75-.89.02-1.76.19-3.08.28.2.46.77.46,1.39.38Z"/>
  <path class="cls-1" d="M317.36,329.12c-.16.06-.04.32-.02.51.25.09.64-.02.81.17.11-.09.07-.3.33-.29-.1-.17-.25-.29-.36-.47-.34.03-.49.58-.76.08Z"/>
  <path class="cls-1" d="M317.88,330.34c.26.14.93.34.74-.2-.41-.05-.44.17-.74.2Z"/>
  <path class="cls-1" d="M318.94,329.85c-.38.23.33.28.26.61.26-.21.18-.29.61-.19-.1-.4-.62-.22-.86-.42Z"/>
  <path class="cls-1" d="M130,115.05c.12-.22.49.13.5-.33-.22-.09-.21-.28-.45-.36.3.77-1.53.3-.18.63.3.83.81,1.57.79,2.54.51.21.44.39.22.68.14.03.15-.21.31-.13.32.28-.25.24-.18.63.41-.08.45.13,1.27.33-.02-.4-.53-.58-.85-.85.31-.47-.11-.62-.3-.87.43-.92-.39-1.66-.23-2.12-.52-.27-.36.73-.25.88-.53-.21-.1-.85-.66-1.04Z"/>
  <path class="cls-1" d="M130.81,124.37c.03.58.33,1.04.68,1.49,0-.41.26-.25.29-.58-.73.12-.53-.6-.97-.91Z"/>
  <path class="cls-1" d="M131.8,126.73c.13.27.36.28.43-.08.14.09.04.28.02.44.34.27.48.08.76.22.25.56.37,1.18.93,1.6-.47,1.03.54,1.4.64,2.17-.64.24-.71-.94-1.29-.77.73.92.47,1.78,1.61,2.64-.21.43-.41.75.28,1-.22.4-.66.45-.98.1-.14.25.18.29.14.5.17-.3.71.18.77-.35-.1.83.78,1.22.99,1.91-.73-.69-1.31-1.08-1.43-1.26-.43.53.87,1.25,1.3,1.77-.38.23.04.81.25,1.12.14.03.15-.21.31-.14.09.07.09.19.21.24-.11.09-.31,0-.34.27.36.77,1.04,1.4,1.48,2.13-.05.09-.15.07-.19.2-.55-.75-.95-.89-1.5-1.57-.04.81.58,1.31.69,2.05.38.09-.05-.33.13-.51.27.07.3.24.45.36-.02.53-.56.41-.36.84.21.12.3-.04.52.1.03-.12-.12-.17-.21-.24.08-.3.71-.53.13-.51.16-.74.65-.17.76.22-.46-.35-.02.66-.53.47-.02.31.64.31.66.6-.16.41-.69-.16-.85-.4-.31-.14-.3.41-.62.28-.03.43.48.61.41,1.05-.35.14-.42-.26-.88-.27-.28.54.48.61.25,1.12.36.04-.07-.48.2-.77.12.28.31.53.32.87.12-.56.4-.42.81-.48.09.07.09.18.21.24.04.48-.42-.09-.38.4.7.17,1.36,2.5.68,2.62.4.11.41.5.73.34,0,.59-.38.38-.47.78-.15-.5-.69-.81-.75-1.35-.21.44.28,1.53.71,2.04-.07.25-.37,0-.37.4.43.28.89.56.75,1.35.42-.13.56.28.86-.17-.2.43.47.54.38,1.18.43-.53.6.65.98.45.1.78-.65-.17-.65.41.45.13.6.4.64.72-.16.12-.39.11-.58.16-.67-.85-.82-1.91-1.57-2.44-.19.35.38.35.08.75,1.46.79.68,2.62,1.98,3.49-.2,1.54,1.67,3.29,1.13,4.23.13.4.31.76.4,1.18.68-.09.58.75.95,1.14-.11.1-.31,0-.34.27.42-.16.76.49.4.61.97.79.8,2.12,1.59,3,.07-.4.46.05.64.15-.09.25-.55-.21-.67-.02.06,1.04.97,1.66,1.44,2.5-.59.26-.09,1.3.38,1.3-.19.32.1.41-.03.7,1.07.04.85,2.51,2.11,3.2-.43,1.23,1.72,2.02,1.19,3.08-.05-.32-.32-.53-.5-.79-.31.42.75,1.03.94,1.83.07.33.16,1.6.64,1.41.27.09-.04.48-.02.7.64.49.71,1.26,1.38,1.73.11.9,1.05,2.47,1.64,3.67,7.25,15.82,15.8,31.07,25.32,45.81,9.52,14.73,19.96,28.96,31.12,42.68.02.36-.29.27-.55.26-1.14-2.43-3.57-3.98-4.75-6.38-.4.05-.45-.09-.77-.36.07-.18.16.1.39.11-.08-.45-.85-.44-.73-1.02-.37-.13-.34.31-.69.21,0-1.38-1.28-2.66-2.51-3.61-.58-1.04-1.05-2.14-2.14-2.84,0-.16.05-.23.15-.23-1.49-1.23-2.5-3.69-3.74-4.3.03-.37.24-.2.06-.53-.15-.03-.13.21-.17.36-.88-2.25-2.85-3.19-3.66-5.58-.59.13-.83-1.14-1.16-1.61-.55-.79-1.42-1.04-1.28-1.66-.77-.5-1.26-1.19-1.34-2.11-.39-.3-.15.39-.55.09-.22.02-.13-.69.07-.53-.69-.23-.65-.91-1.18-1.23-.02-.24.13-.21.29-.18-.79-.38-.92-1.14-1.53-1.63.5-.4.03-.08-.04-.7-.19.11-.5,0-.64-.22.11-.08.18-.25.2-.48-.81-.07-.64-1.38-1.77-1.85.02-.23.14-.31.31-.31-.82-.92-2.21-3.43-2.72-3.47-.42-.48-.26-1.29-1.12-1.51.04-.7-.32-1.69-.83-1.68-1.87-3.45-4.1-6.27-5.98-9.86-.2-.11-.24.04-.4-.01.05-.4-.09-.45-.1-1.01-1.62-1.56-2.27-4.67-4.28-6.41.02-.24.2-.22.22-.47-.57-.79-1.27-1.51-1.59-2.44-.19.16-.71.72-1.36.03.16-.4.45-.3.29-.86.15-.26.8.18.59.51.55.13.16-.89-.16-.62-.1-1.44-1.56-2.14-1.62-3.6-.66.03-.93-.82-.78-1.58-.2-.13-.26,0-.3.16-.33-1.15-1.1-2.07-1.41-3.23-.17-.02-.24.15-.43.11-.58-1.6-2.25-3.34-2.16-4.82-.12-.05-.13.12-.18.21-.76-1.7-1.91-3.2-2.35-5.07-.97-.98-1.71-3.06-2.43-4.56-.36-.26-.31.26-.67,0-.1-.11-.2-.21-.19-.37,1.02-.08-.21-1.33-.26-1.95-.5.04.14.45-.02.7-.23.33-.45-.3-.59-.4.65-1.11-.6-2.02-.68-3.12-.36-.26-.32.25-.68,0-.13-.09-.03-.29-.19-.36.08-.16.33.03.52.08.06-.37-.1-.64-.51-.78-.16.06-.14.46-.45.23-.06.26.3.31.13.62-.47-.15-.21-.66-.78-.76.29-.53-.09-.72-.17-1.07.33-.27.24.64.66.71.19-.85.33.15.62.27.08-1.16-.5-.76-.56-1.79-.23-.08-.17.4-.36.41-.12-.06-.06-.2-.07-.31-.27-.04-.31.09-.21.33-.67-.24-.74-.79-1.4-1.04,0-.36-.06-.53.27-.59-.21-.39-1.04-.48-.99-1.01.04-.29.45.14.64.14.05-.41-.46-.47-.61-.27-.38-.16.03-.7-.35-.86.1-.18.41.06.36-.41-.8-.13-1.66-1.46-1.09-1.76-.25-.38-.19-.9-.84-1.08.35-.8-.75-1.19-.29-1.69-1.16-.03-.39-1.93-1.49-2.37-.18-.87-.81-1.52-.92-2.42.09-.36.26.46.3-.15-1.33-.89-.95-2.59-1.99-3.61-.07.22.08.34,0,.57-.06.13-.27-.02-.31.15-.21-.59-.11-1.31-.37-1.88-.24,0-.07.23-.09.38-.19.3-.15-.44-.58-.41.19-.13.22-.26.12-.51-1.11-.06-.44-1.6-1.4-2.07.04-.43.25-.53.61-.29.16-.38-.24-.49-.21-.81-.17-.04-.18.28-.25.46-.45-.09-.48-.38-.67-.6.09-.21.28-.2.55-.03-.61-.51-.66-1.28-1.02-1.91.1-.18.41.07.37-.4-.98,0-1.39-2.22-2.06-2.67.28-.39-.18-1.08.44-.65-.11-.44-.34-.37-.61-.28-.24-.36.5-.83-.11-1.19-.17.31.18.37.12.62-.14-.09-.22-.07-.28.02-.42-.94-.44-2.06-1.5-2.71.44-.17.35-.23.59-.72-.37-.18-.42.31-.56.6-.87-.2-.1-1.16-.86-1.41.01-.7.68-.03.8-.48-.44-.21-.64.11-.98.11-.45-.23.12-.5-.11-.63.08-.16.33.04.52.1-.05-.37-.52-.78-.7-.47.21-.89-.26-.66.09-1.39-.6-.47-.51-.58-.62-1.3-.24.01-.29.45-.71.09l-.17.64c.15.34.48-.02.27.56.19.15.26,0,.31-.14.25.58,1.28,2.29.35,2.32-.09.27.42.26.57.42-.16.46-.54.33-.83.04,0,.24.49,1.17.66.6.31.35.16.9.81,1.1-.1.25-.54-.22-.67-.03-.16.47.9,1.14.1,1.2-.07.32.4.22.4.04.18.33.32.68.26,1.13.17.03.25-.14.43-.09.24.15.15.46.39.61-.12.08-.27.09-.43.08.71.66,1.07,1.47,1.33,2.34-.11.32-.17-.28-.49-.23-.08.38.39.5.17.94-.35-.29-.55-.65-.39-1.18-.78.02-.52-1.32-1.21-1.71.4,1.32,1.11,2.33,1.47,3.41.39.09-.05-.33.13-.51.72.39-.36.92.36,1.31-.02-.22-.1-.41-.12-.63.53.06.15.54.67.6-.01.3-.24.16-.43.09.05.17.25.26.15.5.6-.1,1.07,1.65,1.3,2.47-.29.34-.04-.5-.42-.48.74,1.21,1.39,2.46,1.79,3.83-.08.16-.33-.03-.52-.09-.19.58.49.62.71.46.37.51-.45.22-.34.84.43.43.17-.54.49-.35.36.78,1.21,1.33,1.07,2.34.68.02.6.48,1.01.89.02.41-.25.25-.28.59.62.43.83,1.05,1.11,1.65-.22.28-.43-.39-.55-.54-.12.54.45,1.13,1.01,1.46,0,.44-.39.1-.4.54-.38-.13-.38-.63-.71-.46.55,1.18,1.15,1.85,2.1,2.66.04.63-.62-.1-.64.42.55.96,1.15,1.9,1.2,3.1.75.24.51.79.56,1.1.25.11.24-.28.55-.04-.14.96,1.54,2.22.89,2.67.67,1.1,1.05,2.93,1.94,3.55-.12.79.65,1.14.38,2.01.64.18.47.77,1.16.93.02.41-.25.26-.26.6,1.12,2.14,2.41,4.2,3.09,6.57.23-.05.53.09.33-.28.68,1.9,1.43,3.78,2.71,5.38.42.33.1,1.04.39,1.44.14.02.14-.23.3-.16.14.63.33,1.42,1.09,2.01l-.15.78c1.44,1.63,2.19,3.63,3.01,5.59.11.02.15-.08.28-.03,1.45,3.39,3.65,6.39,5.29,9.69.75.22,1.59,2.66,2.41,4.03.45.74,1.08,1.16,1.04,1.93l.51.19c-.32.68.9,1.05.77,1.96,1.42,1.2,2.1,3.74,3.62,5.27l-.07.53c1.94,1.98,2.74,4.62,4.72,6.58.18,1.27,1.52,1.86,1.72,3.12.81.33.67,1.23,1.41,1.6.76,1.82,2,3.37,3.29,4.87,2.22,3.72,5.26,6.95,7.55,10.64l.52.17c.18.11-.02.24-.16.22,1.57,1.73,2.51,3.12,4.12,4.85l-.05.53c.3.33.61-.21.76.51-.07.18-.16-.1-.39-.12.08.29.41.62.63.47,10.09,13.85,21.83,25.86,33.75,38.23l.4.08c1.37,1.89,3.6,3.08,4.79,5.12.35.24,1.03.11.69.53.41.07,1.2.65,1.4,1.32l.54.1c.54.61,1,1.28,1.82,1.66,1.2,1.55,2.68,2.87,4.15,4.2,1.49,1.31,2.94,2.65,4.02,4.33l.54.08c.17.74,1.07,1.47,1.58,1.43.03.25-.14.26-.09.52.65-.24.63.29.72.64,1.09.35,1.92,1.29,2.91,2.23.03.23-.07.33-.23.37.18.28.69-.18.86.51.13.01.09-.15.11-.25.34.12.34.55.86.51.07.23-.08.24-.25.23.43.09,1.12.4,1.57.86-.09.51-.42-.09-.82-.1,1.22.6,2.29,1.35,3.44,2.01l.07.68c-.34.2.36.06.09-.39.72.1,1.06.53,1.86.85-.15.36.52.77-.05.65.18.34.61-.12.77.73.61.08,0-.37-.07-.53.87.19,1.13.98,2.04,1.12,0,.15-.24.09-.39.09.08.22.45.16.34.56.18-.48.41.11.96.09.95,1.7,3.66,1.79,4.27,3.55.78-.35,1.56.49,2.18.8-.38.39-.8-.49-1.31-.48.02.24.21.29.22.54-.62-.22-1.43-.26-2-.53.62-.61-1.2-1.06-1.52-1.19.62,1.15,2.39,2.23,3.76,2.4-.01.18-.33.09-.53.1.58.35,1.63,1.23,2.15.67.42.14-.01.42.11.67,1.29.38,1.88.87,3.33,1.26,1.23,1.07,2.54,2.07,4.4,2.43.67.68,2.14,1.32,2.98,1.27.71.77,2.1,1.29,3.47,1.93,1.39.63,2.8,1.34,3.52,2.63.12-1.25,1.65.45,2.11-.41.41.4,1.49-.05,1.55.77,1.2.28,2.25.73,3.17,1.35.94.59,1.75,1.36,2.42,2.3.4-.06.81-.11.86-.43.35.12.56.43.65.89.5-.13.65.19.92.35.38-.3.59-.08,1.02-.31-.04-.3-.43-.12-.51-.37,1.5.28,3.35,1.59,4.33,3.17.52-.41,1.11-.21,1.62.26,1.81-.36,3.62-.04,5.29.46l.23.77c.14-.56,1.01.14,1.56.12-.02.12-.05.24-.19.28,1.41.59,2.72,1.14,4.15,1.08,1.46.62,3.44,1.42,5.02,1.17.87.62,3.11.63,4.05.67,1.59.07,2.97.19,4.33-.12-.34-.18-.21-.44-.28-.74.37-.1.51.2.88.1-.37-.38-.71-.19-.8-.64-.72.29-1.1-.84-1.55-.37-.29.04-.25-.51-.4-.71-.64-.19-1.24-.44-1.81-.72.73-.1.98.01,2.02-.24-2.27-.85-5.17-2.37-8.17-2.77-.29-.05-.46-.28-.6-.57-.09.11-.13.25-.14.41-.27-.15-.6-.19-.92-.26.02-.88-1.65-.39-2.43-.2-.1-.39.42-.41.82-.49-.3-.05-.55-.47-.37-.73.63-.06.54.26,1.11-.02-.06-.33-.71.22-.65-.3-.41-.05-.29.22-.62.21-.13-.04-.27-.09-.34-.23.15-.24.67-.23.81-.48.11.01.17.11.3.09-.48.32.49.41.86.53.09.22-.08.29.03.51.91.22,1.51-.44,2.29-.19-.09.31-.91.18-1.28.31.31.2,1.07.42,1.1-.02.69.73,1.93.61,3,.74-.38-.53-1.26-.27-1.91-.37.73-.52,1.91-.14,2.26.58.91,0,1.79.05,2.29.71,2.68.15,4.63,1.51,7.19,1.79-.27-.61-.89-.59-1.06-1.36-.58-.12-1.07-.4-1.35-1.04-.22,0-.18.16-.35.2-.09-.69-.75-.43-1-.85-.08-.27.23-.32.56-.37-.29-.54-.97-.43-1.38-.77-.25-.37.37-.25.22-.56-.56-.57-1.23-.24-2.09-.56.01-.53,1.08-.33,1.5-.37-.13-.1-.23-.26-.29-.48-.12.02-.05.17-.05.27-.45-.01-.46-.44-.85-.12-.09-.22.08-.29-.03-.52-.72-.08-1.25-.49-1.77-.89-.32.07-.44.26-.36.57-.29.09-.51.06-.69-.02,0-.4.11-.73.21-1.07.74.31,2.11.33,2.66-.16,1.16.43,2.31.86,3.24,1.64.06-.73.75-.12,1.16.16-.05.38-.44-.26-.73-.11.27.56,1.11.17,1.62.32.22.37-.4.26.04.51.38-.45,1.58.15,2.13.61.77-.2,1.25.33,2.08.48.33-.48-.56-.44-.77-.62.76,0,2.49.23,3.32,1.23,1.05-.29,3.27,1.51,4.12.26.55.48,1.12-.09,1.53.39-.11.27-.43.02-.53.4,1.65.12,3.39-.03,3.95-1.05-.22-.39-.68-.9-.35-1.22-.57-.7-1.79-1.13-1.54-2.2-.54.27-1.09-.2-1.4.25.07.13.26.04.42.02.03.37-.13.18-.45.25-.08-.4-.27-.58-.52-.64-.16-.3.02-.43.36-.49-.19-.16-.43-.18-.54.01-.26-.8-1.71-.87-2.68-.97-.61-1.11-2.06-.69-3.32-.65l-.08-.24c.81-.6,1.77-.15,2.52-.44-.05-.3-.32-.21-.33-.57-1.86.09-2.59-.67-4.29-.85,0-.1.08-.15.04-.27.56.17,1.52.2,1.99-.05-.09-.34-.47-.2-.57-.51-.07.37-.33.33-.54-.01-.04.24-.15.44-.34.59-.39-.43-1.64-.72-1.75,0-.34.13.17-.51-.28-.45.03-.18.42.02.42-.35-.31-.23-.93.19-.93.46-.29-.01.03-.49-.11-.74-.57-.02-.41.36-.8.43-.31.05-.16-.39,0-.38-.27-.33-.46.19-.59.25-.09-.08-.31-.47-.23-.73.35-.16.49.05.79-.02-.35-.52-.86-.13-1,.19-.62-.27-1.17-.54-1.9-.18-.31-.45.28-.36.19-.68.4.08.76.22,1.15.31-.14-.48.04-.77.53-.87-.12-.28-.42-.22-.53-.03.16-.38-.38-.25-.22-.73-.68.13-1.09-.12-1.72-.46,0-.28.66-.12.61.27.11,0,.1-.07.09-.14l.25-.05c-.16-.45-.65-.38-1.06-.45.02-.39.37-.57.38-.96-.36.21-.28.06-.75.13-.2-.35,0-.46-.08-.75-.28,0-.31.14-.47.21-.14-.28.15-.3-.05-.63-.59-.12-1.05-.45-1.53-.74-.01-.45.3-.07.72-.25-.12-.34-.64-.05-.67-.51-.07.12-.33.13-.31.31-1.01-.96-2.61-1.07-3.65-2.01-.14.04-.05.24-.03.39-.31.06-.6.1-.79-.02.43-1.32-1.76-.7-2.3-1.34.88-.88,1.54-.05,2.47-.08-.19-.44-.93-.2-.71-.79l-.76.1c-.12-.25,0-.34,0-.51.2.15.63-.03.72.28.09-.39.32-.05.57-.33.01-.78-1.22.23-1.19-.59-.62.16-1.25.32-1.84.5-.19-.4.11-.47.39-.55-.01-.52-.46-.43-.68-.66-.07.22-.28.37-.71.34.1.19.42.06.37.46-.38,0-.64-.19-.77-.54l-1.14.12c.16-.5.38-.23-.13-.62-.23-.45.43-.24.25-.66-.58.6-.87.09-1.75.3-.39-.44-.85-.77-1.18-1.28-.83.41-1.37.21-2.18.2-.22-.44.53-.18.56-.43-.75-.44-2.15,0-2.83.25.62.67,1.51-.09,2.11.07.05.21-.03.33-.18.39.11.27.73.06.62-.18.27,1,2.72.23,3.08,1.61-1.11.44-2.35-.35-3.08-.98-1.18.61-2.25-.23-3.33-.85.59-.21.98-.42,1.4-.87-.43.14-.54-.13-.93-.05-.14-1.25-1.25-.31-1.43-1.44-.96-.21-.66-.13-1.5-.42.12.28-.21.19-.19.39-.28-.06-.43-.29-.82-.21-.16-.52.4-.35.62-.16.16-.36-1.02-.63-1.23-.31-.29-.26-.81-.23-.8-.85-.4-.36-1.4-.01-1.67-.55.02-.6.77-.62,1.3-.82-.59-.37-1.27,0-1.94-.66-.06-.47.13-.42-.23-.63-.44.04.39.47-.05.51.2.21.4.42.73.48-.16.43-.2.34.24.62,0,.15-.22.12-.37.14-.3-.04-.12-.66-.39-.74-.09.11-.34.09-.35.27-.34-.1-.48-.44-.74-.62.03-.27.16-.27.36-.13.2.05-.02.16.06.38.2-.17.46-.27.42-.65-1.87.22-2.85-.62-4.28-.94-.04-.18-.08-.36.07-.38-.25.14-1.34-.11-1.89-.48.21-.39,1.17.1,1.28-.14-.03.46.29.45.13,0-1.11-.37-2.01-.83-2.67-1.36.12-.64,1.04.35,1.42-.14-.31-.22-.29-.43-.69-.24-.72-1.11-3.3-1.61-4.44-2.32-.06-.36.87.17.6-.37-.45.25-.91.04-1.31-.15.16.26.29.55.6.65-.01.1-.11.12-.1.25-.65-.16-.68-.99-1.54-.92-.04-.23.13-.26.07-.51-.62,0-.77-.5-1.25-.66-.03-.22.06-.33.22-.38-.08-.24-.52-.11-.45-.52-.23-.05-.24.09-.23.25-1.33-1.22-2.33-1.91-3.8-2.95.01-.23.2-.28.5-.23-.19-.23-.54-.29-.7-.55-.5-.16-.16.47-.61.35-.09-.56-.53-.76-1.11-.82-.08-.31.21-.27.07-.64-.26.02-.22.33-.49.36-.07-.72-.36-.27-.97-.69-.08-.31.22-.26.08-.63-.15.05-.25.15-.23.37-.63-.24-1.22-1.55-.81-1.95-.9-.39.2.86-.58.86-.24-.23,0-.33-.19-.77-.57-.07-.73-.69-1.32-.35-.31-.3-.71-.59-.46-1.07l-.65-.05c-.06.58.34-.17.28.41-.63.27-1.36-1.06-2.28-1.35.34-.15.48-.41.9-.18-.16-.81-1.03-.09-1.59-.52.06-.7-.61-.68-1.09-.86-.05-.72-.61-.95-1.11-1.25.16-.36.46.27.79.2.04-.32.55-.16.63-.45-.75-.02-1.36-.5-2.11-.44,0-.22-.28-.29-.42-.68.2-.49.9.77.76-.18.46-.03.35.48.81.45.08-.49-1.01-.57-.57-.94-.44-.02-.59-.36-1.18-.52.51-.47-.39-.41-.43-1.08-.78-.08-1.08-.61-1.71-.83-.26.23-.1.77.29.81-.46.37-.82-.49-1.06-.76.13-.25.51-.25.64-.18.15-.24-.04-.45.23-.74-.57.51-.55-.27-1.3-.28-.17.47.37.29.28.67-.26-.21-.71-.24-.67-.72.05-.18.17.07.39.04.02-.22-.23-.36-.01-.39-.07-.44-.49.29-.4-.3-.14.27-.21.6-.63.57-.33-.34.19-.22.11-.63-.33-.06-.4.15-.51.33-.14-.1-.15-.31-.4-.3-.08-.63.74-.28.76-.81-.24.08-.52.11-.64.31-.51.02-.17-.72-.8-.61-.1-.4.12-.45.11-.75-.56-.08-.68-.54-.92-.89-.59.22-.97-.43-1.3-.83-.05-.32.59.15.38-.34-.68.03-.82-.51-1.3-.96-.42-.17-.17.4-.51.32-.46-.36.3-.42.12-.89-.19-.18-.33-.19-.52-.07.05-1.34-1.71-1.13-1.96-2.21-.65.13-.73-.09-1.43-.34-.13-.12.04-.44-.27-.68.25-.36.57.28.91.26-.21-.63-.79-.72-1.3-.84-.21-.47.09-.43.14-.89-.35-.22-.31-.55-.77-.39v-.52c-.23.43-1.06-.24-.89-.93-.67.17-.66-.21-.9-.67-.49-.11-.05.1-.13.37-.32-.03-.31-.34-.51-.48.06-.55.23-.35.52-.43-.28-.32-.48-.71-.37-1.36.15,0,.23.07.26.17.2-.26-.52-.84-.76-1.16.49.94-.05,1.16.48,2.02-1.16-.23-.31-1.13-.88-1.57-.26.26-.07,1.06-.41,1.23.07-.41-.42-.88-.24-1.33-.46.03-.74.26-1.18.32.54-.31.18-.66.15-1.14.05-.29.62.03.53-.43-.32.05-.39-.02-.66.27-.19-.19-.18-.67-.39-.2-.19-.23-.2-.6-.24-.95.19-.17.61.67.91.16-.58-.2-2.66-1.57-1.62-1.86-.16-.25-.67-.22-.62-.64-.89.19-1.07-1.02-2.17-1.07.32-.49-.35-.73.17-.88-.11-.34-.5.08-.9-.17-.45-.61-.74-1.34-1.63-1.62.32-.36-.21-.78-.5-.62.17-.5-.25-.55-.22-.95-.16.25-.07.36-.29.72-.29-.26-.29-.83-.2-1.09-.26-.46-.56.1-.6-.78-.14.05-.15.27-.4.18.36.27.52.69.58,1.18-.44-.58-.85-1.18-1.33-1.73.03-.1.13-.1.14-.23.33.17.44.87.88.58-.11-.57-.93-.51-.96-1.39-.18-.03-.36-.06-.38-.21-.16.02-.27.11-.28.33-.5-.16-.52-.69-.99-.87-.08-.39.2-.3.17-.62-.41-.17-.2.43-.52.02-.05-.43.47-.08.16-.49-.28-.13-.2.21-.4.17-.15-1.83-2.12-2.66-2.49-3.95.04-.24.44.02.53-.14-.2-.55-1.16-.54-.93-1.41-.16.02-.27.1-.29.33-.37.02-.32-.26-.63-.28-.04-.29.2-.2.4-.17,0-.37-.39-.45-.46-.77-.15-.02-.13.21-.16.36-.36.01-.24-.32-.49-.38.09-.11.3-.06.29-.33l-.51-.12c-.03-.32.26-.22.18-.62-.69-.69-1.37-1.38-1.91-2.17l-.03.39c-.15-.22-.62-.21-.61-.54-.04-.29.2-.2.41-.17-.19-.59-1.17-1.16-1.46-1.27.19-.33.12-.57-.33-.74.04.6-.24.25-.53.13.68.63.52,1.23,1.28,1.89.19-.01,0-.12.02-.26.43-.06.06.44.49.38-.15.5-.06.44-.08,1.03-.41-1.14-1.94-1.97-1.98-2.98-.11,0-.14.1-.27.06-.36-.21.31-.12.18-.48-.92-.09-.92-.81-1.17-1.37-.48.14-.7-.22-.85-.62.36-.08.84,0,.95-.42.26.18.44.66.74.46-.27-.28-.21-.33-.06-.68-.41.09-.49-.17-.77-.07-.3-.19-.23-.65-.71-.72.27-.68-.52-1.2-1.15-1.62.41-.32.17-.58-.45-.78.07-.14.19-.22.41-.16-.19-.67-1.05-.89-1.29-1.53-.24-.05-.13.4-.42.28-.31-.03.13-.57-.34-.49.02-.22.13-.31.3-.32-.12-.3-.37.29-.5-.26,0-.3.09-.48.31-.45-.49-.27-.63-1.28-1.17-1.13-.02-.33.26-.22.2-.61-.43.3-.36-.38-.35-.36-.46-.53-1.14-.34-1.16-1.26-.49.17-.76-.64-1.07-.97.1-.11.31-.05.3-.32-.63.06-.47-.64-1.22-.74-.38.07-.08.68.18.72.04.19-.58-.16-.62-.31-.44.07.17.42.19.59-.06.16-.33.02-.52-.02-.13-.11.12-.77-.56-.82.02-.32.05-.63.33-.57.05-.47-.54-.52-.4-1.04-.24.05-.42.3-.65-.05.65-.17,1.44.2,2.16.61-.14-.3-.17-.68-.27-1.01-.22-.03-.53.13-.49-.27-.17,0-.23.17-.41.15-.44-.24.02-.32-.03-.81-.55.47-1.61-.94-1.11-1.53-.35.23-.23-.35-.74-.35-.07.44.47.48.4.92-.27.17-.49-.71-.65-1-.16.06-.36.07-.65-.06-.3-.09.09-.34.29-.18-.08-.36-.57-.06-.56.24.23.13.18.44.6.45-.09.17-.23.27-.32.44-.46-.26-.28-.92-.76-1.17.22-.27,1.17.05.86-.55-.32.35-.27.01-.63-.19.39-.33.37.16.21-.61-.3.15-.41.18-.77-.1.45-.49-.6-.5-.37-1.18.74.95,1.7,1.44,2.12,2.78.2-.73.72.62,1.17.08.05-.23-.12-.32-.06-.55-.57.15-.69-.77-.51-1.09-.25.51-.63-.14-.84.42-.12-.24-.51-.31-.44-.67.12-.32.42.68.41-.14.43-.04.04.45.47.41.02-.24.19-.22.2-.48-.79-.17-.52-.55-.27-.89-.6.38-.91-.93-1.39-1.35-.38,0-.17.15-.2.48-.85-.24-1.01-1.44-1.65-1.43-.06-.45.36-.17.45-.4.31.43.7.81.87,1.33.29.03.48-.09.58-.36-.22-.02-.22-.17-.22-.33-.12.02-.24.04-.29.18.12-.74-1.13-1.7-1.74-1.72.86-.26-.05-.83.32-1.37-.22-.06-.31-.2-.34-.38-.49.09.17.43.03.68-.2.34-.71-.02-1.42-.18.15-.64.64.09.93-.11,0-.6-.25-.31-.69-.62-.08.25-.3.26-.45.4-.23-.13-.02-.53-.44-.55-.06.54.78.53.47,1.23.57.24,1.09.49,1.31.94-.08.26-.37-.3-.47-.41-.36,0,.03.6.22.33-1.33,1.03-1.77-2.25-3.07-3.26-.02.19-.04.37-.18.35-.09.33.47.26.3.64-.17.18-.86-.32-.68-.76-.23.39-1.14-.04-.97-.58.01-.15.63.31.57.59.35-.39.53-.09.96-.23-.07-.47.11-.43,0-.94.54.5.48,1.04,1.5,1.42.11-.57.36-.19.26-.86-.23.17-.27.63-.83.28-.36-.56-.57-1.21-1.06-1.69,0,.3-.1.47-.33.43.09.3.25.55.41.8-.21.11-.55-.13-.75-.24-.01-.23.14-.21.29-.18-.12-.6-.49.14-.72-.5.19-.17.54-.1.71-.31-.92-.25-1.11-1.73-2.07-2.01.09-.23.4-.12.35-.56-.36-.21-.36-.63-.95-.71,0,.31-.09.48-.22.6-.42-.29-.54-.76-1.03-1.01.17-.37,1.01-.23.86.41.1-.33.51-.14.6-.48-.73-.03-.77-.54-1.55-1.05-.18.38.38.32.29.64-.36.2-.37-.47-.83-.55.02-.24.2-.22.21-.47-.9.29-.59-1.01-1.25-1.23.39-.57.79.42,1.15.25.02-.13-.14-.15-.23-.21-.09-.47.42.04.33-.43-.41-.17-.45-.77-.73-.38-.5-.09-.2-.65-.52-.85.15-.18.52-.2.5.17.46-.37-1.08-.84-.43-1.36l-.75-.25c0,.29-.14.31-.21.47-.38-.22-.11-.4-.02-.68-.9-.17-.67-1.02-.97-2.09-.71-.26-.81-1.71-1.59-2.3-.35.19.13.41.14.73-.46.11-.88-.8-1.11-1.21.28-.36.32.54.62.22,0-.37-.01-.64.14-.77-.27-.12-.94-.23-1.39-.35-.34-.33.2-.53.16-.9-.07-.24-.9-.62-.38-.82-.79-.43-1.07-1.15-1.39-1.85-.01-.52.63.06.61-.46-.51-.37-.35.4-.82.12-.45-.26.13-.63.19-1.02-.29-.14-.21-.49-.4-.69.24-.05.39-.24.39-.67-.12.05-.38.08-.37-.13-.33-.08.13.28-.09.51-.4-.08-.29-.44-.4-.69-.3-.07-.08.48.03.55-.16.13-.38.14-.57.21-.21-.32.05-.48-.45-.43.11-.57.31-.06.57-.21-.01-.47-.36-.22-.62-.22-.36-.33-.41-.84-.7-1.21.21-.15.59,0,.82-.11-.11-.45.27-1.14-.25-1.46.25-.6.45-.82.05-1.62-.02.31.14.62-.15.77-.36-.14-.4-.46-.52-.74-.25-.09-.23.29-.54.07.22.31.19,1.18.59,1.04-.14.15-.26.34-.57.2-.21-.28.3-.44-.42-.57-.07-.47.42.05.35-.42-.41.32-.66-.16-.67-.66-.4-.06-.28.31-.1.51-.23-.07-.23-.25-.47-.31.12-.2,0-.81.27-.72-.05-.18-.84-.51-.27-.65-.03-.36-.91-.07-.94-.62.07-.16.33,0,.52.06-.2-.46-.25-1.48-.79-1.39-.13-.09-.36-.78.1-.51-.49-.73-1.54-1.45-2.55-1.23-.14-.19-.17-.44-.41-.57.06-.48.67.04.65-.58.52.25.33.36.39.7.47.27.77.22.84-.23-.12-.04-.13.12-.17.21-.29-.19-.61-.35-.51-.75.1-.32.18.26.49.19.18-.4-.47-.36-.24-.78-.81.24-.84-1-.82-1.83-.43-.14-1.07-.09-.78.53.3-.35.37.08.44.45-.08.16-.22-.07-.22-.22-.26.33.49,1.09.6,1.61-1.3-1.12-2.1-3.48-3.35-5.01.05-.14.25-.02.4.02-.02-.29-.09-.56-.54-.62.4-.4-.13-.39-.09-.86.03-.35.67.39.57-.19-.67-.05-.48-.39-.7-1.1-.52-.06-.96-.25-.73-.97-.5-.11-.42-.53-.92-.65.53-1.49-1.16-2.75-1.52-4.62-.31.22-.8-.04-.44-.45-.37-.26-.49-.08-.67,0-.09-.1-.19-.2-.19-.35.25-.08.42-.3.82-.09.02-.66-.7.2-.53-.63-.61.14-.5-.11-.8-.6.08-.27.37-.15.67,0-.86-.63-1.21-2.09-2.45-2.23-.39-.33-.14-.46-.22-.79.1-.36.57,0,.63-.44-.37-.22-.54-.05-.7.13-.15-.48-.33-.24-.67-.56.26-.47,1.07-.17,1.28.25.02-.24.18-.21.15-.08.11-.83.14-1.92-1.18-2.43.03-.43.62.2.61-.31-.59-.09-.57-1.22-.93-1.77-.22-.11-.29.05-.52-.08.11-.09.31-.01.33-.28-.19-.31-.16-.05-.49-.2.06-.12.26.01.3-.15.11-.54-.36-.79-.68-.56.06-.14.03-.24-.06-.3.05-.14.25-.01.4.02-.42-.83-.54-2.41-1.39-2.65,0-1.02-.44-.53-.39-1.15-.83-.16-.88-.49-1.52-.92-.09.31.1.47.09.74-.41-.14-.14-.6-.49-.76.05-.14.25-.01.39.03-.25-.58-.23-1.3-.48-1.88.06-.14.25-.01.4.03-.1-.28-.13-.6-.49-.77-.98.13-.74-2.23-1.73-2.83.41,1.1.88,2.17,1.21,3.31-.38-.26-.4-.7-.55-1.07-.43.04.15.51.09.74l-.73-.31c.04-.23.21-.2.25-.45-.58-.65-1.27-.26-1.43-1.31.23-.21.62.43.94.54.16-.12.23-.42.49-.35-.2-.12-1.37-.1-1.37-1,.08-.21.28-.2.55-.04.08-.5-1.01-.37-1.1-1.03.01-.47.54.05.52-.47-.1-.07-.13,0-.15.07-.2.12-.28-.46-.64-.14-.01-.19-.21-.84-.54-.52-.04-.24-.34-.36-.24-.67.27-.16.86.33,1.06.04-.2-.18-.48-.43-.78-.62.03-.33.29-.18.28-.58-.37-.49-.53-1.08-.8-1.62.09-.27.26.3.61.27-.11-.8-1.24-.44-.99-1.41-.16-.15-.66-.13-.57-.39-.32-.11.11.29-.13.5l-.36-.16c.02-.68-.55-1.07-.5-1.76.38-.21.79.5.57.95.31.15.56.32.66.57-.17-.28.04-1.25-.71-1.44.05-.47.51-.12.56-.6-.72-.08-1.2-1.16-1.65-1.99.18-.34.23.23.48.21-.2-.38.15-.33.19-.75-.47-.37-.49-.95-1.01-1.29.15-.89-.42-.6-1.4-1.33.24.37.61.67.65,1.14.19.14.25,0,.31-.14.23.19.35.43.35.72-.03.27-.34-.18-.33-.29-.19.24-.45,1.47.24,1.66-.31.51.22,1.49.71,1.99-.12.32-.36.3.15.48-.04,1.17.31,2.15,1,2.96-.51.29.38,1.04-.26,1.01.23.07.36.38.63.7.07-.22-.08-.33,0-.56.16.15.26.32.42.46-.09.13-.22.19-.43.1-.13.36.17.51.05.86.19.12.24-.03.4.03-.12.32-.2.62.23.67-.04.2-.18.46,0,.56-.03.32-.53-.31-.46.22.76.06,1.29,1.73,1.05,2.28-.01.41.29-.01.49.21.09.06.09.18.21.23,0,.42-.3.28-.31.71.78.34.95,1.7,1.25,2.63.39.07.41.32.7.44.1-.62-.46-.21-.49-.77.35.1.25.07.49-.35.79.33.78.97.48,1.32-.4-.1.11-.65-.36-.72.19.4-.15.81-.55.6.29.57.36,1.24.64,1.81-.5.05-.29.04-.27.58-.25-.25-.29-.61-.15-1.05-.23-.08-.18.38-.46.23.28.27.22.71.43,1.02.31.12.34-.32.43-.66.36.45.39,1.07,1,1.41.24-.03.35-.32.61-.3.39.48-.39.21-.31.71-.1.17-.14-.12-.36-.15-.26.79.7,1.79.45,2.69.86.47.9,1.34,1.27,2.06-.26.44-.59-.32-1.04-.15-.02.7.86.41.19.92.34.03.59-.09.76-.38.51.53.76,1.19.9,1.91.68-.11.79.62.96,1.09-.06.14-.25.01-.4-.02-.16-.11-.03-.36,0-.56-.14-.08-.23-.06-.27.03l-.24-.1c-.02.42.6.52.28,1.09-.31-.1-.23-.41-.4-.58-.46.1.08.62.07.87-.94-.25.25.75.23,1.35.22-.16.71-.27.91.1-.51-.04-.26.43-.69.69.15.04.21.12.21.23.33-.38.59.24,1.04.15.07.27.04,1.24.73,1.54-.03.42-.39.23-.61.31.08.6.3,1.07.21,1.47.16.07.33.13.49.2l.11-.51c-.6-.11-.28-.68-.45-1.01.55.24.29.9.82,1.16-.92.47.13,1.17.08,2.11-.04-.32-.4-.47-.35-.83-.39.17.14.82.3,1.09.25-.03.43-.16.7-.14.37.42-.26.45-.29.72.22.04.21.19.19.35.48-.24.7.18.48.89.35-.53.24.04.89.22-.14.73-.71-.44-.75.39.63-.14.67.27,1.13.32-.12.62-.63-.32-.79-.04.23.43.28.52.81.6-.1.57-.34-.2-.55.06-.11,1.06.64.96,1.26,1.61-.06.3-.29.29-.28.72.56.2.44.75.86,1.02-.14.22-.44.14-.6.32-.21-.04-.19-.2-.34-.27-.01-.38.31-.15.45-.24-.37-.49-.73-.51-.96-1.2.09.45.04.97.41,1.26-.05.41-.29-.46-.4-.02-.08-.49-.38-.86-.53-1.31-.14-.02-.14.22-.3.16-.34-.25.23-.26.13-.64-.21-.08-.3-.22-.31-.4-.95.46-.25-.98-1.09-1.13.03-.43.5-.17.26-.59-.44-.1-.55.4-1,.29-.1.35.31.45.23.79.15.04.15-.19.2-.34.42.16.38.56.48.89-.24.2-.28-.21-.64-.12-.24-.33-.31-.75-.72-.99.02-.43.5-.17.26-.59-1.41.01-1.66-2.34-2.33-3.44.17-.16.59.14.7-.13.46,1.12.77,2.32,1.42,3.35.36.02.05-.54-.29-.53.11-.41-.16-.73.38-.54-.22-.26-.45-.52-.63-.81.16-.18.53.04.51-.49-.58-.05-.49-.22-.65-.68,0-.43.39-.11.39-.54-.21-.69-.92-1.32-1.41-1.54.13-.06.15-.32.33-.28.34.14-.37.23.19.35,0-.68-.54-1.08-.56-1.75l-.86-.35c.11-.28.3-.4.33-.84-.7-.1-.37.49-.57.74-.44-.19.18-.92-.44-1.02.08-.58.79.04.82-.64-.12-.05-.13.12-.18.2-.62-.55-.74-1.35-1-2.09-.52-.19-.54.55-.33.84-.31-.26-1.21-.22-1.04-.72.2-.31.28.32.52.08.25-.35-.37-.26-.13-.61-.4-.05-.38.24-.76-.18.04-.29.19-.36.46-.23.05-.65-.84-.13-.77-.74.16-.25.71.26.73-.25-.35-.25-.48-.06-.76-.18-.1-.1-.19-.2-.19-.36.24-.14.5.35.79.05-.27-.43.02-.45.11-1.07-.16-.98-1.01-1.66-1.36-2.24.81.23-.44-1.59-.53-2.32.42-.16.37.86.97.98,0-.92-1.11-1.15-.88-1.92-.15-.04-.16.19-.21.33-.49-.06-.27-.46-.67-.57.41-1.05-.75-1.58-.4-2.27-.77-.64-.6-1.34-1.46-1.75.14.34-.05.16-.12.51-1-.74-.29-1.45.31-1.83-.42-.07-.63.26-1.01.27-.11-.43-.35-.8-.36-1.28.13-.24.42.38.7.44-.13.18-.42-1.49-.67-1.68-.04-.25.38-.45.31-.15.36-.19-.17-.36-.27-.54-.15-.04-.16.19-.22.33-.4-.72-.05-2.31-.97-3.1l.16-.63c-.24-.11-.07-.41-.42-.47.42-1.17-.78-1.56-.4-2.7-.8-.62-.9-1.57-.82-2.61.49.38.67.32,1.06.61-.47-.88-1.46-1.53-1.19-2.21-.64.34-1.26-.16-1.87.43-.14-.49-.15-1.04-.27-1.54-.66.37.56,1.77-.28,2.13-.27-.1.06-.47.04-.69-.51.16-.39-.72-.99-.87.28-.06.56-.14.59-.72-.35.21-.57-.03-1-.31.16-.42.29-1.12-.17-.92.04-.43.39-.38.2-.76.2-.32.22-.06.52.09-.13-.42-.24-.85-.65-1.14.1-.43.67.09.77-.36-.2-.1-.88.06-.69-.45-.21.03-.49-.11-.5.34-.42-.43-.31-.38-.85-.38-.35-.06.24-.56-.11-.61-.5-.28-.19.37-.29.58-.18-.21-.08-.55-.35-.72.11-.28.59.18.62-.28-.39.05-.46-.57-.14-.49-.86-.26-1.04-1.32-.86-2.37-.19.06-.48-.08-.67-.02.03.46-.07.29-.2.76.24.18.28-.08.34-.27.48.7.39,1.67.56,2.51-.58-.51-.27-1.43-.85-1.94.07.37.14.75.1,1.17-.36-.28-.13-.83-.84-.94.12-.28.48-.04.53-.47-.22-.08-.21-.27-.45-.35.01-.3.24-.16.43-.09.07-.25-.28-.31-.1-.61-.48.11-.5-.6-.96-.45.02-.61.52-.23.6-.72-.41-.26-.52-1.23-.3-1.41-.55-.43-.06-.65-.52-1.09.18-.34.22.24.48.22.08-.67-.5-1.02-.5-1.65-.33-.09-.43-.09-.82.04-.07-.34-.49-.85-.9-.7-.04-.48.42.08.38-.39-.04-.32-.45-.46-.31-.85-.36-.25-.44.06-.6-.28.12-.42.72.19.95.01.33.11-.31.65.22.67.32-.25-.07-.95-.48-1.22,0-.4.26-.25.29-.57-.49-.33-1.24-1.13-.96-1.44,0-.2-.21-.11-.28.01-.21-.31-.47-.6-.23-1.11-.39-.08-.29-.38-.69-.47.44.28-.17,1.03.47,1.22-.26.44-.59.13-.52.9-.77-.29-.28-.7-.3-.86-.55-.19-.11.49-.45.64.33.07.42.25.25.55.4.11.31.41.6.28.03-.38-.29-.54.17-.63.24.15-.13.57.22.67-.22.3-.52-.06-.41.52.44-.43.18.41.34.73-.06.1-.56.21-.51-.1.13.25-.1,1.07.29,1.41-.5.65.2,1.01-.29,1.57.36.4.67.19.9.7-.08.15-.33-.04-.52-.1-.3.62.18.88.18,1.36.27.05.31-.08.22-.32.5.08.31.65.69.46-.06.06-.43.35-.14.51-.21.32-.22.06-.52-.1-.05.61.56.93.23,1.67.89-.21-.05.85.83.95-.52.13,0,.48-.32.7-.22-.31-.48-.6-.25-1.11-.79,0-.68-1.1-.59-1.84-.25.07-.5.15-.91-.14,1.15.54.16,3.12,1.96,3.32.2.61.58,1.14.6,1.84.27.04.31-.08.22-.32l.73.33c.14.16.15.37.11.61-.38-.16-.24-.55-.78-.64-.07.37.08.63.01.99l.48.22c.09.14.12.31.14.49-.09.27-.38.13-.67-.02.19.74.92,0,.99.88.16.01.29-.05.34-.27.22.12.38.27.42.47-.85-.04-.34,1.45-.4,2.08-.45-.44-.64-2-1.19-1.67-.28-.54-.27-1.21-.64-1.71-.46.15.19.72.13,1.05-.42-.33-.25-.41-.82-.51.56-.54-.18-.57.42-1.08-.5-.32-.68.02-.89.3-.31-.28.17-.52.2-.76-.29-.13-.3-.38-.69-.46,0-.41.26-.25.29-.58-.57-.23-.13-.23-.23-.68-.44-.31-.45-.83-.92-1.14,0-.46.38-.12.5-.34.34.39.37,1.38.95,1.01-.07-.27-.48-.38-.66-.59.09-.07.18-.15.22-.32-.53-.24-.59-.31-.47-.79-.53-.39-.54.32-1.07-.07-.09-.07-.09-.18-.21-.24.05-.42.4-.22.62-.28.26-.41-.2-.5-.04-.87-.19-.14-.25,0-.31.14-.45-.46.02-1.34-.94-1.57-.21-1.11-.9-1.71-.75-2.76-.54-.13-.39-.56-.59-.84-.43.06-.45.23-.82.04-.14.59-.03.54-.28,1.01.47.03.3-.09.79.09.29.35.21.87.8,1.08-.17.36-.75-.13-1.07-.07-.1.31.5.87,0,1,.17.66,1.02,1.02.71,1.9-.41-.26-.44-.69-.83-.96.05.27.25.48.04.87.37-.05.41.03.17.36.89.45.39,1.53.92,2.14.02.44-.33.1-.55.03-.16.37.24.48.19.8.2-.29.48-.42.55-1.03.12-.08.27-.09.43-.09.13.2.15.45.23.68-.1.17-.41-.07-.37.39.24.17.34.06.52.1.12.09.02.29.17.36-.22.38-.27-.11-.55.03-.33-.18.01-.67-.47-.79,1,2.99,2.4,5.8,3.24,8.87.72-.11.84.95.46,1.35.43.03.62-.42,1.04-.38.41.45-.23.7.26,1.11-.06.14-.25,0-.4-.04.13.5.71.79.74,1.33-1.09-.15.07,1.31-.18,2.32.33.29.29-.19.37-.4.33.75.09.46.23,1.23.18.05.14-.36.34-.27.14.16.16.37.12.62.17-.04.37-.02.64.14.44.28-.26.47.36.73-.08.21-.28.2-.55.04.31,1.2,0,1.14.9,2.38-.09.13-.22.19-.43.09.87.63.86,1.69,1.57,2.39-.08.09-.16.18-.31.15.15.34.56.55,1.03.74,0,.36-.16.44-.46.22.72,1,.43,2.5,1.8,3.18,0,.43-.4.1-.4.53-.24-.11-.07-.42-.43-.47.56.79,1.55,1.62,1.75,2.87.4-.03-.13-.83.52-.48-.07.63-.14,1.14.19,1.49.62.03-.16-.4-.09-.74.51.17.48.59.74.88-.25.14-.55.18-.86.19.58.86,1.48,1.24,1.72,2.43-.06.13-.26-.02-.3.15-.07.22.09.33,0,.56.46.19.38,0,.73.32-.14.11-.24.27-.27.59.4.37.54.86.78,1.31-.08.31-.41-.14-.34-.28-.28.58.66,1.06,1.24,1.08.04.57-.38.26-.7.12.33.63,1.29.94,1.37,1.7,0,.27-.6-.05-.34-.28-.27.27-.21.68.02,1.13-.1-.13-.39-.49-.4-.03-.18-.14-.02-.45-.43-.46-.12.44.32.59.32.97.14-.22.65-.17.62.26.2.02-.01-.18.09-.38.33.29.55.63,1.17.77.02.53-.51,0-.51.48.38.14.63.6.98.41.31.81.56,1.8.98,2.23.18-.08.3-.27.67,0-.28.51-.78.12-.47.92-.44-.08-.35-.43-.53-.64-.37.24.51.8.55,1.2.15-.03.19-.24.43-.1,0,.37.21.51-.07.95.36.25.41-.07.77.18.19.24-.38.87.45,1.02-.01.33-.28.19-.26.59-.31-.11-.35-.36-.41-.59-.03,1.73,1.84,3.47,2.52,5.21-.19.12-.48.07-.8-.04.08.38.5.58.46,1.02.3.15.43-.04.57-.19.43.78.53,2.61,1.96,2.87-.19.44-.44-.16-.67.01.3.58.4.69.57,1.2.17.02.24-.15.42-.11.47.5.16,1.95.96,1.9-.06.3-.29.3-.28.72.24.22.74.3.52.76,1.01-.02.67,1.62,1.61,2.02-.19.01-.12.49-.35.42.41.36.93.65.67,1.38.3.07.48.2.6.37-.09.08-.17.16-.2.34.28-.05.56.43.2.35.37.16.59.65.71,1.24.26-.29.42-.07.62.24-.05.14-.25.02-.4-.01.14.5.54.86.68,1.37-.56-.15-.19-.5-.73-.42.08.31.11.63.38.84-.07.16-.33-.01-.52-.06-.18-.33.12-.92-.48-1.01.32.34-.37.5-.02.82-.27.3-.5-.02-.75-.29.09-.25.38-.13.57-.2,0-.45-.44-.36-.73-.42-.17-.3-.46-.52-.36-.97.3.69.75.23.93.77.37.02-.19-.63.45-.24.44.21-.5.18-.07.39.58.29.21-.04.35-.42.1.1.2.2.2.35.05-.53-1.04-1.44-1.19-2.25-.32.42-.28-.29-.65-.11.26.4.54.79,1.01,1.08-.87.76-1.39-.86-1.93-1.16,0-.86.73-.44.87-1.05-.51.24-.19-.66-.79-.73.23.23.49,1.11-.08,1.08.21-.76-.52-.32-.57-1.2.02-.48.5-.14.53-.63l-.62-.25c-.03.19-.05.37-.2.34-.83-.63-1.15-1.54-1.83-2.26-.21.46.21.58.22.92-.53-.36-1.23-1.15-.74-1.68.08.27.28.47.69.55.34-.05-.15-.48.23-.47-.39-.52-1.25-.67-.79-1.43-.42-.05-.35-.35-.42-.58-.12.07-.36-.06-.42.11-.11-.79-1.27-1.63-.88-2.3-.25-.37-.59-.69-.85-1.05.12-.08.27-.1.42-.11-.03-.42-.41-.08-.62-.25.06-.49.42-.41.75-.39-.09-.48-.53-.9-.13-1.31-.36.04-.48.54-1,.29.08.68.77-.14.78.74-.23.27-.49.23-.79-.04-.51-.61-.15-1.68-.73-2.26.28-.47.41.17.74.3.06-.41-.35-.58-.63-.82-.09.08-.17.16-.2.34-.21-.19,0-.42-.34-.28.03-.67-1.03-.76-.59-1.64-.37.12-.83-.61-.48-.9-.81.04-1.23-.82-1.29-1.51-.19-.12-.24.03-.4-.03,0-.6-.51-1,0-1.26-.29-.12-.57-.24-.86-.36-.07-.74.6-.07.66-.56-.52-.23-.66-.65-.69-1.13-.28.07-.73-.17-1.04-.16.17-.4.83.13.91-.46-.74.37-1.31-.8-1.28-1.52-.39-.39-.82-.1-.93-.67.28-.12.77.07.36-.41.18-.21.53-.08.92.11.05-.1-.02-.14-.09-.18l.06-.26c-.35-.19-.44.13-.8-.06-.47-.35.18-.59.14-1.2-.47-.18-.22-.72-.59-.95-.24.57.06.88.41,1.16-.18.09-.24.39-.3.72-.13-.43-.44-.21-.35-.85-.36-.33-.19.37-.55.05.17-.58-.37-1.37-.61-2.08-.25-.01.04.65.23.8-.53.42-.92-.51-.99-.98.22-.45.36.62.49.21.15-.65-.46-.22-.5-.77,1,.17-.82-1.33-.41-2.29-.42-.05-.94-.64-1.53-.95.7-.29-.65-1.46-.99-1.56.03-.19.06-.37.21-.33-.31-.03-.24-.54-.77-.76.41-.57-.31-.63-.8-1.2.11-.22.4-.08.4-.53-.98-.93-.94-1.71-1.78-2.76.13-.23.43-.09.25-.46-.62.28-.57-.51-.3-.98-.37.42-1-.02-1.07-.62.3-.34.29.57.61.27.07-.22-.08-.34,0-.57-.27-.04-.33.28-.52-.09.07-.17.37.12.43-.09-.09-.67-.41-.75-.67-.58-.36-.39.48-.23.16-.64-.34.24-.67-.09-.98-.44.37-.38-.13-.29.06-.82-.33.16-.53-.32-.51-.66.17-.12.19.15.43-.09-.55.09-.73-1.59-1.37-1.04.05-.44-.8-.45-.73-.89.21-.42.39.19.88.26-.04-.39-.38-.65-.42-1.04-1.04.31-1.2-1.15-1.54-1.41.3-.11.64.28.85.39-.01.24-.16.2-.31.14.02.48.36.18.67.59-.21-.65-.38-.75-.01-1.57-.36-.29-.33.21-.58.16.29-.81-1.34-2.66-1.54-3.55-.11-.1-.67-.61-.76-.21-.57-.31-.12-1.05-.75-.77.07-.37.43-.16.62-.29.15.12.02.36,0,.57.44.14.38-.45.79.08-.22-.47-.47-.43-.99-.88.09-.07.18-.15.22-.33-.41-.18-.1.28-.49.34-.28-.21-.13-.61-.63-.72.31,1.58.96,2.99,1.59,4.42.04.48-.42-.08-.37.4.17.35.3.15.61.28-.13.51-.72.07-1.19-.12-.36-.79-.09-1.99-1.06-2.76-.15-.27.03-.69-.17-.93-.22.42-.21.32-.33-.29-.31-.25-.31.14-.55.03.25-.96-.28-.91-.56-1.54.03-.33.29-.17.28-.58-.32.2-.68.01-.7-.46.03-.33.54.33.46-.21-.22-.05-.2-.21-.18-.37-.13.05-.31,0-.52-.1-.2-.88-.33-1.29-.26-2.12-.73.15-.13-.68-.71-.9.2-.33.26.31.6.28-.18-.33-.41-.63-.4-1.05-.16-.15-.67-.15-.57-.41-.35.3-.36.17-.91-.14.42.66.07,1.18.67,1.6-.19.5-.38-.1-.5.34.41.27.65.18.83-.04.22.16.23.42.54.54-.49.26.04.73.29.99-.22.39-.48-.26-.91-.14.1.38.25.33.57.41-.07.17-.24.59-.03,1.13.2-.1.56.12.88.27-.2.24-.52.22-.59.72.35.14.21.5.36.73-.23-.02-.3.29-.5.34.62.91.96,1.95,1.27,3.01.76.32.35,1.19.96,1.58-.33,1.34,1.62,2.13.93,3.28.37.05.27.32.58.41-.17.38-.06.63-.1.95-.37-.28-.21-.74-.79-.64.49-.04.08-.32.04-.69-.44-.07-.18.24-.13.51-.58-.26-.58-.78-.78-1.21.07-.24.45.3.42.48.32-.34-.56-1.09-.68-1.6-.19.35.27.4.08.75-.32-.89-.85-1.03-1.32-1.75.05-.36.65.43.58-.16l-.49-.22c-.08-.95-.81-1.77-1.35-2.19.69.33.13-.49-.02-1-.23.04-.52-.11-.34.27-.89-.36-.05-.88-.78-1.21.1-.37.4-.35.65-.41,0-.31-.72-.47-.85-.4-.38-.29-.03-1.34-.65-1.16-.08-.17-.16-.88.08-.82-.54-.18-1.11-1.16-1.21-2.14.4.4.31.38.94.58.03-.39,0-.75.03-1.13-.22-.23-.41.53-.43.08-.48.02.21.41.26.55-.47.31-1.33-.61-1.01-1.33-.26-.63-1.56-.78-1.34-1.63l-.48-.23c0-.38.31-.13.46-.21-.05-.43-.83-.52-.68-1.04.2-.32.37.26.61.29-.7-.94-1.47-1.76-1.19-2.71-.17-.3-.25-.63-.74-.78-.03.27-.13.39-.34.27.21-.54-.77-1.31-.64-2.17.3.12.59.26.53.54.18-.31-.27-1.29-.46-1.8-.58-.25.15.32-.17.64-.4-.19-.3-.61-.74-.79-.1.13-.23.19-.43.08-.1.34.13.35-.14.51-.08-.11-.16-.23-.33-.3.37-.74.15-.8.14-1.51.53.14.06.72.59.86.19-.35-.11-.47.08-.82-.22.33-.87-.41-1.02-.78.06-.14.25,0,.4.05.26-.41-.2-.5-.03-.88-.23-.09-.19.39-.38.39-.58-.52-.48-1.35-.98-1.91-.41.18.28.44.19.81-.05.09-.15.07-.19.2-.07-.54-.43-.53-.83-.97-.43.22-.08.61.38.61,0,.52-.66-.2-.38.39-.37-.18-.75-.78-.91-.16ZM144.92,163.63c.49.19.33.68.43,1.05-.41-.22-.44-.62-.43-1.05ZM156.7,192.98c-.49-.1-.55-.88-.78-.18-.49-.41-.66-.98-.76-1.59.45.09.28.25.9.24-.02.2-.14.46.02.57.17.07.16-.18.3-.15.05.4.63.53.32,1.12ZM326.46,349.46c.43-.04.53-.39.73.15-.12.22-.64.22-.73-.15ZM330.72,341.32c.62.13.72.09,1.43-.12,0,.43.29.37.61.28.08.47.12.52.04,1.02.6-.03.48-.5.54-.86.57.56.1,1.23-.52,1.38-.24-.87-1.42-.24-1.84-.83-.1-.49.42.02.44-.33-.36.02-.85-.24-.69-.52ZM280.73,308.23c-.48-.03-.46-.56-.83-.7.49.03.71.31.83.7ZM258.1,287.02c.11-.32-.38-.78,0-.91-.11.46.59.79,0,.91ZM243.09,268.85c.1.25.51.28.35.73-.34,0-.7-.62-.35-.73ZM170.48,150.4c-.21-.38-.42-.76-.35-1.28.14.35.71,1.06.35,1.28ZM169.35,160.42c-.35.14-1.08-1.49-.46-1.46-.16.64.64.81.46,1.46ZM154.84,128.11c.17.04.28-.07.52.1-.09.22.06.34-.02.56-.35-.14-.66-.29-.5-.66ZM164.12,176c-.46-.81-.64-1.18-.92-1.93.59.5.85,1.17.92,1.93ZM155.1,158.55c-.09-.3-.58-.99-.27-1.11.15.27.66.95.27,1.11ZM151.17,149.27c-.11.06-.81,0-.57-.4.12-.26.7.18.57.4ZM134.51,129.33c0-.24-.17-.05-.36-.18.37-.5-.52-.44-.15-.94.56.13.78.98.52,1.11ZM138.72,143.23c-.14-.24-.51-.37-.35-.74.59.21.36.67.35.74ZM142.42,157.09c-.31.12-.6-.47-.45-.92.46.16.43.55.45.92ZM143.67,159.79c-.35-.22-.61-1.07-.24-1.25-.02.46.47.69.24,1.25ZM150.42,133.43c.24.63.77,1.13.87,1.83-.67-.39-1.02-1.42-.87-1.83ZM142.51,170.38c-.37.12-.69-.52-.59-.98.57.14.63.54.59.98ZM146.69,153.05c-.13-.31-.54-.5-.45-.92.35.15.86.79.45.92ZM151.81,132.8c.17-.24-.45-.66.05-.69.04.28.53.74-.05.69ZM152.35,133.33c-.36.36.04.33.07.74-.2-.09-.16.32-.34.27-.17-.47.17-.48-.35-.73l.1-.38c.17.04.28-.07.52.1ZM152.16,135.52c-.19-.29-.62-.46-.43-.91.53.13.57.48.43.91ZM150.11,150.78c.22.12.38.27.42.48-.45-.29-1.05.33-1.12-.37.28-.33.61.34.7-.1ZM153.74,138.25l-.48-.22.1-.38c.42.07.33.37.38.6ZM155.81,130.54c.47-.39-.22-.35-.19-.8.47-.29.92,1.19.19.8ZM151.25,152.72c-.03.75,1.06,1.11.51,1.78.49-.17.79.46.73.89-.54-.83-1-.41-1.77-1.08.45-.65-.23-.29.19-.76-.35-.4-1.15-1.18-.84-1.52-.01.11.3.57.33.29-.24-.26-.34-.59-.29-.99.39.12.32.45.2.81.37.18.51.76.94.57ZM147.06,167.16c-.39.18-.55-.4-.64-.72.32-.14.67.35.64.72ZM151.34,150.2l-.13.51c-.28-.09-.45-.24-.42-.48.35.34.2-.37.55-.03ZM156.63,134.04c-.48-.11.1-.71-.47-.78.08-.39.56-.22.32-.7.85.37-.05.91.14,1.49ZM154.81,141.43c-.37-.16-.82-.29-.63-.71.16.26.79.31.63.71ZM155.98,136.44c.28-.53,1.26.13,1.17.68-.29.14-.62-.02-.76-.21.39-.2-.03-.43-.42-.48ZM152.83,158.95c.39-.2-.04-.43-.43-.47-.1-.25-.06-.39.12-.51-.69-.46-.46-1.36-1.18-1.81.04-.38.69-.3,0-.57.07-.42.68-.73.7-.11-.15-.05-.3-.09-.31.14.9-.35,1.17.84,1.71,1.33l-.16.64c.22.35.85.49.7,1.02-.57.07-1.07-.73-1.19-1.24-.06.14-.15.02-.24-.11.13.32-.05.78.15,1.06.67.25,1.22.54,1.06,1.19-.36-.74-.6-.38-.94-.57ZM155.35,141.96c.23.09.19-.38.46-.21-.26.34.37.28.11.62-.39-.16-.61.04-1.03-.19l.1-.38.36.17ZM146.73,179.94c-.16.25-.79-.21-.56-.53.22.16.78.15.56.53ZM149.5,173.06c-.63.04-.46-1.28-.34-.86.06.31.5.44.34.86ZM157.72,139.64l-.49-.22c.06-.14.07-.37.22-.33-.02.23.46.03.27.54ZM157.7,143.87c-.21-.11-.32,0-.34.27l-.6-.27c-.07-.3,0-.67-.01-1,.24.37.66.66.96,1ZM157.96,139.75c.32.07.51-.11.74-.23-.06.25.29.31.11.61-.9-.47.06.78-.47.77.05-.47-.86-1.07-.31-1.41l-.06.25ZM157.42,146.01c.48-.41-.27-.61-.26-1.11.81-.09.97,1.09.26,1.11ZM157.62,146.81c.09.37-.43.34-.13.51.26.07.33-.24.58-.16l-.13.51c-.19-.07-.42-.21-.43.09-.3-.12-.59-.24-.54-.53.15.05.3.09.31-.14-.32-.26-.36.04-.64-.15.08-.55.65-.08.98-.12ZM156.87,150.29c-.51-.24-.69-.64-.5-1.22.42.29.53.72.5,1.22ZM158.7,141.07c.41.37.15,1.04.58,1.4-.52-.22-.56-.51-.81-1.07.15.04.18-.14.22-.32ZM154.81,160.83l-.49-.22c.2-.4.08-.64-.36-.73l.09-.38c.5.33.56.86.76,1.33ZM159.05,143.35c.04-.35-.26-.55-.17-.92.38.09.55.85.17.92ZM151.39,177.87c-.46-.38-.37-1.04-.75-1.47.59-.08.69.92.75,1.47ZM160.24,140.36c.15-.14.44,0,.67.02.19.21.3.45.35.72-.18.21-.48.17-.74.23.76.16.79.67,1.08,1.05-.35.64-.09.95-.03,1.68-.53-.08-.7-1.2-.88-1.81-.05.22-.18.28-.34.27-.27-.54-.21-.76.16-.63-.29-.37-1.2-1.54-.63-2.26,0,.54.23.29.35.72ZM158.96,146.85c-.46.04-.75-.02-.78-.64.28.62.55,0,.78.64ZM159.93,142.05c0,.26.18.44.08.74-.4-.13-.55-.85-.08-.74ZM155.45,162.11c.01.18.09.33.3.42l-.15.64c.68.43.43.75,1.05,1.3-.25-.11-.24.28-.55.04.11-.51-.24-.79-.56-1.09-.18.27-.42.43-.86.19-.03-.32-.14-.61-.03-1,.39.15.33.52.8.63.23-.3-.29-.91,0-1.13ZM155.2,162.56c-.39-.19-.46-.53-.3-.99.33.22.23.64.3.99ZM160.46,144.7c.04.48-.42-.08-.37.4-.3-.15-.42-.4-.35-.72.2-.1.62.08.73.33ZM151.4,182.81c-.31-.15-.63-.3-.54-.66.4.11.47.38.54.66ZM160.81,143.87c-.03.25-.21.22-.25.45-.33-.1-.35-.35-.23-.67l.48.22ZM159.03,154.64c-.04.23-.13.38-.25.45-.28-.35-.67-.65-.51-1.21.5.13.23.64.76.76ZM160.87,145.73c-.06.62.59.91.55,1.52-.17-.51-.97-.73-.86-1.38.16.07.17-.17.31-.15ZM160.25,148.7l.49.22c-.12.19-.19.5-.4.52.19-.35-.27-.39-.08-.74ZM161.49,144.88c.26.02.12-.79.53-.47.23.45-.32.15-.32.71l-.6-.27c.13-.19-.22-.69.16-.63.19.17.1.47.23.67ZM156.77,165.65c-.03-.48-.49-.19-.5-.78.43.07.96.66.5.78ZM161.23,151.25c-.21-.31-.52-.57-.57-.96.54.15.48.59.57.96ZM153.08,186.94c-.23-.16-.52-.28-.41-.6.29-.16.61.18.41.6ZM161.05,154.69c-.06-.38-.38-.64-.27-1.11.43.14.53,1.01.27,1.11ZM157.79,167.65c.27.39.35.89.5,1.34-.52-.22-1.17-1.26-.5-1.34ZM165.15,147.5c-.46-.23-.07.08-.22.33-.42-.06-.06-.49-.39-.59-.27.5.04.72-.01,1.12-.1.14-.45.72-.58.17.38.05-.08-.39.16-.63-.64-.14-.28-.76-.69-1.01.24-.45.24-.67.01-1.12-.2-.09-.16.32-.34.27.03-1,.57-.7,1.38-.65-.03.26-.23.18-.34.27.2.09-.02.38.15.48.05-.22.13-.38.25-.45.41.21.26.58.61.27.1.21.29.38.09.74-.23-.04-.26-.32-.37-.16.16.3.24.63.29.97ZM163.88,151.44c.27-.14.34.21.58.4-.38.38.2.73.23,1.23-.66-.19.19.39-.19.76-.36-.31-.22-.86-.51-1.21-.8-.49-1.58.13-1.7-.75.53.39,1.76.56,1.59-.42ZM155.18,189.81c-.13.17-.6-.29-.58.18.49.38.59.02.93.11-.08.23.08.35.02.57-.72.02-1.04-.28-1.7-.29.23-.96.11-1.05-.02-1.85.47.25,1.08.61,1.36,1.28ZM158.91,169.82c-.39.01-.62-.25-.65-.71.29.2.45.46.65.71ZM164.96,145.03c-.23-.09-.19.38-.46.22-.31-.38.38-.7.46-.22ZM163.74,153.63l-.97-.43c.04-.17-.11-.24-.03-.43.3-.25,1,.34,1,.86ZM159.13,170.63c-.06.33.14.51-.24.46.06-.26-.3-.31-.13-.62l.37.16ZM162.12,161.36c-.11.66-.77-.06-.71-.45.4.07.31.38.71.45ZM164.89,148.51c.1.18-.05.7-.4.52.06-.32.13-.62.4-.52ZM159.86,170.95c-.08-.03-.15-.04-.15.07.21.08.29.24.31.42-.4-.18-.62-.45-.62-.83.18.1.46.15.46.34ZM161.17,169.96c.11-.43-.58-.47-.46-.91.39.12.88.77.46.91ZM168.1,143.33c-.41,0,.04.44.21.23-.06.32-.29.31-.49.34-.12-.44-.29-.25-.44-.9.3,0,.57.08.72.32ZM158.07,196.23c-.4-.1-.29-.47-.39-.73.4.1.53.34.39.73ZM164.82,167.03c-.33-.1-.36-.35-.25-.67.33.1.36.35.25.67ZM162.38,178.35c-.01.53-.7.24-.49-.21.33.15.3-.11.49.21ZM165.22,168.75c.52.24.85,1.15.47,1.46.23-.6-.47-.74-.68-1.13.29.05-.1-.26.21-.33ZM160.22,201.06c-.31-.34-.64-.68-.58-1.22.4.27.94.91.58,1.22ZM170.76,151.93c.03-.25-.26-.9.1-.94.22.13.22.92-.1.94ZM170.3,161.53c-.23.49.09.7,0,1.12-.45-.19-.18-.73-.88-.8.12-.29-.16-.37.03-.69.47.28.35.23.85.36ZM166.5,179.81c-.05.46-.2.72-.64.44-.09-.31.26-.6-.05-1.01.49.06.28.47.68.57ZM173.41,158.66c-.43-.2-.82-.42-.88-.8.43.2,1,.33.88.8ZM170.36,169.81c-.33-.1-.36-.35-.25-.66.33.1.36.35.25.66ZM171.85,165.7c-.4-.21-.71-.47-.58-.95.39.22.44.61.58.95ZM171.7,168.7c-.05.63.62.89.75,1.43-.7-.02-.77-.69-1.17-1.33-.16-.04-.3.09-.22-.23.17-.05.37-.03.64.13ZM170.27,179.15c-.56-.29-.75-.75-.93-1.23.58.27.75.76.93,1.23ZM175.15,160.38c-.31-.15-.37-.41-.52-.64.34.04.48-.3.85-.19,0,.48-.3.41-.33.83ZM174.11,159.1c.31-.34.03-.47.09-.94.39.57,1.47.63,1.03,1.28-.38-.45-.68-.25-1.12-.34ZM174.5,160.8c.22-.34-.53-.77-.06-.86.17.32.45.6.27,1.09-.21-.11-.31,0-.34.28-.35-.2-.55-.48-.61-.82.22.05.52.61.73.31ZM173.32,169.24c.03-.32-.37-.42-.22-.79.34.06.5.78.22.79ZM172.76,168.17c.31.17.21-.45.58-.18.07.46-.52.58-.58.18ZM172.39,170.94c.4.1.44.38.68.56-.2.4.01.6.07.87-.35-.31-.27-.13-.74-.31.21-.31.26-.49-.25-.67.04-.22.12-.38.24-.46ZM168.99,190.91c-.47-.07-.54-.54-.87-.35l.05-.26c-.07-.04-.14-.08-.1-.18.43-.03.9.3.91.79ZM164.8,208.25c.02.3.33.41.03.58-.44-.07-.4-.7-.03-.58ZM175.29,161.42c-.17-.25-.23-.56-.18-.92.52.02.35.93.18.92ZM170.48,187.6c-.38-.26-.57-.62-.58-1.08.38.26.57.62.58,1.08ZM176.55,165.16c0-.24-.17-.04-.37-.15-.13-.41.31-.66-.31-.96-.28.09.09.62-.39.53-.19-.35-.17-.63.09-.94.68.27,1.36,1.11.99,1.52ZM171.75,183.52c.1.44.75.6.55,1.2-.47-.17-.53-.57-.91-.79.03-.31.13-.47.36-.41ZM174.74,173.03c.07.19.08.41-.02.69-.48-.06-.34-.83.02-.69ZM177.17,166.53c-.17-.08-.28-.05-.4-.03-.07-.19-.08-.41.03-.68.31.15.43.38.37.71ZM175.52,174.89c-.17-.25-.79-.28-.65-.69.37.15.6.38.65.69ZM175.6,178.13c-.55-.16-.18-.5-.71-.43.04-.23.11-.39.23-.46.45.15.61.45.48.89ZM174.71,176.1c-.13.52.67.56.41,1.14-.6-.07-.79-.94-.41-1.14ZM176.91,168.23c-.52-.04-.29-.45-.22-.79.38.11.16.52.22.79ZM175.87,176.3c-.43-.08-.34-.43-.52-.64.35-.18.66.24.52.64ZM177.05,177.05c-.57-.3-.69-.48-1.14-.32-.18-.32.14-.35.26-.59.4.1.44.38.68.56.02-.16-.16-.38.08-.38.46.45.3.84.24,1.35-.18-.03-.27.09-.52-.07-.02-.45.28-.32.39-.54ZM176.93,178.81c-.62-.44-.9-1.05-1.11-1.7.76-.29,1.02.97,1.11,1.7ZM179.13,166.78c-.37-.38-.42-.91-.62-1.37.4.36.71.76.62,1.37ZM178.24,170.59c-.22.07-.62.23-.61-.25.09-.04.65-.06.61.25ZM179.66,169.08c.08.58-.54-.17-.58.18-.03.31.56.32.37.71-.6-.29-.7-.85-.9-1.34.39-.05.5.5,1.1.45ZM176.41,179.99c.78.34.42,1.32-.15,1.33.15-.43.33-.45.15-1.33ZM177.43,179.57l-.62-.25c.05-.14.06-.37.21-.33-.11.32.72.16.41.58ZM179.16,174.17c-.04.35-.33.23-.58.18.03-.16-.12-.24-.04-.43.21.08.41.17.61.25ZM180.11,171.78c-.17.34-.45.47-.88.33.05-.56.67-.64.88-.33ZM178.03,178.7c.49.08.31.75.08.86-.58-.25-.1-.35-.08-.86ZM180.98,173.25c-.06.22-.06.41,0,.56-.42-.33-.15-.59-.8-.6.4-.38-.14-.48-.04-.99.49.24.32.81.83,1.04ZM181.55,176.1c.22-.83-1.03-1.5-.62-2.05.24.53,1.47,1.69.62,2.05ZM181.26,175.57c-.24-.09-.23.28-.55.06,0-.19-.12-.31-.01-.56.32.33.49.04.56.5ZM183.15,178.54c-.18.35.28.38.11.73-.28-.16-.5-.34-.53-.63.18.04.25-.13.42-.11ZM182.51,189.08c-.21-.29-1.05-1-.31-1.09-.17.44.65.94.31,1.09ZM179.76,202.27c.03.52-.71.28-.65-.11.29.17.31-.13.65.11ZM182.73,188.62c-.33-.09-.26-.39-.27-.65.27.16.75-.13.77.16-.24.03-.32.36-.5.49ZM183.56,188.53c.04.56-.71.45-.67.01.18-.09.3-.28.67-.01ZM185.1,183.06c-.29.49.42.46.21.91-.5-.3-.7-.77-.94-1.2l.74.29ZM184.15,188.21l-.49-.19.08-.38c.42.04.35.35.41.58ZM183.53,190.59c.63.25-.03.53.19,1.04-.29-.23-.46-.86-.19-1.04ZM183.79,191.93l-.1.51c-.37-.04-.82-.61-.39-.71-.04.33.41.2.5.19ZM181.52,205.02c-.17-.18-.1-.49-.13-.74.81,1.18,1.59,2.37,1.97,3.79-.75-.05-.14-.85-.75-.98-.04.33.16.5-.22.47-.23-.39.19-.4.17-.91-.59-.18-.24-.87-.88-1.03.07.27.29.46.11.87-.31-.06-.23-.34-.6-.37-.07-.38.62-.25.25-.6-.32-.16-.19.47-.57.2-.15-.15-.18-.37-.15-.61.24-.1.67.14.82-.1ZM184.58,190.03c-.19.63.39.86.38,1.39-.43-.07-.51.38-.92-.08-.03-.53.34-.31.5-.49-.24-.22-.29-.53-.66-.67.03-.42.35-.31.7-.14ZM185.98,185.2c-.41-.16-.89-.29-.79-.72.28.23.86.3.79.72ZM183.57,195.03l-.5-.19.08-.39c.33.09.52.25.42.58ZM186.84,196.7c.15.11.22.26.18.48-.75-.42,0-1.27-.08-1.68l-.62-.24c.07-.92-.38-1.55-.9-2.15-.41.12-.84.02-1.04-.13.55-.36-.38-.22-.24-.78.71.34,1.19.66,1.85.72-.34.93.94,1.54,1.42,2.21-.2,0-.61-.4-.65-.11.39.21.5.57.92.76,0-.16-.17-.37.07-.38-.07.46.87.97.42,1.26-.05-.54-.99-.88-1.15-.29.57-.25.92,1.06.7,1.22-.17-.33-.49-1.4-.9-.89ZM187.79,196.64c.16-.1.58.17.72.41-.33-.03.16.43,0,.69-.48-.23-.56-.69-.72-1.09ZM185.83,185.28c.34.38.54.85.65,1.35-.38-.33-1-1-.65-1.35ZM185.2,190.27c-.01-.22-.37-.26-.14-.61.46-.08.43.66.14.61ZM185.9,192.06c-.33-.1-.8-.7-.36-.83.02.33.34.5.36.83ZM187,187.38c-.22.12-.64-.24-.54-.62.4.09.47.35.54.62ZM183.7,209.17c-.37.12-.36-.5-.77-.15-.05-.56.84-.24.77.15ZM184.33,210.1c-.33.19-.49-.32-1-.38l.07-.39c.43.19.96.32.93.76ZM187.14,194.48c-.18-.18-.82-.69-.36-.83.06.31.43.45.36.83ZM188.54,191.56c-.33-.09-.52-.25-.42-.57.33.09.52.25.42.57ZM188.36,198.51c.1.25.3.45.4.7-.42-.14-.71,0-.85-.46.24.08.17-.39.45-.24ZM188.74,200.71c-.05.22-.05.41.03.56l-.25-.09c-.02.07-.05.15-.15.08.06-.67-.39.06-.65-.1,0-.26-.31-.37-.13-.74.48.28.73.14,1.15.29ZM189.48,198.93c-.06.18-.05.49-.22.47-.09-.48-.76-.65-.55-1.31.49.32.31.75.77.84ZM183.06,237.79c0,.43-.33.33-.7.17.03-.18-.02-.31-.07-.44.19-.12.63.03.77.27ZM186.88,213.92c.33.2.43.53.37.96-.43-.12-1,.18-.98-.5.45.09.81.13.61-.46ZM189.67,202.85c-.2-.33.01-.55.25-.6-.7-.42-1.17-1.58-.78-2.22.09.93.78,1.67,1.35,2.02-.26,0-.4.22-.5.5.34-.15.38-.13.62.23,0,.26-.22.19-.32.29.5-.04.24.12.45.44.16-.42.54.08.45.44-.25.15-.4-.27-.87-.33-.26-.65-.07-.82-.65-.79ZM192.29,192.72c-.05.63.85.56,1.04.8-.17.58-.43.01-.94.06.2-.34-.23-.33-.45-.44.02-.3.12-.47.35-.42ZM190.9,201.93c.08.45.3.83.43,1.26-.31-.18-.54-.39-.67-.66.21.1-.36-.74.25-.6ZM192.88,196.49c-.19.12-.79-.05-.72-.4.2.15.76.12.72.4ZM194.07,195.16c-.4-.05-.32-.35-.72-.4-.05.33.16.49-.22.46-.06-.32-.62-.94-.17-1.16.43.25,1.05.41,1.11,1.1ZM191.36,204.44c-.26.35.63.63.13.74-.22-.2-.73-.74-.13-.74ZM193.06,201.08c-.31-.29-.46-.66-.75-.96.22-.09,1.1.73.75.96ZM193.97,196.35c-.17-.07-.28-.04-.4,0,.03-.29-.43-.89-.07-.98-.04.43.61.5.47.99ZM193.64,208.01c-.53-.41-1.04-1.27-1.52-1.91-.1.23-.14.54-.47.38.56-.46-.07-.45-.07-1.12.48.16.63.41,1.07-.02-.48,1.04.81,1.67.98,2.68ZM186.75,243.47c-.07-.36-.7-.39-.56-.88.27.17.94.72.56.88ZM190.64,220.09c-.13.31-.02.48.32.52-.24.6-1.32.01-1.37-.62.62.33.63.29,1.05.1ZM194.82,198.17c-.47-.42-.58-1.05-.89-1.56l.37.14c.05.54.47.88.52,1.43ZM192.08,210.86c-.18-.37-.8-1.09-.42-1.39.02.45.9,1.03.42,1.39ZM193.04,209.16c-.05.64.51.95.52,1.56-.63-.3-1.01-1.36-.9-1.69,0,.21.26.19.38.13ZM195.36,198.78c-.2-.07-.14.33-.32.29.02-.32-.39-.4-.25-.78.31.1.6.2.57.48ZM196.08,200.55c-.46-.12-.6-.43-.64-.79.24.24.65.4.64.79ZM194.05,208.7c.63.3.32.6.19,1.16-.22-.09-.39-.11-.52-.05l.05-.26c.46-.04.44-.36.28-.85ZM196.62,199.11c.18.51.77.79.64,1.47-.33-.41-.73,0-.99-.36-.11-.56.69-.37.4-.68-.25-.03-.29.28-.67.03.08-.37.37-.37.62-.46ZM196.77,201.77c-.16.06-.36.05-.64-.1.22-.43-.24-.48-.1-.86l.25.09c-.14.42.32.4.5.87ZM195.65,211.73c-.23-.41-1.6-1.14-.82-1.39-.04.64.9.73.82,1.39ZM196,215.01c-.28-.15-.51-.32-.56-.61.22-.13.65.22.56.61ZM196.86,214.63c-.15-.63-1.49-1.62-.71-2.03-.05.77.99,1.52.71,2.03ZM196.86,218.71c-.41-.08-.49-.34-.57-.6.23-.14.57.26.57.6ZM197.59,217.47c-.32.85.49,1.04.53,1.68-.63-.02-.84-1.2-1.18-1.77.29.16.31-.14.65.09ZM197.99,217.47c-.09.74.89.23.9.99-.54-.32-.33-.13-.78-.13-.18-.24-.69-.88-.13-.86ZM199.63,220.49c-.46-.08-.63-.33-.69-.65.27-.15.9.16.69.65ZM201.64,211.53c-.56-.06-.5-.48-.66-.78.25.24.66.39.66.78ZM201.83,211.19c-.33-.05-.62-.7-.26-.77-.05.33.51.32.26.77ZM201.8,212.94c-.24-.06-.15.41-.34.43-.33-.08-.53-.23-.44-.56.3.2.61-.39.77.13ZM203.29,211.96c-.14.03-.59-.16-.82.13.27.11.22.41.15.73-.46-.31-1.16-.48-1.15-1.07.75.44,1.67-.79,1.82.21ZM200.33,224.41c-.41.04-.65-.61-.29-.65.01.27.47.27.29.65ZM202.96,213.88c-.33-.08-.53-.23-.44-.55.33.08.53.23.44.55ZM201.31,222.42c.32.36.89,1.06.57,1.42.43.17.4.99.95.72l-.08.51c-.41-.05-.36-.37-.63-.21-.13-.6-.27-.86-.82-.68-.08-.46.25-.25.33-.43l-.63-.21c.16-.68.64-.38.31-1.12ZM202.78,225.77c-.13.74-1.1-.11-.97-.59.19.03.24-.14.42-.13.4.52-.28.71.56.72ZM203.88,226.4c0,.58-.54.31-.96.22.02-.21-.31-.21-.2-.47.68.01.5.37,1.16.25ZM203.55,229.54c-.3-.17-.63-.32-.56-.72.42.1.59.35.56.72ZM202.95,265.1c.29.11.89.65.47.81.01-.34-.47-.46-.65-.32,0-.23.06-.4.17-.49ZM207.62,233.45c-.11.76-1.48-.21-.84-.55.05.49.51.13.84.55ZM204.06,266.37c.46.36,1.37,1.1.95,1.63-.23-.76-.54-.02-.93-.13.03-.5.37-.55.59-.78-.53-.04-1.01-.44-.62-.72ZM206.01,268.97c-.1-.27-.47-.36-.48-.68.4-.35,1.05.76.48.68ZM213.31,229.58c-.35-.17-.53-.45-.53-.85.51.08.51.46.53.85ZM214.72,230.81c.7-.14.28.39.44.67.24-.45.77-.21,1.08-.21-.05.61-.95-.1-.99.5.18.01.27-.11.52.03.09.12.18.8-.1.77-.07-.63-2.55-1.55-1.2-1.84-.22-.34-1.05-.91-.62-1.26.41.02,1.11.91.87,1.33ZM215.77,230.86c-.53-.26-.77-.69-1.03-1.11.48.28,1,.55,1.03,1.11ZM211.15,273.82c.09.49,1.31.86.86,1.31-.25-.42-1.3-.81-.86-1.31ZM217.03,232.18c-.05.19-.02.49-.2.48-.05-.56-.24-.69-.71-.62.24-.52.57-.08.9.14ZM217.28,234.26c-.15.37.42.29.17.72-.31-.13-.62-.78-.17-.72ZM218.42,232.6c0,.3-.1.47-.32.44,0-.16.07-.36-.07-.42-.09-.06-.25-.08-.23-.21l.63.19ZM214.4,277.93c-.18,0-.26.12-.53,0,.13-.4-.19-.47-.23-.74.41.13.78.3.76.74ZM219.38,237.17c-.18.04.08.47.06.55.18.02.24-.15.41-.15.35.4.06.8-.48.66-.23-.49-.61-.88-.73-1.43.37.22.64.21.74.35ZM214.97,279.84l.03-.53c.51.03.47.77-.03.53ZM220.54,239.51c.28.17.51.38.43.79-.41-.09-.52-.37-.57-.69.08.01.15.02.14-.09ZM218.85,282.73c.05.27.27.41.24.73-.18-.06-.42.44-.54,0,.31.04.32-.28.01-.4-.08.17-.22.28-.41.3,0-.26-.36-.26-.25-.6.53.26.41-.3.94-.03ZM222.92,241.52c.1.45.92,1.06.63,1.38-.07-.31-.41-.45-.57-.7-.06.24.11.32.07.55-.28-.14-.62-.44-.89-.25.21-.4.47-.72.77-.98ZM220.13,284.39c-.25,0-.34.2-.67.1.04-.34.56-.65.67-.1ZM223.74,243.48c-.03.61-.36.78-.75.85.03-.18-.03-.3-.08-.42.38,0,.29-.67.84-.43ZM220.36,285.38c-.35-.05-.57-.19-.52-.53.35.05.57.19.52.53ZM224.68,244.41c-.38-.39-.79-.75-.89-1.32.4.42.59.42.83.77-.1,0-.16.07-.16.22.15.06.29.12.22.33ZM224.85,245.26c-.18-.02-.18.24-.3.32-.62-.27-.88-.77-1.02-1.35.37.14.42-.18.79-.04.1.41.45.66.53,1.08ZM222.44,287.11c-.44-.15-.81-.22-.93.04-.01-.38-.42-.47-.51-.8.8.14.08-.44.54-.4.04.58.72.69.9,1.16ZM226.02,245.31c0,.25-.18.25-.19.48.13.04.16-.06.27-.06.08.47-.22.38-.55.25,0-.16.06-.36-.08-.42-.04.14-.22.08-.39.02.01-.13.03-.26.04-.39.61.23.47.22.9.12ZM225.81,247.13c.37.15.37.55.57.81-.54-.04-.98-.51-.57-.81ZM227.64,248.54c.23.21.57.33.59.68-.49.01-.38-.38-.6-.55-.04.09-.03.25-.15.22.01-.18.09-.27.17-.35ZM228.46,250.74c-.04-.37-.5-.46-.43-.91.35.1.81.72.43.91ZM228.21,250.67c.02.11.09.18.24.2,0,.3-.08.48-.31.45-.01-.19-.19-.27-.22-.46.17.04.14-.2.28-.19ZM229.46,252.59c-.65-.2-.92-.66-1.06-1.2.62.22.61.86,1.06,1.2ZM230.4,252.3c-.6.18-.9-.38-1.1-.82.56.14,1.03.34,1.1.82ZM230.93,254.96c-.06.16-.21.2-.18.49-.51-.17-.9-.43-.82-1.01.33.4.8.65.99.52ZM235.43,258.96c-.33-.05.16.27-.04.52-.33.02-.5-.68-.21-.71.01.25.22-.02.25.19ZM261.89,290.02c.08.28.32.42.27.81-.56-.04-.86-.3-1.17-.55v-.39c.51.29.4.27.91.13ZM263.73,292.74c.02-.59-.9-.55-.27-.94,0,.31.67.71.27.94ZM274.75,338.15c-1.15-.2.67.81-.69.75-.02-.51.07-.46-.27-.81.23-.12.76-.45.96.06ZM273.26,338.18c-.05-.16-.04-.38-.2-.41-.24.03-.48.62-.78.21.07-.2.4-.17.33-.5.48.32.92-.25,1.38.09-.12.31-.16.69-.72.61ZM270.91,299.27c.38.05.49.35.67.59-.21.2-.44-.16-.91-.1-.11-.36.25-.23.24-.49ZM276,339.14c.04.41-.29.49-.42.76-.09-.31-.66-.12-.64-.57.52-.12.53-.04,1.05-.2ZM272.13,300.96c-.21-.46-.54.02-.66-.46.08-.2,1.16.16.66.46ZM276.18,339.42c.29,0,.45.13.48.42-.23.08-.4.12-.55-.03.16-.01.11-.2.07-.39ZM294.66,318.96c-.08-.44-.72-.27-.85-.65.53-.14,1.16.35.85.65ZM295.94,319.87c-.35-.34-.85-.51-1.03-1.04.59.07.96.39,1.03,1.04ZM296.74,319.99h-.52s-.05-.37-.05-.37c.4-.11.44.19.58.37ZM314.14,349.79c.11.41-.24.52-.66.58-.53-.08-1.12-.49-1.96-.59-.02-.15-.12-.36.03-.39.66-.07,1.77.19,2.59.4ZM316.48,351.25c.05.24.04.43-.12.53-.62-.3-1.36-.43-1.89-.85.7.06,1.31.26,2.01.32ZM311.59,329.63c-.26.22-1.04.06-1.23-.31.58-.12.86.16,1.23.31ZM319.5,352.24c-.98-.1-1.71-.37-2.45,0l-.15-.51c.61.18,1.81-.38,2.6.51ZM318.62,331.4c.22-.03.4,0,.53.08.16.61-.72.46-.39,1.18-.33-.15-.84-.03-.9-.55.5.37.97,0,.76-.71ZM325.81,356.33c.14.35-.27.37-.36.58-.14-.23-.45-.17-.48-.59.31-.05.46.16.83.01ZM325.98,348.37c.18.23.66-.18.87-.26.27.36-.11.33-.11.53.11.01.18.08.21.23-.47-.18-.8-.46-.91.14-.21-.12-.2-.46-.06-.63ZM327.01,339.52c-.05-.33-.52-.03-.51-.44.35-.22.81.25.51.44ZM329.28,340.93c-.55-.02-1.1-.06-1.36-.53.42.22,1.11.05,1.36.53ZM330.81,342.07c-.31,0-.62.02-.65-.4.33-.04.54.09.65.4ZM331.56,340.54c.07.36.15.41.32.2.22.46-.69.32-.67,0,.18-.03.26-.11.34-.19ZM344.9,351.51c-.14.28-.68.24-.92.11.11-.2.79-.45.92-.11Z"/>
  <path class="cls-1" d="M188.78,185.87c-.2-.03.06.27-.18.21,1.26.58,1.24,1.83,2.12,2.61-.18-.96-.69-1.74-1.21-2.53-.15-.03-.15.19-.2.33-.15-.22-.47-.35-.54-.62Z"/>
  <path class="cls-1" d="M130.15,138.44c-.06.4.45.55.6.86-.11-.33-.13-.7-.6-.86Z"/>
  <path class="cls-1" d="M140,154.26c-.24-.17-.34-.06-.52-.1,0,.19.28.25.45.35-.09.07-.18.15-.22.33.41.09.25-.27.28-.58Z"/>
  <path class="cls-1" d="M144.66,135.15c-.27-.33.22.6-.2.76.26.08.39-.1.59-.15.04-.51-.43-.09-.38-.61Z"/>
  <path class="cls-1" d="M142.91,143.33c-.26-.15-.41-.08-.46.21.2-.09.38.09.45.35.3.1-.05-.41.01-.57Z"/>
  <path class="cls-1" d="M144.24,141.38c.11-.09.31,0,.34-.27-.27-.17-.47-.2-.64-.16-.05.25.38.28.26.55.14.04.1-.1.03-.13Z"/>
  <path class="cls-1" d="M139.87,159.77c-.18.5.31.14.49.22.31.18-.22.15-.12.51.7.28.84.82.89,1.4.2.02.35-.05.55-.03-.44-.29-.95-1.11-1.04-1.9-.45-.04-.5-.33-.77-.21Z"/>
  <path class="cls-1" d="M145.65,139.62c.64,1.07.88,1.87,1.86,2.72.08-.21-.12-.42.1-.38-.05-.47-.23-.18-.54-.54.42-.11-.58-1.42-.09-1.19.18-.37-.86-.62-1.33-.62Z"/>
  <path class="cls-1" d="M139.77,165.86c-.16.42.42,1.48.89,1.98-.32-.65-.57-1.33-.89-1.98Z"/>
  <path class="cls-1" d="M152.75,121.43c-.28.13-.28-.25-.72-.34.12.66.38.51.62.72.19.03,0-.18.11-.38Z"/>
  <path class="cls-1" d="M146.79,142c.25.3.21.72.72.9.19-.5-.48-.6-.72-.9Z"/>
  <path class="cls-1" d="M143.24,162.73c-.26-.19-.23.17-.43.09-.03.28.26.41.4.61.31.06-.32-.36.03-.7Z"/>
  <path class="cls-1" d="M153.07,132.67c.12.05.13-.11.19-.2.3.08.2.35.57.41-.06-.41-.09-.85-.67-1.02,0,.43.26.46-.08.81Z"/>
  <path class="cls-1" d="M153.5,144.94c.44.37.03.48.29.98.46.04.45,0,.79.08-.4-.31-.74-1.08-1.08-1.06Z"/>
  <path class="cls-1" d="M147.33,173.66c.19-.3.38.42.65.14.11-.32-.46-.31-.25-.68-.27.24-.68-.18-.92.45.28.17.5.37.53.66.3.09-.06-.41,0-.57Z"/>
  <path class="cls-1" d="M147.87,175.47c-.03.55.77.69.5,1.36.44.15.07-.35.33-.28-.29-.35-.45-.77-.84-1.08Z"/>
  <path class="cls-1" d="M149.24,177.21c.04-.24.21-.21.24-.46-.47-.42-.67-.97-.72-1.6-.59.41.37,1.04.02,1.71.55.11.46.54.32.99.4.48.57.39,1.05.75-.02-.22-.11-.41-.13-.62-.26-.19-.23.17-.43.1-.09-.07-.1-.18-.22-.24.1-.18.41.06.36-.41-.15-.23-.28-.29-.49-.22Z"/>
  <path class="cls-1" d="M165.78,137.78c-.14-.04-.1.09-.03.13-.04.18-.07.37-.22.32,0,.19.27.24.45.34,0-.29-.15-.52-.19-.79Z"/>
  <path class="cls-1" d="M167.98,147.48c-.27-.05,0,1.46.65,1.69,0-.16-.56-.6-.11-.61,0-.44-.76-.53-.53-1.08Z"/>
  <path class="cls-1" d="M169.11,152.61c.05.44-.43.89.23,1.23.55-.4-.4-1.04.32-1.27-.35-.33-.19.37-.55.04Z"/>
  <path class="cls-1" d="M166.84,175.88c-.41-.03.06.4,0,.56.2.12.37-.09.37.16.1.07.13,0,.15-.08l.06-.26c-.06.16-.79-.15-.37-.15,0-.22-.24.02-.22-.23Z"/>
  <path class="cls-1" d="M173.56,163.06c-.28.14.2.87.24,1.22-.5.12-.45,1.02-.45,1.35.42-.24.72-.7,1.06-1.09-.8.32-.18-.63-.52-1.2-.21.07-.33,0-.33-.28Z"/>
  <path class="cls-1" d="M173.63,166.72c-.25.28.36,1.09.44,1.58.42.13-.19-.69.27-.58-.18-.11-.73-.47-.71-.99Z"/>
  <path class="cls-1" d="M174.39,165.23c-.38-.26-.25.17-.06.25-.05.22-.17.29-.33.28,0,.18.17.29.16.48.04-.23.48-.61.37.15.18.03.18-.27.24-.46-.31-.15-.43-.38-.37-.71Z"/>
  <path class="cls-1" d="M176.38,169.95c0-.18-.17-.29-.16-.48-.35-.25-.31.25-.67,0,.18.27.37.18.83.48Z"/>
  <path class="cls-1" d="M181.76,172.17c-.29.11-.15-.08-.49-.2,0,.43-.46-.02-.39.54l.37.15c.11-.27.25-.54.4.02.32.1-.12-.29.12-.51Z"/>
  <path class="cls-1" d="M179.98,181.43c-.03-.28-.22.06-.03.13-.12.14-.31.13-.55.06.07.34.8.43.79.04-.15-.04-.21-.12-.22-.23Z"/>
  <path class="cls-1" d="M176.3,196.62c0,.16.11.12.12.05.4.13-.09.74.52.76.21-.5-.24-.64-.34-.97-.14-.02-.14.22-.3.16Z"/>
  <path class="cls-1" d="M187.34,181.32c.12-.51-.08-.86-.42-1.14-.2.63.15.97.06,1.55.63-.09.67.66,1.12.99-.08-.07-.29-1.53-.77-1.4Z"/>
  <path class="cls-1" d="M187.43,182.74c.2.5.83.76.77,1.4.89-.37.58,1.48,1.34,1.89.13-.06.15-.32.33-.29-.28-.34-.87-.52-.55-1.17-.6-.4-.69-1.06-.99-1.62-.18-.02-.17.28-.23.46-.29-.19-.16-.59-.66-.67Z"/>
  <path class="cls-1" d="M188.64,180.87c-.73.55.44,2.5,1.02,2.73-.4-.84-1.41-1.83-1.02-2.73Z"/>
  <path class="cls-1" d="M191.43,187.85c.1.4.26.77.43,1.13.3-.17-.19-.88-.43-1.13Z"/>
  <path class="cls-1" d="M193.76,192.72c.01.71.74,2.02,1.31,2.81.21-.59-.47-.7-.05-1.11-.58.23-.32-.75-.89-.88.02-.44.67-.04.37-.54-.3.37-.53.18-.74-.28Z"/>
  <path class="cls-1" d="M194.4,192.14c-.41.23.36.78.44,1.12.38.03-.1-.38.13-.64-.48-.13-.51,0-.57-.48Z"/>
  <path class="cls-1" d="M195.16,195.7c.11.74.41,1.37.81,1.94.75-.79-.34-1.46-.81-1.94Z"/>
  <path class="cls-1" d="M199.97,205.36c.08.29.32.49.63.9l.07-.38c-.49-.03-.3-.44-.7-.52Z"/>
  <path class="cls-1" d="M203.95,209.62l-.75-.26c.15.5.74.16.78.82.3.07-.08-.39-.03-.56Z"/>
  <path class="cls-1" d="M206.66,214.73c-.6.56.68.29.2,1.15.11-.03.23-.06.4,0,.1-.56-.43-.75-.6-1.15Z"/>
  <path class="cls-1" d="M211.85,222.64c-.05-.27-.22.07-.02.13-.08.25-.38.15-.56.22.15.3.67.37.53.84.93-.1.76.64,1.16,1.04.38.29.16-.38.54-.1-.5-.35-.49-1.02-1.12-1.3.02-.24.2-.22.2-.47-.23.15-.59-.13-.73-.37Z"/>
  <path class="cls-1" d="M220.4,236.4c-.03.65.97.64.88,1.33.18,0,.14-.29.19-.48-.68-.08-.39-.77-1.07-.85Z"/>
  <path class="cls-1" d="M226.74,244.72c-.26.18.43,1.24.65,1.12-.2-.39-.6-.64-.65-1.12Z"/>
  <path class="cls-1" d="M231.04,253.8c.27,0,.44-.17.67-.23-.06-.28-.31-.43-.6-.55-.12.33.24.32.34.49-.04.25-.52-.41-.42.29Z"/>
  <path class="cls-1" d="M256.35,282.44c-.39.25.37.62.37.97.11.04.12-.03.13-.11v-.26c-.36-.04-.31-.42-.5-.6Z"/>
  <path class="cls-1" d="M259,329.11c.38.47.9.81,1.22,1.34.54-.19.95.53,1.35.92.11-.01.12-.12.26-.11-.04-.12.04-.12.12-.12-1.12-.55-1.84-1.49-2.95-2.04Z"/>
  <path class="cls-1" d="M299.77,319.32c.54.16.21-.42.74-.26-.04-.1-.15-.12-.16-.25h-.26c.26.48-.57.04-.32.51Z"/>
  <path class="cls-1" d="M302.81,322.43c.11.72.37-.54.64-.01.33-.12-.14-.51-.44-.37.08.25.03.4-.2.39Z"/>
  <path class="cls-1" d="M267.15,159.45c-.05-.23.07-.48.25-.75.19.22.11.69-.25.75Z"/>
  <path class="cls-1" d="M301.23,168.62c.01-.28.19-1.05.62-.67-.19.38-.42.44-.62.67Z"/>
  <path class="cls-1" d="M302.57,167.99c-.19-.2.33-.55.43-.8.28.2-.19.76-.43.8Z"/>
  <path class="cls-1" d="M300.39,162.15c-.05-.26.11-.74.42-.8.19.2-.33.54-.42.8Z"/>
  <path class="cls-1" d="M305.74,163.75c-.08-.43.13-.92.6-1.47.17.41-.35.97-.6,1.47Z"/>
  <path class="cls-1" d="M286.47,145.5c.42-.65.9-2.23,1.67-2.39-.81.59-.93,1.82-1.67,2.39Z"/>
  <path class="cls-1" d="M297.17,150.11c-.05-1.21,1.56-2.23,1.86-3.54.59.18-.94,1.57-.74,2.13-.2.22-.42.35-.63.49-.15.31,0,.8-.48.91Z"/>
  <path class="cls-1" d="M305.18,141.04c-.28-.15-.4-.33-.18-.59.14-.02.3.04.47.17l-.29.42Z"/>
  <path class="cls-1" d="M304.48,134.67c-.03-.95.9-2.49,1.78-3.1,0-.15-.16-.27.01-.45.26-.54,1.16-1.54.45-.46-.53,1.55-1.52,2.41-2.25,4.02Z"/>
  <path class="cls-1" d="M309.87,137.42c-.05-.26.07-.56.3-.88.19.24-.11.83-.3.88Z"/>
  <path class="cls-1" d="M297.3,127.92c-.15-.27.4-.68.53-1.01,0,.3-.17.91-.53,1.01Z"/>
  <path class="cls-1" d="M308.68,135.52c-.09-.43.36-.99.38-1.44.59-.04-.17,1-.38,1.44Z"/>
  <path class="cls-1" d="M310.42,135.94c-.18-.41.32-.98.56-1.48.07.44-.39.99-.56,1.48Z"/>
  <path class="cls-1" d="M295.55,125.36c-.32-.26-.02-.65.09-1,.28.27-.04.66-.09,1Z"/>
  <path class="cls-1" d="M298.28,126.45c-.06-.53.78-1.67,1.2-2.23-.24.9-.62,1.46-1.2,2.23Z"/>
  <path class="cls-1" d="M311.12,134.24c-.11-.85.77-1.44,1.11-1.88-.06.69-1.02,1.12-1.11,1.88Z"/>
  <path class="cls-1" d="M307.3,129.8c-.04-.32.16-.7.27-1.05.48.22-.06.67-.27,1.05Z"/>
  <path class="cls-1" d="M308.93,129.52c-.09-.42.17-.57.47-.92.17.23-.36.62-.47.92Z"/>
  <path class="cls-1" d="M310.76,129.36c-.19-.29.27-1.13.7-.61-.1.26-.28.11-.44.01-.21.23.03.35-.26.6Z"/>
  <path class="cls-1" d="M301.43,118.69c.07-.57.4-.97.81-1.43-.07.41-.58,1.27-.81,1.43Z"/>
  <path class="cls-1" d="M301.05,117.98c-.41-.04.15-.89.35-.52l-.35.52Z"/>
  <path class="cls-1" d="M296.31,113.62c-.11-.28.05-.64.29-.86.2.23-.1.81-.29.86Z"/>
  <path class="cls-1" d="M283.24,134.59c-.02-.26.08-.55-.04-.79.62-.06.65-.89,1.12-1.21.09.83-.85,1.03-1.09,2Z"/>
  <path class="cls-1" d="M299.58,128.4c.13-.28.33-.11.45-.46.18.08.11.21.23.31.42-.48.45-.88.74-1.33.04.11.09.22.23.31-.16-.95,1.15-1.11,1.69-2.53-.18,1.57-2.3,3.98-2.83,5.11-.3-.41.65-1.1.28-1.49-.3-.23-.43.56-.78.08Z"/>
  <path class="cls-1" d="M309.83,133.36c.06-.13-.06-.13-.1-.07-.21-.19.26-.51.36-.53.2.31-.86,1.64-.26.6Z"/>
  <path class="cls-1" d="M313.78,124.62l.4.26c.42-.71,1.02-1.87,1.69-2.1-.23,1-2.03,2.29-1.76,3.28-.2.07-.36.33-.55.4-.56,2.31-2.56,3.95-3.4,6.19-.52-1.57,2.23-2.65,1.76-4.37.16-.13.11.06.03.17.54-.89,1.78-2.31,1.84-3.84Z"/>
  <path class="cls-1" d="M300.39,117.24c-.08-.28.07-.61.02-.89.08-.08.39.85-.02.89Z"/>
  <path class="cls-1" d="M143.84,317.77c-.35.46-.38,1.23-.75,1.71-.85,1.13-1.99,1.86-2.66,3.15-.59,1.13-.8,2.46-1.48,3.59-.51.84-.55,1.2-.83,1.81-.8,1.78-1.92,2.89-1.42,4.3-.15,1.56-.77,3.19-.86,4.58-.01.22-.3.5-.3.58-.25,3.53,1.16,6.85.16,10.46.38.66,1.08,1.44,1.44,2.44.16.45,0,1.08.21,1.48.78,1.46,2.68,2.1,2.79,3.83.26.28.48.15.72.25,2.37,1.81,4.7,2.89,6.36,4.52,1.64.09,2.79,1.19,4.25,1.4.9.13,2.02-.1,2.97-.09,1.09.01,2.03-.12,3.07-.01.72.54,1.34,0,2.04.32,1.04-.46,2.11-.6,3.14-1.08.3.1.59.02.89.22,2.49-.77,5.28-1.34,7.48-3.3.2-.18.61-.56.8-.82,1.27-1.73,3.51-4.18,5.15-4.35.31-.25.07-.42.38-.67.6.15,2.15-.11,2.72-.91.2-.28-.06-1.22.28-1.89.51-1.01,1.97-1.22,2.45-2.11.22-.41-.04-1.22.12-1.69.42-1.25,2.19-3.09,3.02-3.78.65-.54,1.3-.44,1.58-1.01.26-.52.02-1.23-.75-1.75-.63-2.52,3.16-4.91,3.97-7.44,1.69-1.02,1.8-3.16,2.98-4.48.24-.26.69-.45.91-.74.36-.49.54-1.36.9-2.07.61-1.21,1.36-2.1,1.77-3.16,1.98-.62,1.63-2.44,2.54-3.53.34-.41.96-.59,1.32-1.07.3-.4.32-1,.68-1.42.35-.42,1-.64,1.32-1.07.24-.32.24-.71.46-.95.29-.32.68-.36.91-.74.24-.41.17-1.06.42-1.47.91-1.5,2.44-2.69,2.73-4.54,2.4-1.9,3.02-4.69,5.79-6.99.34-.84.59-1.46,1.34-2.04.05-.22-.18-.39.04-.63,1.39-1.24,1.76-3.38,3.25-4.62-.07-.14-.13-.28-.12-.43,2.04-1.72,4.1-4.29,4.79-6.33,1.44-.89,2.01-2.78,3.18-4.35.55-.74,1.36-1.26,1.78-2.03.82-1.5,2.4-3.07,3.26-4.45.25-.41.27-.99.51-1.4.44-.74,1.27-1.27,1.68-2.1,1.6-3.21,4.41-6.16,6.27-8.63.57-.76.76-1.65,1.29-2.58.88-1.55,2.5-2.63,3.45-4.14.24-.38.31-.87.52-1.23.54-.93,1.34-1.6,1.99-2.51,1.6-2.24,2.73-4.85,4.73-6.59,1.34-3.13,4.45-6.82,6.63-10-.01-1.09.93-1.41,1.39-2.18,1.43-2.37,2.92-5.64,5.03-7.66,6.24-10.45,14.06-20.39,19.93-30.96.95-.48,1.54-1.85,1.74-2.72.36.03.66-.43.98-.71.23-1.68,1.83-2.87,2.75-4.54-.36-.84.77-1.45.7-2.37.53,0,.06.55.56.25-.46-1.82,2.46-4.86,3.2-6.61-.08.1-.27,0-.19-.14.55-.17.09-.75.4-1.15,1.81-2.86,2.01-5.66,3.2-8.34.37-.19,1.41-.65,1.17-1.22-.36.39-.7.96-1.16.59.64-.61,1.07-1.71,1.01-2.45.56-.92,1.12-1.2,1.3-2.24.14-.19-.63-.15-.34-.56,1.1-1.07,1.09-1.99,2.09-2.93-.24-.63.51-2.03,1.03-2.27.04-.5-.66.14-.56-.24.54-1.1.97-2.18,1.9-2.91-.06-.38-.26-.73-.08-1.16.14-.28.41.37.51-.11-.02-.54-.64-.02-.93-.34.17-.62-.14-.68-.25-1.12.74-.53.49-1.39.75-2.14.26-.78.92-1.41,1.19-2.14.23-.63.04-1.1.46-1.72.34-.5.98-.69,1.32-1.27.11-.35-.51-.04-.25-.48,1.17-2.05,2.34-4.09,2.65-5.96-.66,2.74-2.57,3.82-3.14,6.24-.65,0-.3,1.06-1.1.96.17.3.65-.03.32.38-.13.12-.28.1-.39.35-.36-.63-.63-.22-1.11-.3-1.06,1.68-1.66,3.15-2.59,4.6-.05.35.43.02.32.38-.27.61-.62.97-.9,1.72-.52-.07-1,.24-1.37-.34,1.31-1.92,2.25-5.07,3.67-7.43.43-.71,1.31-1.18.94-1.99-.48,1.16-1.73,1.54-2.38,2.4-.84,1.11-1.02,2.77-1.91,3.82-.25.3-.52.31-.7.6-.15.23-.1.81-.29,1.05-.2.26-.43.14-.56.39-.27.52-.19,1.11-.55,1.64-.62.88-1.59,1.51-2.13,2.57-.3.06-.69-.31-.61-.59.81-1.14.92-1.36,1.68-2.57-.13.1-.28.12-.44,0,.28-.34.49-.39.42-.8-.56.9-1.29.3-1.44-.24,1.58-2.11,3-5.06,4.47-6.68-.08-.34-.28-.65-.16-1.04,1.08-2.21,2.84-4.33,4.03-6.67-2.23,2.11-3.58,4.95-5.24,8.01-.17.05-.39-.22-.51.11-.53,1.42-1.54,2.81-2.07,3.84-.71.14-1.43.26-2.14.36-1.66,3.26-4.91,4.28-6.86,7.15-.29-.22-.53-.05-.81-.11-.09-.4-.31-.77-.34-1.18.3-.48.46-1.08.96-1.35.74-3.02,3.72-6.02,5.17-9.41-.26-.7-.83-.66-1.42-.69-1.25,1.27-1.41,3.07-3.07,4.19-1.55-.24-1.98-1.36-1.25-2.59,1.19-2.04,3.53-5.38,4.53-6.55,1.54-3.13,3.33-6.08,5.14-9.04,1.76-2.98,3.56-5.97,5.17-9.14-2.33,3.18-3.63,6.67-5.96,9.36.23.13.26.3.08.51-2.02,2.83-4.12,6.06-5.4,8.86-1.42.59-1.92,3.22-3.36,3.81-.96-1.02-.9-2.25-.46-3.56-.68,1.18-1.75,1.99-2.44,2.9-.57.75-1.14,2.31-1.65,2.54-.12.05-.23-.28-.37-.11.23-.31-.32.61-.34.69-.15.51-.02.49-.39.96-.48.61-.49.59-1.03.82-1.68,2.1-2.79,4.49-4.52,6.54-.18.21-.48.69-.51.72-.21.16-.29-.15-.51.1-.13.14.16.23-.03.45-.68.8-1.44,1.72-2,2.6-1.43,2.19-3.46,4.54-4.63,6.32-.34.34-.32-.41-.69.12-2.34,2.84-4.72,5.91-7.1,9.05-.21.22-.5-.28-.69.12-.39.39.17.62-.15,1-.3.16-.61.28-.94.25-2.97,3.42-5.26,7.48-7.79,11.39-2.38,3.63-4.96,7.14-7.29,10.53-1.84,2.67-3.25,5.49-5.26,7.63-1.99,3.38-4.01,6.08-6.13,9.06-1.52,2.15-3.47,4.32-4.58,6.25-.19.34-.24.86-.51,1.22-.4.54-1.13.84-1.54,1.37-1.1,1.45-1.81,3.23-2.91,4.67-1.26,1.6-2.46,3.13-3.7,4.7-.69.89-1.04,1.98-1.68,2.89-.43.6-1.16,1.03-1.61,1.64-1.28,1.73-2.18,3.8-3.5,5.36-1.76,2.08-3.85,4-5.06,6.55-2.1,2.24-4.36,5.18-5.96,7.64-2.2,1.31-2.91,3.87-4.71,5.87-.19.21-.45.25-.67.44-3.03,2.8-4.76,7.16-7.26,9.4-.25,1.36-1.44,1.78-2.26,2.61-.88.89-1.25,2.05-1.96,3.01-.23.31-.64.45-.91.75-.81.9-1.21,2.08-1.96,3.19-1.12,1.65-3.23,2.7-4.1,4.9-1.42,1.13-3.42,2.88-4.2,4.83-2.79,2.16-4.05,5.54-6.5,8.08-.83.86-1.99,1.32-2.26,2.62-1.26.59-1.86,1.99-2.84,3.14-.96,1.14-2.2,2.15-3.26,3.3-1.51,1.64-2.77,4.15-4.83,4.68-2.63-1.05-.33,2.55-1.83,3.63-1.01.41-1.54-.15-2.58-.43-.83.42-1.11,1.2-1.43,1.98-.79.6-2.19.41-2.96,1.41ZM300.45,155.25c.1.1.19.1.27.03.32.55-.71.58-.27-.03ZM300.4,154.9c.56-.91.93-2.46,1.72-2.87.12-.17-.67-.22-.61-.59.5-.22.98-.54,1.41-1.2.86.51-.49,1.48.2,2.03-.4.46-.6.68-.36,1.16-.95.85-.6,1.41-1.4,2-.34-.52-.46-.1-.95-.52Z"/>
</svg>