<?xml version="1.0" encoding="UTF-8"?>
<svg id="Layer_1" data-name="Layer 1" xmlns="http://www.w3.org/2000/svg" viewBox="0 0 481.14 481.14">
  <defs>
    <style>
      .cls-1 {
        fill: #ffc00e;
        fill-rule: evenodd;
      }
    </style>
  </defs>
  <path class="cls-1" d="M193.3,324.21c.05.23-.07.51-.26.8-.19-.22-.12-.71.26-.8Z"/>
  <path class="cls-1" d="M158.41,317.07c-.01.3-.19,1.13-.63.76.19-.42.42-.5.63-.76Z"/>
  <path class="cls-1" d="M157.05,317.85c.19.2-.33.61-.43.89-.29-.19.19-.82.43-.89Z"/>
  <path class="cls-1" d="M159.32,323.86c.05.27-.11.79-.43.89-.19-.2.33-.6.43-.89Z"/>
  <path class="cls-1" d="M153.84,322.61c.09.45-.12.99-.61,1.61-.17-.42.35-1.06.61-1.61Z"/>
  <path class="cls-1" d="M173.72,340.27c-.41.73-.91,2.4-1.68,2.63.8-.7.94-1.97,1.68-2.63Z"/>
  <path class="cls-1" d="M162.71,336.29c.07,1.27-1.55,2.49-1.83,3.89-.6-.13.93-1.74.72-2.32.2-.25.42-.41.63-.58.15-.34-.01-.85.48-1Z"/>
  <path class="cls-1" d="M154.72,346.57c.29.13.41.31.19.6-.15.04-.31-.02-.48-.14l.29-.47Z"/>
  <path class="cls-1" d="M155.56,353.23c.03.99-.85,2.71-1.74,3.44,0,.16.17.27,0,.48-.25.59-1.13,1.74-.45.53.51-1.68,1.46-2.7,2.19-4.45Z"/>
  <path class="cls-1" d="M150,350.82c.05.26-.06.59-.29.96-.2-.23.09-.89.29-.96Z"/>
  <path class="cls-1" d="M163.04,359.67c.16.27-.39.76-.51,1.11-.01-.31.15-.97.51-1.11Z"/>
  <path class="cls-1" d="M151.26,352.71c.1.45-.34,1.08-.35,1.56-.6.1.14-1.07.35-1.56Z"/>
  <path class="cls-1" d="M149.48,352.44c.19.42-.3,1.07-.52,1.62-.08-.45.37-1.09.52-1.62Z"/>
  <path class="cls-1" d="M164.9,362.21c.33.24.04.68-.06,1.06-.29-.25.02-.7.06-1.06Z"/>
  <path class="cls-1" d="M162.09,361.31c.08.55-.74,1.83-1.15,2.46.22-.97.58-1.59,1.15-2.46Z"/>
  <path class="cls-1" d="M148.82,354.3c.14.89-.74,1.59-1.08,2.1.04-.73,1-1.28,1.08-2.1Z"/>
  <path class="cls-1" d="M152.83,358.63c.05.33-.14.75-.24,1.13-.49-.19.04-.71.24-1.13Z"/>
  <path class="cls-1" d="M151.18,359.08c.1.43-.16.62-.45,1.01-.18-.23.35-.69.45-1.01Z"/>
  <path class="cls-1" d="M149.32,359.42c.2.29-.24,1.22-.69.71.1-.28.28-.14.45-.06.21-.26-.04-.37.24-.66Z"/>
  <path class="cls-1" d="M159.13,369.77c-.05.6-.38,1.05-.78,1.58.06-.44.55-1.39.78-1.58Z"/>
  <path class="cls-1" d="M159.55,370.48c.42,0-.12.95-.34.58l.34-.58Z"/>
  <path class="cls-1" d="M164.51,374.6c.13.28-.03.68-.26.93-.21-.23.07-.86.26-.93Z"/>
  <path class="cls-1" d="M177.21,351.45c.03.27-.07.58.06.83-.63.11-.64.99-1.11,1.36-.11-.86.84-1.16,1.06-2.19Z"/>
  <path class="cls-1" d="M160.72,359.37c-.12.31-.34.14-.44.52-.19-.07-.11-.22-.24-.3-.41.55-.43.97-.71,1.47-.05-.11-.1-.22-.24-.3.2.99-1.13,1.27-1.64,2.82.14-1.68,2.22-4.41,2.72-5.66.32.41-.63,1.22-.23,1.6.31.21.42-.63.79-.16Z"/>
  <path class="cls-1" d="M150.15,355.1c-.06.15.06.13.1.06.22.18-.25.56-.35.6-.21-.31.83-1.82.24-.66Z"/>
  <path class="cls-1" d="M146.39,364.72l-.42-.24c-.4.79-.98,2.07-1.66,2.38.2-1.08,2-2.62,1.69-3.64.2-.1.36-.38.55-.48.51-2.5,2.49-4.42,3.28-6.87.57,1.61-2.19,3.02-1.66,4.79-.16.15-.11-.06-.03-.18-.52.99-1.74,2.61-1.76,4.24Z"/>
  <path class="cls-1" d="M160.25,371.2c.09.29-.05.64.01.94-.08.1-.43-.85-.01-.94Z"/>
  <path class="cls-1" d="M329.58,161.77c.43-.42.59-1.19,1.04-1.63,1.05-1.03,2.32-1.62,3.22-2.83.79-1.06,1.23-2.39,2.11-3.44.65-.78.77-1.14,1.15-1.72,1.12-1.7,2.42-2.69,2.21-4.16.45-1.54,1.4-3.07,1.78-4.46.06-.22.4-.45.42-.54.97-3.51.25-7.09,2.02-10.61-.24-.74-.78-1.64-.91-2.72-.06-.48.23-1.11.11-1.54-.45-1.62-2.22-2.57-1.94-4.37-.2-.33-.45-.23-.67-.37-1.97-2.24-4.08-3.71-5.37-5.66-1.64-.34-2.55-1.66-3.98-2.09-.89-.27-2.08-.19-3.05-.34-1.1-.17-2.11-.17-3.14-.42-.61-.67-1.38-.18-2.02-.62-1.18.33-2.31.33-3.5.7-.28-.15-.6-.1-.87-.35-2.76.47-5.8.71-8.57,2.48-.25.16-.77.51-1.02.77-1.69,1.69-4.54,4.03-6.27,4.04-.38.23-.17.44-.54.67-.59-.22-2.26-.11-3.03.69-.26.27-.2,1.29-.7,1.96-.74,1.01-2.31,1.09-3,1.98-.32.41-.21,1.28-.49,1.77-.73,1.25-2.87,3.08-3.87,3.74-.78.52-1.43.37-1.83.95-.37.53-.25,1.3.45,1.91.18,2.71-4.18,4.93-5.49,7.54-1.95.96-2.46,3.17-3.87,4.51-.29.26-.79.44-1.06.73-.45.49-.78,1.41-1.26,2.14-.82,1.24-1.74,2.14-2.34,3.24-2.15.54-2.08,2.48-3.18,3.59-.42.41-1.09.57-1.54,1.05-.38.41-.49,1.03-.93,1.46-.43.42-1.14.63-1.54,1.06-.3.32-.35.73-.61.98-.34.32-.75.35-1.04.75-.31.42-.32,1.12-.63,1.55-1.14,1.55-2.89,2.76-3.43,4.7-2.74,1.93-3.75,4.84-6.93,7.19-.47.87-.8,1.52-1.63,2.13-.08.23.14.42-.11.66-1.58,1.29-2.2,3.55-3.88,4.83.06.15.1.29.08.45-2.3,1.78-4.72,4.47-5.66,6.62-1.59.93-2.4,2.9-3.74,4.56-.64.78-1.52,1.33-2.02,2.14-.98,1.59-2.76,3.25-3.78,4.71-.3.44-.37,1.05-.65,1.48-.52.79-1.43,1.34-1.93,2.22-1.96,3.38-5.08,6.54-7.17,9.18-.65.82-.9,1.75-1.52,2.75-1.02,1.65-2.78,2.82-3.86,4.44-.27.41-.38.92-.62,1.31-.62.99-1.5,1.71-2.24,2.69-1.79,2.41-3.09,5.21-5.25,7.11-1.56,3.35-4.98,7.35-7.4,10.77-.03,1.15-1.02,1.53-1.52,2.37-1.57,2.57-3.24,6.09-5.5,8.32-3.48,5.62-7.19,11.24-10.91,16.83-3.76,5.55-7.32,11.24-10.42,17.01-.98.57-1.61,2.06-1.82,2.99-.37-.01-.69.49-1.02.82-.25,1.79-1.94,3.14-2.88,4.98.37.87-.8,1.59-.72,2.57-.54.05-.06-.58-.57-.23.46,1.89-2.54,5.32-3.31,7.23.08-.12.27-.03.2.14-.56.22-.09.79-.41,1.24-1.86,3.17-2.11,6.11-3.29,9.06-.37.23-1.43.81-1.18,1.39.37-.44.71-1.07,1.18-.72-.65.7-1.08,1.89-1.01,2.67-.56,1.02-1.14,1.36-1.31,2.47-.14.21.65.11.35.56-1.11,1.22-1.1,2.19-2.11,3.27.25.65-.5,2.19-1.03,2.48-.04.53.67-.21.58.21-.53,1.22-.99,2.37-1.92,3.23.07.39.28.75.1,1.22-.13.31-.42-.36-.52.16.03.57.66-.03.95.28-.16.67.15.71.27,1.16-.74.63-.48,1.51-.73,2.33-.25.85-.91,1.57-1.17,2.37-.23.69-.02,1.16-.43,1.85-.33.56-.98.82-1.32,1.46-.11.38.52,0,.26.49-1.15,2.27-2.31,4.54-2.6,6.53.63-2.95,2.56-4.27,3.09-6.87.66-.06.28-1.15,1.1-1.11-.18-.3-.66.09-.34-.37.13-.14.28-.13.39-.41.37.63.64.17,1.13.22,1.05-1.87,1.63-3.48,2.56-5.09.04-.38-.43.02-.33-.38.26-.67.62-1.09.88-1.9.54.03,1.02-.34,1.4.24-1.3,2.14-2.2,5.56-3.6,8.18-.43.79-1.32,1.36-.92,2.19.47-1.27,1.74-1.78,2.38-2.74.84-1.25.99-3.01,1.87-4.2.25-.33.52-.37.71-.69.15-.25.09-.86.27-1.14.2-.3.43-.18.56-.46.26-.57.19-1.18.56-1.77.63-.98,1.61-1.72,2.15-2.88.31-.09.71.28.63.57-.82,1.27-.93,1.51-1.69,2.84.14-.12.28-.15.45-.04-.28.39-.5.45-.42.88.58-.99,1.32-.42,1.49.13-1.62,2.34-2.97,5.59-4.45,7.43.09.35.3.67.18,1.08-1.06,2.42-2.81,4.82-3.97,7.39,2.24-2.42,3.55-5.53,5.18-8.91.17-.07.4.2.52-.16.51-1.55,1.52-3.1,2.03-4.23.72-.21,1.44-.4,2.19-.56,1.67-3.56,4.98-4.89,6.93-8.07.3.21.55.01.82.05.1.41.32.79.36,1.22-.3.53-.46,1.17-.96,1.49-.36,1.62-1.29,3.28-2.31,4.99-1.04,1.7-2.15,3.47-2.84,5.33.28.71.86.63,1.46.6,1.23-1.45,1.39-3.35,3.08-4.65,1.58.13,2.04,1.27,1.31,2.62-1.22,2.22-3.49,5.95-4.49,7.26-1.5,3.42-3.26,6.68-5.04,9.94-1.72,3.29-3.43,6.62-4.97,10.1,2.27-3.56,3.45-7.37,5.78-10.39-.23-.12-.27-.29-.09-.53,2-3.15,4.05-6.72,5.3-9.78,1.43-.74,1.89-3.55,3.34-4.29,1,1,.96,2.3.54,3.7.67-1.3,1.72-2.25,2.43-3.25.58-.82,1.14-2.51,1.66-2.79.13-.07.24.28.38.08-.23.34.32-.66.34-.75.15-.55.01-.51.38-1.04.48-.68.49-.66,1.04-.94,1.68-2.33,2.78-4.92,4.52-7.21.18-.24.48-.76.51-.79.21-.19.29.14.52-.14.13-.16-.16-.23.02-.47.67-.89,1.45-1.91,2.04-2.86,1.45-2.39,3.52-4.99,4.71-6.93.35-.38.33.41.7-.17,2.39-3.13,4.76-6.52,7.26-9.92.21-.24.51.26.71-.16.4-.43-.17-.64.16-1.05.31-.18.63-.33.96-.31,3.07-3.73,5.41-8.13,8.05-12.34,2.51-3.89,5.2-7.68,7.65-11.33.97-1.44,1.82-2.91,2.7-4.31.9-1.39,1.82-2.7,2.88-3.85,2.14-3.59,4.29-6.48,6.55-9.65,1.61-2.3,3.71-4.59,4.93-6.63.21-.35.28-.9.57-1.28.43-.57,1.2-.9,1.64-1.46,1.19-1.53,1.99-3.4,3.18-4.92,1.34-1.7,2.66-3.31,3.99-4.96.77-.92,1.18-2.06,1.89-3.01.47-.63,1.24-1.07,1.75-1.72,1.41-1.8,2.45-3.95,3.89-5.58,1.93-2.17,4.15-4.19,5.58-6.81,2.32-2.3,4.85-5.32,6.67-7.84,2.34-1.33,3.26-3.97,5.25-6.03.21-.22.49-.24.72-.44,3.36-2.8,5.51-7.26,8.27-9.49.38-1.4,1.64-1.8,2.54-2.63.98-.89,1.45-2.1,2.29-3.04.27-.31.71-.43,1.01-.72.92-.89,1.46-2.08,2.34-3.18,1.32-1.64,3.59-2.62,4.73-4.84,1.58-1.09,3.8-2.79,4.81-4.75,3.12-2.02,4.84-5.38,7.66-7.8.95-.82,2.19-1.21,2.64-2.52,1.36-.51,2.15-1.9,3.29-3.01,1.13-1.09,2.56-1.98,3.8-3.05,1.78-1.52,3.44-3.95,5.6-4.28,2.5,1.35.72-2.57,2.41-3.52,1.08-.32,1.53.32,2.53.72.9-.34,1.3-1.1,1.74-1.87.9-.51,2.29-.14,3.24-1.05ZM159.32,331.15c-.11-.09-.2-.09-.28-.01-.34-.55.72-.67.28.01ZM159.37,331.52c-.56,1.01-.95,2.66-1.73,3.17-.12.19.69.18.64.57-.5.27-.99.66-1.42,1.39-.88-.46.47-1.61-.24-2.13.4-.52.6-.77.35-1.26.98-.97.61-1.53,1.43-2.22.35.52.47.07.98.47Z"/>
  <path class="cls-1" d="M145.22,117.32c-.12.38,0,.61.33.73-.14-.23.05-.65-.33-.73Z"/>
  <path class="cls-1" d="M146.32,117.5c.22.18-.05.64.33.73-.05-.28.17-.71-.33-.73Z"/>
  <path class="cls-1" d="M146.07,120.1c-.03.35.22.21.51.53.11-.24,0-.34,0-.51-.21-.08-.29.07-.5-.02Z"/>
  <path class="cls-1" d="M143.93,130.84c-.04.16-.07.32-.11.48.36,0,.27.26.57.29.13-.42-.03-.68-.45-.77Z"/>
  <path class="cls-1" d="M147.01,118.84c-.28.01-.22.66.09.66.28-.16-.02-.23.15-.6-.12.04-.25.08-.24-.07Z"/>
  <path class="cls-1" d="M144.42,132c.18.29-.06.45-.17.72.32-.02.52-.23.64-.58l-.47-.14Z"/>
  <path class="cls-1" d="M147.8,124.54c-.32.06-.1.66.36.61.22-.4-.51-.25-.36-.61Z"/>
  <path class="cls-1" d="M145.56,135.28c.04.13.29.28.06.27-.08.26.41.18.57.29-.2.29-.16.61-.1,1,.58-.36.85.2,1.27.49-.12-.24-.35-.42-.19-.82-.4.25-.32,0-.71-.2.09-.08.17-.16.2-.33-.3-.1-.42-.31-.36-.62-.29-.1-.57-.18-.74-.08Z"/>
  <path class="cls-1" d="M148.17,125.67l-.11.48c.11-.05.37-.09.35.1.28,0,.15-.63-.24-.58Z"/>
  <path class="cls-1" d="M150.76,125.39c.05.28.26.46.63.56-.09-.27-.25-.77-.63-.56Z"/>
  <path class="cls-1" d="M147.84,142.68c-.08.36.22.7.52.52-.15-.19-.22-.43-.52-.52Z"/>
  <path class="cls-1" d="M151.97,127.77c.11.28-.11.75.45.77-.06-.31-.11-.62-.45-.77Z"/>
  <path class="cls-1" d="M152.01,138.61c.07.41.38.17.79.47-.04-.11-.08-.23-.04-.39-.55.18-.4-.44-.75-.07Z"/>
  <path class="cls-1" d="M154.52,129.76c.29-.05-.02-.59.23-.96-.46-.03-.22.65-.23.96Z"/>
  <path class="cls-1" d="M155.59,132.74c.18.24.2.57.6.68-.07-.37-.26-.67-.25-1.09-.3-.18-.05.59-.35.41Z"/>
  <path class="cls-1" d="M152.77,146.3c-.51.18.2.5.23.7.42-.13-.19-.51-.23-.7Z"/>
  <path class="cls-1" d="M154.62,145.91c.17-.35-.38-.26-.11-.67-.28-.02-.47.1-.58.35.49,0,.33.54.69.31Z"/>
  <path class="cls-1" d="M153.15,152.9c0,.38.04.75.45.89-.13-.31-.17-.67-.45-.89Z"/>
  <path class="cls-1" d="M158.62,128.36c-.18.31.09.36-.02.63.35.16.44-.15.49-.5l-.47-.13Z"/>
  <path class="cls-1" d="M158.01,131.51c-.19.39.01.54.07.78.28-.04.36-.82-.07-.78Z"/>
  <path class="cls-1" d="M159.34,130.09c-.05.1.02.13.09.15-.01.83.73,1.21.81,1.99.45.19.56-.17.91-.14,0-.47-.41-.12-.54-.4.01-.4.31-.31.13-.59-.4.23-.56-.27-.93-.37.17-.34-.02-.47.05-.75-.35-.25-.18.36-.53.11Z"/>
  <path class="cls-1" d="M156.3,149.92c-.01-.21.44.13.45.25.47-.07-.24-.25-.02-.51-.36-.21-.41.09-.65.08-.02.29.04.54.09.79.36.06.26-.41.13-.6Z"/>
  <path class="cls-1" d="M162.78,120.88c-.01.35-.2.8.3.84-.07-.3.02-.69-.3-.84Z"/>
  <path class="cls-1" d="M163.25,120.51c-.32.04-.03.55.24.57.3-.41-.25-.33-.24-.57Z"/>
  <path class="cls-1" d="M163.29,121.91c.29.1.41-.09.64-.07,0-.17-.16-.24-.15-.42-.25.02-.39.23-.5.5Z"/>
  <path class="cls-1" d="M157,150.74c-.46.25.24.69.16,1.06.61-.09.05-.82-.16-1.06Z"/>
  <path class="cls-1" d="M166.39,116.31c.05.28.46.49,1.09.68-.35-.23-.5-.59-1.09-.68Z"/>
  <path class="cls-1" d="M158.36,153.91c.24-.15.3-.72-.09-.79-.22.13-.39.77.09.79Z"/>
  <path class="cls-1" d="M163.89,127.79c-.14.42.63,1.12.78.46-.53.01-.48-.33-.78-.46Z"/>
  <path class="cls-1" d="M162.47,135.84c-.36.29.07.99.65,1.05,0-.21.14-.2.29-.18.13-.56-.94-.39-.94-.88Z"/>
  <path class="cls-1" d="M166.45,121.77c-.18.51.02.81.39.99-.26-.25.06-.85-.39-.99Z"/>
  <path class="cls-1" d="M159.04,155.49c.05.13.1.25-.05.24.62.28.47,1.04,1.11,1.31-.49-.69.13-1.56-1.06-1.56Z"/>
  <path class="cls-1" d="M165.63,131.26c-.21.37.33.28.54.39-.04-.11-.08-.23-.04-.39-.13.06-.3.06-.5,0Z"/>
  <path class="cls-1" d="M160.19,157.2c-.37-.02.06.29-.1.48.35-.42.19.25.69.31.27-.41-.53-.16-.26-.58-.17-.03-.34-.07-.33-.21Z"/>
  <path class="cls-1" d="M160.62,158.2c.2.56-.3,1.02.27,1.2-.06-.62.56-.17.52-.75-.51.31-.38-.38-.8-.45Z"/>
  <path class="cls-1" d="M168.89,129.6c.13.4.66.75.83.22-.4-.14-.41-.3-.83-.22Z"/>
  <path class="cls-1" d="M162.28,160.76c-.13.51.34.63.44.99-.07.26-.35.18-.65.09.15.65.84.16,1.21.93.21-.35.06-.27.14-.72-.48-.16-.01.17-.21.45-.39-.53-.29-1.37-.93-1.75Z"/>
  <path class="cls-1" d="M167.37,146.86c0,.46.54.64.87.61-.17-.35-.4-.72-.87-.61Z"/>
  <path class="cls-1" d="M169.48,138.81c.15.29-.04.15-.1.48.25.03.37-.16.55-.23,0-.17-.27-.18-.45-.24Z"/>
  <path class="cls-1" d="M172.87,146.25c.14.37.3.72.82.84-.32-.23-.4-1-.82-.84Z"/>
  <path class="cls-1" d="M178.41,136.31c-.08.29.1.42.1.65.3.17.04-.58.34-.41,0-.17-.27-.17-.45-.24Z"/>
  <path class="cls-1" d="M179.93,130.05c0,.41.35.6.84.71-.25-.24-.49-.85-.84-.71Z"/>
  <path class="cls-1" d="M175.66,155.35c-.03.16-.06.32-.09.48.12-.05.24-.09.24.06.31,0,.18-.59-.14-.54Z"/>
  <path class="cls-1" d="M181.09,137.11c-.04.47.44.62.23,1.19.25.03.3-.26.46-.39.26.12.2.6.54.39,0-.24-.44-.21-.25-.57-.59.19-.44-.49-.98-.62Z"/>
  <path class="cls-1" d="M178.22,155.71c.08.12,0,.35.17.42.35.11.51-.33.36-.54-.36-.24-.17.37-.53.13Z"/>
  <path class="cls-1" d="M184.04,141.24c-.35.26.18,1.28.66,1.03-.27-.31-.71-.52-.66-1.03Z"/>
  <path class="cls-1" d="M186.14,139c-.07.38.15.59.6.65-.22-.2-.24-.53-.6-.65Z"/>
  <path class="cls-1" d="M185.25,145.63c.1.28.07.65.47.73-.07-.3-.13-.61-.47-.73Z"/>
  <path class="cls-1" d="M186.38,148.64c-.02.25.28.31.26.56.17,0,.16-.27.22-.45l-.48-.11Z"/>
  <path class="cls-1" d="M187.31,149.6c-.13.36.26.39.24.68.22-.01.21-.75-.24-.68Z"/>
  <path class="cls-1" d="M184.44,166.74c.1.05.12-.02.14-.09.14.05.06.24.05.39.2.12.56-.24.6.14.43.08-.19-.45.18-.33-.19-.2-.91-.72-.98-.1Z"/>
  <path class="cls-1" d="M185.47,167.23c-.08.19.05.25.2.29-.02.17-.04.34-.18.33,0,.17.28.17.46.23l.11-.6c-.36.02-.28-.24-.58-.25Z"/>
  <path class="cls-1" d="M185.26,169.8c.04.26.26.39.54.49.12-.36-.19-.44-.54-.49Z"/>
  <path class="cls-1" d="M188.98,154.24c.12.37.61.01.67-.22-.24-.37-.42.14-.67.22Z"/>
  <path class="cls-1" d="M189.46,153.1c.13.46.28,1.14.93.96-.39-.27-.17-.93-.93-.96Z"/>
  <path class="cls-1" d="M189.39,154.7c.22.2.25.53.62.64-.08-.29-.32-.49-.33-.83-.14,0-.13.22-.28.18Z"/>
  <path class="cls-1" d="M188.98,156.74c.56.55.42.86.88-.05-.41-.17-.6,0-.88.05Z"/>
  <path class="cls-1" d="M186.89,171.9c-.04.38.12.63.5.73-.11-.28-.08-.65-.5-.73Z"/>
  <path class="cls-1" d="M188.69,175.92c.87.42.95,1.24,1.78,1.26-.39-.52-.79-1.03-1.37-1.42.04-.14.24-.05.38-.04-.09-.67-.66-.3-.78.2Z"/>
  <path class="cls-1" d="M192.54,160.69c.06.52.63-.23.59.14.47-.28-.51-.37-.59-.14Z"/>
  <path class="cls-1" d="M192.99,160.92c.05.28.21.49.65.51-.06-.27-.29-.44-.65-.51Z"/>
  <path class="cls-1" d="M191.53,178.91l-.08.48c.21.06.28-.09.5-.02-.17-.13-.11-.42-.42-.47Z"/>
  <path class="cls-1" d="M194.51,166.95c.24,0,.28-.3.64-.11-.15-.4-.96-.45-.64.11Z"/>
  <path class="cls-1" d="M207.59,172.67c-.18.64.5.57.79.41-.15-.22-.49-.3-.79-.41Z"/>
  <path class="cls-1" d="M212.41,180.02c-.04.49.55.02.52.59-.16.33-.37-.14-.6-.11.04.4.42.5.8.4-.11-.2-.09-.33.08-.48.57.06.26.74.86.78-.11-.17-.31-.28-.14-.64-.63-.15-.75-.63-.7-.99-.26.18-.28.68-.82.47Z"/>
  <path class="cls-1" d="M214.46,182.62l-.08.48c.45.09.32.2.72.13.06-.43-.83-.39-.16-.52.03-.3-.4-.11-.48-.09Z"/>
  <path class="cls-1" d="M214.87,183.93c.18-.14.54-.02.86.03l.06-.36c-.14,0-.21-.07-.22-.17-.27.18-.13.2-.5.03-.02.22-.19.23-.2.46Z"/>
  <path class="cls-1" d="M215.4,185.26c.43.05.38.44.78.52-.06-.42-.6-.5-.45-1.07-.4.09-.1.24-.33.56Z"/>
  <path class="cls-1" d="M216.89,185.91c-.31-.09-.52-.05-.53.27.09.08.17.16.34.19.11-.09.17-.25.19-.46Z"/>
  <path class="cls-1" d="M216.83,186.27c-.02.22-.19.23-.19.46.2.06.34-.15.36.07.17,0,.15-.28.2-.46l-.36-.07Z"/>
  <path class="cls-1" d="M217.69,186.3c-.17.06-.21.92.23.91-.04-.33.02-.72-.23-.91Z"/>
  <path class="cls-1" d="M219.92,190.92c.38-.02.42.2.71.24.14-.35-.3-.29-.16-.64-.28,0-.57-.02-.55.4Z"/>
  <path class="cls-1" d="M221.73,192.94c-.03.31.11.49.41.56l.07-.48-.48-.08Z"/>
  <path class="cls-1" d="M222.64,194.32c.13.34.33.62.48.94.33.11,0-.67.32-.56-.06-.23-.22-.05-.36-.06-.18-.08-.05-.39-.45-.32Z"/>
  <path class="cls-1" d="M224.07,194.68c0,.25.43.19.43.44.23-.22.13-.44-.02-.74-.23-.02-.14.38-.41.3Z"/>
  <path class="cls-1" d="M224.23,197.04c.7.13.63.83.93,1.26.63-.04.09-.87.3-1.3-.43.22-.39.35-.86-.02.07-.52.31-.63.02-.98-.43.23-.39.45-.39,1.04Z"/>
  <path class="cls-1" d="M225.17,196.46c.13.37.53.55.6.96.17-.17-.01-1-.6-.96Z"/>
  <path class="cls-1" d="M226.6,197.68c-.05.21.11.28.05.5.35.04.28-.48.67-.38-.06-.17-.23-.27-.45-.32,0,.46.16.34-.27.2Z"/>
  <path class="cls-1" d="M228.17,199.65c-.09.24.04.33.05.5.12-.18.41-.12.43-.43-.27.16-.15-.03-.48-.08Z"/>
  <path class="cls-1" d="M245.22,224.56c.06.51.51.71,1.02.86-.13-.38-.18-.83-.38-1.15-.26.04-.42.2-.64.29Z"/>
  <path class="cls-1" d="M251.79,230.14c-.14.38.29.29.32.53.27-.05.06-.64-.32-.53Z"/>
  <path class="cls-1" d="M257.18,237.23c-.26.22.22.79.67.8-.13-.35-.45-.53-.67-.8Z"/>
  <path class="cls-1" d="M259.86,240.56c.45.16.96.74,1.3.62-.25-.32-.83-.84-1.3-.62Z"/>
  <path class="cls-1" d="M266.01,246.56c.06.37.42.48.57.78.22-.16-.1-.83-.57-.78Z"/>
  <path class="cls-1" d="M271.21,254.08c.17-.11.45-.08.62-.19-.07-.17-.25-.25-.47-.29,0,.22-.16.24-.15.47Z"/>
  <path class="cls-1" d="M271.29,295.83c.33.67,1.39.67,1.72,1.35.22-.69-1.06-1.06-1.72-1.35Z"/>
  <path class="cls-1" d="M273.26,297.07c.01.4.27.56.73.54-.16-.26-.4-.44-.73-.54Z"/>
  <path class="cls-1" d="M283.52,265.03c.15-.04.26-.14.26-.35.39.44.47.57,1.06.93-.23-.57-.62-1.01-1.17-1.3.07.38-.14.43-.15.72Z"/>
  <path class="cls-1" d="M284.51,267.91c.18-.18.64-.05.63-.45-.24-.26-.61.06-.63.45Z"/>
  <path class="cls-1" d="M285.18,266.24c-.17.03-.11.3-.14.48.28.06.47.01.61-.08-.02-.25-.54-.06-.47-.4Z"/>
  <path class="cls-1" d="M300.9,280.08c.11.35.49.18.73.16-.08-.17-.26-.24-.48-.27,0,.12-.15.09-.25.11Z"/>
  <path class="cls-1" d="M302.6,280.28c.05.27.65.12.73.03-.25-.28-.51-.25-.73-.03Z"/>
  <path class="cls-1" d="M303.32,281.77c.37.69,1.09,1.06,1.69,1.54.17-.4.45,0,.85.04-.76-.73-1.61-.87-2.55-1.57Z"/>
  <path class="cls-1" d="M305.37,283.45c.06.39.55.36.85.52-.1-.35-.34-.56-.85-.52Z"/>
  <path class="cls-1" d="M306.46,284.22c.24.25.35.63.72.76.16-.24-.17-.82-.72-.76Z"/>
  <path class="cls-1" d="M306.7,285.33c.29.33.28.57.36.87.43-.08.56.04.74-.46-.46.35-.64-.38-1.09-.41Z"/>
  <path class="cls-1" d="M310.51,282.45c-.35.19.22.5.48.51.05-.25-.08-.33-.12-.49-.21-.03-.32.19-.36-.02Z"/>
  <path class="cls-1" d="M311.06,287.59c-.1-.03-.11.04-.12.12v.24c.45-.11.83.79,1.57.8-.02-.14.03-.22.12-.24-.45-.14-.71-.46-1.21-.54,0-.61.36-.06.61-.34.06-.34-.66.07-.61-.27-.17-.03-.17.7-.37.23Z"/>
  <path class="cls-1" d="M311.72,283.47c.36.42.79.78,1.45.91-.38-.4-.9-.67-1.45-.91Z"/>
  <path class="cls-1" d="M312.88,289c.22.18-.2.58.11.86.14-.35.34-.43.73-.22-.1-.39-.5-.5-.85-.65Z"/>
  <path class="cls-1" d="M313.73,289.04c.14.43.65.51,1.1.65-.33-.52-.6-.4-1.1-.65Z"/>
  <path class="cls-1" d="M316.53,291.82c.18-.02.04-.36.25-.36-.39-.44-1.41-.27-1.47-1.03-.66.66,1.04.76,1.22,1.38Z"/>
  <path class="cls-1" d="M315.43,290.08c.25.61,1.07.68,1.71.91-.22-.64-1.1-.64-1.71-.91Z"/>
  <path class="cls-1" d="M317.39,290.14c-.36.28.48.43.73.51-.04-.37-.65-.19-.73-.51Z"/>
  <path class="cls-1" d="M317.27,290.75c.27.43.42.97,1.22.89-.63-.08-.57-.83-1.22-.89Z"/>
  <path class="cls-1" d="M318.61,292.99c-.08-.65.62-.47.73-.1-.07.4-.46.16-.73.1-.13.45.46.21.37.62.66-.42,2.07-.17,2.69-.03.41-.44-1.17-.51-1.46-.29.32-.39-.39-.54.12-.73-.84-.1-1.69-.03-2.93-.1.1.47.63.53,1.22.53Z"/>
  <path class="cls-1" d="M320.93,294.04c-.17.03-.1.3-.12.48.21.12.61.06.73.27.13-.08.13-.28.37-.23-.06-.18-.18-.31-.24-.49-.33-.01-.57.49-.73-.02Z"/>
  <path class="cls-1" d="M321.17,295.27c.22.16.81.44.73-.1-.37-.1-.45.11-.73.1Z"/>
  <path class="cls-1" d="M322.27,294.94c-.4.17.25.3.12.61.29-.17.23-.25.61-.1-.02-.39-.54-.29-.73-.51Z"/>
  <path class="cls-1" d="M144.27,113.36c.1-.21.48.04.47-.37-.22-.05-.22-.22-.45-.26.32.64-1.47.5-.14.59.33.7.85,1.28.88,2.15.5.11.44.28.24.58.13,0,.14-.21.29-.17.32.2-.23.25-.14.59.39-.14.44.04,1.24.1-.03-.35-.53-.44-.86-.63.28-.47-.13-.54-.33-.73.37-.89-.45-1.43-.31-1.86-.52-.16-.32.7-.2.83-.52-.11-.13-.74-.69-.83Z"/>
  <path class="cls-1" d="M145.47,121.58c.06.52.37.88.72,1.23-.02-.37.24-.26.26-.56-.7.22-.54-.45-.98-.67Z"/>
  <path class="cls-1" d="M146.52,123.54c.13.22.35.2.41-.14.13.06.05.25.03.39.34.19.46,0,.74.08.26.46.4,1,.96,1.29-.41,1,.58,1.17.7,1.86-.61.31-.72-.73-1.27-.49.73.71.52,1.53,1.65,2.13-.18.42-.37.74.3.85-.2.4-.62.51-.94.24-.13.25.19.24.15.43.16-.3.69.05.73-.43-.06.76.8.98,1.02,1.57-.72-.52-1.3-.77-1.43-.92-.4.55.88.99,1.31,1.39-.36.26.06.73.28.97.14,0,.14-.22.29-.17.09.05.09.16.21.19-.11.1-.3.05-.32.29.37.64,1.05,1.1,1.49,1.7-.04.09-.14.09-.17.21-.56-.59-.94-.66-1.49-1.19-.01.73.6,1.1.73,1.74.37.02-.05-.29.11-.48.26.02.29.17.45.25,0,.48-.53.46-.31.81.21.07.28-.08.5,0,.02-.12-.12-.13-.21-.18.06-.28.66-.58.11-.48.13-.69.62-.25.74.08-.46-.24.01.59-.49.5,0,.28.63.17.66.43-.14.39-.67-.03-.84-.23-.31-.07-.27.42-.58.35-.01.39.49.47.44.88-.33.18-.41-.17-.86-.11-.25.53.49.47.3.97.35-.02-.09-.42.16-.72.13.23.33.43.35.73.09-.52.37-.44.75-.56.09.05.09.15.21.18.06.43-.41-.01-.34.41.68.04,1.43,2.03.78,2.24.39.04.41.38.72.19.03.53-.35.4-.42.77-.16-.42-.69-.62-.78-1.09-.18.42.33,1.33.77,1.73-.05.24-.36.06-.34.41.42.19.88.37.78,1.1.4-.19.55.17.82-.29-.17.42.47.41.42,1,.39-.55.6.49.96.25.12.68-.63-.05-.61.47.44.05.59.27.64.55-.15.13-.37.16-.55.23-.67-.66-.87-1.59-1.6-1.95-.17.35.38.26.11.67,1.44.48.76,2.26,2.05,2.83-.13,1.41,1.74,2.7,1.25,3.64.13.34.32.64.42,1,.65-.18.58.59.95.89-.1.1-.3.05-.31.3.39-.21.74.33.4.49.95.57.84,1.79,1.62,2.47.05-.37.45-.03.62.03-.08.24-.53-.1-.65.09.08.94,1.01,1.34,1.49,2.02-.55.32-.03,1.19.42,1.11-.17.31.11.35,0,.63,1.03-.13.92,2.13,2.16,2.56-.36,1.17,1.73,1.55,1.27,2.59-.07-.28-.33-.43-.51-.63-.28.42.76.81.97,1.51.09.28.21,1.42.66,1.17.26.04-.02.44,0,.63.62.35.72,1.03,1.38,1.35.13.8,1.08,2.08,1.69,3.07,1.83,3.32,3.83,6.54,5.84,9.75,2.02,3.21,4.08,6.39,6.18,9.54,4.25,6.28,8.8,12.36,13.37,18.43,2.36,2.98,4.74,5.94,7.14,8.89,2.41,2.94,4.78,5.91,7.3,8.77,5,5.74,9.96,11.51,15.16,17.07.01.33-.28.28-.52.3-1.03-2.09-3.34-3.18-4.44-5.22-.38.09-.42-.02-.73-.23.07-.17.15.07.37.06-.07-.41-.79-.3-.66-.85-.34-.07-.32.33-.65.28.02-1.27-1.16-2.29-2.32-2.99-.54-.87-.99-1.82-2.01-2.32,0-.15.05-.21.15-.23-1.4-.93-2.34-3.05-3.52-3.43.02-.34.23-.21.05-.49-.15,0-.13.21-.16.35-.86-1.92-2.74-2.5-3.53-4.56-.56.2-.78-.94-1.09-1.33-.52-.65-1.33-.77-1.21-1.35-.74-.35-1.2-.9-1.29-1.74-.38-.22-.14.38-.52.16-.21.05-.13-.61.06-.49-.65-.12-.63-.73-1.13-.96-.02-.22.12-.21.27-.2-.75-.23-.89-.91-1.47-1.27.47-.44.02-.08-.05-.64-.18.13-.47.08-.61-.11.11-.09.16-.25.18-.47-.77.05-.62-1.17-1.7-1.44.02-.21.13-.3.29-.32-.81-.71-2.18-2.77-2.67-2.74-.41-.37-.28-1.13-1.11-1.2.01-.63-.34-1.49-.81-1.41-1.78-2.9-4.01-5.11-5.86-8.11-.19-.07-.22.07-.38.05.04-.37-.09-.39-.12-.9-1.56-1.19-2.31-3.87-4.28-5.14.02-.22.19-.23.19-.46-.57-.63-1.26-1.17-1.58-1.97-.18.17-.66.76-1.28.22.14-.39.42-.34.26-.83.14-.26.77.05.57.38.52.04.14-.83-.16-.54-.12-1.3-1.54-1.71-1.64-3.02-.63.13-.91-.61-.79-1.31-.2-.09-.24.04-.28.19-.34-1-1.11-1.71-1.43-2.72-.17,0-.23.17-.4.16-.6-1.37-2.25-2.68-2.22-4.03-.12-.02-.12.13-.16.21-.79-1.42-1.95-2.59-2.44-4.2-.98-.72-1.73-2.51-2.47-3.75-.35-.18-.29.28-.64.1-.1-.08-.2-.16-.2-.3.97-.23-.25-1.17-.31-1.73-.48.11.15.39,0,.64-.21.33-.44-.2-.58-.27.59-1.11-.64-1.74-.75-2.72-.35-.18-.29.28-.65.09-.13-.06-.04-.26-.2-.3.07-.16.32-.03.5,0,.04-.35-.11-.57-.51-.63-.15.08-.12.44-.43.27-.05.24.3.24.15.54-.45-.06-.22-.57-.77-.57.26-.52-.11-.64-.2-.94.31-.29.25.54.65.54.16-.8.32.09.6.15.04-1.06-.5-.61-.59-1.54-.23-.04-.15.39-.33.42-.12-.03-.06-.17-.07-.27-.26,0-.29.13-.19.33-.65-.12-.74-.59-1.38-.72,0-.33-.08-.46.23-.57-.22-.32-1.02-.27-.99-.75.03-.27.44.05.62.03.03-.38-.46-.35-.6-.15-.37-.09,0-.64-.37-.72.09-.18.4,0,.33-.42-.77,0-1.65-1.06-1.12-1.42-.26-.3-.21-.79-.85-.84.31-.78-.76-.95-.35-1.48-1.11.15-.45-1.68-1.53-1.9-.22-.74-.83-1.24-.97-2.04.07-.34.26.38.29-.18-1.31-.6-1-2.19-2.03-2.96-.06.21.09.29.02.52-.06.12-.26.02-.29.18-.22-.5-.15-1.17-.41-1.64-.23.03-.06.22-.08.36-.18.3-.15-.38-.57-.28.18-.14.2-.27.1-.48-1.07.12-.47-1.38-1.42-1.65.02-.39.22-.51.58-.36.14-.36-.25-.4-.23-.7-.17,0-.16.28-.22.45-.43-.02-.48-.27-.67-.43.07-.2.26-.22.53-.11-.61-.36-.69-1.05-1.06-1.56.09-.18.4,0,.34-.42-.94.16-1.43-1.78-2.09-2.09.25-.39-.22-.94.39-.66-.13-.37-.34-.28-.6-.16-.25-.29.44-.82-.15-1.06-.16.3.19.31.14.54-.14-.06-.22-.03-.27.06-.45-.78-.5-1.79-1.56-2.2.42-.22.33-.26.54-.74-.36-.1-.39.34-.51.62-.85-.05-.15-1.02-.9-1.13-.02-.63.65-.13.75-.56-.44-.12-.61.19-.94.25-.44-.13.09-.47-.14-.54.07-.15.32-.02.51.01-.06-.33-.53-.62-.69-.31.16-.83-.28-.55.02-1.26-.59-.33-.5-.45-.64-1.08-.23.05-.26.45-.67.19l-.14.6c.16.29.46-.1.27.46.19.1.25-.03.29-.17.25.49,1.34,1.86.44,2.03-.08.25.41.17.57.28-.13.44-.5.38-.8.16,0,.21.53.97.67.44.32.26.2.78.83.86-.08.24-.53-.11-.65.08-.13.44.92.88.15,1.06-.05.3.39.13.39-.02.19.27.34.56.3.97.17,0,.23-.16.41-.14.24.1.17.39.4.49-.11.09-.26.12-.41.14.71.48,1.09,1.16,1.37,1.9-.1.3-.17-.22-.48-.13-.07.35.4.39.21.82-.35-.21-.55-.5-.42-1-.75.14-.55-1.11-1.23-1.35.44,1.13,1.16,1.92,1.55,2.84.38.02-.06-.29.1-.48.71.24-.31.88.4,1.12-.02-.19-.11-.35-.14-.55.51-.03.16.46.67.43,0,.27-.22.18-.41.14.05.14.25.2.16.43.57-.18,1.1,1.32,1.35,2.02-.26.35-.06-.44-.43-.37.77.97,1.43,2,1.86,3.18-.07.15-.32.02-.5,0-.16.55.49.48.69.31.37.4-.42.27-.29.81.43.32.15-.51.46-.39.37.65,1.21,1.01,1.11,1.96.65-.09.59.34,1,.65.03.37-.23.27-.24.57.61.29.83.82,1.11,1.32-.2.28-.43-.29-.55-.4-.09.5.46.96,1.02,1.16.02.39-.38.15-.36.54-.37-.06-.4-.5-.7-.31.59.97,1.19,1.48,2.14,2.06.06.56-.6,0-.6.48.56.78,1.18,1.53,1.28,2.6.73.1.52.63.58.91.24.06.22-.29.53-.12-.09.89,1.57,1.76.96,2.27.69.89,1.12,2.48,1.98,2.9-.09.74.65.94.43,1.76.62.07.47.63,1.14.66.04.37-.23.27-.23.58,1.14,1.77,2.45,3.43,3.16,5.48.21-.08.51,0,.3-.31.73,1.61,1.51,3.18,2.8,4.43.42.23.13.92.43,1.23.14,0,.12-.22.28-.19.16.54.37,1.23,1.11,1.64l-.12.73c1.42,1.26,2.19,2.96,3.02,4.61.1,0,.14-.09.26-.07,1.5,2.84,3.6,5.28,5.3,7.99.72.09,1.61,2.15,2.43,3.27.44.61,1.05.89,1.03,1.6l.49.1c-.29.66.87.82.77,1.67,1.38.88,2.08,3.09,3.54,4.26l-.06.49c1.84,1.54,2.65,3.82,4.59,5.29.19,1.13,1.5,1.45,1.7,2.57.77.19.65,1.02,1.35,1.25.74,1.55,1.93,2.78,3.16,3.97,1.07,1.54,2.31,2.95,3.55,4.36,1.27,1.39,2.54,2.77,3.65,4.28l.49.08c.17.07-.01.22-.15.23,1.48,1.37,2.35,2.52,3.87,3.88l-.05.49c.28.26.58-.28.71.37-.07.18-.15-.07-.37-.06.07.26.39.51.59.35,1.18,1.42,2.37,2.81,3.57,4.19,1.22,1.36,2.47,2.69,3.73,4.01,2.51,2.64,5.06,5.23,7.62,7.79,2.55,2.58,5.22,5.04,7.82,7.58,2.62,2.52,5.2,5.09,7.81,7.66l.37.04c1.17,1.61,3.18,2.5,4.17,4.26.32.19.94.02.6.43.37.04,1.06.51,1.2,1.11l.49.05c.45.53.83,1.11,1.56,1.4,1.97,2.72,5.13,4.36,6.83,7.31l.49.04c.08.68.86,1.29,1.33,1.22,0,.22-.16.25-.14.48.63-.26.55.23.61.54.99.26,1.62,1.1,2.43,1.93,0,.21-.1.31-.26.35.13.25.65-.19.73.43.12,0,.1-.14.13-.24.3.09.25.5.73.43.04.21-.1.22-.25.23.38.07.98.32,1.34.73-.14.48-.37-.06-.74-.06,1.06.5,1.94,1.16,2.93,1.71v.62c-.35.2.32.04.12-.36.66.06.9.45,1.6.73-.18.34.37.7-.13.61.12.31.57-.13.61.66.54.06.04-.35,0-.49.77.15.91.87,1.72.98-.02.14-.23.09-.37.1.05.2.39.13.24.51.23-.44.36.1.86.06.64,1.56,3.14,1.55,3.42,3.19.75-.33,1.33.45,1.84.74-.4.36-.65-.45-1.11-.44-.02.22.15.27.12.5-.53-.21-1.25-.23-1.72-.49.67-.58-.94-.96-1.22-1.07.43,1.03,1.84,2.03,3.06,2.18-.04.17-.31.08-.49.09.47.32,1.29,1.13,1.84.62.36.13-.08.39,0,.62,1.11.35,1.57.81,2.83,1.16.98.97,1.97,1.92,3.58,2.29.49.65,1.7,1.27,2.47,1.24,1,1.46,4.66,2.02,5.42,4.47.36-1.16,1.38.5,1.97-.27.28.39,1.35.03,1.24.79,2.04.64,3.45,1.88,4.21,3.73.37-.03.75-.04.86-.33.29.14.4.44.37.87.48-.09.53.23.74.4.41-.25.55-.03.98-.21.04-.28-.36-.15-.37-.38,1.27.39,2.66,1.72,3.1,3.32.56-.33,1.03-.07,1.35.42,1.68-.14,3.21.36,4.57,1.02v.74c.28-.5.87.24,1.36.29-.05.11-.1.22-.24.24,1.1.7,2.06,1.43,3.34,1.58,1.11.79,2.61,1.83,4.08,1.85.61.69,2.53,1.12,3.33,1.33,1.36.36,2.53.74,3.82.72-.24-.24-.04-.45-.01-.73.36-.02.38.29.74.27-.2-.42-.56-.32-.5-.75-.72.13-.7-.99-1.24-.64-.27-.02-.06-.52-.13-.74-.5-.3-.95-.64-1.37-1.02.66.05.85.2,1.85.17-1.69-1.27-3.88-3.14-6.43-3.99-.24-.09-.33-.34-.38-.62-.11.08-.18.22-.24.36-.19-.18-.48-.27-.74-.39.26-.82-1.36-.62-2.09-.56.02-.38.48-.32.86-.34-.25-.1-.36-.53-.13-.74.57.04.41.33.98.15.04-.32-.69.09-.5-.38-.35-.11-.32.16-.61.1-.11-.06-.22-.11-.25-.25.2-.2.67-.13.86-.34.1.03.12.13.25.13-.51.23.32.46.62.63.02.22-.15.26-.12.49.75.35,1.46-.18,2.09.19-.17.27-.86.02-1.23.08.22.23.83.57.98.15.41.8,1.55.88,2.47,1.18-.19-.55-1.05-.45-1.6-.66.8-.37,1.75.19,1.85.91.81.15,1.59.35,1.85,1.04,2.34.64,3.62,2.31,5.82,3.1-.05-.61-.6-.73-.51-1.48-.48-.23-.83-.59-.88-1.25-.2-.04-.21.11-.37.11.13-.67-.53-.55-.63-.99.01-.27.3-.26.61-.23-.1-.57-.73-.61-.99-1.01-.11-.4.4-.16.36-.48-.32-.66-1.04-.45-1.73-.91.16-.49,1.07-.12,1.47-.08-.1-.11-.13-.28-.13-.49-.12,0-.09.15-.12.24-.41-.09-.3-.49-.74-.27-.02-.22.15-.25.12-.49-.63-.2-1-.67-1.36-1.14-.31,0-.47.16-.48.47-.28.03-.47-.03-.62-.14.11-.38.3-.67.48-.96.58.42,1.82.68,2.45.32.92.62,1.89,1.2,2.47,2.15.27-.68.71.05.99.39-.16.34-.32-.33-.62-.26.07.59.94.4,1.36.65.08.4-.44.16-.12.49.48-.34,1.37.48,1.73,1.03.75-.02,1.03.58,1.73.9.45-.37-.38-.53-.5-.75.68.17,2.21.74,2.6,1.9,1.03,0,2.4,2.25,3.58,1.32.33.59,1.03.22,1.24.77-.2.22-.39-.1-.61.23,1.44.55,3.06.87,3.92.1-.06-.42-.31-1.02.1-1.22-.28-.8-1.23-1.54-.65-2.46-.58.1-.92-.49-1.35-.16.02.14.22.11.37.13-.1.35-.18.13-.49.11.06-.39-.05-.62-.26-.74-.04-.32.16-.4.48-.35-.12-.2-.33-.29-.49-.13.02-.82-1.26-1.28-2.11-1.64-.17-1.23-1.68-1.15-2.84-1.42v-.25c.93-.37,1.67.28,2.45.19.04-.29-.23-.27-.13-.61-1.75-.36-2.2-1.24-3.7-1.8.02-.1.12-.12.12-.24.46.29,1.34.54,1.85.41.01-.35-.37-.29-.38-.62-.17.33-.4.23-.49-.14-.1.22-.27.38-.48.48-.23-.5-1.29-1.06-1.6-.41-.34.05.3-.45-.13-.49.08-.16.38.12.49-.23-.22-.29-.9-.03-.98.22-.26-.08.17-.46.11-.73-.51-.15-.47.25-.85.22-.3-.02-.03-.4.12-.36-.15-.37-.47.07-.61.11-.05-.1-.16-.51,0-.73.37-.08.45.14.74.14-.17-.58-.76-.3-.98-.03-.51-.37-.94-.74-1.72-.54-.16-.49.35-.28.36-.6.35.15.65.35.98.52,0-.48.24-.72.73-.71-.04-.28-.33-.29-.49-.14.25-.32-.28-.31,0-.73-.67,0-.98-.33-1.48-.77.08-.26.64.01.49.38.1.02.11-.04.12-.12h.24c-.03-.45-.51-.48-.86-.63.12-.37.49-.47.61-.84-.38.13-.28,0-.73-.02-.09-.37.12-.44.12-.73-.26-.06-.32.08-.49.11-.05-.3.22-.26.12-.61-.52-.23-.86-.64-1.23-1.01.1-.43.3,0,.73-.1-.02-.34-.58-.17-.49-.62-.1.1-.33.06-.36.23-.69-1.13-2.2-1.46-2.96-2.52-.14.01-.1.22-.12.36-.3,0-.59,0-.74-.14.7-1.19-1.49-.94-1.84-1.64,1.01-.7,1.45.19,2.33.31-.08-.46-.83-.34-.5-.87l-.73-.02c-.05-.26.08-.32.12-.48.16.18.6.07.61.39.17-.36.31,0,.61-.23.19-.75-1.2.02-.98-.76-.61.06-1.24.1-1.83.18-.08-.41.21-.44.49-.47.1-.51-.33-.49-.49-.75-.12.2-.34.3-.73.22.05.19.38.12.25.5-.35-.07-.56-.28-.61-.63l-1.1-.04c.25-.45.4-.17,0-.61-.13-.46.46-.18.37-.6-.67.5-.84-.03-1.71.06-.27-.47-.65-.84-.85-1.37-.86.29-1.33.04-2.08-.07-.12-.45.53-.11.61-.34-.62-.51-2.01-.26-2.69-.09.45.72,1.42.09,1.96.31,0,.21-.09.31-.24.36.05.27.67.14.61-.1.05.99,2.5.55,2.56,1.92-1.13.28-2.13-.63-2.69-1.31-1.22.44-2.05-.49-2.94-1.2.59-.14.99-.29,1.47-.68-.43.08-.47-.2-.86-.15.09-1.2-1.12-.41-1.1-1.5-.87-.29-.6-.18-1.34-.54.06.27-.23.17-.25.36-.26-.08-.35-.32-.74-.27-.06-.51.43-.3.61-.1.21-.33-.85-.69-1.1-.41-.22-.27-.71-.29-.6-.88-.31-.38-1.3-.13-1.46-.67.12-.57.83-.53,1.35-.68-.49-.41-1.18-.1-1.7-.8.01-.45.19-.39-.12-.61-.43.01.3.47-.13.48.16.21.31.43.6.51-.22.4-.24.31.12.62-.02.14-.22.09-.37.11-.27-.06,0-.65-.24-.74-.1.1-.33.06-.37.23-.31-.12-.38-.44-.6-.64.07-.25.19-.25.37-.11.18.06-.05.15,0,.36.21-.15.48-.23.5-.59-1.8.1-2.6-.76-3.89-1.14,0-.17-.02-.35.13-.36-.26.12-1.24-.18-1.71-.56.26-.36,1.09.15,1.22-.07-.09.44.21.45.12,0-.99-.41-1.77-.9-2.31-1.44.21-.61.92.39,1.35-.06-.26-.22-.21-.43-.61-.27-.5-1.13-2.91-1.66-3.89-2.37-.02-.35.8.19.62-.33-.46.22-.86,0-1.22-.19.12.25.2.53.47.64-.02.1-.12.11-.13.24-.59-.17-.5-.97-1.32-.93-.01-.22.15-.25.13-.48-.58-.03-.66-.5-1.08-.67,0-.21.1-.31.25-.35-.05-.24-.47-.12-.35-.51-.21-.06-.23.08-.25.23-1.08-1.21-1.95-1.88-3.23-2.86.04-.21.22-.27.49-.22-.15-.22-.48-.27-.6-.52-.45-.15-.2.45-.62.33-.03-.53-.42-.72-.96-.78-.04-.3.23-.25.14-.6-.25.02-.25.32-.5.34.01-.69-.31-.26-.84-.66-.04-.3.23-.25.14-.6-.15.04-.25.14-.25.35-.56-.22-.99-1.47-.56-1.86-.81-.37.1.82-.63.82-.2-.22.03-.32-.1-.74-.52-.07-.63-.64-1.22-.31-.27-.27-.62-.54-.34-1l-.61-.04c-.11.55.34-.16.23.38-.62.26-1.18-.98-2.03-1.24.33-.14.49-.4.86-.19-.08-.76-.96-.07-1.45-.46.12-.66-.51-.64-.95-.8.02-.68-.49-.89-.93-1.16.18-.34.41.24.73.17.07-.3.53-.17.63-.44-.7,0-1.24-.45-1.94-.38.02-.21-.23-.27-.34-.63.23-.48.79.7.74-.19.43-.04.28.45.72.42.12-.46-.89-.52-.45-.89-.42,0-.54-.32-1.08-.44.52-.46-.34-.37-.33-1-.73-.05-.98-.53-1.56-.72-.26.23-.14.73.21.75-.46.37-.75-.43-.95-.68.14-.24.5-.25.62-.2.16-.23,0-.42.27-.71-.58.5-.5-.23-1.21-.21-.2.45.33.26.22.62-.23-.19-.66-.19-.59-.65.06-.18.16.06.37.03.04-.21-.19-.33.02-.36-.03-.41-.49.29-.36-.27-.15.26-.24.58-.64.56-.29-.31.19-.21.15-.6-.31-.04-.39.16-.5.33-.12-.09-.12-.29-.36-.27-.04-.59.72-.3.77-.8-.23.08-.5.12-.63.32-.48.04-.12-.68-.71-.54-.07-.38.14-.43.15-.72-.52-.05-.61-.47-.82-.8-.58.24-.89-.35-1.18-.71-.03-.3.55.11.38-.34-.65.07-.75-.44-1.17-.83-.38-.14-.19.39-.5.33-.41-.32.31-.41.17-.84-.17-.16-.3-.17-.49-.04.13-1.27-1.55-.97-1.72-1.98-.62.16-.68-.04-1.33-.23-.12-.11.07-.42-.21-.63.25-.36.52.23.84.2-.16-.58-.69-.64-1.18-.71-.18-.42.1-.41.17-.84-.32-.18-.28-.49-.72-.31l.03-.48c-.24.42-1-.15-.81-.8-.64.21-.61-.15-.82-.56-.46-.06-.05.1-.14.35-.31,0-.28-.3-.47-.41.08-.52.23-.35.52-.44-.25-.28-.43-.63-.29-1.24.14,0,.21.05.23.14.2-.26-.46-.75-.67-1.03.43.85-.09,1.09.38,1.86-1.09-.13-.25-1.04-.77-1.41-.26.26-.1,1-.44,1.18.08-.39-.36-.8-.17-1.23-.43.06-.71.3-1.13.39.52-.33.2-.63.19-1.08.06-.28.58-.02.52-.44-.3.07-.36,0-.63.31-.17-.16-.14-.62-.35-.16-.17-.2-.16-.55-.18-.88.19-.18.54.58.85.08-.53-.15-2.46-1.25-1.47-1.62-.15-.22-.63-.15-.57-.55-.85.25-.98-.87-2.01-.82.32-.49-.3-.65.18-.84-.1-.31-.48.12-.85-.09-.4-.54-.66-1.2-1.49-1.38.31-.37-.17-.71-.45-.54.18-.49-.22-.5-.18-.87-.16.24-.07.35-.3.7-.26-.22-.26-.74-.17-1-.24-.4-.53.15-.56-.67-.13.06-.15.26-.38.2.33.22.48.58.53,1.03-.41-.49-.78-1.01-1.24-1.47.03-.1.13-.11.14-.23.31.12.41.76.82.45-.1-.52-.88-.38-.89-1.19-.17,0-.35-.02-.36-.16-.15.04-.26.13-.27.34-.47-.1-.48-.59-.93-.71-.07-.35.2-.29.17-.59-.38-.12-.2.42-.5.07-.04-.39.45-.12.16-.47-.26-.1-.19.21-.38.2-.12-1.68-1.94-2.28-2.27-3.45.04-.22.41-.03.5-.19-.18-.49-1.1-.38-.87-1.21-.15.04-.26.13-.28.34-.35.06-.3-.21-.59-.19-.03-.27.19-.21.38-.2,0-.34-.36-.38-.43-.66-.14,0-.12.21-.15.35-.34.05-.22-.27-.46-.3.09-.11.29-.09.27-.33l-.48-.06c-.02-.3.24-.24.18-.59-.64-.56-1.28-1.13-1.79-1.81l-.04.36c-.14-.19-.59-.13-.57-.44-.03-.27.19-.21.39-.2-.17-.52-1.09-.95-1.37-1.03.19-.33.12-.54-.3-.65.03.56-.23.25-.51.18.64.51.48,1.08,1.19,1.62.18-.03,0-.11.02-.24.41-.1.05.4.46.3-.15.48-.06.41-.09.97-.37-1.02-1.81-1.62-1.84-2.55-.1.01-.13.11-.25.09-.35-.15.3-.15.17-.47-.88.03-.88-.64-1.12-1.12-.46.18-.66-.12-.81-.47.34-.12.8-.09.91-.5.25.13.42.56.7.33-.26-.22-.2-.28-.06-.62-.39.13-.47-.1-.74.03-.29-.14-.22-.57-.68-.57.26-.66-.5-1.05-1.09-1.36.39-.34.15-.55-.42-.67.07-.14.18-.23.39-.19-.17-.61-.98-.71-1.2-1.28-.23-.02-.13.39-.4.31-.29,0,.13-.54-.32-.41.02-.21.13-.3.28-.33-.11-.27-.35.31-.47-.19,0-.28.08-.45.29-.45-.47-.19-.6-1.1-1.12-.9-.02-.3.25-.23.19-.59-.41.33-.35-.31-.33-.29-.44-.44-1.09-.17-1.11-1.02-.46.22-.72-.5-1.02-.76.09-.11.29-.08.28-.33-.6.13-.45-.53-1.16-.54-.36.11-.08.63.17.64.04.17-.55-.07-.59-.21-.42.12.17.37.19.52-.06.16-.31.06-.5.05-.12-.08.11-.72-.53-.69.02-.3.04-.59.31-.57.04-.44-.51-.41-.38-.91-.23.08-.4.33-.62.03.61-.24,1.37,0,2.05.29-.13-.26-.16-.61-.26-.89-.21,0-.5.19-.47-.19-.16.02-.22.18-.39.19-.42-.16.02-.3-.04-.74-.52.5-1.55-.65-1.08-1.26-.33.26-.23-.29-.71-.23-.06.41.46.38.4.79-.26.19-.47-.58-.64-.83-.15.08-.34.11-.62.03-.28-.04.08-.32.27-.21-.09-.32-.55.02-.53.29.22.09.18.38.58.33-.08.17-.21.28-.3.45-.45-.17-.28-.81-.75-.97.2-.27,1.12-.11.81-.62-.3.37-.26.05-.61-.09.36-.35.36.09.19-.58-.28.17-.39.22-.74.01.42-.51-.58-.37-.37-1.03.72.77,1.65,1.09,2.07,2.26.18-.7.7.47,1.12-.08.04-.21-.12-.28-.06-.5-.54.22-.67-.61-.5-.93-.23.5-.6-.05-.8.5-.12-.2-.49-.21-.43-.55.11-.31.41.57.39-.19.41-.09.04.4.45.31.01-.22.18-.23.18-.46-.76-.05-.5-.44-.28-.77-.57.43-.88-.73-1.35-1.05-.37.05-.16.16-.18.46-.81-.1-.96-1.21-1.57-1.11-.05-.41.34-.2.42-.43.29.36.67.66.83,1.12.27,0,.45-.15.54-.41-.21.01-.21-.13-.21-.28-.11.04-.23.07-.27.2.11-.7-1.08-1.43-1.65-1.37.81-.35-.05-.76.3-1.31-.21-.03-.3-.14-.33-.3-.46.15.17.37.04.62-.19.34-.68.08-1.35.03.13-.61.61,0,.89-.23,0-.55-.24-.25-.67-.48-.07.24-.28.28-.42.43-.23-.09-.03-.48-.43-.44-.05.51.75.38.47,1.06.54.14,1.05.31,1.25.7-.07.25-.35-.23-.45-.32-.34.05.03.55.21.28-1.24,1.11-1.71-1.83-2.96-2.58-.01.17-.03.34-.17.34-.08.31.45.17.29.54-.16.18-.82-.18-.65-.6-.21.39-1.08.12-.93-.4.01-.14.6.19.55.46.33-.4.51-.15.91-.35-.07-.42.09-.41,0-.86.52.38.47.88,1.45,1.1.1-.54.34-.22.23-.83-.22.18-.25.62-.79.37-.35-.46-.56-1.03-1.04-1.4,0,.28-.09.45-.31.44.09.26.24.47.4.68-.2.13-.52-.05-.72-.12-.01-.21.13-.21.27-.2-.12-.54-.46.19-.69-.36.18-.18.51-.16.67-.38-.88-.1-1.08-1.43-2-1.56.08-.22.37-.16.32-.56-.35-.14-.36-.53-.91-.52,0,.29-.08.46-.2.58-.41-.21-.52-.63-1-.78.15-.36.96-.36.83.26.09-.31.49-.2.56-.52-.69.07-.74-.39-1.5-.74-.16.37.37.23.29.54-.34.24-.36-.37-.81-.38.01-.22.18-.23.19-.46-.85.4-.59-.83-1.22-.94.35-.57.76.27,1.1.06.01-.12-.14-.12-.22-.16-.09-.41.4-.03.31-.44-.39-.09-.45-.64-.71-.24-.48-.01-.21-.57-.52-.7.14-.19.49-.26.48.08.43-.4-1.05-.61-.45-1.18l-.72-.12c.02.26-.13.3-.19.46-.37-.15-.11-.35-.03-.62-.87-.02-.65-.84-.96-1.78-.68-.13-.79-1.47-1.55-1.89-.33.23.14.36.15.65-.43.16-.86-.6-1.08-.94.26-.37.32.45.6.11,0-.34-.03-.58.11-.72-.26-.07-.9-.08-1.33-.12-.33-.25.18-.51.13-.84-.08-.2-.87-.44-.38-.69-.77-.28-1.05-.89-1.37-1.49-.02-.48.6-.03.57-.51-.5-.26-.33.42-.78.23-.43-.17.1-.6.15-.96-.28-.09-.21-.42-.4-.57.22-.08.36-.27.36-.67-.11.06-.36.12-.36-.07-.31-.03.13.24-.08.48-.38-.01-.29-.36-.4-.57-.29-.02-.06.45.04.5-.14.14-.36.18-.54.27-.21-.26.04-.45-.44-.33.09-.53.3-.1.54-.27-.02-.43-.35-.15-.6-.11-.35-.25-.41-.7-.71-1,.19-.17.56-.09.78-.22-.12-.39.22-1.08-.29-1.29.22-.58.4-.81,0-1.48,0,.29.15.54-.12.72-.35-.08-.4-.36-.52-.59-.24-.04-.21.3-.52.15.23.25.22,1.04.6.85-.13.16-.24.35-.54.27-.21-.22.27-.45-.42-.45-.09-.41.4-.02.32-.43-.38.35-.64-.05-.66-.5-.39.01-.26.32-.08.48-.22-.03-.23-.19-.46-.21.1-.2-.03-.73.24-.69-.05-.15-.82-.33-.28-.55-.04-.32-.87.08-.92-.42.06-.16.32-.04.5-.03-.21-.39-.29-1.3-.8-1.14-.13-.06-.35-.66.08-.48-.48-.59-1.49-1.11-2.45-.75-.14-.15-.18-.37-.41-.46.04-.45.64-.07.6-.62.51.15.32.28.39.58.46.18.74.08.8-.33-.12-.02-.12.13-.16.22-.28-.13-.59-.23-.51-.6.08-.3.18.21.48.1.16-.39-.46-.25-.25-.67-.76.34-.83-.78-.83-1.54-.41-.06-1.02.08-.72.6.28-.37.36.02.43.34-.07.16-.21-.03-.22-.17-.23.34.5.92.62,1.37-1.28-.82-2.11-2.85-3.35-4.05.05-.14.24-.06.38-.05-.03-.26-.1-.49-.53-.48.37-.42-.14-.33-.11-.77.02-.32.65.25.54-.26-.64.05-.47-.28-.7-.89-.5.03-.92-.09-.73-.77-.49-.02-.42-.42-.91-.44.45-1.42-1.21-2.3-1.63-3.93-.29.24-.77.09-.43-.34-.36-.18-.47,0-.64.11-.09-.08-.19-.15-.19-.29.24-.11.39-.34.78-.21,0-.6-.66.29-.53-.48-.58.22-.49-.02-.79-.42.07-.26.35-.19.64-.11-.86-.43-1.22-1.72-2.41-1.65-.38-.24-.15-.4-.24-.68.08-.34.55-.09.59-.49-.36-.14-.51.04-.66.23-.16-.41-.32-.16-.66-.4.24-.46,1.02-.31,1.23.03,0-.22.16-.22.14-.09.08-.77.07-1.76-1.2-2.02.02-.39.6.09.57-.37-.57,0-.58-1.01-.94-1.46-.21-.06-.28.09-.5.01.1-.1.3-.06.31-.3-.2-.25-.15-.02-.47-.11.05-.12.25-.03.29-.18.09-.51-.37-.66-.66-.4.05-.13.02-.22-.07-.27.05-.13.24-.05.38-.04-.43-.69-.59-2.1-1.41-2.19-.04-.92-.45-.41-.42-.97-.8,0-.86-.3-1.49-.59-.08.29.11.41.12.65-.4-.06-.16-.52-.5-.61.05-.13.24-.05.38-.04-.27-.48-.27-1.13-.54-1.62.05-.13.24-.05.38-.04-.11-.24-.15-.52-.5-.61-.93.27-.8-1.89-1.77-2.27.43.93.93,1.82,1.29,2.79-.37-.17-.41-.57-.57-.88-.41.1.17.43.11.65-.24-.06-.47-.11-.71-.17.03-.22.2-.22.22-.45-.58-.49-1.22-.04-1.42-.95.21-.22.61.29.93.34.15-.13.2-.41.46-.39-.2-.08-1.31.12-1.35-.69.07-.2.26-.22.53-.13.06-.47-.98-.18-1.09-.75,0-.43.52-.04.48-.51-.1-.05-.12.02-.14.09-.19.14-.29-.37-.62-.02-.02-.17-.24-.72-.55-.38-.05-.21-.34-.27-.26-.56.25-.18.84.16,1.03-.13-.2-.13-.49-.31-.78-.44.02-.3.27-.21.25-.57-.37-.38-.54-.89-.82-1.34.08-.26.26.23.59.15-.13-.71-1.2-.21-.99-1.12-.16-.11-.64-.01-.56-.27-.31-.05.12.24-.11.48l-.35-.09c0-.61-.56-.88-.53-1.51.36-.25.78.33.57.77.3.09.55.21.65.41-.17-.23,0-1.14-.73-1.19.03-.44.48-.19.51-.62-.69.04-1.19-.87-1.65-1.54.16-.34.23.18.47.12-.2-.31.14-.32.16-.71-.46-.26-.51-.78-1.02-1.01.11-.82-.43-.48-1.4-.98.24.3.61.51.67.92.19.09.24-.04.29-.18.23.13.35.33.36.59-.02.25-.33-.11-.33-.21-.17.24-.37,1.39.3,1.45-.28.51.26,1.31.74,1.69-.1.31-.33.33.16.41,0,1.06.36,1.89,1.06,2.52-.48.34.39.88-.21.95.22.03.36.29.63.53.06-.21-.09-.29-.01-.51.16.11.26.25.42.35-.08.13-.2.21-.4.15-.11.34.18.43.08.77.18.08.23-.06.38-.03-.1.3-.17.59.25.56-.03.19-.15.44.02.5-.01.29-.53-.19-.43.27.74-.07,1.31,1.35,1.11,1.88,0,.37.28-.05.48.11.09.04.09.15.21.17.01.38-.28.3-.27.68.76.19.98,1.38,1.3,2.17.38,0,.41.22.69.29.08-.57-.45-.12-.5-.61.34.03.24.02.45-.39.77.17.79.75.52,1.12-.39-.03.08-.6-.38-.59.2.33-.11.75-.5.63.3.46.4,1.06.68,1.53-.48.12-.28.08-.24.57-.25-.18-.3-.5-.19-.92-.23-.04-.16.37-.43.27.28.2.24.61.45.85.31.06.32-.34.38-.66.37.35.42.9,1.02,1.11.23-.07.32-.34.57-.37.39.37-.37.25-.27.69-.09.16-.14-.08-.35-.08-.21.75.73,1.51.52,2.37.84.29.91,1.08,1.28,1.67-.23.44-.57-.19-1,.02,0,.63.83.24.21.8.32-.02.56-.17.71-.46.51.4.76.96.92,1.59.65-.2.77.44.95.84-.05.14-.24.05-.38.04-.15-.07-.04-.32-.02-.51-.13-.05-.22-.02-.26.07l-.24-.05c0,.39.59.38.31.95-.3-.05-.23-.33-.4-.47-.44.16.1.55.09.77-.91-.08.26.64.26,1.19.2-.18.67-.35.87-.05-.49.04-.24.43-.64.73.14.01.2.08.21.18.3-.4.57.13,1-.02.07.24.07,1.13.75,1.29-.01.39-.36.27-.57.37.1.53.33.92.26,1.29.16.03.32.07.48.1l.09-.48c-.58,0-.3-.57-.47-.84.53.14.32.77.83.92-.87.57.17,1.03.15,1.89-.05-.28-.4-.36-.37-.7-.37.22.17.72.33.94.23-.06.4-.21.66-.23.37.32-.23.45-.25.69.21,0,.21.14.2.29.45-.29.68.06.49.72.32-.53.23,0,.86.06-.11.68-.69-.29-.71.47.6-.23.65.14,1.1.11-.09.58-.61-.19-.76.09.23.36.29.43.79.42-.08.53-.33-.13-.52.14-.07.97.65.77,1.26,1.26-.05.28-.27.31-.25.69.54.1.44.62.85.8-.12.22-.41.2-.56.38-.2,0-.19-.16-.34-.2-.02-.34.29-.18.42-.28-.37-.39-.71-.35-.95-.95.1.39.06.87.43,1.09-.03.38-.29-.38-.38.04-.09-.43-.39-.72-.55-1.11-.14,0-.12.22-.28.19-.34-.18.21-.27.11-.6-.21-.04-.29-.15-.32-.32-.89.57-.28-.84-1.09-.85,0-.39.47-.23.23-.57-.42-.02-.52.45-.95.42-.08.33.31.35.25.67.14.01.14-.2.18-.33.41.08.38.45.49.73-.22.22-.28-.15-.62,0-.25-.26-.33-.63-.73-.78,0-.39.47-.23.23-.57-1.35.23-1.68-1.85-2.37-2.74.16-.17.57.03.67-.23.48.94.82,1.98,1.48,2.8.34-.04.03-.5-.3-.43.09-.39-.18-.64.35-.55-.22-.2-.45-.4-.63-.63.15-.19.51-.05.47-.52-.56.04-.48-.12-.65-.51-.02-.39.37-.16.35-.54-.22-.59-.93-1.05-1.41-1.17.12-.07.13-.31.31-.31.34.07-.35.26.2.29-.02-.62-.56-.89-.59-1.5l-.83-.19c.09-.27.28-.41.28-.81-.67.02-.34.5-.52.76-.43-.1.14-.86-.45-.86.06-.53.76-.08.76-.7-.12-.02-.12.12-.17.21-.61-.4-.75-1.11-1.02-1.74-.5-.1-.5.58-.28.81-.31-.18-1.16-.01-1.02-.49.18-.31.28.25.5,0,.22-.35-.37-.18-.14-.53-.38.01-.35.27-.74-.05.03-.27.17-.36.43-.28.02-.59-.8.01-.76-.55.14-.25.69.12.69-.34-.35-.17-.46.02-.74-.05-.1-.08-.19-.15-.19-.29.22-.17.49.24.76-.07-.27-.35,0-.41.07-.98-.19-.86-1.02-1.34-1.38-1.82.78.08-.47-1.37-.59-2.01.4-.21.39.72.97.73-.04-.83-1.12-.86-.92-1.59-.14-.01-.14.19-.19.33-.47.02-.28-.37-.67-.4.35-1.01-.79-1.3-.47-1.98-.76-.46-.63-1.11-1.47-1.34.15.28-.04.15-.1.47-.99-.51-.34-1.26.22-1.69-.41,0-.59.33-.96.4-.12-.37-.37-.66-.4-1.09.12-.23.41.28.69.29-.12.18-.46-1.28-.71-1.41-.05-.21.34-.46.29-.18.34-.23-.18-.3-.28-.44-.14-.01-.15.19-.19.33-.42-.58-.14-2.07-1.05-2.64l.13-.6c-.23-.06-.08-.36-.42-.36.37-1.12-.79-1.29-.47-2.38-.79-.44-.92-1.28-.87-2.23.48.26.65.19,1.03.39-.48-.73-1.44-1.16-1.21-1.81-.6.4-1.21.05-1.77.68-.15-.42-.19-.91-.33-1.34-.62.43.61,1.5-.19,1.96-.26-.04.04-.43.01-.62-.49.22-.4-.59-.98-.63.27-.1.53-.21.54-.74-.33.25-.55.06-.97-.12.13-.4.23-1.05-.2-.8.03-.39.36-.4.16-.71.18-.32.21-.09.5,0-.14-.36-.27-.73-.67-.92.08-.4.65-.03.73-.44-.19-.06-.84.19-.68-.3-.2.06-.48-.02-.46.38-.42-.32-.32-.29-.83-.21-.34,0,.21-.54-.13-.53-.49-.17-.17.36-.25.56-.18-.16-.1-.49-.37-.6.1-.27.58.07.58-.35-.37.1-.46-.44-.16-.42-.84-.1-1.04-1.03-.93-1.99-.18.08-.46,0-.65.08.05.41-.05.27-.16.71.24.12.26-.11.32-.29.49.55.44,1.43.64,2.17-.58-.37-.32-1.24-.89-1.61.08.32.16.65.14,1.04-.35-.19-.16-.72-.84-.72.1-.27.46-.11.49-.5-.21-.04-.22-.21-.45-.24,0-.27.22-.18.41-.15.05-.23-.29-.23-.13-.53-.46.18-.51-.46-.95-.25,0-.55.49-.28.54-.73-.41-.16-.56-1.01-.35-1.22-.55-.3-.09-.57-.55-.89.16-.33.23.18.47.12.05-.6-.52-.84-.54-1.4-.32-.03-.42-.01-.79.16-.08-.3-.5-.69-.88-.49-.05-.42.4.01.35-.41-.04-.28-.45-.34-.33-.72-.36-.17-.42.12-.59-.16.1-.39.69.06.91-.13.32.05-.27.63.24.57.3-.28-.1-.84-.5-1.02-.01-.36.24-.26.26-.56-.48-.23-1.23-.83-.97-1.15,0-.18-.2-.07-.26.05-.22-.24-.47-.46-.27-.96-.38-.01-.3-.3-.68-.31.43.18-.12.95.5,1.02-.23.44-.56.21-.47.88-.75-.14-.29-.59-.32-.72-.53-.09-.09.46-.41.65.32.01.41.16.26.45.39.03.31.32.59.16.02-.35-.3-.44.14-.59.23.1-.1.53.24.57-.2.3-.5.02-.38.53.41-.45.18.34.35.6-.06.1-.53.28-.5,0,.13.2-.06.98.33,1.23-.46.66.23.88-.22,1.46.36.31.64.07.88.49-.07.15-.32.02-.5,0-.27.6.2.76.21,1.2.26,0,.29-.12.2-.33.48,0,.32.53.68.31-.05.06-.4.38-.11.47-.18.32-.21.09-.5,0-.02.55.58.74.3,1.45.85-.33,0,.77.84.72-.5.2.02.43-.28.68-.22-.24-.49-.46-.29-.95-.76.13-.7-.88-.65-1.55-.24.11-.47.21-.89.02,1.14.3.3,2.76,2.04,2.66.22.52.62.92.66,1.55.26,0,.29-.12.2-.32l.71.18c.14.12.16.31.13.54-.37-.08-.25-.46-.78-.45-.06.34.11.55.05.89l.47.12c.09.12.13.26.16.42-.07.25-.35.18-.65.08.21.64.88-.13.99.63.16-.01.28-.09.32-.3.22.07.38.18.42.36-.82.1-.27,1.36-.3,1.93-.45-.33-.69-1.7-1.21-1.32-.29-.44-.31-1.04-.68-1.43-.44.21.21.62.17.92-.41-.23-.25-.33-.8-.34.52-.57-.2-.48.36-1.04-.5-.21-.65.12-.84.41-.31-.21.14-.49.16-.71-.28-.07-.3-.3-.68-.3-.02-.36.24-.26.25-.56-.56-.11-.13-.18-.25-.57-.44-.21-.47-.67-.94-.87-.02-.41.36-.16.46-.38.35.29.42,1.17.96.75-.08-.23-.48-.26-.66-.42.09-.08.17-.16.2-.32-.52-.13-.59-.18-.49-.63-.53-.26-.5.37-1.03.11-.09-.05-.09-.15-.21-.18.03-.39.38-.26.58-.35.23-.41-.22-.42-.08-.77-.19-.1-.24.03-.29.17-.45-.34-.03-1.21-.95-1.27-.23-.97-.92-1.4-.81-2.38-.52-.03-.39-.45-.59-.67-.41.12-.42.27-.79.16-.11.55-.01.49-.23.95.45-.05.28-.13.76-.04.29.27.23.75.8.85-.15.35-.72,0-1.03.1-.08.3.51.71.04.9.18.57,1.01.76.75,1.6-.4-.17-.45-.55-.83-.74.05.24.26.39.06.78.35-.1.4-.03.18.3.86.27.43,1.32.98,1.77.04.39-.31.14-.53.11-.14.36.25.4.22.69.18-.29.44-.45.48-1,.11-.09.26-.12.41-.14.14.16.17.38.25.57-.09.17-.4,0-.34.41.24.12.33,0,.5,0,.12.06.03.26.19.3-.2.37-.27-.06-.53.11-.33-.11-.02-.6-.49-.63,1.11,2.51,2.57,4.82,3.5,7.45.69-.22.84.72.5,1.14.41-.04.57-.47.99-.5.41.34-.19.66.29.96-.05.13-.24.04-.38.03.15.43.72.6.76,1.08-1.06.04.12,1.16-.09,2.12.33.21.27-.21.34-.42.35.62.1.4.27,1.08.18.02.12-.35.31-.3.14.12.17.31.13.54.16-.07.35-.08.62.03.43.19-.24.47.37.6-.07.2-.26.22-.53.12.34,1.03.04,1.03.94,2.01-.08.13-.2.21-.41.15.85.44.88,1.39,1.58,1.92-.08.09-.15.19-.29.18.16.28.55.42,1.02.51,0,.33-.13.42-.43.27.75.78.52,2.17,1.87,2.57.01.39-.37.15-.36.54-.24-.06-.09-.36-.43-.35.57.62,1.56,1.22,1.79,2.31.39-.09-.15-.72.48-.51-.05.58-.08,1.05.24,1.31.6-.07-.17-.33-.12-.66.49.07.49.46.74.68-.23.16-.52.24-.81.31.59.68,1.47.88,1.75,1.92-.05.12-.25.03-.29.18-.06.21.1.29.02.51.45.1.37-.05.72.17-.13.12-.22.29-.24.57.39.27.54.7.79,1.07-.07.29-.4-.07-.33-.21-.25.57.67.86,1.22.79.06.51-.35.29-.67.22.34.52,1.26.66,1.36,1.33,0,.24-.58.05-.33-.2-.25.29-.17.65.05,1.02-.1-.1-.38-.38-.38.04-.18-.1-.03-.4-.43-.35-.1.42.33.49.34.83.13-.22.62-.25.6.14.19-.01-.02-.16.07-.36.32.21.55.49,1.15.52.04.48-.48.08-.48.52.37.07.62.44.95.22.32.69.59,1.54,1.01,1.87.17-.1.28-.3.64-.1-.25.51-.74.22-.42.91-.42,0-.34-.34-.53-.5-.35.27.5.65.55,1.01.14-.05.18-.25.4-.16,0,.34.22.43-.04.87.35.17.39-.13.75.04.19.19-.34.84.47.85,0,.3-.27.21-.23.57-.31-.05-.34-.27-.42-.47.04,1.56,1.9,2.84,2.61,4.31-.18.14-.45.14-.76.08.09.33.5.44.47.85.3.09.41-.1.54-.26.45.64.59,2.28,1.97,2.3-.17.43-.42-.08-.64.11.3.48.4.57.57,1,.16,0,.22-.17.4-.16.46.39.21,1.75.97,1.58-.05.28-.27.31-.24.7.23.16.71.16.52.61.96-.17.69,1.37,1.59,1.59-.18.04-.1.46-.32.43.4.26.91.45.68,1.15.28.02.46.12.58.25-.08.08-.16.17-.18.34.27-.09.54.31.2.29.36.09.57.51.69,1.03.24-.3.39-.12.6.13-.04.14-.24.06-.38.05.15.44.55.7.7,1.13-.54-.05-.2-.42-.71-.27.08.26.13.56.39.7-.06.16-.32.04-.5.02-.19-.27.08-.85-.49-.84.32.25-.34.51,0,.75-.25.31-.48.05-.73-.14.07-.24.36-.18.54-.27-.01-.41-.43-.27-.7-.27-.16-.25-.45-.41-.36-.83.3.59.72.1.9.57.35-.04-.2-.55.42-.29.42.12-.48.24-.06.36.57.17.2-.07.32-.43.1.08.2.15.2.29.03-.49-1.02-1.16-1.18-1.88-.3.43-.27-.22-.62,0,.25.33.53.64.98.84-.81.82-1.34-.58-1.85-.77-.02-.78.68-.51.8-1.09-.48.29-.2-.57-.78-.54.23.18.5.93-.04.99.18-.73-.51-.21-.58-1,0-.44.48-.21.48-.65l-.6-.13c-.02.17-.04.35-.18.34-.81-.45-1.14-1.22-1.81-1.77-.18.45.22.49.24.8-.52-.25-1.2-.86-.75-1.42.08.23.28.38.68.4.32-.1-.15-.41.2-.46-.38-.41-1.21-.42-.79-1.17-.4.02-.34-.27-.42-.47-.11.08-.34,0-.4.16-.12-.7-1.26-1.29-.91-1.95-.25-.3-.59-.53-.86-.81.11-.09.25-.13.4-.16-.04-.37-.4-.01-.6-.13.03-.45.39-.44.71-.47-.1-.42-.54-.73-.17-1.16-.35.09-.44.56-.95.42.1.6.73-.24.78.54-.21.28-.46.28-.76.08-.51-.47-.21-1.49-.79-1.92.25-.47.4.09.72.16.04-.38-.36-.47-.64-.64-.08.08-.16.17-.18.33-.21-.14-.02-.38-.34-.2,0-.61-1.02-.53-.63-1.39-.35.17-.82-.42-.5-.73-.77.16-1.22-.54-1.29-1.16-.19-.08-.23.07-.38.04-.01-.54-.51-.84-.03-1.14-.28-.07-.55-.13-.83-.2-.09-.66.57-.16.62-.61-.5-.13-.65-.49-.7-.92-.27.11-.7-.05-1,.02.15-.39.8-.01.85-.55-.69.45-1.28-.53-1.27-1.18-.38-.29-.78.04-.91-.47.26-.15.74-.06.33-.43.16-.22.51-.15.88-.04.04-.1-.02-.12-.1-.15l.05-.24c-.34-.11-.42.18-.76.07-.46-.24.15-.56.09-1.11-.46-.09-.23-.62-.6-.77-.21.56.08.79.43.98-.17.11-.22.39-.26.69-.14-.37-.43-.12-.36-.72-.36-.24-.17.37-.52.13.14-.55-.4-1.19-.65-1.79-.24.03.06.59.24.69-.49.46-.89-.32-.98-.74.2-.44.36.5.48.12.12-.61-.44-.13-.5-.62.97,0-.84-1.07-.49-2-.41.02-.93-.43-1.51-.61.66-.37-.68-1.21-1.01-1.25.02-.17.05-.34.19-.33-.3.02-.25-.45-.77-.56.37-.57-.33-.52-.82-.95.1-.21.38-.13.36-.54-.98-.68-.97-1.39-1.82-2.2.11-.23.41-.15.22-.45-.59.35-.57-.37-.32-.84-.34.43-.96.14-1.04-.4.28-.36.29.47.59.15.06-.21-.09-.29-.02-.51-.26,0-.31.3-.5,0,.06-.17.36.05.41-.15-.11-.6-.42-.62-.66-.42-.36-.3.45-.28.13-.6-.32.27-.64.02-.95-.24.34-.4-.13-.24.03-.75-.31.19-.52-.21-.51-.51.15-.13.18.1.41-.15-.52.16-.75-1.32-1.35-.73.03-.4-.78-.28-.73-.69.18-.41.38.11.85.1-.05-.35-.38-.53-.44-.87-.99.44-1.19-.85-1.53-1.03.29-.15.62.15.83.22,0,.21-.14.2-.29.18.04.43.36.1.66.42-.22-.56-.39-.62-.07-1.41-.36-.2-.31.25-.55.23.25-.78-1.4-2.18-1.62-2.95-.11-.07-.67-.45-.74-.07-.56-.19-.16-.93-.76-.58.05-.34.4-.21.58-.35.15.08.03.32.01.51.43.06.35-.46.77-.05-.23-.39-.47-.31-.99-.64.08-.08.16-.16.2-.33-.4-.1-.08.27-.46.38-.28-.14-.15-.53-.64-.55.36,1.37,1.04,2.54,1.7,3.73.06.42-.41,0-.34.42.18.28.29.09.59.16-.1.48-.69.17-1.15.08-.38-.65-.17-1.78-1.13-2.32-.15-.22,0-.62-.2-.81-.19.41-.19.32-.33-.21-.31-.17-.29.17-.53.11.2-.91-.3-.78-.6-1.29.02-.3.27-.2.25-.57-.3.23-.66.12-.69-.31.02-.3.53.21.44-.26-.21,0-.2-.15-.19-.3-.13.06-.3.06-.5,0-.23-.75-.38-1.11-.35-1.86-.7.25-.16-.59-.73-.7.18-.32.27.23.6.16-.19-.26-.43-.5-.44-.87-.16-.11-.65-.03-.57-.28-.32.33-.34.21-.89.02.44.53.13,1.05.72,1.33-.16.48-.37-.03-.46.38.41.18.64.06.79-.17.22.11.24.34.54.4-.46.31.07.65.32.84-.19.38-.47-.15-.89.02.12.33.25.26.57.28-.06.17-.21.56.03,1.02.19-.12.54.02.86.1-.18.24-.5.28-.54.74.34.07.23.42.37.6-.22.02-.28.31-.46.38.64.72,1,1.6,1.34,2.5.74.17.38,1.02.98,1.27-.26,1.26,1.64,1.66,1.03,2.8.36-.01.27.25.57.28-.15.37-.04.58-.06.87-.37-.2-.23-.63-.78-.46.47-.11.07-.3,0-.63-.42,0-.16.24-.1.48-.57-.14-.58-.61-.8-.97.06-.23.45.2.42.36.3-.36-.58-.89-.72-1.33-.17.35.28.32.11.66-.34-.75-.86-.79-1.34-1.37.03-.33.64.29.55-.23l-.48-.13c-.11-.84-.85-1.47-1.38-1.76.67.19.11-.46-.06-.9-.21.07-.5-.01-.32.3-.87-.19-.08-.78-.8-.97.08-.35.37-.37.61-.47-.02-.28-.71-.31-.84-.22-.37-.2-.09-1.19-.68-.94-.08-.14-.2-.77.04-.75-.53-.08-1.13-.86-1.27-1.73.41.3.32.29.93.38.01-.35-.04-.67-.03-1.02-.22-.17-.37.54-.41.14-.46.09.22.34.28.45-.44.35-1.31-.34-1.04-1.03-.28-.52-1.53-.47-1.35-1.27l-.47-.13c0-.34.3-.16.44-.26-.06-.38-.82-.34-.69-.83.18-.32.36.18.59.17-.7-.74-1.47-1.37-1.23-2.26-.17-.24-.26-.53-.74-.59-.02.25-.11.37-.32.29.18-.52-.79-1.06-.7-1.86.3.06.58.14.53.41.16-.3-.31-1.12-.52-1.55-.57-.14.15.27-.14.6-.4-.11-.31-.5-.74-.59-.09.13-.21.2-.41.14-.09.32.14.3-.11.48-.08-.09-.16-.18-.33-.22.32-.72.11-.74.07-1.38.51.04.09.63.6.68.17-.34-.12-.41.05-.75-.2.33-.85-.23-1.01-.54.05-.13.24-.04.38-.02.23-.41-.21-.42-.07-.78-.22-.04-.17.38-.35.41-.57-.38-.52-1.14-1.02-1.56-.39.22.29.35.21.7-.04.09-.15.09-.18.2-.09-.47-.43-.41-.83-.75-.4.26-.05.56.39.49.01.47-.65-.08-.35.41-.36-.1-.76-.59-.89,0ZM160.57,154.75c.47.09.34.56.45.88-.4-.13-.44-.5-.45-.88ZM172.92,179.43c-.47-.02-.56-.71-.75-.05-.48-.29-.67-.78-.79-1.31.43.01.27.18.87.07-.01.18-.12.44.04.51.16.04.15-.19.28-.19.06.36.62.38.34.96ZM324.58,314.66c.4.03.59-.27.62.26-.17.18-.64.1-.62-.26ZM330.64,307.76c.53.24.64.22,1.35.16-.12.4.17.4.49.38-.05.46-.03.52-.24.97.56.09.58-.38.73-.71.38.64-.23,1.18-.85,1.2,0-.87-1.25-.5-1.48-1.14.04-.48.38.1.49-.23-.34-.05-.72-.39-.5-.62ZM289.37,272.13c-.45-.03-.38-.52-.72-.65.46.01.65.28.72.65ZM269.56,252.96c.12-.31-.33-.7.05-.85-.13.43.52.7-.05.85ZM255.96,237.22c.09.23.48.21.32.65-.32.03-.66-.5-.32-.65ZM184.56,138.86c-.21-.31-.43-.62-.38-1.1.14.29.72.85.38,1.1ZM183.88,148.05c-.33.18-1.1-1.17-.5-1.24-.12.6.65.62.5,1.24ZM168.7,121.25c.17,0,.27-.11.5,0-.08.22.07.3,0,.51-.34-.07-.64-.16-.5-.52ZM179.44,162.92c-.47-.66-.65-.97-.94-1.61.58.36.85.93.94,1.61ZM170.13,148.59c-.1-.26-.59-.81-.29-.96.15.22.67.76.29.96ZM166.04,140.82c-.1.07-.77.13-.57-.27.11-.25.68.06.57.27ZM149.23,125.46c0-.22-.16-.02-.36-.1.33-.5-.52-.31-.19-.82.55.03.79.76.54.92ZM153.81,137.33c-.15-.19-.51-.25-.37-.61.58.1.38.55.37.61ZM157.95,149.21c-.3.15-.59-.33-.47-.76.45.07.44.43.47.76ZM159.25,151.47c-.34-.15-.62-.87-.28-1.09,0,.42.48.55.28,1.09ZM164.64,126.73c.25.54.78.9.91,1.5-.67-.24-1.05-1.11-.91-1.5ZM158.52,161.21c-.35.17-.68-.36-.61-.78.56.04.63.38.61.78ZM161.89,144.92c-.14-.26-.54-.37-.47-.76.34.08.86.58.47.76ZM165.96,125.94c.15-.24-.45-.53.02-.63.05.25.53.59-.02.63ZM166.49,126.34c-.33.38.05.29.1.65-.2-.05-.14.31-.32.29-.19-.39.14-.45-.37-.6l.08-.36c.17,0,.26-.11.5.01ZM166.41,128.33c-.19-.23-.61-.31-.46-.75.51.03.57.34.46.75ZM165.08,142.34c.22.07.38.18.42.36-.44-.19-.99.46-1.1-.16.26-.34.6.21.67-.2ZM168.06,130.52c-.16-.04-.32-.08-.48-.12l.08-.35c.4,0,.33.28.4.48ZM169.71,123.29c.43-.43-.22-.28-.21-.69.44-.33.92.93.21.69ZM166.25,143.91c0,.68,1.05.84.55,1.53.46-.23.77.3.73.7-.55-.66-.98-.22-1.73-.7.41-.66-.23-.23.15-.72-.34-.31-1.14-.89-.86-1.24,0,.1.31.47.33.21-.24-.2-.35-.48-.32-.84.38.04.32.35.23.69.36.1.52.6.92.37ZM162.76,157.6c-.37.22-.55-.27-.65-.54.3-.17.66.21.65.54ZM166.24,141.63l-.1.48c-.28-.04-.44-.15-.42-.36.35.25.17-.36.53-.11ZM170.65,126.3c-.47-.03.06-.65-.49-.63.05-.36.53-.29.28-.68.84.2,0,.82.21,1.3ZM169.22,133.2c-.36-.09-.8-.13-.63-.54.16.21.77.15.63.54ZM170.14,128.55c.25-.52,1.23-.08,1.16.43-.28.17-.6.08-.74-.07.37-.24-.05-.38-.42-.36ZM167.98,149.3c.36-.24-.05-.38-.42-.36-.1-.21-.07-.34.1-.48-.68-.31-.49-1.16-1.19-1.45.03-.35.65-.37-.02-.51.05-.39.62-.77.67-.21-.15-.02-.29-.04-.29.18.85-.45,1.15.58,1.68.94l-.13.6c.22.28.83.32.7.82-.54.15-1.05-.49-1.18-.94-.06.14-.15.04-.24-.06.13.27-.02.71.18.93.65.12,1.19.3,1.06.91-.37-.61-.59-.25-.92-.37ZM169.76,133.59c.23.05.17-.37.44-.26-.23.35.36.19.13.54-.38-.08-.58.13-1,0l.08-.36.36.09ZM162.96,169.15c-.15.25-.77-.07-.56-.39.22.11.76.02.56.39ZM165.34,162.53c-.6.14-.49-1.08-.37-.72.07.27.5.32.37.72ZM171.94,131.14l-.47-.12c.05-.14.05-.34.2-.33,0,.21.45-.05.28.45ZM172.09,134.95c-.21-.07-.3.05-.32.3l-.59-.15c-.08-.26-.03-.6-.05-.89.24.3.66.49.96.75ZM172.17,131.2c.31.01.49-.18.7-.32-.05.24.29.23.13.53-.88-.29.08.69-.42.77.03-.43-.87-.83-.35-1.22l-.05.24ZM171.9,136.91c.44-.44-.28-.51-.29-.96.77-.21.98.82.29.96ZM172.13,137.6c.1.31-.4.37-.11.48.25.03.3-.26.55-.24l-.1.48c-.19-.04-.41-.12-.41.15-.3-.06-.58-.13-.54-.39.15.02.29.04.29-.18-.31-.18-.34.09-.62-.03.05-.51.62-.17.93-.26ZM171.54,140.86c-.5-.14-.68-.47-.53-1.02.42.19.53.57.53,1.02ZM172.93,132.28c.41.27.18.92.62,1.16-.5-.12-.56-.37-.82-.84.14.01.17-.16.2-.33ZM169.93,150.69l-.47-.12c.18-.39.06-.59-.37-.6l.08-.36c.49.22.57.69.77,1.09ZM173.37,134.27c.02-.32-.28-.45-.2-.8.37.02.56.67.2.8ZM167.35,166.56c-.46-.27-.4-.88-.78-1.2.56-.16.7.72.78,1.2ZM174.38,131.4c.14-.15.42-.07.64-.09.19.16.31.36.37.6-.17.21-.46.23-.7.32.73.03.79.48,1.08.78-.31.63-.05.87.04,1.52-.52,0-.72-.97-.92-1.49-.04.21-.16.28-.32.3-.28-.45-.23-.65.13-.59-.3-.29-1.21-1.2-.69-1.93.02.49.23.23.37.6ZM173.42,137.43c-.44.11-.72.1-.78-.45.3.51.53-.09.78.45ZM174.16,132.97c0,.24.19.36.1.66-.39-.05-.56-.68-.1-.66ZM170.6,151.74c.02.16.11.28.31.33l-.12.6c.67.28.45.6,1.06,1.01-.24-.06-.22.29-.53.12.08-.47-.26-.67-.58-.89-.16.27-.38.45-.82.3-.04-.29-.16-.53-.07-.9.38.07.34.42.79.44.21-.31-.32-.78-.05-1.01ZM170.38,152.19c-.38-.11-.47-.4-.34-.83.33.14.25.54.34.83ZM174.77,135.26c.06.42-.4,0-.34.42-.3-.09-.42-.29-.37-.6.19-.12.6-.02.71.18ZM167.51,171.04c-.3-.09-.61-.18-.53-.51.39.03.46.27.53.51ZM175.07,134.46c-.02.23-.19.23-.22.44-.32-.04-.35-.26-.25-.57l.47.12ZM173.76,144.45c-.03.21-.11.37-.22.45-.28-.28-.67-.49-.53-1.02.49.04.24.54.75.57ZM175.21,136.13c-.03.57.61.72.59,1.28-.18-.44-.96-.51-.88-1.1.16.04.15-.18.29-.18ZM174.72,138.9l.47.12c-.11.2-.17.48-.37.54.17-.34-.27-.31-.1-.66ZM175.77,135.27c.25-.02.08-.73.49-.5.24.37-.31.19-.28.68l-.59-.15c.12-.19-.24-.58.13-.59.19.13.11.41.25.57ZM172.02,154.72c-.05-.42-.48-.09-.51-.62.41,0,.95.44.51.62ZM175.75,141.05c-.21-.25-.52-.44-.58-.78.52.06.48.46.58.78ZM169.26,174.51c-.22-.11-.51-.17-.41-.48.27-.18.59.07.41.48ZM175.69,144.19c-.07-.34-.38-.52-.29-.96.42.06.54.83.29.96ZM173.08,156.36c.28.31.37.74.53,1.13-.51-.12-1.17-.95-.53-1.13ZM179.36,137.06c-.45-.14-.06.09-.2.33-.4,0-.08-.43-.39-.48-.25.5.07.64.03,1.01-.09.14-.4.72-.55.24.37-.02-.09-.34.13-.6-.62-.03-.3-.64-.69-.81.21-.44.2-.64-.03-1.01-.19-.05-.14.31-.31.3-.01-.9.52-.72,1.3-.8-.02.24-.21.19-.32.3.19.05,0,.35.16.42.04-.21.11-.36.22-.45.4.13.27.48.59.15.1.18.29.3.11.65-.22,0-.26-.25-.36-.09.16.24.25.53.31.83ZM178.29,140.81c.26-.17.33.14.56.27-.35.4.22.63.26,1.07-.64-.07.2.32-.15.72-.36-.23-.24-.75-.53-1.02-.78-.32-1.51.36-1.65-.42.52.27,1.7.24,1.51-.63ZM171.35,176.8c-.12.17-.58-.17-.55.25.48.27.56-.07.89-.04-.07.22.09.3.04.51-.69.13-1.01-.09-1.63,0,.19-.9.08-.97-.07-1.67.46.15,1.05.39,1.33.96ZM174.23,158.15c-.37.07-.61-.13-.65-.53.29.13.45.35.65.53ZM179.11,134.86c-.23-.04-.17.37-.43.27-.31-.3.33-.69.43-.27ZM178.23,142.81l-.95-.24c.03-.15-.11-.2-.04-.39.27-.27.97.15.98.63ZM174.48,158.83c-.04.3.15.43-.21.45.05-.24-.3-.23-.15-.54l.36.09ZM176.97,150.03c-.08.62-.74.06-.69-.29.38,0,.31.29.69.29ZM179.15,138.01c.1.14-.03.64-.37.54.05-.3.11-.58.37-.54ZM175.19,159.01c-.07-.01-.14-.02-.14.09.21.04.29.17.31.33-.39-.1-.62-.31-.62-.65.18.06.45.06.45.24ZM176.41,157.92c.09-.41-.58-.33-.48-.74.38.05.87.55.48.74ZM182.05,132.84c-.4.06.05.39.21.18-.05.3-.27.32-.46.38-.13-.38-.29-.18-.46-.74.29-.04.55-.02.71.18ZM174.35,182.14c-.39-.03-.29-.38-.4-.59.39.03.52.23.4.59ZM179.79,154.71c-.32-.04-.36-.26-.26-.56.32.04.36.26.26.56ZM177.86,165.31c0,.49-.66.33-.48-.12.32.09.28-.14.48.12ZM180.25,156.2c.51.13.86.91.5,1.25.2-.58-.48-.6-.69-.92.28,0-.11-.22.19-.33ZM176.57,186.18c-.31-.26-.63-.52-.59-1.02.39.19.92.68.59,1.02ZM184.89,140.2c.02-.23-.28-.77.07-.86.22.08.24.8-.07.86ZM184.83,148.9c-.2.47.12.62.04,1.01-.44-.1-.2-.63-.88-.58.11-.28-.17-.31,0-.62.46.18.35.15.83.19ZM181.84,166c-.03.43-.17.68-.59.49-.09-.27.23-.59-.08-.9.47-.02.28.38.67.41ZM187.7,145.83c-.42-.11-.81-.25-.88-.58.42.11.98.14.88.58ZM185.2,156.36c-.32-.04-.36-.26-.26-.56.32.04.36.26.26.56ZM186.49,152.41c-.4-.13-.7-.31-.59-.76.39.14.44.48.59.76ZM186.44,155.15c-.03.58.62.71.76,1.18-.67.09-.76-.5-1.16-1.02-.15,0-.28.13-.21-.17.16-.07.35-.08.62.02ZM185.42,164.83c-.54-.17-.74-.57-.93-.97.56.16.74.57.93.97ZM189.43,147.11c-.3-.08-.37-.31-.52-.49.33-.01.45-.34.81-.31.01.43-.27.41-.29.8ZM188.39,146.12c.28-.35,0-.42.05-.86.4.45,1.43.34,1.04.99-.39-.35-.66-.12-1.09-.13ZM188.84,147.59c.19-.34-.54-.61-.09-.77.18.26.46.47.3.94-.21-.06-.3.05-.31.3-.34-.13-.54-.34-.62-.64.22.01.53.47.71.16ZM188.01,155.39c.02-.29-.37-.32-.24-.68.33,0,.51.63.24.68ZM187.44,154.5c.31.11.19-.44.55-.25.08.4-.47.6-.55.25ZM187.18,157.07c.39.03.43.28.66.4-.18.39.03.54.1.78-.35-.22-.27-.07-.71-.17.19-.31.24-.48-.26-.56.03-.21.1-.37.21-.45ZM184.61,175.65c-.45,0-.54-.4-.84-.19l.04-.24c-.07-.02-.14-.05-.1-.15.41-.1.87.13.9.57ZM181.14,192c.03.27.32.32.04.52-.43,0-.4-.57-.04-.52ZM189.62,148.02c-.17-.2-.24-.47-.21-.8.5-.07.37.78.21.8ZM185.92,172.44c-.37-.18-.57-.47-.6-.88.38.18.57.47.6.88ZM190.96,151.2c0-.21-.16,0-.36-.08-.14-.35.27-.64-.33-.82-.27.13.11.55-.36.54-.19-.29-.18-.54.05-.86.66.13,1.34.79.99,1.23ZM186.98,168.55c.11.38.74.43.57,1-.46-.08-.53-.43-.9-.57.01-.28.11-.44.33-.43ZM189.48,158.61c.07.16.09.36,0,.63-.46.02-.36-.7,0-.63ZM191.6,152.34c-.16-.04-.27,0-.38.04-.07-.16-.09-.36,0-.62.3.09.42.28.38.59ZM190.29,160.17c-.17-.2-.76-.13-.64-.52.36.08.58.25.64.52ZM190.47,163.1c-.53-.06-.18-.43-.69-.28.03-.21.1-.37.21-.46.43.07.59.32.48.74ZM189.56,161.39c-.11.49.66.41.43.98-.57.02-.79-.74-.43-.98ZM191.41,153.92c-.5.04-.3-.36-.24-.68.37.04.17.45.24.68ZM190.67,161.39c-.41,0-.34-.34-.52-.5.33-.22.63.12.52.5ZM191.81,161.91c-.55-.18-.67-.33-1.09-.13-.18-.26.12-.34.24-.57.38.03.43.28.66.4.01-.15-.16-.32.07-.36.45.34.31.73.27,1.19-.17,0-.26.12-.5.02-.03-.4.26-.33.35-.54ZM191.77,163.51c-.61-.3-.9-.81-1.11-1.37.71-.37,1,.72,1.11,1.37ZM193.47,152.27c-.36-.28-.43-.76-.64-1.14.39.27.7.58.64,1.14ZM192.76,155.86c-.21.1-.58.31-.59-.14.08-.05.62-.15.59.14ZM194.06,154.28c.09.51-.52-.07-.55.25-.02.29.55.2.38.59-.58-.18-.69-.66-.9-1.08.37-.11.5.38,1.07.24ZM191.31,164.65c.76.18.45,1.13-.1,1.22.13-.41.3-.46.1-1.22ZM192.28,164.11l-.6-.13c.05-.14.04-.34.18-.33-.1.31.69.03.41.46ZM193.75,158.96c-.03.33-.31.25-.54.25.02-.15-.12-.2-.05-.39l.59.13ZM194.58,156.65c-.15.33-.42.5-.83.43.03-.51.62-.69.83-.43ZM192.81,163.24c.47,0,.33.63.11.77-.57-.14-.11-.3-.11-.77ZM195.45,157.85c-.05.21-.05.38.02.51-.4-.24-.16-.51-.78-.43.37-.41-.15-.42-.07-.89.47.14.33.68.83.81ZM196.09,160.35c.18-.78-1.04-1.19-.66-1.76.24.46,1.46,1.3.66,1.76ZM195.79,159.91c-.24-.05-.21.29-.52.14,0-.17-.13-.26-.03-.5.32.25.47-.04.55.36ZM197.72,162.3c-.16.35.29.3.13.65-.27-.1-.5-.23-.53-.49.18,0,.24-.15.4-.16ZM197.47,171.93c-.21-.23-1.03-.75-.33-.94-.15.42.64.76.33.94ZM195.21,184.34c.04.47-.67.36-.62,0,.28.11.3-.17.62,0ZM197.67,171.48c-.32-.03-.26-.31-.27-.55.26.11.71-.23.74.03-.23.06-.29.37-.47.52ZM198.45,171.27c.05.5-.67.52-.64.11.17-.1.28-.3.64-.11ZM199.75,166.08c-.26.49.42.35.23.79-.48-.2-.7-.58-.94-.94l.72.15ZM199.01,170.89l-.48-.1.06-.36c.4-.02.34.26.41.46ZM198.49,173.15c.61.13-.02.48.21.92-.28-.17-.47-.71-.21-.92ZM198.78,174.33l-.08.48c-.35.02-.8-.43-.39-.58-.03.3.4.12.48.1ZM196.97,186.57c-.17-.14-.11-.42-.15-.65.81.95,1.6,1.9,2.01,3.13-.72.07-.16-.75-.75-.77-.03.31.17.42-.2.46-.23-.32.16-.39.13-.84-.57-.07-.26-.75-.88-.79.08.24.29.37.13.77-.3,0-.23-.27-.59-.24-.08-.33.59-.32.21-.58-.31-.1-.17.45-.54.27-.15-.11-.19-.3-.17-.53.22-.13.64.02.78-.22ZM199.48,172.48c-.16.6.4.72.41,1.21-.41,0-.47.42-.88.06-.05-.47.32-.33.46-.53-.23-.16-.29-.44-.65-.51.01-.39.32-.33.66-.23ZM200.67,167.88c-.39-.09-.85-.13-.77-.53.28.17.83.14.77.53ZM198.66,177.18l-.48-.1.06-.36c.32.03.51.15.42.46ZM201.81,178.21c.14.08.22.21.18.41-.72-.27-.03-1.16-.11-1.52l-.6-.12c.04-.85-.41-1.35-.92-1.82-.39.17-.8.15-1,.04.52-.41-.37-.14-.25-.68.69.21,1.15.42,1.79.37-.3.89.95,1.25,1.42,1.79-.19.03-.59-.27-.62,0,.38.13.48.45.89.56,0-.15-.17-.32.06-.36-.05.43.84.76.43,1.09-.05-.49-.96-.66-1.09-.1.53-.31.9.84.69,1.02-.17-.28-.49-1.21-.87-.68ZM202.71,178.02c.15-.11.56.07.69.27-.31.02.16.37.01.63-.46-.14-.54-.55-.71-.9ZM200.53,167.98c.34.3.54.69.66,1.13-.37-.25-.99-.76-.66-1.13ZM200.07,172.61c-.02-.2-.36-.18-.15-.53.44-.14.43.54.15.53ZM200.79,174.13c-.31-.04-.79-.51-.37-.7.03.3.34.41.37.7ZM201.7,169.71c-.21.14-.62-.12-.53-.48.39.02.46.25.53.48ZM199.19,189.99c-.35.16-.36-.4-.74-.02-.06-.5.79-.34.74.02ZM199.82,190.73c-.31.22-.48-.22-.97-.19l.06-.36c.42.11.93.14.91.55ZM202.05,176.14c-.18-.14-.8-.5-.37-.7.07.27.43.35.37.7ZM203.29,173.28c-.32-.03-.51-.15-.41-.46.32.03.5.15.41.46ZM203.3,179.64c.11.21.3.36.4.57-.41-.06-.68.11-.82-.28.23.03.15-.38.42-.29ZM203.74,181.57c-.04.21-.03.38.04.5l-.24-.05c-.02.07-.04.14-.14.1.04-.62-.37.11-.62,0-.02-.24-.31-.28-.15-.65.47.18.71.02,1.11.09ZM204.39,179.85c-.05.17-.03.45-.2.45-.11-.42-.75-.48-.57-1.1.48.21.32.63.77.64ZM199.18,216.11c0,.39-.31.34-.66.26.03-.17-.02-.28-.08-.39.18-.14.6-.06.73.13ZM202.34,193.84c.32.14.42.42.37.82-.41-.04-.95.31-.95-.31.43.01.77,0,.57-.51ZM204.69,183.37c-.2-.27,0-.5.22-.58-.69-.27-1.17-1.25-.82-1.89.12.83.81,1.39,1.36,1.62-.25.04-.37.26-.46.53.32-.18.36-.18.6.12,0,.24-.2.21-.3.31.48-.12.23.07.45.33.14-.41.52-.01.44.33-.24.17-.39-.18-.84-.16-.27-.55-.09-.73-.65-.62ZM206.9,173.77c-.03.58.82.39,1.01.58-.15.56-.41.08-.89.19.18-.34-.23-.27-.43-.34.02-.28.11-.44.32-.43ZM205.85,182.35c.09.4.31.71.45,1.08-.3-.11-.53-.27-.67-.5.2.06-.36-.61.22-.58ZM207.56,177.13c-.18.14-.75.07-.7-.26.2.11.73,0,.7.26ZM208.65,175.74c-.38.02-.32-.27-.7-.26-.04.3.17.42-.2.45-.07-.28-.61-.77-.19-1.03.41.17,1,.22,1.09.83ZM206.37,184.55c-.24.36.62.48.15.65-.22-.15-.72-.56-.15-.65ZM207.88,181.26c-.31-.21-.46-.53-.75-.76.21-.11,1.08.5.75.76ZM208.6,176.83c-.16-.04-.27,0-.38.05.02-.27-.44-.75-.1-.88-.02.4.6.36.48.83ZM208.64,187.46c-.52-.3-1.02-1.01-1.49-1.52-.09.22-.12.51-.44.41.52-.5-.07-.4-.09-1.01.46.07.61.28,1.02-.18-.43,1.02.81,1.4,1,2.3ZM202.74,220.77c-.07-.32-.67-.26-.54-.72.26.12.89.53.54.72ZM206.04,198.92c-.12.3-.02.45.31.43-.22.59-1.25.2-1.31-.38.59.22.6.18,1-.06ZM209.47,178.35c-.47-.31-.59-.86-.91-1.28l.36.07c.07.48.48.73.55,1.21ZM207.21,190.3c-.18-.31-.79-.88-.43-1.2.03.41.88.81.43,1.2ZM208.09,188.6c-.03.59.5.79.54,1.34-.61-.18-.99-1.09-.9-1.41,0,.19.25.13.36.07ZM210.01,178.83c-.2-.04-.12.32-.3.31,0-.29-.38-.3-.26-.66.3.04.58.09.56.35ZM210.76,180.32c-.45-.04-.59-.3-.64-.61.24.18.64.26.64.61ZM209.04,188.04c.61.18.32.5.21,1.03-.21-.05-.38-.04-.5.03l.04-.24c.43-.11.41-.39.25-.82ZM211.23,178.93c.19.44.76.6.67,1.23-.33-.32-.7.11-.96-.18-.13-.49.65-.44.36-.67-.24,0-.27.3-.64.13.06-.35.34-.39.58-.51ZM211.46,181.32c-.16.08-.35.1-.62,0,.2-.42-.24-.4-.12-.76l.24.05c-.12.4.32.31.5.71ZM210.63,190.57c-.23-.34-1.55-.81-.81-1.15-.03.59.87.53.81,1.15ZM211.05,193.51c-.27-.09-.5-.22-.54-.47.21-.15.62.1.54.47ZM211.86,193.04c-.16-.55-1.46-1.26-.72-1.75-.03.71.98,1.24.72,1.75ZM211.91,196.79c-.39-.01-.47-.24-.55-.48.22-.16.54.16.55.48ZM212.59,195.54c-.29.82.47.89.53,1.46-.61.08-.82-.98-1.15-1.45.28.1.29-.17.62,0ZM212.97,195.49c-.07.69.84.09.87.78-.52-.21-.32-.07-.74,0-.17-.2-.67-.71-.13-.77ZM214.59,198c-.44-.01-.61-.21-.68-.49.26-.17.87.01.68.49ZM216.33,189.52c-.54.03-.49-.36-.64-.61.24.18.64.26.64.61ZM216.5,189.18c-.32,0-.61-.55-.26-.67-.04.31.49.22.26.67ZM216.5,190.79c-.22-.02-.14.39-.31.44-.32-.02-.51-.14-.42-.45.28.14.57-.44.73.01ZM217.9,189.69c-.13.05-.56-.06-.77.23.26.07.21.35.15.65-.44-.22-1.11-.28-1.1-.82.72.3,1.57-.96,1.73-.06ZM215.36,201.46c-.39.09-.64-.46-.3-.55.02.24.46.18.3.55ZM217.62,191.5c-.32-.02-.51-.14-.42-.45.32.02.51.14.42.45ZM216.24,199.51c.31.28.87.83.58,1.21.42.09.4.85.92.52l-.06.48c-.39,0-.34-.29-.6-.1-.13-.53-.28-.74-.8-.51-.09-.4.23-.26.31-.44l-.61-.1c.13-.64.6-.44.27-1.06ZM217.71,202.36c-.11.69-1.05.05-.93-.41.18,0,.23-.16.4-.18.39.43-.25.69.54.59ZM218.77,202.78c0,.53-.51.36-.91.34.02-.19-.29-.15-.19-.4.65-.08.48.27,1.1.06ZM218.51,205.71c-.29-.12-.61-.21-.54-.59.4.04.56.24.54.59ZM218.1,238.33c.27.06.82.49.43.69.02-.32-.43-.36-.6-.22.01-.22.06-.38.17-.47ZM222.43,208.72c-.09.71-1.41.01-.81-.38.05.44.49.05.81.38ZM219.12,239.36c.43.28,1.26.84.87,1.38-.21-.66-.51.06-.87,0,.03-.46.36-.55.57-.79-.5.03-.94-.28-.57-.59ZM220.93,241.5c-.09-.23-.44-.27-.45-.56.38-.37.99.56.45.56ZM227.78,204.4c-.34-.11-.51-.34-.52-.7.48,0,.5.36.52.7ZM229.12,205.36c.66-.22.26.32.42.56.22-.45.73-.3,1.02-.33-.04.57-.9.03-.93.59.17-.01.25-.14.5-.04.08.1.18.72-.1.73-.07-.58-2.42-1.1-1.14-1.55-.21-.29-.99-.7-.59-1.08.39-.03,1.05.7.83,1.12ZM230.11,205.27c-.5-.17-.73-.54-.98-.9.46.2.95.38.98.9ZM225.73,245.28c.08.44,1.22.64.78,1.1-.23-.36-1.2-.59-.78-1.1ZM231.32,206.32c-.04.18-.01.45-.18.46-.06-.5-.24-.6-.68-.47.22-.51.54-.14.86,0ZM231.59,208.2c-.14.35.4.21.17.64-.3-.08-.61-.63-.17-.64ZM232.65,206.52c0,.28-.08.45-.3.44,0-.14.06-.34-.08-.38-.09-.04-.24-.04-.23-.16l.6.09ZM228.7,248.67c-.17.02-.25.14-.5.06.13-.38-.17-.41-.2-.65.39.08.73.19.7.59ZM233.64,210.58c-.17.06.09.42.06.5.18,0,.23-.17.39-.19.34.32.06.72-.45.67-.23-.42-.59-.72-.72-1.21.36.15.61.1.71.23ZM229.19,250.36l.04-.49c.48-.03.43.65-.04.49ZM234.76,212.58c.27.12.48.29.41.67-.39-.03-.5-.28-.55-.57.07,0,.15,0,.14-.1ZM232.74,252.59c.03.24.24.35.2.65-.16-.04-.41.45-.5.06.29,0,.31-.29.03-.37-.08.17-.21.28-.4.32.02-.25-.32-.2-.21-.53.48.19.4-.32.88-.13ZM237.03,214.13c.1.4.87.86.6,1.19-.06-.28-.39-.36-.55-.57-.05.22.1.29.06.5-.27-.1-.59-.33-.84-.12.19-.4.44-.73.73-1ZM233.89,253.97c-.24.02-.33.22-.63.17.05-.31.55-.66.63-.17ZM237.82,215.84c-.03.56-.34.76-.71.88.02-.17-.03-.27-.08-.38.36-.04.28-.66.79-.5ZM234.08,254.86c-.32,0-.53-.11-.47-.43.33,0,.53.11.47.43ZM238.71,216.58c-.36-.31-.75-.59-.85-1.11.38.34.56.32.79.6-.1.01-.15.08-.15.23.15.04.28.08.21.28ZM238.87,217.34c-.17,0-.17.25-.28.33-.59-.17-.84-.6-.98-1.12.35.08.4-.22.75-.14.1.36.43.55.51.93ZM235.99,256.2c-.41-.09-.76-.11-.88.14,0-.35-.38-.38-.46-.67.75.04.09-.41.52-.43.02.53.65.55.81.96ZM239.98,217.25c0,.23-.17.25-.17.47.12.02.15-.08.25-.09.07.42-.21.37-.52.3,0-.15.06-.34-.08-.38-.04.14-.2.1-.37.07l.04-.36c.58.14.44.15.86,0ZM239.79,218.95c.34.1.34.47.53.69-.51.03-.92-.36-.53-.69ZM241.5,220.05c.21.17.53.25.55.57-.46.07-.36-.31-.56-.45-.04.09-.03.24-.15.23.01-.17.09-.26.16-.35ZM242.28,221.99c-.04-.34-.48-.36-.41-.78.33.05.77.57.41.78ZM242.04,221.96c.02.1.09.15.23.15,0,.28-.07.45-.29.45-.01-.18-.18-.23-.21-.39.16.02.13-.2.27-.21ZM243.23,223.58c-.62-.1-.88-.5-1.01-.98.59.13.59.72,1.01.98ZM244.13,223.2c-.57.24-.86-.24-1.05-.62.54.06.99.19,1.05.62ZM244.63,225.59c-.06.16-.2.21-.17.47-.49-.1-.86-.29-.78-.83.31.33.76.5.95.36ZM248.86,228.8c-.31,0,.15.23-.05.48-.31.05-.46-.58-.19-.64,0,.23.21-.04.23.15ZM272.95,255.57c.06.26.28.37.2.75-.52,0-.79-.24-1.07-.46l.02-.36c.47.25.36.24.85.07ZM274.53,258.03c.06-.56-.81-.47-.2-.87-.01.29.59.63.2.87ZM280.02,300.23c-1.01-.19.48.75-.75.69.06-.47.14-.43-.12-.75.22-.11.76-.42.86.06ZM278.66,300.27c-.02-.15.03-.35-.12-.38-.22.03-.53.58-.74.2.1-.19.39-.16.38-.47.39.3.87-.23,1.23.08-.16.29-.25.64-.74.57ZM280.88,263.87c.36.03.44.31.59.53-.21.2-.4-.14-.85-.06-.08-.34.25-.23.26-.47ZM280.99,301.16c-.03.38-.34.46-.5.71-.04-.29-.58-.11-.49-.52.49-.12.48-.03.99-.18ZM281.91,265.4c-.17-.43-.51.04-.59-.41.09-.19,1.09.11.59.41ZM281.12,301.41c.27,0,.39.12.37.39-.22.07-.38.12-.5-.03.14-.01.14-.19.12-.36ZM301.23,282.53c-.02-.42-.64-.28-.72-.64.52-.11,1.06.36.72.64ZM302.32,283.43c-.28-.34-.74-.51-.84-1.01.55.08.87.39.84,1.01ZM303.05,283.58l-.49-.02v-.36c.4-.09.39.2.49.39ZM313.39,313.21c0,.4-.35.46-.73.46-.45-.14-.88-.6-1.6-.8.02-.14-.02-.35.12-.36.61.01,1.52.4,2.21.7ZM315.13,314.86c-.02.23-.08.41-.24.48-.48-.36-1.11-.57-1.49-1.03.62.14,1.11.4,1.73.55ZM315.43,293.85c-.29.19-1-.04-1.1-.41.57-.06.78.22,1.1.41ZM317.6,316.16c-.86-.22-1.45-.56-2.22-.32v-.49c.5.24,1.73-.12,2.22.8ZM321.66,296.38c.21,0,.38.04.49.14.03.6-.77.35-.61,1.08-.28-.18-.79-.14-.73-.63.39.42.92.13.85-.58ZM322.08,320.95c.02.35-.34.3-.48.48-.05-.24-.35-.23-.25-.62.29,0,.37.22.74.14ZM324.45,313.56c.1.25.65-.06.86-.1.15.39-.19.29-.24.48.1.03.14.11.12.25-.38-.25-.59-.57-.86-.03-.16-.15-.06-.46.12-.61ZM327.69,305.35c.03-.32-.48-.11-.37-.5.38-.15.7.37.37.5ZM329.42,307.11c-.5-.12-.99-.26-1.11-.76.33.29,1,.25,1.11.76ZM330.53,308.49c-.28-.05-.57-.1-.49-.5.31.02.48.19.49.5ZM331.62,307.17c-.03.36.03.42.25.25.08.48-.72.17-.61-.14.17,0,.27-.05.37-.11ZM340.6,320.49c-.22.22-.69.05-.86-.15.16-.16.85-.21.86.15Z"/>
  <path class="cls-1" d="M203.36,168.07c-.19,0,.06.23-.16.21,1.22.34,1.23,1.48,2.1,2.05-.2-.85-.71-1.48-1.23-2.11-.14,0-.14.2-.18.33-.15-.18-.46-.25-.53-.48Z"/>
  <path class="cls-1" d="M145.4,134.33c-.04.37.46.42.6.69-.12-.28-.14-.61-.6-.69Z"/>
  <path class="cls-1" d="M155.52,147.04c-.24-.12-.33,0-.5,0,0,.17.28.18.45.25-.08.08-.17.16-.2.33.39.02.23-.28.25-.57Z"/>
  <path class="cls-1" d="M159.19,129.16c-.27-.26.23.51-.17.72.25.03.37-.15.56-.23.02-.47-.41-.02-.39-.49Z"/>
  <path class="cls-1" d="M157.85,136.77c-.25-.09-.4,0-.43.26.19-.11.38.02.45.25.29.04-.07-.36-.02-.51Z"/>
  <path class="cls-1" d="M159.04,134.81c.1-.1.3-.05.32-.29-.27-.11-.46-.1-.62-.04-.04.23.38.19.28.45.14.01.09-.1.03-.12Z"/>
  <path class="cls-1" d="M155.6,152.03c-.16.48.3.08.48.13.3.11-.21.17-.1.48.68.15.83.61.9,1.13.19-.02.34-.1.53-.12-.43-.19-.95-.86-1.06-1.56-.43.03-.49-.22-.74-.07Z"/>
  <path class="cls-1" d="M160.32,133.01c.67.85.94,1.53,1.92,2.14.07-.2-.13-.36.08-.36-.07-.41-.23-.13-.54-.4.4-.16-.63-1.17-.15-1.05.16-.36-.86-.42-1.31-.35Z"/>
  <path class="cls-1" d="M155.72,157.55c-.14.41.45,1.27.92,1.65-.32-.54-.59-1.11-.92-1.65Z"/>
  <path class="cls-1" d="M166.45,115.57c-.26.16-.28-.18-.71-.19.14.57.39.4.62.55.19,0,0-.16.09-.36Z"/>
  <path class="cls-1" d="M161.53,134.97c.25.23.24.61.73.7.17-.48-.49-.46-.73-.7Z"/>
  <path class="cls-1" d="M158.93,154.18c-.25-.14-.22.19-.41.15-.02.26.27.33.4.49.3,0-.32-.28,0-.64Z"/>
  <path class="cls-1" d="M167.15,125.64c.11.03.12-.12.17-.21.29.03.2.29.56.28-.08-.36-.11-.75-.68-.82.01.39.26.38-.05.75Z"/>
  <path class="cls-1" d="M168.1,136.56c.44.26.05.43.32.84.45-.03.43-.07.76-.05-.4-.21-.75-.86-1.08-.78Z"/>
  <path class="cls-1" d="M163.28,163.41c.17-.3.38.32.62.03.1-.31-.45-.21-.27-.57-.25.26-.66-.06-.86.54.27.11.5.25.53.51.29.04-.08-.36-.03-.51Z"/>
  <path class="cls-1" d="M163.88,164.95c0,.5.76.51.54,1.15.43.07.05-.33.31-.3-.29-.27-.46-.63-.85-.84Z"/>
  <path class="cls-1" d="M165.26,166.3c.03-.22.2-.22.21-.45-.46-.31-.68-.77-.76-1.33-.55.46.4.88.09,1.54.53.02.46.42.34.85.4.37.57.26,1.04.51-.03-.2-.12-.35-.15-.54-.25-.13-.22.19-.41.15-.09-.05-.1-.15-.22-.18.09-.18.4-.01.33-.43-.15-.18-.28-.21-.48-.12Z"/>
  <path class="cls-1" d="M179.6,128.22c-.14-.01-.09.1-.03.12-.03.17-.06.34-.2.32,0,.17.27.17.44.24-.01-.26-.16-.45-.22-.68Z"/>
  <path class="cls-1" d="M182.08,136.61c-.26,0,.05,1.32.68,1.43,0-.15-.56-.45-.13-.54-.01-.4-.74-.36-.55-.89Z"/>
  <path class="cls-1" d="M183.33,141.07c.06.39-.39.87.27,1.07.51-.44-.42-.87.26-1.19-.35-.24-.17.36-.52.12Z"/>
  <path class="cls-1" d="M182.03,162.4c-.39.03.07.35.03.51.2.07.35-.13.36.08.1.05.12-.02.14-.09l.05-.24c-.05.15-.76-.02-.36-.08,0-.2-.23.05-.22-.18Z"/>
  <path class="cls-1" d="M188.02,149.77c-.26.17.22.75.28,1.06-.48.19-.39.98-.38,1.28.39-.28.66-.75.98-1.15-.75.41-.19-.54-.54-1-.2.09-.32.06-.33-.2Z"/>
  <path class="cls-1" d="M188.23,153.06c-.23.29.38.94.47,1.36.4.05-.21-.59.24-.57-.18-.07-.72-.31-.71-.79Z"/>
  <path class="cls-1" d="M188.89,151.59c-.37-.18-.23.2-.05.24-.04.21-.15.29-.31.3.01.17.17.24.16.41.03-.21.44-.62.36.08.17,0,.16-.28.21-.45-.3-.08-.43-.28-.38-.59Z"/>
  <path class="cls-1" d="M190.95,155.57c-.01-.17-.17-.24-.17-.41-.35-.17-.29.28-.64.1.18.22.36.11.81.31Z"/>
  <path class="cls-1" d="M196.16,156.76c-.28.15-.15-.05-.47-.11.02.39-.44.05-.35.55l.35.08c.1-.26.22-.53.38-.04.31.04-.12-.24.09-.48Z"/>
  <path class="cls-1" d="M194.79,165.4c-.04-.25-.21.09-.02.12-.11.14-.3.17-.52.14.08.29.78.26.76-.09-.14-.01-.21-.07-.22-.17Z"/>
  <path class="cls-1" d="M191.77,179.71c0,.14.11.09.12.03.38.06-.06.69.52.61.19-.48-.24-.55-.36-.83-.14,0-.12.22-.28.19Z"/>
  <path class="cls-1" d="M201.84,164.16c.09-.48-.11-.76-.44-.96-.17.6.18.85.12,1.39.6-.18.67.5,1.11.73-.07-.05-.33-1.34-.78-1.15Z"/>
  <path class="cls-1" d="M201.98,165.43c.21.42.82.57.78,1.15.84-.47.59,1.25,1.33,1.52.12-.07.13-.31.3-.31-.28-.27-.85-.34-.56-.98-.58-.27-.69-.86-.99-1.32-.17,0-.15.28-.21.45-.28-.13-.17-.52-.65-.51Z"/>
  <path class="cls-1" d="M203.07,163.55c-.67.6.5,2.21,1.06,2.32-.41-.7-1.4-1.46-1.06-2.32Z"/>
  <path class="cls-1" d="M205.94,169.47c.11.35.27.66.44.96.28-.2-.2-.77-.44-.96Z"/>
  <path class="cls-1" d="M208.29,173.56c.02.65.75,1.74,1.32,2.36.18-.57-.48-.56-.08-1-.54.3-.33-.63-.87-.67,0-.4.63-.14.34-.55-.28.39-.5.24-.71-.15Z"/>
  <path class="cls-1" d="M208.89,172.93c-.38.27.36.66.44.96.37-.03-.1-.33.11-.6-.46-.05-.49.08-.55-.36Z"/>
  <path class="cls-1" d="M209.72,176.06c.13.65.44,1.18.85,1.64.7-.83-.37-1.27-.85-1.64Z"/>
  <path class="cls-1" d="M214.59,184.13c.09.25.32.4.62.73l.06-.36c-.47.05-.29-.36-.68-.37Z"/>
  <path class="cls-1" d="M218.49,187.44l-.72-.13c.15.44.71.04.76.63.29.02-.09-.35-.04-.5Z"/>
  <path class="cls-1" d="M221.16,191.74c-.56.59.65.16.23,1.02.11-.05.21-.09.38-.06.09-.53-.43-.62-.61-.96Z"/>
  <path class="cls-1" d="M226.28,198.24c-.05-.24-.21.1-.02.12-.07.24-.35.19-.53.28.14.25.64.25.52.7.88-.21.74.48,1.12.8.37.21.14-.37.51-.16-.48-.26-.49-.87-1.09-1.04.01-.22.18-.23.19-.46-.21.17-.57-.04-.7-.24Z"/>
  <path class="cls-1" d="M234.6,209.74c-.02.6.94.45.85,1.1.17-.01.14-.29.18-.46-.65.02-.39-.66-1.03-.64Z"/>
  <path class="cls-1" d="M240.67,216.61c-.25.2.41,1.09.63.95-.19-.33-.57-.51-.63-.95Z"/>
  <path class="cls-1" d="M244.74,224.5c.26-.04.42-.21.64-.29-.06-.25-.29-.36-.57-.44-.12.32.23.27.33.41-.03.23-.49-.32-.4.32Z"/>
  <path class="cls-1" d="M268.08,248.81c-.38.26.33.55.32.88.1.03.12-.04.13-.11v-.24c-.33-.01-.27-.37-.44-.53Z"/>
  <path class="cls-1" d="M266.88,292.19c.3.41.75.69.98,1.18.51-.19.8.46,1.11.82.1-.02.13-.11.25-.11-.02-.11.05-.11.12-.11-.94-.48-1.48-1.32-2.46-1.77Z"/>
  <path class="cls-1" d="M305.99,283.11c.48.18.25-.39.74-.21-.02-.1-.12-.13-.12-.25h-.25c.17.46-.55-.01-.37.46Z"/>
  <path class="cls-1" d="M308.39,286.26c0,.69.43-.49.61.03.33-.1-.05-.5-.36-.38.04.25-.03.38-.25.36Z"/>
</svg>