<?xml version="1.0" encoding="UTF-8"?>
<svg id="Layer_1" data-name="Layer 1" xmlns="http://www.w3.org/2000/svg" viewBox="0 0 476.4 480.07">
  <defs>
    <style>
      .cls-1 {
        fill: #ffc00e;
        fill-rule: evenodd;
      }
    </style>
  </defs>
  <path class="cls-1" d="M155.96,188.5c-.23-.07-.43-.31-.62-.61.29-.07.7.23.62.61Z"/>
  <path class="cls-1" d="M178.53,161.04c-.25-.14-.88-.66-.34-.88.27.35.22.58.34.88Z"/>
  <path class="cls-1" d="M178.53,159.53c-.27.08-.35-.55-.54-.76.31-.16.6.53.54.76Z"/>
  <path class="cls-1" d="M172.28,158.76c-.25-.08-.63-.45-.54-.77.26-.07.35.56.54.77Z"/>
  <path class="cls-1" d="M176.09,154.66c-.43-.13-.78-.55-1.07-1.24.45.05.72.78,1.07,1.24Z"/>
  <path class="cls-1" d="M150.91,163.28c-.43-.72-1.65-2-1.44-2.8.18,1.06,1.24,1.82,1.44,2.8Z"/>
  <path class="cls-1" d="M159.88,155.79c-1.11-.57-1.31-2.57-2.35-3.51.43-.45.99,1.66,1.59,1.77.11.3.13.56.16.83.21.3.72.41.6.91Z"/>
  <path class="cls-1" d="M155.4,143.84c-.26.17-.48.18-.61-.15.05-.14.18-.25.37-.33l.24.48Z"/>
  <path class="cls-1" d="M149.33,141.1c-.86-.49-1.78-2.17-1.89-3.3-.13-.09-.31,0-.4-.26-.35-.53-.8-1.88-.19-.66,1.11,1.33,1.39,2.69,2.47,4.22Z"/>
  <path class="cls-1" d="M154.36,137.74c-.25-.09-.46-.36-.63-.74.3-.05.67.54.63.74Z"/>
  <path class="cls-1" d="M139.86,143.88c-.31-.01-.42-.75-.65-1.05.27.17.73.67.65,1.05Z"/>
  <path class="cls-1" d="M152.11,137.79c-.42-.15-.69-.86-1.09-1.12.25-.55.8.69,1.09,1.12Z"/>
  <path class="cls-1" d="M153.33,136.45c-.45-.06-.71-.81-1.04-1.3.42.17.69.88,1.04,1.3Z"/>
  <path class="cls-1" d="M136.73,144.03c-.38.14-.59-.36-.85-.65.37-.1.57.42.85.65Z"/>
  <path class="cls-1" d="M139.02,142.17c-.5-.24-1.12-1.65-1.42-2.35.69.73,1,1.38,1.42,2.35Z"/>
  <path class="cls-1" d="M152.17,134.91c-.81-.36-.89-1.46-1.12-2.01.58.42.49,1.51,1.12,2.01Z"/>
  <path class="cls-1" d="M146.38,135.9c-.3-.14-.54-.52-.8-.82.43-.31.57.42.8.82Z"/>
  <path class="cls-1" d="M146.92,134.29c-.41-.15-.42-.47-.58-.92.29-.03.38.66.58.92Z"/>
  <path class="cls-1" d="M147.68,132.58c-.35.01-.87-.86-.2-.95.18.24-.04.3-.21.4.1.31.33.17.41.56Z"/>
  <path class="cls-1" d="M133.62,134.9c-.47-.39-.66-.92-.88-1.55.33.3.84,1.26.88,1.55Z"/>
  <path class="cls-1" d="M132.79,134.84c-.24.35-.72-.65-.3-.62l.3.62Z"/>
  <path class="cls-1" d="M126.56,136.56c-.31-.06-.56-.42-.63-.77.31-.04.68.57.63.77Z"/>
  <path class="cls-1" d="M139.47,160.47c-.25-.12-.47-.37-.75-.4.22-.61-.53-1.09-.6-1.7.8.37.57,1.36,1.35,2.1Z"/>
  <path class="cls-1" d="M141.39,142.08c-.19-.27.07-.36-.19-.66.16-.12.24.02.38-.04-.23-.65-.57-.9-.83-1.42.12.02.24.04.38-.03-.93-.39-.43-1.65-1.44-2.94,1.32,1.05,2.43,4.3,3.19,5.42-.51.04-.67-1.2-1.2-1.08-.35.15.29.7-.3.75Z"/>
  <path class="cls-1" d="M150.77,135.59c-.09-.13-.14-.02-.11.05-.27.09-.32-.5-.3-.61.38,0,1.03,1.66.41.55Z"/>
  <path class="cls-1" d="M145,127.27l.43-.21c-.41-.76-1.14-1.94-1.01-2.66.76.76,1.01,3.07,2.02,3.38-.03.21.11.5.08.71,1.74,1.78,2.21,4.45,3.78,6.42-1.64-.4-1.26-3.43-3-3.95-.03-.22.11-.06.17.07-.51-.97-1.14-2.85-2.47-3.76Z"/>
  <path class="cls-1" d="M131.8,135c-.29-.09-.51-.41-.79-.54-.04-.12.95.14.79.54Z"/>
  <path class="cls-1" d="M302.42,355.25c.56.34,1.41.34,2.01.69,1.39.82,2.4,1.98,3.93,2.59,1.37.52,2.87.61,4.25,1.22,1.02.45,1.43.46,2.15.69,2.11.66,3.57,1.72,4.99,1.02,1.73-.04,3.64.39,5.16.3.24-.02.61.24.7.23,3.83-.17,7.03-2.18,11.11-1.82.6-.5,1.22-1.34,2.18-1.88.42-.24,1.13-.2,1.48-.48,1.31-1.05,1.46-3.07,3.21-3.51.22-.31.02-.51.06-.77,1.23-2.72,1.73-5.25,2.97-7.23-.31-1.64.52-3.01.38-4.48-.08-.92-.56-1.97-.76-2.91-.23-1.07-.56-1.97-.68-3,.38-.82-.29-1.31-.11-2.06-.66-.92-1.02-1.91-1.68-2.84.05-.32-.09-.58.05-.93-1.2-2.32-2.21-4.96-4.45-6.74-.2-.16-.64-.49-.92-.63-1.85-.99-4.52-2.82-4.89-4.39-.28-.26-.42,0-.7-.27.08-.62-.36-2.06-1.19-2.54-.29-.16-1.17.21-1.86-.04-1.03-.38-1.37-1.79-2.28-2.15-.42-.17-1.18.19-1.67.08-1.27-.24-3.19-1.84-3.91-2.6-.57-.6-.52-1.24-1.09-1.47-.52-.21-1.21.09-1.67.9-1.22.41-2.5-.23-3.75-1.13-1.25-.9-2.5-1.97-3.77-2.31-1.07-1.63-3.2-1.6-4.51-2.77-.26-.23-.45-.68-.74-.89-.48-.34-1.35-.5-2.06-.84-1.2-.58-2.09-1.31-3.16-1.7-.6-1.97-2.39-1.65-3.47-2.56-.4-.34-.57-.96-1.03-1.33-.39-.31-.99-.33-1.4-.69-.41-.36-.62-1-1.03-1.32-.3-.25-.69-.26-.92-.49-.3-.3-.32-.69-.7-.94-.39-.26-1.05-.21-1.44-.47-1.45-.97-2.56-2.54-4.39-2.91-1.73-2.52-4.44-3.34-6.54-6.25-.81-.41-1.39-.73-1.9-1.53-.21-.08-.4.14-.62-.1-1.09-1.51-3.19-2.09-4.27-3.69-.15.06-.29.1-.44.07-1.47-2.23-3.75-4.61-5.71-5.56-.72-1.52-2.48-2.39-3.86-3.79-.65-.66-1.04-1.54-1.74-2.07-.68-.52-1.35-1.23-2-1.95-.64-.73-1.26-1.47-1.87-2.02-.36-.33-.94-.44-1.3-.75-.66-.57-1.03-1.48-1.79-2.04-2.92-2.14-5.23-5.59-7.3-7.9-.64-.72-1.46-1.11-2.26-1.84-1.33-1.22-2.04-3.06-3.32-4.34-.32-.32-.79-.5-1.1-.79-.8-.74-1.25-1.7-1.99-2.57-1.78-2.14-4.1-3.88-5.26-6.31-2.67-2.18-5.51-6.18-7.92-9.27-1.05-.31-1.1-1.32-1.71-2-1.9-2.07-4.57-4.58-5.88-7.26-8.14-9.4-14.89-20.47-22.54-30.22-.09-1.08-1.16-2.18-1.9-2.72.17-.32-.15-.79-.29-1.21-1.48-.9-1.95-2.9-3.13-4.47-.92-.02-1.03-1.33-1.92-1.65.2-.49.54.17.46-.41-1.88-.34-3.48-4.39-4.8-5.84.06.12-.1.25-.21.12.07-.58-.65-.41-.9-.87-1.93-2.92-4.35-4.41-6.29-6.74-.02-.42,0-1.59-.62-1.64.2.51.57,1.09.04,1.34-.28-.87-1.1-1.77-1.8-2.06-.59-.95-.6-1.6-1.46-2.25-.11-.22-.42.51-.66.04-.49-1.51-1.33-1.95-1.75-3.31-.68-.09-1.63-1.44-1.62-2.03-.43-.28-.16.66-.47.39-.77-1.02-1.53-1.95-1.77-3.16-.37-.13-.77-.13-1.07-.51-.19-.26.52-.18.14-.52-.49-.25-.32.57-.73.67-.48-.46-.67-.21-1.12-.34-.14-.94-1.02-1.15-1.58-1.76-.58-.63-.84-1.54-1.38-2.16-.46-.54-.96-.6-1.32-1.3-.29-.56-.16-1.24-.52-1.84-.26-.28-.28.43-.55-.03-1.28-2.11-2.58-4.22-4.09-5.49,2.13,2.04,2.22,4.31,4.11,6.08-.3.58.81.82.34,1.48.35,0,.28-.6.49-.09.05.18-.04.31.13.53-.73,0-.49.45-.78.84,1.02,1.83,2.07,3.11,2.95,4.69.29.22.21-.38.49-.1.42.55.59,1.06,1.14,1.69-.3.44-.25,1.03-.93,1.08-1.12-2.16-3.55-4.62-5.01-7.13-.44-.76-.44-1.8-1.35-1.89.82,1.04.57,2.37,1.04,3.4.62,1.34,2.03,2.35,2.57,3.69.15.38.04.63.22.95.14.25.68.51.82.8.15.32-.07.46.1.71.34.51.92.74,1.23,1.34.52,1.01.68,2.2,1.42,3.22-.08.3-.59.47-.81.27-.69-1.31-.85-1.51-1.61-2.82.03.17-.01.32-.2.41-.19-.43-.14-.64-.54-.79.56.98-.3,1.34-.86,1.2-1.2-2.53-3.21-5.34-4.01-7.53-.35-.1-.72-.08-1.01-.4-1.48-2.15-2.58-4.85-4.14-7.17.86,3.13,2.78,5.87,4.79,8.97-.03.18-.38.24-.14.52,1.05,1.22,1.85,2.87,2.54,3.88-.19.73-.41,1.44-.64,2.16,2.24,3.18,1.79,6.67,3.59,9.92-.33.16-.28.47-.45.7-.4-.11-.84-.1-1.23-.27-.32-.52-.79-.97-.83-1.57-2.47-2.21-3.98-6.47-6.37-9.6-.75-.13-.98.42-1.27.95.6,1.82,2.15,2.93,2.46,5.03-.89,1.31-2.13,1.14-2.94-.18-1.34-2.18-3.33-6.12-3.95-7.67-4.29-6.21-7.45-12.96-11.53-19.49,1.69,3.93,4.21,7.08,5.5,10.72.22-.14.39-.06.51.21,1.65,3.39,3.61,7.08,5.59,9.76-.1,1.63,2.08,3.49,1.98,5.14-1.36.35-2.46-.37-3.46-1.48.78,1.26,1.05,2.69,1.57,3.83.42.93,1.64,2.28,1.63,2.87,0,.14-.36.07-.26.29-.19-.38.43.61.49.68.41.41.45.27.73.86.37.77.34.76.32,1.38,1.24,2.66,2.99,4.93,4.2,7.6.13.28.45.8.46.85.06.28-.26.2-.12.53.08.19.28-.03.41.25.47,1.04,1.01,2.23,1.61,3.21,1.49,2.43,2.94,5.5,4.17,7.48.19.49-.51.11-.15.72,1.79,3.61,3.84,7.35,5.96,11.1.14.3-.45.36-.13.72.24.55.66.12.91.59.04.36.05.72-.09,1.02,1.13,2.21,2.47,4.33,3.9,6.43,1.48,2.06,2.97,4.14,4.46,6.22,2.72,3.91,5.45,7.84,8.04,11.55,2.11,2.89,4.45,5.41,6.02,8.22,2.85,3.24,4.93,6.3,7.42,9.47,1.78,2.29,3.44,5.03,5.15,6.8.3.3.82.53,1.12.92.46.58.59,1.42,1.04,2.01,1.22,1.58,2.85,2.9,4.07,4.47,1.36,1.77,2.68,3.48,4.02,5.22.76.98,1.79,1.67,2.62,2.59.54.61.84,1.47,1.39,2.12,1.55,1.8,3.5,3.31,4.87,5.09,1.87,2.35,3.52,5.02,5.97,6.92,2.02,2.72,4.8,5.74,7.14,7.97,1.12,2.55,3.74,3.84,5.64,6.13.2.24.21.52.4.79,1.31,1.87,3.14,3.42,4.85,4.91,1.73,1.48,3.37,2.9,4.5,4.37,1.44.48,1.82,1.79,2.65,2.77.9,1.06,2.12,1.63,3.09,2.53.32.3.46.73.77,1.05.95.96,2.2,1.54,3.35,2.46,1.74,1.37,2.79,3.75,5.18,4.88,1.21,1.6,3.13,3.88,5.21,4.88,2.41,3.09,6.09,4.67,8.95,7.38.98.9,1.57,2.13,2.99,2.47.73,1.34,2.29,2.03,3.61,3.1,1.31,1.05,2.55,2.33,3.9,3.45,1.95,1.59,4.76,2.96,5.64,5.05-.77,2.75,2.83.3,4.21,1.83.6,1.04.07,1.61-.08,2.7.59.86,1.47,1.15,2.38,1.44.79.78.83,2.24,2.07,3ZM166.01,155.37c.13-.04.18-.12.15-.23.65-.03.22.93-.15.23ZM165.67,155.24c-.58-.95-1.81-2.07-1.81-3-.1-.19-.51.5-.81.26.03-.56-.04-1.16-.43-1.89.85-.52,1.11,1.19,1.92.84.23.59.34.88.87.91.33,1.29,1,1.25,1.17,2.27-.62.05-.3.36-.9.61Z"/>
  <path class="cls-1" d="M314.75,141.91c-.38.11-.5.35-.41.68.1-.24.56-.32.41-.68Z"/>
  <path class="cls-1" d="M315.22,142.91c-.03.28-.55.32-.41.68.21-.2.68-.27.41-.68Z"/>
  <path class="cls-1" d="M312.95,144.17c-.3.17-.05.3-.14.71.26-.04.27-.19.42-.29-.06-.21-.22-.19-.27-.42Z"/>
  <path class="cls-1" d="M302.88,148.17c-.15.05-.3.1-.46.16.2.29-.07.35.07.62.42-.11.55-.37.39-.77Z"/>
  <path class="cls-1" d="M314.51,144.24c-.17-.23-.67.19-.49.45.29.14.18-.15.57-.22-.11-.08-.21-.16-.08-.23Z"/>
  <path class="cls-1" d="M302.19,149.18c-.14.3-.41.18-.69.23.19.25.48.31.83.23l-.15-.46Z"/>
  <path class="cls-1" d="M310.25,148.04c-.23-.23-.61.28-.31.63.45-.04-.07-.56.31-.63Z"/>
  <path class="cls-1" d="M300.12,151.8c-.09.1-.07.38-.19.19-.25.06.08.43.07.62-.35-.03-.59.17-.88.42.61.31.29.8.26,1.31.14-.22.17-.5.59-.57-.42-.21-.18-.26-.21-.69.11.03.22.06.38,0-.08-.3.02-.51.31-.62-.07-.29-.16-.56-.34-.66Z"/>
  <path class="cls-1" d="M309.51,148.95l-.46.16c.11.06.28.25.11.35.16.23.61-.21.35-.51Z"/>
  <path class="cls-1" d="M311.17,150.95c-.21.19-.24.47-.13.83.18-.22.51-.63.13-.83Z"/>
  <path class="cls-1" d="M295.09,157.31c-.35.1-.48.52-.17.69.08-.22.25-.39.17-.69Z"/>
  <path class="cls-1" d="M309.83,153.25c-.17.24-.68.31-.39.79.23-.21.46-.42.39-.79Z"/>
  <path class="cls-1" d="M300.71,158.86c-.31.26.05.4,0,.89.08-.09.15-.18.31-.23-.44-.38.17-.55-.32-.67Z"/>
  <path class="cls-1" d="M309.55,156.47c.2.22.48-.34.92-.32-.22-.41-.67.16-.92.32Z"/>
  <path class="cls-1" d="M307.59,158.94c-.11.28-.38.46-.26.86.28-.25.44-.57.8-.78,0-.35-.52.26-.53-.08Z"/>
  <path class="cls-1" d="M294.53,163.18c-.41-.35-.33.4-.49.52.32.3.34-.39.49-.52Z"/>
  <path class="cls-1" d="M295.79,164.57c.38-.02.03-.44.52-.4-.12-.24-.32-.35-.59-.33.25.41-.3.54.07.73Z"/>
  <path class="cls-1" d="M289.04,166.5c-.33.17-.62.37-.54.78.2-.25.49-.44.54-.78Z"/>
  <path class="cls-1" d="M312.91,159.23c-.36.01-.26.27-.55.32.05.39.36.29.69.16l-.13-.47Z"/>
  <path class="cls-1" d="M309.91,160.36c-.43.04-.46.3-.63.47.18.22.89-.12.63-.47Z"/>
  <path class="cls-1" d="M311.81,160.76c-.11.01-.1.08-.08.16-.71.43-.67,1.26-1.3,1.73.06.48.43.39.58.71.41-.24-.11-.42.07-.67.35-.19.42.1.58-.19-.4-.23-.05-.62-.15-.99.38-.04.39-.26.67-.35.04-.43-.4.04-.37-.4Z"/>
  <path class="cls-1" d="M293.15,167.86c.18-.11.11.44,0,.5.3.38.1-.32.43-.25,0-.4-.28-.31-.39-.52-.26.12-.44.28-.64.43.12.34.48.04.58-.17Z"/>
  <path class="cls-1" d="M321.45,158.66c-.3.19-.79.28-.56.74.22-.23.6-.37.56-.74Z"/>
  <path class="cls-1" d="M322.02,158.85c-.2-.26-.49.28-.36.53.51.02.15-.4.36-.53Z"/>
  <path class="cls-1" d="M320.85,159.68c.07.31.29.31.41.52.14-.1.12-.28.28-.37-.15-.21-.4-.21-.69-.15Z"/>
  <path class="cls-1" d="M292.79,168.85c-.44-.28-.48.52-.83.62.37.48.73-.33.83-.62Z"/>
  <path class="cls-1" d="M327.27,159.16c-.21.21-.18.69,0,1.34.02-.44.24-.78,0-1.34Z"/>
  <path class="cls-1" d="M290.73,171.45c.24.14.77-.06.63-.43-.22-.13-.85.01-.63.43Z"/>
  <path class="cls-1" d="M316.14,163.46c-.43.11-.66,1.14,0,.92-.28-.46.05-.59,0-.92Z"/>
  <path class="cls-1" d="M308.41,166.43c-.43-.16-.82.56-.59,1.1.19-.11.25.02.3.17.55-.17-.13-1.02.29-1.27Z"/>
  <path class="cls-1" d="M322.65,162.36c-.53.14-.68.47-.64.9.08-.37.76-.43.64-.9Z"/>
  <path class="cls-1" d="M289.67,172.73c-.09.1-.18.2-.24.06.05.67-.69.86-.62,1.54.37-.72,1.42-.57.86-1.6Z"/>
  <path class="cls-1" d="M313.98,166.81c-.43,0-.08.43-.07.68.08-.1.16-.19.32-.24-.12-.08-.2-.23-.25-.44Z"/>
  <path class="cls-1" d="M288.73,174.48c-.16-.33-.22.18-.47.12.53.12-.12.28.05.74.49.06-.1-.53.38-.47-.05-.17-.1-.33.03-.39Z"/>
  <path class="cls-1" d="M288.05,175.29c-.4.41-1.03.17-.94.75.52-.31.41.42.91.14-.51-.31.16-.49.03-.88Z"/>
  <path class="cls-1" d="M317.06,168.79c-.28.33-.33.98.22.85-.07-.43.06-.52-.22-.85Z"/>
  <path class="cls-1" d="M286.55,177.81c-.51.1-.4.56-.68.8-.26.05-.32-.23-.37-.53-.5.4.24.81-.27,1.45.4.04.27-.06.7-.18-.08-.49-.16.06-.49,0,.29-.56,1.08-.83,1.12-1.54Z"/>
  <path class="cls-1" d="M301.16,176.11c-.4.21-.3.78-.12,1.06.24-.31.45-.7.12-1.06Z"/>
  <path class="cls-1" d="M309.23,174.06c-.19.27-.15.04-.47.15.1.23.32.25.47.37.15-.09.02-.33,0-.52Z"/>
  <path class="cls-1" d="M304.26,180.72c-.26.3-.5.61-.38,1.13.05-.4.71-.83.38-1.13Z"/>
  <path class="cls-1" d="M315.68,180.78c-.3.08-.32.31-.53.43,0,.36.54-.26.53.1.15-.09.03-.34,0-.53Z"/>
  <path class="cls-1" d="M322,178.88c-.36.22-.37.64-.25,1.14.1-.35.53-.9.25-1.14Z"/>
  <path class="cls-1" d="M297.33,187.39c-.16.04-.32.08-.48.12.09.09.19.18.05.24.14.27.62-.09.43-.36Z"/>
  <path class="cls-1" d="M316.22,183.64c-.44.21-.34.72-.96.82.09.24.37.15.56.22,0,.3-.46.49-.11.68.22-.12,0-.5.4-.51-.43-.44.24-.65.11-1.22Z"/>
  <path class="cls-1" d="M298.09,189.85c-.08.13-.31.16-.31.33.05.37.51.32.65.09.07-.43-.41,0-.34-.42Z"/>
  <path class="cls-1" d="M313.81,188.42c-.38-.19-1.1.79-.66,1.11.16-.4.17-.9.66-1.11Z"/>
  <path class="cls-1" d="M316.78,189.23c-.38.13-.47.44-.33.88.09-.31.38-.49.33-.88Z"/>
  <path class="cls-1" d="M310.31,191.66c-.21.23-.56.37-.47.79.25-.21.5-.41.47-.79Z"/>
  <path class="cls-1" d="M308.02,194.12c-.24.1-.17.4-.41.5.07.16.32.02.5,0l-.1-.49Z"/>
  <path class="cls-1" d="M307.51,195.42c-.39.04-.25.42-.53.53.1.2.78-.15.53-.53Z"/>
  <path class="cls-1" d="M290.6,200.21c0,.11.07.1.14.09,0,.15-.2.15-.34.2-.03.23.44.42.11.61.09.43.35-.35.38.04.11-.26.3-1.13-.29-.94Z"/>
  <path class="cls-1" d="M290.56,201.36c-.21,0-.21.15-.2.3-.17.05-.33.1-.38-.04-.16.08-.04.33-.03.51l.6-.14c-.16-.32.11-.35.01-.64Z"/>
  <path class="cls-1" d="M288.09,202.18c-.22.14-.26.4-.25.69.38-.03.34-.35.25-.69Z"/>
  <path class="cls-1" d="M303.93,199.09c-.29.28.23.57.48.52.25-.39-.3-.33-.48-.52Z"/>
  <path class="cls-1" d="M305.17,199.02c-.37.33-.94.78-.51,1.3.09-.48.78-.58.51-1.3Z"/>
  <path class="cls-1" d="M303.66,199.68c-.1.3-.38.47-.34.86.24-.21.32-.52.63-.68-.05-.13-.25-.02-.29-.18Z"/>
  <path class="cls-1" d="M301.63,200.21c-.28.77-.62.78.4.8-.01-.46-.25-.56-.4-.8Z"/>
  <path class="cls-1" d="M286.77,204.5c-.37.11-.53.36-.49.74.23-.21.58-.33.49-.74Z"/>
  <path class="cls-1" d="M283.68,207.66c-.07.96-.81,1.34-.53,2.12.35-.55.68-1.12.83-1.8.14,0,.14.2.18.34.59-.33.04-.73-.48-.65Z"/>
  <path class="cls-1" d="M299.37,205.25c-.46.27.46.5.1.61.45.33.14-.64-.1-.61Z"/>
  <path class="cls-1" d="M299.33,205.77c-.24.17-.37.41-.24.83.23-.17.31-.45.24-.83Z"/>
  <path class="cls-1" d="M281.93,211.42l-.48.1c.02.22.19.23.2.46.06-.21.35-.26.28-.56Z"/>
  <path class="cls-1" d="M294.24,209.67c.09.22.38.14.34.56.33-.3.06-1.09-.34-.56Z"/>
  <path class="cls-1" d="M293.36,224.39c-.67.07-.39.7-.14.92.16-.23.13-.59.14-.92Z"/>
  <path class="cls-1" d="M287.76,231.76c-.49.13.14.54-.42.71-.37-.04.03-.41-.06-.62-.38.18-.36.57-.15.91.17-.18.3-.2.49-.09.11.57-.65.5-.51,1.11.13-.17.19-.4.59-.36-.03-.67.4-.95.77-1.03-.25-.19-.75-.04-.7-.63Z"/>
  <path class="cls-1" d="M285.81,234.65l-.49.09c.04.47-.1.38.08.75.43-.09.15-.94.46-.34.3-.07,0-.43-.05-.5Z"/>
  <path class="cls-1" d="M284.65,235.5c.19.13.18.52.21.85l.37-.07c-.03-.14,0-.23.1-.27-.25-.2-.23-.06-.17-.48-.22.05-.27-.11-.5-.04Z"/>
  <path class="cls-1" d="M283.51,236.46c.08.44-.32.52-.28.94.39-.2.31-.76.91-.8-.2-.36-.26-.02-.64-.14Z"/>
  <path class="cls-1" d="M283.3,238.15c0-.33-.1-.53-.42-.44-.05.11-.11.22-.08.4.12.08.29.09.5.04Z"/>
  <path class="cls-1" d="M282.94,238.21c-.22.06-.27-.11-.5-.04,0,.22.24.29.04.37.06.16.32.05.5.04l-.04-.38Z"/>
  <path class="cls-1" d="M283.15,239.07c-.11-.15-.95.1-.82.52.31-.15.71-.22.82-.52Z"/>
  <path class="cls-1" d="M279.25,242.75c.12.37-.09.47-.06.77.39.03.21-.38.59-.35-.07-.28-.13-.57-.54-.42Z"/>
  <path class="cls-1" d="M277.71,245.14c-.31.07-.46.26-.45.58l.49-.08-.04-.5Z"/>
  <path class="cls-1" d="M276.57,246.46c-.3.23-.53.51-.81.76-.03.36.66-.2.63.16.21-.13,0-.23-.03-.38.04-.2.38-.17.2-.54Z"/>
  <path class="cls-1" d="M276.57,247.98c-.25.07-.08.49-.33.56.28.16.46,0,.73-.24-.03-.23-.41-.02-.4-.32Z"/>
  <path class="cls-1" d="M274.28,248.83c.03.73-.68.86-1.04,1.28.19.61.88-.16,1.37-.07-.32-.37-.44-.28-.18-.85.53-.08.71.13.98-.26-.33-.36-.54-.25-1.13-.09Z"/>
  <path class="cls-1" d="M275.08,249.6c-.34.23-.42.68-.81.87.21.12.99-.29.81-.87Z"/>
  <path class="cls-1" d="M274.2,251.36c-.22.02-.25.19-.49.19.04.36.54.14.53.56.16-.11.21-.3.21-.53-.45.13-.3.26-.26-.21Z"/>
  <path class="cls-1" d="M272.59,253.47c-.26-.02-.32.13-.49.19.2.07.21.37.52.31-.22-.22,0-.16-.03-.5Z"/>
  <path class="cls-1" d="M250.72,276.29c-.51.15-.65.64-.74,1.18.37-.2.81-.32,1.11-.59-.07-.25-.26-.38-.38-.6Z"/>
  <path class="cls-1" d="M245.87,283.87c-.4-.08-.26.34-.5.41.08.27.65-.04.5-.41Z"/>
  <path class="cls-1" d="M239.18,290.34c-.24-.23-.79.32-.77.78.34-.17.51-.52.77-.78Z"/>
  <path class="cls-1" d="M235.97,293.46c-.13.48-.68,1.06-.54,1.4.31-.3.8-.94.54-1.4Z"/>
  <path class="cls-1" d="M230.19,300.34c-.38.09-.48.47-.78.64.17.21.84-.16.78-.64Z"/>
  <path class="cls-1" d="M222.6,306.13c.11.17.08.46.2.63.17-.08.25-.27.29-.5-.22.02-.25-.15-.49-.13Z"/>
  <path class="cls-1" d="M181.02,305.24c-.66.26-.71,1.28-1.38,1.52.66.29,1.08-.9,1.38-1.52Z"/>
  <path class="cls-1" d="M179.73,307.01c-.38-.03-.56.2-.57.65.26-.12.45-.34.57-.65Z"/>
  <path class="cls-1" d="M211.12,318.99c.04.16.13.26.34.27-.47.4-.61.48-1.01,1.08.6-.24,1.07-.63,1.4-1.19-.39.07-.44-.15-.73-.16Z"/>
  <path class="cls-1" d="M208.13,319.98c.17.19.02.65.42.65.28-.25-.03-.63-.42-.65Z"/>
  <path class="cls-1" d="M209.79,320.68c-.02-.17-.3-.12-.48-.15-.07.29-.04.48.05.63.26-.02.1-.55.44-.48Z"/>
  <path class="cls-1" d="M194.02,336.17c-.37.09-.26.48-.27.73.19-.06.29-.24.35-.47-.12-.02-.07-.16-.08-.26Z"/>
  <path class="cls-1" d="M193.55,337.88c-.29.02-.23.65-.15.74.33-.23.34-.5.15-.74Z"/>
  <path class="cls-1" d="M191.9,338.47c-.77.31-1.26,1.01-1.85,1.58.38.22-.07.46-.18.87.88-.7,1.16-1.56,2.03-2.45Z"/>
  <path class="cls-1" d="M189.84,340.4c-.4.02-.46.53-.68.82.37-.07.63-.29.68-.82Z"/>
  <path class="cls-1" d="M188.87,341.44c-.3.22-.71.29-.91.65.22.2.88-.08.91-.65Z"/>
  <path class="cls-1" d="M187.69,341.56c-.39.25-.65.22-.96.26,0,.44-.14.57.33.8-.27-.51.51-.6.63-1.06Z"/>
  <path class="cls-1" d="M189.94,345.78c-.13-.38-.57.17-.62.43.25.08.36-.04.54-.06.08-.21-.14-.35.09-.37Z"/>
  <path class="cls-1" d="M184.52,345.72c.05-.1-.02-.12-.1-.14l-.25-.04c.02.48-.97.76-1.14,1.51.15,0,.21.06.22.16.23-.44.61-.67.8-1.18.62.07,0,.37.22.67.33.1.07-.69.4-.59.06-.17-.68-.26-.16-.41Z"/>
  <path class="cls-1" d="M188.63,346.89c-.51.32-.97.72-1.24,1.38.5-.35.89-.84,1.24-1.38Z"/>
  <path class="cls-1" d="M182.7,347.4c-.23.2-.55-.28-.9,0,.33.19.37.4.06.78.43-.04.62-.43.85-.77Z"/>
  <path class="cls-1" d="M182.49,348.27c-.47.08-.67.59-.93,1.01.62-.25.56-.55.93-1.01Z"/>
  <path class="cls-1" d="M178.96,350.68c-.02.18.36.1.31.31.54-.33.61-1.39,1.41-1.33-.52-.78-1.03.94-1.72,1.02Z"/>
  <path class="cls-1" d="M181.02,349.84c-.69.15-.95.98-1.35,1.59.71-.12.93-1.02,1.35-1.59Z"/>
  <path class="cls-1" d="M180.47,351.82c-.2-.41-.56.42-.71.67.39.02.35-.63.71-.67Z"/>
  <path class="cls-1" d="M179.88,351.6c-.51.2-1.1.27-1.22,1.1.24-.63.99-.46,1.22-1.1Z"/>
  <path class="cls-1" d="M177.25,352.61c.68.03.33.71-.08.77-.39-.14-.05-.5.08-.77-.43-.21-.33.43-.73.27.27.74-.37,2.14-.69,2.73.34.5.86-1.1.71-1.43.33.39.66-.31.71.25.31-.85.46-1.73.84-2.98-.51.03-.7.55-.84,1.16Z"/>
  <path class="cls-1" d="M175.56,354.78c.01-.17-.28-.16-.47-.21-.18.19-.23.6-.48.69.04.14.25.18.14.42.2-.03.37-.13.58-.16.1-.33-.35-.67.23-.74Z"/>
  <path class="cls-1" d="M174.22,354.8c-.23.19-.68.73-.1.76.21-.36.01-.47.1-.76Z"/>
  <path class="cls-1" d="M174.25,355.98c-.06-.44-.39.2-.67,0,.09.32.19.28-.07.64.41.06.45-.5.74-.65Z"/>
  <path class="cls-1" d="M317.48,138.89c.24-.04.24.41.58.17-.08-.2.06-.3-.04-.51-.35.63-1.26-.89-.57.23-.39.67-.57,1.43-1.28,1.94.19.47.02.52-.34.53.07.11.25-.01.31.14.02.38-.34-.04-.57.22.34.24.21.38.62,1.07.27-.23.06-.69.03-1.06.54-.04.37-.41.41-.69.94-.2.92-1.19,1.37-1.32-.16-.51-.77.15-.8.31-.21-.49.54-.53.3-1.03Z"/>
  <path class="cls-1" d="M311.39,144.5c-.39.33-.51.79-.6,1.27.29-.22.35.05.61-.1-.58-.45.07-.69-.01-1.17Z"/>
  <path class="cls-1" d="M310.39,146.45c-.11.23.03.4.34.27.02.14-.18.17-.31.24.03.38.25.38.34.65-.25.47-.62.87-.56,1.49-1.06.2-.67,1.11-1.17,1.58-.59-.34.22-.99-.29-1.32-.19.99-.99,1.25-.87,2.5-.45.07-.81.08-.54.71-.44.04-.76-.25-.71-.66-.27.02-.09.28-.27.35.33-.03.33.6.76.39-.67.35-.38,1.18-.75,1.68.04-.88-.06-1.5-.01-1.68-.67-.04-.34,1.26-.44,1.84-.41-.16-.57.43-.66.74.07.12.25,0,.3.16,0,.1-.08.16-.04.28-.14-.04-.2-.23-.42-.12-.35.64-.38,1.44-.66,2.13-.1,0-.15-.08-.26-.04.21-.77.06-1.13.22-1.86-.63.36-.61,1.06-1.09,1.5.18.33.21-.19.46-.15.12.23.01.33.02.51-.41.24-.66-.21-.85.15.05.21.21.2.25.43.11-.04.05-.17.05-.27.27-.09.84.26.46-.15.65-.24.54.39.32.66-.03-.51-.5.3-.68-.16-.25.13.18.62-.03.78-.41.08-.31-.58-.24-.82-.1-.3-.5-.02-.6-.32-.34.18-.15.65-.53.81-.32-.19-.07-.43-.35-.78-.58.05-.15.64-.68.73.2.28.31-.28.69-.22-.13.23-.2.49-.44.65.49-.18.57.09.86.36,0,.1-.08.15-.05.27-.33.26-.2-.35-.53-.09.31.6-1.01,2.21-1.51,1.76.17.35-.12.54.2.71-.44.28-.52-.11-.88.02.28-.34.18-.89.54-1.19-.45.05-.96.93-1.08,1.49-.23.07-.24-.28-.53-.09.06.45.14.93-.54,1.19.36.25.13.54.66.56-.45.05-.12.6-.66.83.67.08-.13.75.25.94-.53.43-.27-.57-.71-.3.17.4.06.63-.16.81-.19-.07-.32-.24-.48-.36.24-.89.95-1.49.9-2.28-.38.02-.04.44-.52.41.29,1.46-1.58,1.7-1.44,3.07-1.28.54-1.48,2.74-2.53,2.75-.23.27-.4.57-.66.82.47.48-.22.77-.3,1.23-.14-.04-.19-.24-.41-.14.37.25.07.79-.24.56-.05,1.08-1.17,1.52-1.39,2.5.35-.11.23.38.26.56-.25.03-.16-.51-.38-.53-.77.48-.72,1.46-1.1,2.17-.54-.34-1.06.47-.79.84-.35-.01-.26.24-.56.27.58.85-1.45,1.7-1.29,2.97-1.21.16-.63,2.16-1.76,2.17.22-.17.24-.46.34-.7-.5-.08-.39,1-.92,1.47-.21.19-1.18.75-.76,1.05.08.25-.4.15-.56.26-.04.69-.61,1.05-.61,1.77-.66.43-1.36,1.79-2.02,2.71-8.71,11.73-17.15,23.54-25.72,35.31-8.56,11.75-17.25,23.45-26.43,34.78-.31.05-.32-.24-.38-.47,1.85-1.26,2.51-3.62,4.3-4.93-.16-.35-.05-.4.09-.73.18.04-.04.16.02.36.38-.12.13-.81.69-.77,0-.35-.38-.26-.39-.58,1.22-.17,1.96-1.48,2.39-2.71.72-.66,1.54-1.24,1.81-2.3.14-.03.21,0,.25.1.61-1.48,2.43-2.76,2.52-3.96.33-.04.26.18.48-.04-.03-.14-.23-.08-.37-.09,1.64-1.17,1.77-3.06,3.56-4.2-.32-.49.7-.93,1-1.3.49-.63.38-1.43.96-1.44.14-.78.54-1.34,1.3-1.6.11-.41-.4-.05-.28-.46-.1-.19.55-.26.48-.05-.06-.65.53-.75.61-1.28.2-.07.24.07.26.21.02-.76.63-1.04.81-1.67.54.34.08,0,.59-.19-.17-.14-.2-.43-.06-.6.12.08.29.1.49.07-.26-.72.96-.84.9-1.93.2-.03.32.05.38.2.44-.93,2-2.71,1.83-3.16.24-.47.99-.53.82-1.32.61-.14,1.31-.68,1.09-1.11,2.21-2.4,3.5-5.11,5.71-7.65,0-.2-.14-.19-.17-.34.36-.07.34-.2.81-.37.62-1.76,2.85-3.25,3.35-5.44.21-.05.27.1.49.04.39-.71.66-1.51,1.27-2.06-.22-.11-.93-.37-.67-1.11.41,0,.46.28.85-.02.29.05.23.72-.14.64.15.49.82-.13.44-.32,1.15-.52,1.03-1.95,2.18-2.47-.35-.53.21-1.03.9-1.16,0-.21-.13-.21-.28-.2.78-.65,1.14-1.58,1.94-2.22-.07-.15-.24-.15-.3-.31,1.02-1,1.6-2.94,2.84-3.38-.02-.11-.16-.06-.26-.07,1-1.2,1.57-2.67,2.85-3.69.28-1.13,1.57-2.47,2.37-3.6.02-.38-.37-.16-.36-.54.03-.12.06-.23.19-.29.61.78.95-.66,1.42-.93-.3-.38-.28.28-.57.25-.39-.07,0-.47,0-.62,1.23.1,1.26-1.25,2.09-1.73,0-.39-.37-.15-.36-.54,0-.14.21-.13.18-.29.17,0,.16.27.22.45.33-.1.46-.32.34-.7-.14-.1-.44.07-.43-.27-.23.06-.08.36-.42.35-.14-.43.41-.42.17-.91.57.02.52-.35.75-.55.4.16-.38.43-.2.79.78-.17.06.32.13.59.96-.39.32-.69,1.11-1.13-.07-.21-.41.02-.52-.13-.02-.11.12-.13.21-.17-.12-.23-.24-.21-.38-.03-.18-.62.21-.89.04-1.5.29-.13.38-.25.61-.02.19-.32-.21-1.01.24-1.17.25-.08.15.41.25.56.35-.12.11-.55-.13-.59-.08-.36.57-.26.48-.61.2,0,.18.35.53.12-.34-.67.21-1.87.76-1.55.15-.35.59-.51.35-1.09.82-.05.49-1.06,1.14-.92-.64-.91,1.27-1.1.97-2.13.56-.5.7-1.26,1.32-1.72.33-.09-.2.39.29.17-.1-1.4,1.45-1.82,1.61-3.06-.21.04-.21.21-.43.25-.13,0-.14-.21-.29-.17.32-.41.93-.66,1.2-1.09-.14-.18-.22.04-.35.1-.34-.02.25-.3-.04-.62.21.09.33.06.46-.13-.62-.87.96-1.03.72-1.97.35-.16.55-.05.59.33.38-.05.22-.4.49-.52-.08-.15-.32-.01-.5.02-.2-.38,0-.53.04-.77.21-.03.32.13.36.4.01-.68.56-1.07.82-1.62.2,0,.2.34.53.1-.6-.72.83-2.03.77-2.73.46.03.68-.63.76.03.25-.28.06-.42-.17-.59.12-.35.93-.01.82-.63-.34.01-.16.3-.39.38-.02-.14-.09-.2-.18-.2.43-.75,1.26-1.27,1.07-2.36.41.24.39.15.91.1-.1-.35-.49-.16-.79-.13-.4-.73.79-.62.5-1.3.52-.32.45.48.86.36-.12-.42-.48-.42-.7-.67-.12-.43.45-.15.39-.38.17-.01.18.26.25.43.25-.21.25-.74-.09-.73.79-.27.33-.5,1.09-.6-.03-.66.11-.64.57-1.07-.17-.17-.51,0-.52-.47l-.58.18c-.16.27.32.34-.24.46.02.21.16.19.3.16-.27.46-.89,2.02-1.49,1.35-.26.06.07.43.06.61-.44.1-.58-.24-.55-.59-.18.11-.55.91-.03.77-.06.39-.56.54-.3,1.11-.25.04-.18-.5-.4-.51-.44.1-.27,1.19-.82.63-.28.1.09.39.22.31-.13.29-.3.55-.67.71.09.14.26.12.33.28.03.25-.24.32-.21.57-.13-.05-.24-.16-.33-.28-.05.82-.41,1.47-.92,2.04-.31.06.11-.25-.13-.46-.34.11-.13.51-.6.55,0-.39.16-.7.66-.82-.5-.57.65-.99.51-1.67-.72.9-1.03,1.88-1.63,2.62.17.32.22-.18.47-.13.15.71-.92.14-.77.85.16-.11.25-.26.4-.37.28.42-.32.35-.04.76-.23.12-.27-.1-.33-.28-.1.11-.05.3-.29.33.44.4-.58,1.53-1.07,2.06-.43-.07.35-.25.11-.53-.45,1.09-1.01,2.12-1.8,3.02-.17,0-.17-.27-.24-.43-.55.11-.17.64.07.73-.16.49-.44-.25-.84.11-.06.51.51-.1.56.22-.38.61-.27,1.49-1.14,1.81.38.52-.02.66-.09,1.14-.31.18-.34-.09-.61.04.04.65-.32,1.07-.62,1.53-.34-.05.04-.49.09-.65-.48.13-.6.81-.53,1.38-.34.18-.3-.26-.64-.08-.12-.35.26-.55-.06-.73-.58.91-.75,1.64-.82,2.7-.46.28-.28-.52-.7-.32-.43.81-.8,1.65-1.69,2.17.25.68-.32.71-.54.87.06.23.36.07.34.41-.83.27-.87,2.06-1.59,1.73-.48.95-1.7,1.95-1.7,2.87-.69.2-.54.94-1.37,1.06.21.57-.35.66-.09,1.26-.31.17-.34-.1-.61.01-1.08,1.67-2.02,3.45-3.56,4.82.16.16.21.45.4.16-1.16,1.21-2.26,2.46-2.87,4.04-.04.45-.79.43-.96.8.05.12.25.03.28.19-.43.32-.98.74-1.07,1.55l-.71.13c-.61,1.69-1.85,2.94-3.02,4.24.04.09.14.1.16.22-2.01,2.27-3.49,4.93-5.4,7.26.16.68-1.41,2.1-2.2,3.15-.42.57-.48,1.21-1.15,1.38l.07.48c-.71-.09-.48,1.03-1.3,1.16-.37,1.51-2.17,2.75-2.79,4.41l-.48.06c-.86,2.1-2.76,3.4-3.59,5.53-1,.44-.93,1.73-1.92,2.18.03.76-.79.82-.81,1.53-1.26,1.03-2.1,2.4-2.89,3.81-2.29,2.68-4.06,5.8-6.41,8.43l.04.48c-.03.17-.21.03-.25-.1-.95,1.65-1.86,2.66-2.85,4.31l-.48.03c-.19.3.39.51-.2.74-.18-.04.04-.16-.02-.36-.23.11-.41.45-.21.61-8.8,10.71-16.48,21.89-25.65,32.26v.36c-1.47,1.19-2.22,3.12-3.88,4.1-.16.31.04.92-.38.59-.01.36-.44,1.04-1.01,1.17l-.02.48c-.48.44-1.03.81-1.27,1.52-2.53,1.9-4.07,4.92-6.89,6.47l-.04.48c-.66.05-1.25.76-1.19,1.23-.22,0-.24-.17-.47-.16.26.62-.22.53-.53.56-.25.94-1.07,1.52-1.87,2.26-.21-.01-.3-.12-.34-.27-.25.11.18.65-.42.69,0,.12.14.11.23.14-.09.29-.48.22-.42.69-.21.03-.22-.11-.22-.26-.07.37-.32.94-.71,1.27-.46-.17.07-.35.07-.72-.5.99-1.15,1.8-1.72,2.71l-.6-.06c-.19-.35-.05.31.35.16-.08.63-.47.84-.76,1.49-.32-.2-.69.3-.58-.18-.3.09.11.57-.66.53-.07.52.33.07.48.05-.17.74-.88.8-1.02,1.59-.14-.04-.08-.23-.08-.37-.19.03-.14.37-.5.19.42.26-.11.34-.09.84-1.54.45-1.68,2.87-3.28,2.96.27.77-.52,1.25-.83,1.71-.32-.44.48-.58.5-1.03-.21-.04-.27.11-.49.06.23-.49.3-1.19.57-1.62.52.71.98-.81,1.1-1.06-1.02.3-2.06,1.55-2.28,2.72-.16-.06-.06-.31-.06-.49-.33.42-1.17,1.12-.71,1.73-.15.34-.37-.12-.59-.08-.41,1.05-.9,1.41-1.35,2.58-1.02.8-2.03,1.62-2.55,3.12-.67.37-1.39,1.46-1.46,2.2-1.52.7-2.52,4.15-4.97,4.45,1.06.57-.68,1.24-.03,1.95-.42.19-.24,1.29-.96,1.02-.94,1.82-2.38,2.94-4.28,3.26-.04.35-.1.72.16.89-.18.24-.5.28-.91.15,0,.47-.32.45-.52.61.16.45-.08.53,0,.99.26.1.21-.31.44-.27-.62,1.12-2.17,2.14-3.76,2.17.19.62-.15,1.01-.69,1.18-.25,1.63-1.09,2.94-2.04,4.05l-.7-.2c.4.4-.44.75-.61,1.21-.09-.08-.18-.16-.16-.3-.94.86-1.9,1.5-2.39,2.66-1.05.79-2.44,1.9-2.91,3.27-.83.32-1.85,1.96-2.32,2.64-.8,1.13-1.54,2.13-2.01,3.32.31-.13.44.13.69.27-.11.34-.41.24-.53.58.47-.03.51-.39.89-.18.14-.73,1.17-.32,1.05-.95.12-.25.51.13.74.13.46-.37.94-.67,1.44-.93-.28.61-.48.73-.82,1.68.91-.58,1.99-1.23,3.06-2,1.06-.78,2.06-1.74,2.87-2.82.16-.2.42-.21.71-.17-.05-.13-.15-.24-.27-.34.23-.13.41-.38.6-.59.71.49,1-1.1,1.15-1.82.37.13.17.55.08.91.17-.21.61-.18.75.09-.2.54-.43.29-.43.89.3.13.11-.68.52-.36.21-.3-.06-.35.07-.62.09-.09.17-.18.31-.17.14.25-.06.68.09.92-.05.09-.15.09-.19.2-.07-.55-.54.16-.79.41-.22-.05-.2-.21-.44-.25-.56.61-.27,1.44-.81,1.94-.21-.24.24-.82.29-1.2-.29.14-.8.63-.45.89-.89.16-1.32,1.22-1.9,2.02.59-.02.77-.88,1.14-1.34.1.88-.73,1.62-1.46,1.51-.4.75-.85,1.42-1.61,1.44-1.45,1.98-3.49,2.69-5.11,4.43.61.18.95-.28,1.62.06.4-.38.88-.59,1.52-.42.11-.18-.03-.24.03-.39.59.35.73-.32,1.19-.26.25.1.13.38,0,.66.58.1.86-.49,1.35-.62.43.02,0,.44.33.5.76-.09.83-.85,1.52-1.35.43.31-.27,1.06-.46,1.42.15-.06.33-.04.53.04.04-.11-.11-.13-.19-.19.24-.36.59-.13.53-.62.22.05.2.22.43.26.42-.56,1-.77,1.58-1,.1-.3,0-.51-.3-.61.07-.29.19-.45.34-.56.33.21.55.48.78.75-.61.45-1.28,1.57-1.15,2.3-.91.74-1.89,1.45-3.04,1.72.56.48-.32.67-.77.82-.27-.27.45-.2.5-.51-.6-.12-.75.78-1.17,1.1-.42-.05.02-.47-.43-.27.14.57-1.02,1.17-1.69,1.33-.3.72-1.02.76-1.64,1.31.16.56.69-.16.95-.2-.47.58-1.72,1.83-3.03,1.77-.24.49-1.06.86-1.79,1.27-.75.39-1.4.85-1.24,1.59-.75.07-.75.87-1.4.84-.11-.27.3-.32.1-.66-1.29,1.11-2.49,2.49-2.23,3.63.44.12,1.16.13,1.13.6.95.07,2.21-.54,2.81.38.23-.59,1-.68.91-1.21-.16-.04-.23.17-.34.3-.3-.24-.03-.22.16-.5.36.22.65.2.89.05.35.09.31.31.1.6.27-.04.48-.2.41-.41.84.36,1.95-.72,2.73-1.41,1.32.27,1.98-1.22,2.79-2.23l.25.08c-.06,1.02-1.08,1.51-1.37,2.3.28.15.39-.13.69.09,1.21-1.57,2.34-1.67,3.54-2.99.09.05.07.16.19.19-.49.36-1.12,1.15-1.23,1.68.35.13.46-.27.79-.17-.25-.27-.05-.47.35-.44-.17-.17-.26-.38-.27-.63.6-.07,1.63-.93,1.1-1.44.1-.35.32.43.55.03.13.13-.28.33.03.55.39-.12.42-.87.2-1.02.19-.23.39.31.69.34.37-.45-.05-.54.13-.9.15-.29.42.09.32.23.44-.04.12-.48.15-.63.12-.02.58,0,.75.21-.08.39-.33.4-.45.68.66.01.63-.66.44-.95.59-.38,1.14-.69,1.23-1.53.55-.03.15.43.46.52-.28.31-.59.55-.9.83.49.15.64.45.43.92.31.05.43-.24.34-.44.23.34.42-.2.74.19.27-.67.71-.89,1.34-1.26.24.15-.26.64-.57.39-.06.1,0,.13.07.15l-.1.24c.48.09.69-.37.97-.69.33.21.29.62.62.83.02-.42.1-.28.3-.73.42,0,.4.24.7.31.16-.24.04-.34.07-.51.32.02.18.29.58.28.43-.46.98-.69,1.5-.96.41.21-.1.3-.17.75.37.06.39-.54.83-.33-.07-.12.06-.35-.11-.42,1.42-.4,2.24-1.87,3.59-2.38.03-.15-.19-.15-.33-.2.09-.31.19-.59.39-.71,1,.97,1.45-1.28,2.28-1.48.41,1.17-.67,1.41-1.07,2.26.5.02.62-.76,1.06-.31l.26-.73c.28,0,.3.15.46.23-.23.12-.27.59-.6.53.31.25-.1.31.04.66.72.35.37-1.21,1.11-.82.14-.63.3-1.27.38-1.89.44,0,.39.3.34.59.49.2.6-.24.91-.35-.17-.16-.21-.4-.01-.79-.21.02-.23.37-.58.15.17-.35.44-.51.82-.5l.35-1.11c.39.34.06.44.63.12.51-.05.05.5.51.48-.32-.78.27-.85.42-1.74.56-.19,1.05-.49,1.65-.61-.06-.92.33-1.34.62-2.09.48-.04-.02.56.2.68.68-.55.76-2,.75-2.72-.84.33-.44,1.43-.79,1.94-.21-.03-.3-.14-.3-.31-.29,0-.31.66-.05.64-1.03-.13-1.25,2.42-2.67,2.23.03-1.2,1.22-2.03,2.08-2.46-.14-1.31,1-2,1.94-2.78,0,.62.06,1.05.34,1.6.02-.45.32-.44.36-.84,1.21.28.68-1.07,1.8-.87.5-.84.33-.58.86-1.27-.3.02-.12-.26-.31-.3.14-.25.41-.3.45-.7.54.02.21.48-.04.63.29.27.91-.75.67-1.04.33-.18.44-.69,1.02-.49.46-.27.4-1.31.97-1.4.56.2.38.91.42,1.47.52-.45.34-1.19,1.16-1.64.46.07.36.24.65-.04.07-.44-.54.25-.47-.19-.24.14-.5.26-.64.55-.36-.28-.27-.29-.65.04-.14-.04-.05-.24-.04-.39.12-.27.66.09.8-.15-.08-.12,0-.35-.16-.4.18-.3.53-.33.77-.53.24.1.22.23.04.39-.1.18-.15-.07-.37-.05.11.23.14.52.51.58.25-1.85,1.28-2.55,1.91-3.81.18.01.36.03.35.17-.07-.27.39-1.25.85-1.68.33.3-.33,1.09-.13,1.26-.43-.14-.49.16-.03.12.58-.97,1.21-1.71,1.85-2.2.59.27-.54.9-.15,1.38.27-.24.47-.17.38-.59,1.24-.4,2.17-2.79,3.04-3.71.36.02-.31.79.25.66-.16-.48.12-.88.37-1.22-.27.1-.58.16-.72.43-.1-.03-.1-.14-.22-.15.26-.58,1.07-.43,1.13-1.27.22,0,.23.18.47.17.1-.59.6-.64.82-1.06.21.01.31.12.33.28.25-.03.18-.47.56-.33.08-.21-.06-.24-.21-.27,1.37-1.02,2.16-1.87,3.31-3.11.22.05.25.24.17.52.24-.14.33-.47.61-.58.21-.45-.44-.23-.27-.65.55,0,.79-.39.9-.94.31-.03.24.25.6.17,0-.26-.3-.27-.3-.52.7.04.29-.31.75-.83.31-.03.24.25.6.17-.03-.16-.12-.27-.34-.28.28-.57,1.6-.95,1.96-.5.45-.81-.85.07-.78-.68.25-.2.32.04.76-.08.11-.53.71-.62.43-1.22.3-.27.61-.61,1.05-.31l.09-.62c-.55-.13.14.35-.41.22-.23-.64,1.1-1.17,1.41-2.04.13.34.38.51.14.89.78-.07.13-.99.56-1.48.67.13.68-.52.86-.96.69.02.94-.49,1.24-.94.34.19-.27.42-.21.74.31.07.14.55.42.65.04-.72.52-1.26.49-1.98.22.02.29-.23.66-.35.48.24-.75.8.16.76.02.44-.48.29-.46.73.47.12.58-.91.93-.46.02-.43.35-.55.51-1.1.44.53.4-.35,1.04-.33.08-.75.59-1,.81-1.59-.22-.26-.74-.14-.78.22-.35-.47.47-.76.73-.97.24.14.24.51.18.63.23.16.43-.01.72.27-.49-.58.26-.52.25-1.25-.45-.19-.27.34-.64.23.2-.24.22-.68.68-.61.18.06-.06.16-.04.38.21.03.34-.2.37.01.42-.04-.28-.49.29-.37-.26-.15-.59-.24-.56-.64.32-.3.21.19.61.14.05-.31-.15-.4-.32-.51.09-.12.3-.12.28-.37.61-.05.29.73.8.77-.08-.23-.11-.51-.31-.63-.03-.49.7-.13.57-.74.39-.08.44.14.73.14.06-.53.5-.63.83-.86-.24-.58.37-.92.74-1.23.3-.04-.12.56.34.38-.06-.66.46-.78.86-1.23.15-.4-.4-.18-.33-.5.33-.43.42.3.86.14.16-.18.17-.31.04-.5,1.29.07.98-1.64,2-1.87-.17-.63.04-.7.23-1.37.11-.12.43.05.64-.25.37.24-.23.54-.19.87.59-.2.65-.74.71-1.24.43-.21.42.08.86.13.18-.34.5-.31.3-.75h.5c-.43-.22.13-1.03.81-.87-.23-.64.14-.63.56-.87.06-.47-.1-.04-.37-.12,0-.31.3-.3.41-.5.53.04.36.21.46.49.28-.28.63-.49,1.26-.39.01.14-.04.22-.14.25.27.19.75-.53,1.03-.77-.85.5-1.12,0-1.88.53.09-1.12,1.05-.33,1.41-.9-.28-.24-1.03-.03-1.22-.36.4.06.8-.43,1.25-.27-.08-.44-.33-.7-.43-1.12.36.5.65.15,1.11.11.29.04.04.59.47.49-.08-.31-.02-.37-.34-.62.16-.18.62-.2.14-.38.2-.19.56-.21.88-.26.19.18-.57.61-.05.87.13-.56,1.16-2.63,1.58-1.65.22-.17.13-.66.53-.63-.3-.84.84-1.09.73-2.13.52.28.64-.38.86.1.31-.13-.15-.48.03-.88.52-.47,1.17-.81,1.29-1.67.39.27.71-.26.51-.52.51.12.49-.28.88-.28-.26-.13-.36-.03-.74-.22.21-.29.73-.35,1-.29.39-.29-.19-.52.64-.65-.08-.12-.28-.12-.23-.36-.2.36-.56.56-1.01.66.47-.47.97-.91,1.41-1.42.1.02.12.12.24.11-.1.33-.75.5-.4.89.52-.16.32-.93,1.15-1.04,0-.18,0-.35.14-.38-.05-.15-.15-.25-.37-.23.07-.49.56-.55.65-1.02.35-.12.32.16.62.1.09-.4-.44-.15-.11-.49.4-.1.16.44.49.1.07-.28-.23-.17-.24-.36,1.7-.34,2.11-2.29,3.25-2.8.23,0,.07.42.24.48.47-.26.27-1.18,1.13-1.07-.05-.15-.16-.25-.37-.23-.1-.35.18-.33.13-.63.27-.07.23.16.24.36.35-.04.34-.43.63-.54-.02-.14-.23-.09-.37-.1-.09-.33.25-.27.25-.51.12.07.12.28.37.23v-.5c.3-.07.27.21.63.09.5-.74,1.01-1.47,1.62-2.1l-.37.03c.17-.17.05-.62.37-.65.26-.08.24.16.25.36.51-.26.82-1.27.86-1.57.36.13.56.02.62-.42-.56.13-.28-.19-.25-.48-.43.73-1.03.67-1.47,1.49.05.18.11-.02.25-.02.15.39-.4.12-.25.52-.5-.07-.42.01-.99.07.97-.55,1.4-2.11,2.33-2.3-.02-.1-.13-.12-.12-.24.1-.38.19.28.49.09-.14-.88.53-1,.98-1.33-.25-.43.03-.69.36-.9.17.32.2.79.63.82-.1.27-.51.53-.24.77.19-.3.26-.26.62-.17-.19-.37.04-.49-.13-.74.11-.32.55-.32.49-.79.71.14.99-.69,1.23-1.35.4.33.59.06.61-.55.15.04.26.14.25.35.58-.3.55-1.15,1.08-1.48-.02-.23-.41-.05-.38-.34-.06-.3.56.02.36-.41.21-.03.32.06.38.22.25-.17-.37-.29.11-.51.28-.06.46-.01.5.2.11-.51,1-.84.71-1.32.3-.08.27.2.62.06-.4-.35.25-.41.24-.4.36-.53-.01-1.13.83-1.33-.3-.42.37-.83.59-1.18.13.07.13.27.38.21-.24-.57.46-.56.34-1.28-.18-.34-.65.06-.61.31-.16.08-.02-.57.1-.63-.2-.39-.34.25-.49.3-.17-.02-.11-.3-.14-.49.06-.14.74-.05.6-.68.31-.05.6-.09.63.18.44-.06.32-.61.84-.6-.12-.21-.4-.32-.15-.61.35.56.26,1.38.09,2.13.24-.19.58-.3.85-.47-.04-.21-.28-.46.1-.52-.05-.16-.22-.17-.26-.35.09-.46.3-.05.73-.21-.59-.4.36-1.7,1.05-1.38-.32-.27.25-.3.09-.76-.43.03-.29.55-.72.58-.24-.21.49-.61.71-.83-.11-.13-.18-.32-.15-.61-.01-.29.34,0,.26.22.3-.16-.12-.54-.39-.46-.04.24-.34.27-.22.65-.19-.04-.32-.15-.5-.19.08-.49.75-.47.82-.97.31.14.33,1.09.77.66-.42-.21-.1-.25-.03-.63.42.28-.02.38.62.05-.23-.24-.3-.34-.16-.73.59.29.26-.67.96-.62-.63.9-.77,1.9-1.86,2.6.73.02-.33.81.3,1.1.22,0,.25-.18.49-.18-.32-.49.48-.82.84-.73-.54-.11-.07-.61-.65-.68.18-.17.12-.54.47-.56.33.03-.49.54.26.35.17.39-.4.14-.23.53.22-.04.27.12.5.07-.09-.77.34-.61.73-.46-.54-.46.56-1.06.8-1.6-.13-.35-.19-.12-.5-.06-.05-.83,1-1.27.78-1.85.39-.16.27.29.51.31-.3.39-.52.84-.94,1.12.07.27.24.42.52.44-.06-.21.09-.25.24-.28-.06-.11-.12-.21-.26-.22.72-.07,1.2-1.45,1.01-2.01.53.72.74-.26,1.36-.05-.02-.21.07-.34.22-.41-.25-.42-.33.27-.61.21-.37-.1-.22-.66-.33-1.34.63-.04.14.61.42.83.54-.15.19-.31.32-.8-.25,0-.34-.21-.52-.31.04-.25.47-.16.34-.55-.51.09-.21.85-.94.76-.01.58-.07,1.13-.41,1.44-.26,0,.15-.41.21-.53-.13-.33-.54.18-.23.28-1.37-.95,1.41-2.2,1.88-3.66-.17.03-.35.07-.38-.07-.33,0-.07.5-.47.44-.22-.11-.01-.87.44-.81-.43-.1-.37-1.04.18-1.03.14-.03-.05.65-.33.67.47.21.27.46.55.81.4-.19.42-.02.85-.24-.26.63-.77.71-.76,1.74.56-.05.29.28.87,0-.23-.17-.67-.08-.54-.68.38-.48.89-.84,1.15-1.42-.28.07-.46.03-.51-.18-.24.16-.41.37-.58.58-.18-.16-.08-.53-.05-.75.21-.07.24.07.26.22.51-.27-.3-.41.2-.78.22.13.28.46.53.56-.1-.9,1.17-1.47,1.08-2.41.24.02.25.32.63.16.06-.38.44-.5.3-1.05-.28.08-.47.05-.63-.03.11-.46.5-.69.53-1.21.39.04.59.85-.05.89.33,0,.32.42.65.41-.24-.67.2-.85.36-1.7-.4-.05-.14.44-.46.45-.32-.27.27-.47.17-.91.22-.05.27.11.5.05-.6-.72.67-.83.62-1.49.66.18-.07.83.22,1.1.12-.02.08-.17.1-.27.38-.22.13.39.51.17,0-.42.52-.63.06-.77-.11-.47.51-.38.56-.72.22.08.38.41.04.5.51.3.34-1.22,1.05-.8l-.06-.75c-.25.09-.33-.03-.5-.05.05-.4.31-.21.6-.22-.2-.86.65-.9,1.49-1.5-.06-.72,1.24-1.23,1.43-2.13-.31-.25-.31.25-.58.36-.28-.37.34-1.04.6-1.38.43.13-.34.46.06.62.32-.11.56-.22.73-.13,0-.28-.18-.91-.26-1.35.15-.41.55,0,.85-.15.18-.14.17-1,.56-.61.05-.84.57-1.33,1.06-1.84.46-.19.21.57.66.39.11-.57-.5-.18-.45-.68.04-.48.61-.1.98-.18,0-.3.35-.35.44-.59.14.19.37.26.76.12-.09-.08-.23-.31-.04-.37-.06-.31-.19.21-.49.09-.1-.38.27-.41.44-.59-.06-.29-.46.09-.48.21-.18-.09-.28-.29-.42-.43.19-.29.45-.12.19-.54.55-.09.19.25.42.43.41-.17.04-.39-.07-.62.14-.43.57-.64.77-1.03.22.13.25.52.45.68.35-.25,1.11-.17,1.16-.73.63,0,.9.1,1.43-.54-.28.1-.47.34-.73.14-.03-.37.22-.52.41-.72-.03-.25-.35-.09-.3-.45-.17.31-.94.59-.64.89-.19-.07-.41-.11-.42-.43.15-.28.51.1.3-.57.37-.23.14.38.51.15-.46-.24-.15-.64.28-.82-.13-.37-.4-.14-.49.1-.04-.22.12-.29.06-.52.22.03.7-.29.75-.02.13-.11.07-.91.44-.47.3-.15-.35-.82.12-1.04.17,0,.14.29.18.47.31-.34,1.18-.75.85-1.19.02-.15.52-.59.49-.1.41-.69.58-1.86-.08-2.65.1-.19.3-.31.3-.57.44-.13.27.59.79.35.02.54-.16.42-.42.59-.02.51.16.75.58.64-.02-.12-.16-.06-.26-.07.03-.32.02-.66.41-.72.32-.04-.14.25.06.5.43,0,.09-.54.56-.5-.58-.61.48-1.1,1.19-1.4-.08-.42-.43-.96-.81-.47.44.13.11.35-.17.55-.18,0-.04-.22.09-.28-.4-.09-.71.84-1.1,1.12.38-1.53,1.98-3.15,2.7-4.81.15-.01.14.2.17.34.24-.13.43-.29.27-.7.53.18.27-.26.69-.41.31-.11-.01.72.44.41-.27-.59.1-.56.6-1.03-.2-.47-.24-.91.48-1-.15-.47.25-.57.1-1.04,1.53-.15,1.77-2.09,3.15-3.18-.33-.17-.37-.7.16-.56.04-.42-.18-.45-.34-.56.04-.12.07-.25.2-.3.19.18.46.22.48.66.57-.26-.52-.5.26-.71-.43-.45-.16-.47.1-.93.27-.05.31.25.34.56.09-.99,1.16-1.9.64-2.99.08-.47.31-.32.54-.52.35-.07.3.47.69.34,0-.4-.24-.47-.47-.53.32-.33.03-.38.12-.8.53.02.69.82.45,1.17.21-.09.27.05.14.09.75-.26,1.68-.72,1.43-2.03.37-.16.15.6.57.37-.23-.53.71-1.01.98-1.56-.02-.23-.2-.22-.21-.46.14.05.18.25.41.15.15-.3-.04-.16-.09-.5.14,0,.13.23.29.18.51-.15.47-.65.1-.81.14-.02.21-.08.22-.19.14-.02.14.2.19.34.47-.72,1.71-1.53,1.46-2.35.84-.47.19-.61.73-.85-.32-.75-.07-.94-.06-1.67-.3.06-.34.3-.56.41-.11-.39.42-.39.37-.75.14-.02.15.2.19.33.34-.48.94-.79,1.29-1.26.15-.02.15.2.19.34.18-.22.43-.39.37-.75-.64-.74,1.4-1.66,1.34-2.75-.67.85-1.27,1.75-2.01,2.56,0-.43.35-.65.57-.95-.27-.33-.33.36-.55.42-.05-.25-.1-.49-.15-.74.21-.08.28.08.5-.01.2-.78-.49-1.15.27-1.78.3.08,0,.71.08,1.02.19.08.47-.01.55.23-.01-.22-.67-1.16.05-1.59.22-.03.32.13.34.42.45-.17-.26-1,.22-1.37.39-.21.26.46.67.19,0-.11-.07-.1-.14-.09-.21-.1.22-.45-.25-.58.14-.1.56-.58.11-.69.17-.15.1-.44.4-.51.28.14.22.85.56.88.03-.25.08-.6.06-.93.28-.14.31.15.62-.06.18-.54.57-.95.85-1.43.27-.06-.09.36.13.62.59-.48-.35-1.2.58-1.48.03-.2-.28-.59,0-.65-.1-.31-.17.23-.48.14l-.08-.37c.56-.31.54-.97,1.12-1.27.39.2.06.89-.42.93.06.32.06.61-.08.81.13-.27,1.04-.58.74-1.28.41-.2.39.35.79.14-.35-.61.23-1.55.62-2.32.37-.03-.05.3.11.49.19-.35.35-.05.71-.23.02-.56.46-.87.43-1.46.79-.34.23-.64.23-1.79-.15.38-.17.83-.51,1.09,0,.22.15.2.29.17-.01.28-.13.49-.36.65-.23.12-.06-.36.04-.41-.3-.02-1.42.39-1.17,1.04-.58.01-1.06.93-1.17,1.57-.32.07-.45-.13-.3.36-.94.56-1.53,1.31-1.8,2.26-.52-.26-.62.8-.96.29.08.22-.1.47-.2.85.22-.05.22-.23.45-.27-.02.2-.11.36-.14.56-.16,0-.28-.08-.32-.29-.36.07-.31.39-.67.46,0,.21.16.18.2.33-.32.06-.61.14-.4.51-.19.07-.47.08-.45.27-.28.13-.05-.58-.44-.26.38.65-.68,1.87-1.25,1.93-.34.18.17.23.1.49,0,.11-.09.16-.07.28-.35.2-.4-.11-.74.08.16.79-.84,1.58-1.43,2.24.16.35-.04.48.02.77.56-.2-.07-.47.37-.75.11.33.08.24.55.24.16.79-.37,1.08-.82,1-.13-.37.59-.21.39-.62-.22.34-.74.25-.79-.17-.31.49-.82.86-1.14,1.34-.31-.39-.19-.22-.62.04.07-.32.34-.51.77-.6-.06-.23-.41.02-.43-.27-.07.35-.47.5-.6.81.07.31.45.13.77.05-.17.5-.67.8-.61,1.46.15.18.45.14.57.36-.18.53-.38-.23-.74.07-.19,0,.02-.17-.07-.37-.78.15-1.1,1.37-1.97,1.57.07.91-.62,1.34-1.02,1.95-.5-.02-.05-.63-.42-.92-.58.29.12.89-.65.56.15.29.39.45.71.46-.16.65-.58,1.15-1.09,1.58.45.52-.11.91-.41,1.26-.15.01-.14-.2-.19-.34,0-.18.29-.18.46-.24,0-.15-.06-.21-.16-.22l-.04-.25c-.36.16-.13.72-.76.7-.07-.3.22-.36.28-.58-.32-.34-.48.33-.68.43-.28-.88-.49.52-1,.76.24.11.59.47.39.8-.23-.44-.49-.04-.93-.28.04.14,0,.22-.08.27.49.11.1.6.41.93-.19.17-1.02.55-.92,1.25-.37.15-.39-.23-.57-.38-.46.31-.74.69-1.12.78.03.16.06.33.08.49l.48-.11c-.22-.55.43-.52.62-.79.07.56-.61.62-.56,1.16-.86-.58-.91.59-1.72.92.24-.16.19-.53.52-.64-.34-.26-.62.46-.76.69.15.2.35.29.46.53-.16.48-.51-.04-.74.05.08.2-.05.26-.2.3.43.3.2.67-.5.76.62.08.08.22.25.83-.68.17.02-.77-.7-.48.43.48.1.67.29,1.08-.58.15-.04-.65-.35-.68-.25.36-.3.44-.11.91-.53.14,0-.36-.32-.44-.94.32-.49.92-.75,1.69-.28.06-.39-.13-.75.04.1.55-.43.66-.46,1.12-.25-.03-.33-.31-.56-.39-.06-.19.08-.24.07-.4.31-.16.27.2.42.29.24-.5.08-.81.56-1.27-.33.25-.8.4-.88.83-.37.12.25-.42-.18-.34.37-.25.54-.65.86-.95-.05-.13-.25-.03-.28-.19.05-.38.33.09.61-.13-.04-.21.04-.34.19-.42-.86-.62.7-.6.42-1.36.37-.15.39.35.62-.01-.14-.4-.61-.31-.74-.72-.34.06-.22.43-.55.5.04.14.24.05.38.04.07.42-.29.54-.51.75-.29-.13.04-.32-.22-.58.15-.33.48-.55.47-.99.37-.15.39.35.63-.01-.72-1.18,1.1-2.33,1.68-3.34.22.07.18.55.47.53-.7.84-1.54,1.58-2.07,2.53.16.31.48-.17.3-.45.4-.07.53-.43.64.1.11-.29.21-.59.36-.85.23.06.24.46.66.23-.25-.51-.07-.5.24-.82.35-.18.29.28.64.1.47-.45.64-1.31.57-1.8.12.08.34,0,.4.16.06.34-.38-.21-.2.3.57-.27.63-.89,1.18-1.18l-.15-.86c.29-.03.49.09.87-.08-.28-.62-.6-.11-.91-.16-.07-.45.85-.24.62-.79.52-.17.37.67.95.41-.02-.12-.16-.06-.26-.06.13-.75.74-1.18,1.22-1.7-.11-.51-.74-.22-.87.09.05-.37-.45-1.09.05-1.16.36.04-.12.37.21.46.42.06.02-.42.43-.37-.17-.35-.39-.21-.26-.71.26-.09.4,0,.43.28.56-.24-.34-.74.2-.95.29.02.17.69.59.49.02-.4-.21-.42-.26-.71.03-.12.06-.25.19-.31.24.13-.02.56.38.67.21-.41.38-.18.93-.37.71-.56.82-1.56,1.11-2.1.25.76,1.07-1.06,1.61-1.46.36.27-.5.68-.27,1.23.75-.41.34-1.43,1.09-1.58-.05-.14-.24-.04-.38-.02-.22-.42.23-.43.1-.8,1.07-.14.88-1.32,1.64-1.35.1-.91.75-1.11.6-1.99-.19.27-.15.03-.48.13.04-1.15,1-.91,1.64-.6-.17-.37-.56-.38-.78-.69.29-.29.45-.65.82-.89.26,0-.07.51.04.77-.22-.02.97-1.04.98-1.33.18-.15.57.09.29.18.36.2.19-.31.28-.47-.05-.14-.24-.04-.38-.02.35-.66,1.82-1.14,1.93-2.26l.6-.18c-.05-.24.29-.25.13-.56,1.18-.23.82-1.36,1.93-1.63.02-.94.71-1.5,1.58-1.95-.01.57.14.69.14,1.14.43-.81.37-1.92,1.05-2.05-.64-.33-.61-1.07-1.44-1.25.31-.35.72-.64,1.04-.99-.68-.33-1.06,1.33-1.84.85-.08-.26.41-.19.56-.31-.43-.32.33-.67.1-1.21.22.19.44.37.92.1-.38-.17-.31-.46-.35-.94.42-.09,1.05-.34.63-.6.36-.18.53.11.71-.23.37,0,.18.14.24.45.26-.31.52-.62.51-1.09.4-.14.33.57.74.41-.03-.21-.57-.65-.06-.77-.15-.14-.21-.44-.56-.21.09-.55.11-.44-.2-.85-.17-.3.58-.1.41-.4-.09-.53-.4.04-.62.08.05-.25.38-.35.34-.65.28-.06.22.56.59.33-.27-.27.16-.65.29-.37-.33-.8.39-1.49,1.3-1.91-.16-.12-.23-.41-.39-.53-.34.26-.26.1-.71.24.01.28.23.17.42.12-.24.74-1.05,1.17-1.6,1.74.04-.71.93-.96.98-1.66-.25.25-.49.5-.84.69,0-.42.56-.53.22-1.13.29-.06.33.35.68.16-.07-.21.08-.31,0-.53.23-.14.27.1.33.28.23-.08.06-.38.41-.4-.39-.31.15-.7-.25-.97.48-.31.49.28.92.08-.06-.45.62-1.05.9-.98,0-.65.46-.4.52-.98.37-.05-.05.3.13.49.56-.29.48-.93.96-1.26-.14-.3-.2-.38-.55-.6.22-.23.35-.83-.02-1.05.34-.28.19.36.54.07.22-.2.07-.59.46-.7-.04-.41-.33-.3-.17-.61.39-.14.31.64.59.72.13.31-.68.13-.37.53.4.11.67-.57.61-1.03.3-.22.35.06.62-.1-.06-.55.06-1.56.47-1.52.15-.1-.05-.22-.19-.2.1-.33.15-.68.68-.79-.19-.34.1-.43-.09-.77.07.49-.88.45-.61,1.03-.5.05-.48-.37-1,.11-.28-.73.35-.6.45-.7-.21-.51-.44.19-.77.02.16.29.08.45-.25.49.18.36-.11.46.17.61.31-.19.22-.52.58-.22.04.26-.51.22-.36.54-.36,0-.28-.42-.65-.03.6.09-.2.36-.33.66-.11,0-.52-.31-.25-.44-.1.23-.86.51-.87.99-.8-.03-.65.69-1.38.62-.08.49.27.6.02,1.04-.17.02-.18-.27-.25-.44-.66.1-.56.6-.93.85.13.23.25.19.39,0,.25.42-.3.57.08.76-.08-.01-.53-.14-.47.16-.37.01-.18-.13-.25-.44-.5.29-.36.91-1.13,1.05.71.57-.68.41-.21,1.13-.42-.33-.37.24-.74.12.1-.33.16-.67.69-.76-.49-.6.42-1.09,1.04-1.41-.21-.15-.42-.3-.46-.76.31,1.16-2.28,1.75-1.32,3.22-.34.47-.51,1.04-1.03,1.41.13.23.25.2.38,0l.19.73c-.04.19-.19.31-.41.4-.11-.37.28-.47.01-.93-.33.13-.43.39-.76.52l.13.49c-.06.14-.17.26-.29.36-.26.07-.33-.22-.39-.53-.45.53.55.71-.07,1.21.09.13.21.2.42.13.04.23.02.43-.12.56-.48-.67-1.34.46-1.87.73.08-.57,1.18-1.49.59-1.75.25-.48.76-.83.92-1.36-.4-.28-.44.51-.72.64,0-.49.17-.4-.1-.89.75.16.32-.43,1.08-.23-.06-.55-.43-.51-.78-.53.03-.38.5-.13.7-.24-.08-.28.11-.42-.07-.76.3-.21.35.07.62-.08-.18-.55.09-.22.37-.52-.03-.5.35-.77.3-1.28.35-.24.33.23.57.2-.08.46-.82.99-.18,1.25.16-.19,0-.56.04-.81.11.03.23.06.39,0-.15-.53-.13-.61.31-.76-.03-.6-.58-.24-.61-.84,0-.11.09-.16.05-.28.35-.18.41.19.6.32.47-.02.26-.41.64-.48-.01-.22-.15-.19-.3-.16.07-.58,1.03-.69.62-1.53.73-.74.74-1.57,1.62-2.03-.24-.47.18-.59.25-.89-.32-.28-.46-.21-.56-.59-.52.21-.43.27-.93.34.28.37.26.17.44.64-.07.41-.52.62-.3,1.18-.38.06-.38-.63-.63-.84-.29.1-.34.84-.75.53-.4.47-.14,1.29-1,1.52-.06-.44.25-.69.21-1.12-.18.18-.21.44-.64.48.27.25.23.33-.17.32.21.9-.92,1.08-1.05,1.8-.32.24-.28-.2-.37-.4-.38.07-.22.43-.49.56.34,0,.62.14,1.12-.12.13.05.24.16.33.28-.07.2-.25.35-.37.52-.2.01-.2-.34-.53-.08.02.27.17.29.24.44,0,.14-.21.16-.17.32-.42.02-.09-.26-.36-.4-.07-.34.52-.34.31-.76-1.66,2.29-2.89,4.8-4.8,6.94.52.5-.24,1.11-.77,1.01.23.34.69.27.92.62-.1.54-.68.16-.71.74-.14.02-.15-.19-.21-.33-.31.34-.18.93-.59,1.22-.54-.92-.97.69-1.91.98-.03.4.31.13.53.1-.39.62-.31.29-.82.77.07.17.36-.07.41.13-.04.19-.2.3-.41.38.13.11.23.28.26.57.04.48-.52.02-.35.63-.21.03-.32-.13-.35-.41-.74.81-.88.54-1.35,1.81-.16-.01-.28-.08-.32-.29,0,.97-.84,1.45-.99,2.33-.12-.02-.24-.05-.29-.17-.18.27-.11.7,0,1.15-.29.16-.44.07-.44-.26-.38,1.03-1.74,1.46-1.5,2.87-.34.19-.3-.27-.64-.08-.05-.24.29-.24.13-.55-.31.79-.41,1.96-1.29,2.67.25.31.58-.47.67.2-.54.22-1,.39-1.09.8.32.51.23-.3.55-.4.15.48-.21.64-.31.97-.25-.14-.44-.36-.62-.6-.37.83-.18,1.72-1.02,2.43-.14,0-.13-.22-.29-.18-.21.04-.22.21-.45.24.1.45.2.31.15.73-.16-.07-.35-.08-.62.03-.09.48-.41.8-.64,1.18-.29.06-.11-.39.05-.4-.62.01-.5.98-.21,1.46-.44.27-.41-.2-.48-.52-.33.53-.07,1.44-.64,1.82-.22.11-.28-.51.05-.4-.37-.1-.66.12-.9.48.05-.13.19-.52-.19-.33.01-.2.35-.2.14-.54-.42.08-.31.51-.61.66.25.02.49.46.12.61.09.17.14-.09.36-.09-.06.39-.21.71,0,1.27-.43.23-.27-.41-.67-.22.09.37-.16.75.18.97-.5.58-1.18,1.18-1.32,1.7.16.11.38.14.35.55-.57-.02-.5-.59-1-.02-.16-.39.17-.46.25-.69-.39-.21-.4.73-.71.92.1.11.3.06.31.31-.31.14-.31.38-.82.32-.02.39.27.31.25.7-.1.25-.91.02-.61.77-.28.12-.3-.16-.62.02-.07-.3.12-.42.27-.57-1.44.65-1.89,2.88-3.02,4.1-.2-.11-.3-.37-.36-.68-.27.21-.23.63-.62.76.03.31.25.34.44.41-.43.66-1.92,1.4-1.44,2.69-.47,0-.08-.42-.34-.56-.34.46-.39.58-.73.91.07.15.24.15.3.32-.19.58-1.55.84-1.13,1.49-.28.06-.39-.14-.74.02-.07.28.11.73-.39.71.5.84-1.02,1.15-.92,2.07-.1-.15-.47.07-.52-.15-.11.47-.11,1.01-.85,1.04.08.28.05.47-.03.63-.11-.05-.21-.09-.38-.05.17.22-.11.62-.21.29.04.37-.28.71-.73,1.01.36.12.25.33.08.61-.14,0-.13-.2-.17-.34-.37.28-.48.75-.85,1.03-.13-.52.34-.33.02-.75-.22.17-.49.31-.54.6-.17,0-.14-.29-.19-.47.19-.26.83-.2.64-.74-.14.38-.6-.15-.71.26-.37-.13-.21-.43-.1-.73.25-.01.29.28.43.42.39-.15.11-.49.02-.75.18-.24.23-.56.65-.62-.45.49.16.71-.23,1.04.16.32.45-.37.41.3.02.44-.39-.37-.36.07.02.59.13.16.52.16-.04.12-.08.24-.21.29.48-.13.75-1.36,1.36-1.75-.51-.13.12-.33-.21-.59-.22.35-.42.72-.45,1.21-1.04-.48.09-1.46.09-2.01.73-.29.71.46,1.3.38-.44-.34.47-.39.24-.92-.09.27-.7.8-.95.3.74-.08.03-.55.74-.89.42-.15.36.37.78.23l-.09-.61c-.17.04-.34.09-.38-.05.12-.93.72-1.52.99-2.34-.48-.01-.38.38-.66.51.05-.58.36-1.44,1.04-1.22-.18.16-.25.4-.12.78.21.27.33-.29.5.02.24-.51-.05-1.29.81-1.17-.17-.37.12-.42.28-.56-.12-.08-.12-.32-.3-.31.61-.37.74-1.64,1.49-1.56.19-.34.28-.74.44-1.09.13.07.22.18.3.31.33-.18-.14-.37-.1-.6.44-.14.55.19.7.48.35-.25.48-.77,1.02-.59-.22-.29-.69-.2-.74-.72-.53.32.5.58-.22.92-.34-.09-.43-.32-.36-.67.26-.65,1.31-.75,1.49-1.46.53.05.07.4.13.73.36-.11.29-.52.35-.84-.11-.04-.22-.08-.38-.04.05-.25.34-.16.05-.39.56-.23.1-1.15,1.04-1.12-.29-.26.07-.92.49-.74-.45-.65.04-1.33.57-1.65,0-.2-.15-.18-.18-.34.49-.23.56-.8,1.03-.49-.05-.28-.1-.56-.15-.85.57-.35.38.46.81.32-.08-.52.19-.8.56-1.01-.21-.2-.24-.66-.42-.91.42-.02.33.73.85.56-.7-.45-.02-1.38.56-1.65.1-.47-.36-.7.04-1.03.24.18.36.65.52.12.26.06.35.4.41.79.1,0,.1-.07.09-.15l.24-.06c-.04-.36-.34-.31-.38-.67.03-.52.57-.1,1.04-.39-.11-.46.47-.48.45-.88-.59.04-.68.41-.71.82-.17-.11-.45-.03-.74.06.28-.28-.07-.44.5-.63.07-.43-.4,0-.33-.42.56-.1.91-.87,1.35-1.36-.13-.21-.51.3-.52.51-.62-.25-.09-.95.25-1.21.49,0-.3.54.1.48.61-.15-.07-.46.35-.72.42.87.62-1.22,1.61-1.3-.19-.36,0-1.03-.08-1.62.61.43.82-1.13.7-1.45.17-.06.33-.11.38.03-.15-.26.29-.42.16-.94.68.08.32-.53.49-1.16.24-.01.29.28.64.08.18-1.18.82-1.49,1.16-2.62.26,0,.31.3.5-.01-.58-.36.07-.67.6-.68-.54-.1-.56-.79-.13-1.11.44.08-.28.48.14.6.22-.04.22-.22.45-.25-.12-.23-.41-.14-.23-.45.18-.02.12.35.32.29.48-.38.35-.66.07-.79.1-.46.46.27.59-.17-.39-.16-.31-.56-.22-.96.52.12.15-.23.68-.32-.31-.18-.06-.56.21-.7.19.07,0,.21.32.29-.39-.39.8-1.31,0-1.55.37-.16-.13-.83.26-.98.45-.04.08.39.33.8.28-.22.28-.59.55-.81-.86-.66.18-1.46.17-1.85.27.18.17.62.21.84-.19.1-.24-.03-.29-.17-.36.25.08.36-.06.79.38-.47.35-.65,1.2-.75,0-.41-.37-.16-.47-.37.8-.16,1.24-2.29,1.81-2.87,0-.13.07-.8-.3-.68-.1-.58.74-.59.14-.94.33-.12.38.24.59.33,0,.17-.27.19-.44.26.16.41.58.08.42.64.23-.39.05-.57.08-1.18.11.03.22.06.38,0-.11-.4-.28.06-.56-.21-.01-.31.4-.39.17-.82-1.02,1-1.73,2.16-2.45,3.32-.34.26-.19-.36-.53-.1-.16.29.06.3.15.59-.47.15-.48-.52-.62-.96.39-.64,1.48-1.01,1.48-2.12.12-.24.55-.3.62-.57-.46.04-.37,0,.03-.39,0-.35-.3-.17-.36-.4.88-.28.52-.65.81-1.17.27-.14.31.14.61-.07-.34-.14-.43-.51-.08-.75.27-.14.08.56.45.24-.1-.19.03-.25.17-.31-.12-.08-.2-.23-.25-.44.53-.58.77-.89,1.43-1.25-.57-.47.43-.44.23-.98.37-.01-.07.35.17.59.13-.3.22-.62.53-.82.02-.19-.31-.57-.05-.63-.45-.11-.35-.18-.47-.75-.23.65-.84.64-.78,1.29-.49.11-.17-.33-.57-.2.05.44.27.58.55.59.01.24-.17.38-.07.67-.5-.24-.52.39-.56.7-.43.03-.11-.49-.46-.76-.22.27-.1.35.05.63-.17.03-.59.11-.86.54.2.1.26.48.35.79-.3-.04-.49-.29-.91-.09.11.33-.25.4-.33.63-.13-.18-.41-.08-.56-.21-.29.91-.88,1.67-1.51,2.4.21.73-.71.82-.63,1.47-1.23.38-.66,2.23-1.95,2.24.19.31-.09.36.04.63-.4.04-.52.24-.79.36,0-.41.44-.5.02-.9.32.36.29-.08.55-.29-.21-.37-.29-.03-.47.14-.15-.56.25-.8.46-1.16.23-.06.05.48-.11.54.46.09.5-.93.81-1.26-.38.02-.14.39-.52.41.49-.66.27-1.12.54-1.82.3-.13.06.7.47.37l-.12-.47c.68-.51.87-1.44.86-2.04.17.67.46-.13.75-.49-.17-.15-.24-.44-.41-.13-.28-.85.63-.46.43-1.17.34-.1.51.13.71.29.23-.15-.1-.77-.23-.83-.01-.42.98-.67.46-1.05.08-.14.56-.55.66-.34-.2-.49.17-1.39.84-1.95-.05.5-.09.42.15.98.31-.17.56-.37.86-.54.03-.28-.66-.04-.33-.28-.32-.35-.18.36-.25.47-.53-.19-.38-1.28.36-1.41.31-.5-.4-1.54.38-1.8l-.13-.47c.29-.18.29.17.45.24.29-.25-.14-.87.34-1.01.37-.01.04.4.17.59.26-.98.35-1.97,1.23-2.24.11-.27.3-.5.09-.94-.22.12-.37.1-.42-.11.53-.13.46-1.23,1.17-1.58.11.28.2.56-.05.67.34-.03.76-.86,1.01-1.27-.2-.55-.14.27-.58.21-.12-.39.25-.53.09-.94-.16,0-.28-.07-.34-.27-.32.1-.17.28-.46.16.03-.11.06-.23,0-.39.78-.11.68-.31,1.19-.68.24.45-.48.41-.24.86.38-.04.28-.32.65-.36-.39.01-.27-.83-.1-1.13.14-.03.16.18.22.31.47-.03.24-.41.62-.48-.08-.21-.41.07-.53-.07,0-.68.67-1.04.75-1.69-.4-.2-.13.43-.47.56-.1.01-.15-.07-.27-.03.35-.33.11-.58.16-1.1-.44-.19-.48.27-.19.59-.38.27-.29-.57-.54-.07-.11-.35.06-.94-.49-.73ZM291.04,173.74c.14.45-.33.54-.56.78-.07-.41.22-.6.56-.78ZM274.43,194.52c-.17-.43.42-.76-.26-.69.07-.54.44-.87.88-1.17.16.39-.06.31.28.81-.17.06-.44.05-.45.22.03.16.23.07.28.19-.3.18-.1.69-.73.65ZM153.7,353.65c-.17.38.07.65-.46.52-.12-.22.11-.65.46-.52ZM158.46,361.51c-.44.46-.46.57-.66,1.29-.36-.23-.47.06-.57.39-.44-.18-.51-.17-.89-.5-.3.53.17.68.44.92-.79.21-1.09-.55-.88-1.17.87.25.97-1.1,1.69-1.16.47.16-.24.35.05.55.18-.32.66-.61.81-.32ZM203.47,324.85c.07-.45.57-.37.73-.71-.05.47-.34.65-.73.71ZM223.72,304.39c.32.11.71-.37.87,0-.45-.11-.71.57-.87,0ZM239.09,289.1c-.22.12-.18.51-.63.4-.05-.32.46-.72.63-.4ZM316.2,187.7c.19-.35.37-.71.83-.9-.2.28-.45,1.09-.83.9ZM307.51,191.55c-.31-.22.59-1.56.92-1.04-.6.17-.29.89-.92,1.04ZM324.28,164.04c.08.15.23.17.25.44-.23.05-.23.23-.44.29-.12-.34-.19-.65.19-.73ZM292.06,194.05c.4-.7.61-1,1.06-1.53-.09.68-.48,1.17-1.06,1.53ZM300.92,179.37c.18-.21.45-.9.72-.71-.13.24-.37.95-.72.71ZM305.81,172.02c-.11-.05-.49-.62-.03-.63.27-.03.28.62.03.63ZM310.27,149.72c.18-.12-.07-.14-.11-.35.6,0-.02-.6.58-.59.28.47-.21,1.07-.47.94ZM302.74,159.75c.09-.22-.05-.56.33-.62.22.54-.28.59-.33.62ZM294.57,168.97c-.28-.19,0-.67.43-.76.16.42-.16.58-.43.76ZM293.26,171.12c-.04-.36.45-.94.81-.74-.37.19-.24.66-.81.74ZM317.44,163.54c-.33.51-.38,1.17-.85,1.6-.12-.71.44-1.51.85-1.6ZM284.43,174.73c-.31-.23,0-.74.41-.85.22.5-.05.7-.41.85ZM300.21,170.37c.16-.25.06-.64.43-.77.1.33-.08,1.02-.43.77ZM318.79,164.25c.29,0,.22-.68.56-.32-.19.18-.24.79-.56.32ZM318.72,164.93c-.5-.08-.23.2-.52.44-.06-.2-.34.05-.42-.12.25-.37.47-.12.34-.64l.35-.12c.08.15.23.17.25.44ZM316.94,165.94c.1-.29-.03-.7.42-.8.23.47-.01.68-.42.8ZM304.01,171.92c.04.23.02.42-.11.55-.05-.48-.88-.65-.39-1.04.42.06.11.63.5.49ZM315.85,168.54c-.04-.16-.08-.32-.13-.48l.35-.12c.21.35-.08.44-.22.6ZM323.01,166.07c.59.14.13-.35.49-.57.52.2-.34,1.33-.49.57ZM303.2,173.71c-.6.32-.23,1.33-1.08,1.22.42.3.11.82-.26.98.32-.8-.28-.97-.21-1.86.77.04.09-.32.7-.21.11-.45.23-1.43.67-1.36-.09.04-.26.5-.03.39.06-.31.25-.54.58-.69.15.36-.15.46-.5.54.09.37-.27.75.12.99ZM289.56,176.9c-.36-.23-.01-.6.18-.8.29.19.12.66-.18.8ZM305.19,172.59l-.47.14c-.1-.26-.09-.46.11-.55-.05.43.4-.02.35.41ZM320.84,168.55c-.21-.43.6-.3.31-.77.35-.15.52.31.74-.13.24.84-.73.45-1.05.89ZM314.07,170.98c-.1-.36-.28-.77.16-.84-.1.25.25.76-.16.84ZM318.6,169.32c.58-.06.68,1.04.2,1.26-.29-.15-.37-.49-.31-.69.39.2.31-.25.11-.57ZM299.3,177.79c.38.21.32-.22.12-.54.14-.19.27-.22.47-.13-.04-.74.79-.97.71-1.74.32-.14.64.4.44-.26.37-.14.96.18.5.49-.05-.14-.11-.27-.29-.17.8.54.05,1.3-.03,1.93l-.59.17c-.14.33.1.88-.4,1-.38-.41-.05-1.16.29-1.48-.15.02-.1-.11-.06-.24-.17.24-.64.31-.74.59.19.63.28,1.2-.32,1.36.37-.61-.05-.64-.1-.99ZM313.99,171.66c.07.22.41-.04.44.25-.42-.03,0,.42-.42.39-.11-.38-.4-.44-.48-.89l.36-.11.09.36ZM279.41,181.79c-.29-.03-.28-.7.1-.64,0,.23.32.67-.1.64ZM286.37,181.24c-.38-.47.74-.88.48-.62-.2.18-.06.57-.48.62ZM317.21,172.3l-.13-.49c.14-.03.33-.13.38,0-.19.11.26.37-.26.48ZM313.9,174.42c-.04-.22-.19-.24-.42-.13l-.15-.6c.19-.21.52-.33.77-.5-.15.37-.12.84-.21,1.24ZM317.28,172.55c.14.28.4.34.62.45-.23.08-.07.38-.41.4-.17-.93-.58.44-.89.03.4-.2.31-1.21.91-.96l-.23.08ZM312.07,175.26c.6.17.32-.51.71-.74.55.58-.27,1.29-.71.74ZM311.57,175.8c-.23.25-.52-.17-.47.15.1.24.38.14.47.37l-.47.15c-.06-.19-.08-.43-.32-.29-.09-.29-.16-.58.09-.68.05.14.1.27.29.17.01-.37-.24-.26-.27-.57.47-.21.45.47.68.7ZM308.41,176.91c-.11-.51.09-.85.65-.98.03.47-.25.76-.65.98ZM316.69,173.79c-.04.5-.73.64-.74,1.15-.13-.51.07-.69.36-1.16.06.13.22.07.39,0ZM298.97,180.17l-.11-.48c.43-.02.55-.22.36-.61l.35-.1c.03.54-.35.83-.61,1.19ZM315.12,175.2c.3-.15.27-.48.62-.59.16.34-.33.85-.62.59ZM283.63,184.65c.04-.52.61-.7.74-1.17.39.43-.34.91-.74,1.17ZM318.17,174.61c.2.05.27.34.38.53-.06.25-.18.46-.36.64-.27-.04-.42-.29-.62-.45.32.67-.05.95-.18,1.37-.71.05-.8.41-1.34.82-.25-.46.53-1.15.9-1.6-.2.07-.33,0-.42-.13.27-.48.47-.54.59-.19.12-.42.49-1.7,1.4-1.63-.43.28-.09.33-.36.64ZM312.33,176.86c-.3-.33-.43-.59.03-.92-.31.52.33.43-.03.92ZM316.65,175.23c-.21.13-.23.36-.54.43-.14-.37.34-.85.54-.43ZM298.33,181.24c-.14.09-.21.22-.15.43l-.59.16c.04.72-.34.67-.44,1.39-.06-.24-.36-.06-.34-.42.46-.13.48-.54.54-.91-.31-.02-.58-.14-.64-.59.24-.16.4-.38.77-.47.11.37-.22.49-.04.9.37.05.56-.63.89-.5ZM297.83,181.25c-.07-.39.15-.6.6-.67.02.36-.37.47-.6.67ZM314.9,176.97c-.35.27-.19-.36-.53-.09-.06-.31.06-.52.36-.64.2.1.3.52.18.73ZM279.72,186.56c-.05-.31-.11-.61.22-.67.14.36-.04.52-.22.67ZM315.76,176.83c-.22.1-.29-.05-.5.03-.11-.31.07-.45.39-.51l.12.49ZM306.27,180.66c-.2.07-.38.08-.5.02.12-.38.13-.83.67-.96.18.45-.37.47-.17.94ZM314.34,177.8c-.52.26-.36.92-.86,1.19.3-.39,0-1.12.57-1.36.04.16.24.04.3.17ZM311.65,178.77l.12.49c-.23,0-.5.09-.65-.06.39-.02.15-.4.53-.43ZM315.37,177.87c.14.22.69-.3.68.18-.22.4-.31-.18-.74.1l-.14-.61c.23,0,.41-.51.59-.19-.02.23-.31.31-.39.52ZM296.29,183.84c.36-.23-.13-.47.33-.73.19.37.02,1.04-.33.73ZM310.23,180.78c.12-.32.14-.69.41-.91.19.5-.18.66-.41.91ZM277.37,189.45c0-.24-.06-.52.26-.55.28.17.18.55-.26.55ZM307.39,182.26c.27-.23.29-.6.73-.73.14.41-.5.89-.73.73ZM295.3,185.51c-.16.39-.51.65-.8.96-.11-.5.35-1.46.8-.96ZM315.46,182.04c-.09-.48-.11-.01-.38,0-.2-.36.35-.29.24-.6-.56.03-.54.39-.89.54-.17,0-.83,0-.47-.38.19.33.26-.25.59-.19-.26-.57.43-.6.39-1.04.49-.03.67-.15.89-.54-.05-.2-.35.04-.41-.13.8-.48.88.1,1.32.76-.22.11-.27-.09-.41-.13.05.2-.31.17-.3.36.2-.08.37-.09.5-.03.07.43-.3.49.14.61-.11.19-.13.42-.53.44-.1-.2.1-.37-.09-.37-.14.27-.36.5-.6.71ZM311.62,182.96c.27.15.03.37.01.64-.52-.12-.47.51-.85.77-.22-.61-.2.34-.72.21.04-.43.57-.58.68-.97-.07-.86-1.01-1.18-.38-1.7,0,.6.56,1.65,1.25,1.05ZM276.18,192.17c-.2-.05-.09-.59-.45-.4-.04.53.29.48.4.78-.23.02-.24.19-.45.22-.39-.57-.33-.93-.66-1.46.89-.16.9-.28,1.47-.68.05.47.08,1.09-.31,1.55ZM294.17,187.31c-.22-.3-.14-.6.21-.81,0,.32-.12.55-.21.81ZM317.3,180.66c-.07-.23-.41.04-.44-.25.12-.43.78-.06.44.25ZM309.79,183.89l-.21-.97c.15-.05.13-.2.33-.23.37.12.3.95-.12,1.2ZM293.66,187.82c-.3.09-.33.32-.5,0,.24-.06.08-.36.43-.36l.08.36ZM302.71,186.17c-.59.21-.38-.64-.04-.76.17.35-.12.41.04.76ZM314.52,182.33c-.08.16-.58.3-.65-.06.29-.11.57-.2.65.06ZM293.8,188.54c-.02-.07-.05-.14-.14-.09.05.21-.03.33-.16.42-.07-.39.02-.69.33-.84.02.18.13.43-.02.51ZM295.31,189.17c.41-.1.06-.66.47-.75.12.36-.13,1.03-.47.75ZM320.49,182.28c-.24-.33-.33.25-.06.28-.29.12-.41-.07-.56-.22.28-.32.03-.36.45-.81.17.24.27.49.17.74ZM272.54,196.77c-.12-.36.23-.4.38-.57.13.36,0,.55-.38.57ZM299.67,190.84c-.1-.31.08-.44.4-.49.1.31-.09.44-.4.49ZM289.24,193.6c-.44.2-.57-.47-.1-.48.06.33.25.2.1.48ZM298.51,191.91c.09.52-.46,1.19-.93,1,.61-.07.35-.7.54-1.03.12.26.16-.19.38.03ZM269.7,200.15c.12-.37.23-.74.7-.87-.02.42-.27,1.07-.7.87ZM315.13,188.68c.21-.1.58-.64.81-.37.02.24-.61.62-.81.37ZM307.14,192.82c-.52.03-.52.39-.91.5-.09-.45.5-.48.17-1.07.3-.03.22-.29.58-.29.03.51,0,.39.17.85ZM290.23,197.52c-.4.15-.69.12-.69-.34.21-.19.63-.03.79-.44.21.42-.23.41-.1.78ZM311.17,194.03c-.08-.45-.12-.87.16-1.09.08.44.29.97-.16,1.09ZM300.42,196.53c-.1-.31.09-.44.41-.49.1.31-.09.44-.41.49ZM304.59,195.95c-.05-.42,0-.79.46-.9.04.42-.26.63-.46.9ZM302.04,197.13c-.54.23-.4.89-.77,1.23-.36-.58.15-.93.46-1.53-.06-.15-.24-.2.07-.28.13.12.22.29.24.58ZM292.75,200.34c-.05-.57.23-.92.52-1.26.08.59-.23.92-.52,1.26ZM310.71,196.23c-.05-.32.14-.49.25-.72.15.3.51.26.62.6-.4.21-.5-.05-.87.11ZM311.2,194.8c.44.1.4-.19.82-.36-.25.59.28,1.49-.49,1.43.16-.52-.16-.67-.33-1.07ZM310.01,195.9c.4.02.34-.78.68-.44-.17.29-.25.64-.75.72-.03-.22-.17-.25-.41-.15-.02-.38.09-.66.34-.87.08.21-.22.71.14.74ZM302.47,198.7c.28-.11.14-.49.53-.53.13.31-.37.75-.53.53ZM303.05,197.77c.03.33.48-.03.45.4-.34.26-.75-.17-.45-.4ZM300.58,198.67c.13.37-.08.52-.1.8-.43,0-.48.27-.67.43.06-.42-.04-.28-.14-.74.36.04.54,0,.41-.49.21-.06.38-.07.5,0ZM282.43,203.8c-.17-.41.17-.64-.14-.84l.24-.05c0-.07,0-.15.1-.15.24.35.21.85-.2,1.04ZM266.09,206.23c-.23.11-.18.4-.46.2-.15-.39.38-.54.46-.2ZM309.94,196.83c.12-.25.33-.44.65-.57.27.43-.57.71-.65.57ZM285.9,203.81c.02-.41.21-.71.58-.89-.02.41-.22.71-.58.89ZM307.54,199.55c.19-.11-.06-.15-.07-.37.27-.29.71-.04.63-.69-.23-.19-.46.35-.65-.08.19-.31.43-.42.82-.35.15.68-.19,1.62-.73,1.49ZM289.91,203.28c-.31.26-.11.86-.71.92-.1-.46.2-.66.19-1.06.27-.1.45-.07.52.13ZM300.1,201.5c-.12.14-.29.24-.58.27-.2-.42.51-.63.58-.27ZM306.74,200.67c-.03-.17-.11-.26-.19-.34.12-.14.29-.25.58-.28.04.32-.09.53-.39.62ZM298.97,202.92c.12-.24-.18-.77.23-.82.07.37,0,.65-.23.82ZM296.33,204.32c-.15-.52.33-.35,0-.76.21-.06.38-.06.5,0,.1.43-.06.68-.5.76ZM297.56,202.75c-.5.11-.11.79-.73.81-.24-.52.37-1.04.73-.81ZM305.2,201.21c-.24-.45.21-.44.53-.53.11.36-.35.36-.53.53ZM297.99,203.79c-.15-.39.18-.46.26-.7.33.21.14.64-.26.7ZM297.96,205.08c-.04-.59.05-.77-.31-1.08.17-.28.36-.03.62-.02.12.37-.09.52-.12.79.14-.05.24-.28.36-.09-.14.57-.55.6-1,.75-.07-.16-.21-.19-.2-.46.37-.2.4.1.64.1ZM296.44,205.7c.05-.69.42-1.17.85-1.61.63.51-.29,1.24-.85,1.61ZM307.56,202.4c.12-.47.53-.75.8-1.13-.09.49-.25.93-.8,1.13ZM303.96,203.35c-.17-.15-.51-.41-.1-.61.08.06.38.51.1.61ZM305.95,203.87c-.44.32-.14-.52-.45-.4-.27.11.03.6-.4.62-.06-.62.34-.95.64-1.33.25.3-.15.64.2,1.12ZM295.2,205.74c.12.78-.88.88-1.18.41.43-.05.54.1,1.18-.41ZM296.06,206.43l-.11-.61c.15-.01.34-.1.38.04-.32.04.23.66-.28.58ZM301.45,205.64c-.31.12-.36-.18-.45-.4.15-.04.14-.2.34-.21l.1.62ZM303.93,205.41c-.37,0-.63-.18-.73-.59.49-.19.88.28.73.59ZM297.09,206.57c.18.44-.47.56-.68.42-.08-.59.24-.23.68-.42ZM303.15,206.76c-.21.04-.37.12-.46.24.07-.49.41-.38.1-.92.53.17.33-.32.81-.46.05.51-.51.61-.44,1.14ZM301.04,208.44c.81-.16.74-1.48,1.41-1.37-.33.43-.68,1.94-1.41,1.37ZM301.34,207.98c-.04-.24-.36-.08-.32-.43.16-.08.2-.23.46-.24-.12.41.21.43-.14.68ZM299.8,210.8c-.39,0-.18.4-.56.39,0-.3.04-.57.26-.71.06.17.23.16.3.31ZM290.59,214.41c.14-.28.35-1.26.77-.68-.45.02-.49.9-.77.68ZM278.14,216.79c-.43.2-.56-.51-.21-.58,0,.3.26.22.21.58ZM291.09,214.42c-.09-.32.2-.37.43-.47-.01.29.47.59.23.71-.14-.19-.46-.13-.66-.24ZM291.56,215.09c-.46.25-.73-.43-.33-.56.16.12.38.15.33.56ZM296.95,214.28c-.56-.05-.19.54-.67.53.02-.54.31-.9.56-1.27l.11.74ZM292.12,215.47l-.07-.49.36-.08c.16.37-.13.43-.29.57ZM289.8,215.84c.09.63-.46.17-.79.55.06-.33.5-.72.79-.55ZM288.79,216.57l-.48.1c-.14-.33.13-.92.41-.6-.3.08.03.43.07.49ZM276.62,219.19c.08-.2.36-.25.57-.35-.63,1.08-1.28,2.14-2.31,2.93-.29-.66.66-.4.49-.97-.3.07-.34.3-.5-.04.22-.32.42.03.84-.15-.12-.57.63-.49.47-1.09-.2.15-.26.4-.69.38-.09-.29.18-.31.04-.63.29-.19.49.45.62.01,0-.33-.48,0-.43-.42.06-.18.23-.27.45-.33.19.17.19.61.46.67ZM290.78,216.53c-.63.08-.54.66-1,.85-.15-.39-.56-.29-.37-.81.43-.23.43.18.66.24.07-.28.31-.44.25-.82.37-.14.43.18.45.54ZM295.55,215.87c-.06-.41-.18-.86.24-.95-.06.33.16.85-.24.95ZM286.08,217.52l-.07-.49.36-.08c.08.31.04.54-.29.57ZM286.16,220.9c-.03.17-.12.28-.33.32.02-.79,1.09-.45,1.41-.66l-.08-.61c.81-.27,1.15-.88,1.41-1.55-.3-.3-.42-.71-.39-.94.57.34,0-.41.55-.5.05.73,0,1.26.27,1.85-.95.05-.87,1.37-1.23,2.01-.09-.17.06-.66-.2-.59,0,.41-.27.63-.24,1.06.14-.05.25-.27.37-.07-.43.11-.44,1.09-.89.81.44-.23.31-1.16-.27-1.08.48.39-.5,1.16-.74,1.03.21-.26.98-.91.35-1.08ZM286.63,221.69c.16.1.12.56-.03.76-.12-.29-.29.29-.59.24-.02-.49.34-.72.62-1.01ZM295.41,215.77c-.16.44-.47.79-.84,1.08.1-.45.37-1.24.84-1.08ZM290.87,217.14c.18-.09.05-.41.45-.35.29.36-.36.61-.45.35ZM289.69,218.42c-.07-.32.21-.95.53-.62-.27.14-.26.48-.53.62ZM294.17,217.58c-.21-.14-.1-.64.27-.7.11.38-.08.54-.27.7ZM274.1,222.4c-.26-.28.27-.46-.21-.71.45-.22.58.65.21.71ZM273.58,223.24c-.3-.22.06-.52-.12-.97l.36-.06c.03.43.16.93-.25,1.03ZM288.21,220.37c.07-.22.21-.95.54-.61-.24.17-.19.53-.54.61ZM291.35,220.49c-.08-.32-.03-.55.29-.58.08.32.03.54-.29.58ZM285.29,222.84c-.17.17-.25.41-.42.59-.07-.41-.33-.61.01-.89.04.23.41,0,.41.3ZM283.57,223.93c-.21.03-.37.1-.47.22l-.03-.25c-.07,0-.15,0-.14-.1.6-.18-.22-.32-.2-.59.22-.1.17-.39.57-.36-.02.51.21.68.27,1.09ZM285.43,223.95c-.18.01-.44.13-.5-.03.37-.25.22-.88.88-.93-.05.53-.51.53-.38.96ZM249.36,229.58c-.37.1-.41-.21-.43-.56.17-.01.26-.09.34-.16.18.13.23.55.08.72ZM271.39,226.58c-.03.34-.27.53-.67.61-.08-.41-.59-.81,0-1,.12.42.23.73.66.39ZM282.15,225.46c.19-.28.48-.18.62,0,.04-.75.83-1.55,1.55-1.44-.76.4-1.08,1.26-1.12,1.86-.12-.23-.37-.27-.65-.26.28.24.28.29.08.62-.23.08-.26-.12-.39-.18.26.42,0,.25-.18.54.43,0,.17.5-.18.54-.24-.17.05-.44-.11-.87.44-.45.67-.34.39-.83ZM292.07,224.15c-.57.19-.1.94-.23,1.19-.58.06-.2-.36-.48-.79.38.05.18-.32.18-.55.27-.09.46-.06.52.15ZM283.49,226.22c-.35.23-.58.54-.89.8.01-.33.1-.6.27-.81,0,.21.47-.56.62,0ZM289.06,226.03c-.19-.13-.31-.7.03-.77-.04.23.24.7-.03.77ZM290.75,226.58c-.14-.36.17-.41.03-.77-.3.08-.35.31-.5-.02.25-.16.54-.88.93-.57-.02.46.12,1.05-.46,1.36ZM281.54,227.48c-.42-.11-.28.75-.58.35.08-.26.33-.88.58-.35ZM285.17,227.81c.11-.37.37-.63.5-.99.17.16-.14,1.21-.5.99ZM289.67,226.92c-.02-.17-.09-.26-.17-.35.26-.08.59-.69.82-.42-.39.13-.16.71-.65.77ZM279.4,230.61c.13-.6.67-1.32,1.03-1.94-.24-.01-.53.05-.53-.28.64.34.37-.2.95-.42.07.47-.09.68.48.92-1.11-.08-1.12,1.24-1.92,1.72ZM245.9,233.97c.28-.14.07-.69.54-.67-.04.27-.26.96-.54.67ZM267.67,231.66c-.32-.02-.43.11-.33.42-.62-.04-.55-1.14-.02-1.36-.04.63,0,.62.34.94ZM288.47,228.31c.16-.56.65-.88.96-1.34l.05.37c-.45.24-.56.73-1,.96ZM276.25,230.15c.24-.27.61-1.03,1.02-.8-.38.16-.51,1.11-1.02.8ZM278.14,230.45c-.58.16-.61.74-1.13.95,0-.65.75-1.31,1.09-1.32-.19.06-.05.28.04.37ZM288.18,229c-.02-.2-.34,0-.39-.18.28-.09.17-.48.56-.49.06.31.1.6-.17.67ZM286.97,230.26c-.1-.45.11-.68.39-.84-.1.3-.06.71-.39.84ZM278.97,231.19c0,.65-.39.48-.93.54-.01-.22-.07-.38-.17-.47l.24-.04c.23.38.5.27.87-.02ZM288.45,230.23c-.37.34-.34.96-.99,1.08.22-.43-.32-.64-.12-.99.43-.3.62.47.76.11-.08-.23-.37-.16-.32-.58.36-.06.49.2.67.38ZM286.21,231.29c-.12-.12-.2-.3-.19-.6.47.05.32-.37.71-.38l.03.25c-.43.02-.21.42-.55.73ZM277,233.55c.26-.33.32-1.76.86-1.16-.58.17-.26,1.01-.86,1.16ZM274.3,234.88c0-.3.07-.55.3-.68.2.15.08.64-.3.68ZM274.99,235.52c.48-.33.78-1.82,1.47-1.25-.69.19-.91,1.35-1.47,1.25ZM271.38,236.7c-.09-.38.1-.53.31-.67.21.16,0,.57-.31.67ZM272.77,236.99c-.88-.04-.73.73-1.27.95-.23-.56.72-1.08,1.09-1.54-.02.3.25.23.18.6ZM272.92,237.34c-.69.14.15.85-.52,1.08.07-.57-.01-.33-.19-.72.14-.22.5-.86.71-.36ZM270.91,239.65c-.1-.43.05-.65.3-.8.24.2.21.84-.3.8ZM279.65,238.78c-.18-.52.21-.6.41-.83-.11.3-.07.71-.41.83ZM280.03,238.85c-.09-.31.36-.78.57-.48-.31.06-.08.56-.57.48ZM278.45,239.35c-.04-.23-.42,0-.51-.17-.06-.32,0-.54.32-.55-.06.32.59.42.19.72ZM279.91,240.38c-.08-.12-.09-.57-.44-.69,0,.28-.29.32-.59.35.1-.5-.03-1.17.5-1.34-.1.8,1.37,1.24.52,1.68ZM267.74,241.37c-.19-.36.28-.75.45-.44-.23.08-.05.49-.45.44ZM278.07,240.67c-.06-.32,0-.54.32-.56.06.32,0,.54-.32.56ZM269.86,241.68c-.2.38-.59,1.09-1.03.9.02.43-.72.63-.27,1.05l-.49.07c-.1-.38.2-.42-.05-.62.48-.27.65-.48.29-.92.37-.2.31.15.51.18l-.06-.62c.66-.05.58.46,1.11-.04ZM267.46,243.91c-.71.07-.3-1,.17-1.02.05.17.22.18.28.34-.32.49-.74-.06-.44.68ZM267.3,245.05c-.52.15-.48-.4-.55-.8.19-.04.07-.33.35-.3.24.61-.15.53.21,1.09ZM264.37,245.56c.05-.31.06-.65.44-.68.06.4-.1.61-.44.68ZM232.67,251.84c0,.27-.3.87-.57.52.3-.03.26-.47.09-.61.21-.02.37,0,.49.09ZM262.36,250.18c-.71.09-.34-1.39.18-.9-.41.16.07.49-.18.9ZM231.88,252.98c-.18.46-.56,1.35-1.16,1.04.61-.29-.14-.48-.15-.83.45-.03.6.26.86.43-.13-.48.08-.95.45-.64ZM230.16,255.02c.21-.12.18-.45.47-.51.43.31-.37,1.02-.47.51ZM267.81,254.37c.03-.37.22-.6.57-.71.11.48-.24.59-.57.71ZM267.18,255.97c.36.6-.27.34-.47.56.5.11.45.65.54.94-.57.1-.22-.89-.78-.78.05.16.19.22.15.48-.08.11-.68.36-.74.09.56-.21.58-2.69,1.29-1.53.24-.28.47-1.18.93-.88.12.38-.45,1.24-.92,1.13ZM267.47,256.94c.06-.54.38-.87.68-1.22-.09.51-.16,1.05-.68,1.22ZM227.31,260.12c-.41.13-.41,1.26-.94.89.31-.27.37-1.24.94-.89ZM266.67,258.41c-.19,0-.45.1-.5-.06.49-.18.55-.38.34-.79.55.09.26.5.17.86ZM264.84,259.13c-.38-.05-.13.45-.6.32.02-.32.52-.75.6-.32ZM266.74,259.78c-.28.07-.47.03-.51-.19.14-.04.35-.02.36-.17.02-.1,0-.25.11-.26l.03.62ZM224.5,263.38c-.04-.16-.18-.23-.13-.48.39.09.37-.2.6-.26-.01.38-.07.72-.47.74ZM262.86,261.74c-.09-.15-.4.19-.49.18.04.18.21.19.26.35-.25.41-.71.23-.75-.29.37-.32.61-.76,1.07-1-.08.39.02.64-.09.76ZM222.93,264.03l.48-.02c.1.46-.57.48-.48.02ZM261.08,263.33c-.07.3-.2.55-.59.57-.04-.4.18-.56.46-.68.01.08.03.15.13.11ZM221.3,267.71c-.23.06-.3.27-.6.26.02-.16-.49-.35-.13-.48.04.28.33.28.36,0-.18-.06-.3-.18-.37-.36.24,0,.15-.33.48-.25-.11.49.37.36.25.84ZM259.93,265.95c-.39.19-.72,1.06-1.09.86.27-.12.3-.47.48-.67-.23,0-.27.17-.49.17.05-.29.23-.66-.03-.87.43.11.8.28,1.13.51ZM220.11,268.96c-.05-.23-.26-.3-.25-.6.31.02.71.48.25.6ZM258.35,267.11c-.57.09-.82-.18-1.01-.53.17-.01.27-.09.37-.16.1.36.71.14.64.69ZM219.27,269.22c-.03-.31.04-.52.36-.49.04.32-.04.52-.36.49ZM257.75,268.17c.25-.43.47-.88.96-1.09-.27.45-.22.63-.47.92-.03-.09-.11-.13-.25-.1-.01.15-.03.3-.24.27ZM257.02,268.49c-.04-.17-.27-.12-.38-.21.07-.63.46-.97.96-1.22-.02.37.29.36.27.72-.35.18-.48.55-.85.71ZM218.17,271.16c.04-.4.02-.74-.24-.84.34-.03.33-.4.6-.49.05.73.41.05.48.47-.51.06-.46.67-.85.85ZM257.3,269.59c-.23.05-.28-.11-.5-.08,0,.13.1.14.13.24-.41.16-.41-.13-.38-.47.15-.03.35-.01.37-.16-.14,0-.14-.18-.13-.36l.37-.04c-.04.61-.07.48.15.86ZM255.57,269.75c-.04.37-.41.44-.6.68-.11-.51.21-1,.6-.68ZM254.75,271.71c-.13.25-.16.59-.48.67-.14-.45.25-.43.35-.66-.1-.02-.24.02-.25-.1.17-.02.27.03.37.09ZM252.92,272.87c.34-.1.3-.54.74-.56,0,.34-.47.87-.74.56ZM252.91,272.62c-.1.03-.14.12-.12.26-.28.06-.47,0-.5-.21.18-.04.21-.22.37-.28,0,.16.22.09.25.23ZM251.44,274.11c.02-.64.38-.97.85-1.19-.05.61-.65.72-.85,1.19ZM251.94,274.94c-.32-.53.13-.9.49-1.16.01.55-.05,1.02-.49,1.16ZM249.6,275.87c-.17-.03-.24-.16-.49-.09.03-.51.17-.91.73-.93-.29.37-.4.86-.24,1.02ZM246.9,280.69c-.03-.32-.22.18-.5.03-.09-.3.53-.56.62-.29-.23.05.07.2-.13.26ZM221.09,308c-.27.07-.38.31-.76.25,0-.54.24-.83.46-1.12h.37c-.25.49-.24.38-.07.88ZM218.58,309.71c.57.04.48-.85.9-.23-.3,0-.65.62-.9.23ZM176.26,313.22c.25-.96-.76.38-.61-.81.45.11.4.19.73-.02.09.23.35.8-.12.84ZM176.32,311.89c.14,0,.33.07.37-.07-.01-.22-.52-.59-.14-.75.17.12.13.4.43.42-.31.34.17.88-.16,1.2-.27-.19-.59-.33-.5-.8ZM212.45,316.29c-.05.36-.34.45-.57.6-.2-.22.16-.41.1-.87.35-.08.22.26.47.27ZM175.28,314.04c-.36-.08-.41-.4-.64-.58.28,0,.15-.55.55-.4.07.49,0,.47.1.98ZM210.82,317.35c.45-.17-.01-.52.45-.6.19.09-.17,1.11-.45.6ZM175.03,314.12c-.02.26-.15.36-.41.3-.05-.22-.08-.39.07-.47,0,.14.17.16.34.17ZM191.45,336.27c.43.02.38-.63.77-.67.04.53-.53,1.04-.77.67ZM190.35,337.29c.39-.25.64-.7,1.17-.75-.17.55-.53.84-1.17.75ZM190.08,338.02l.1-.5.37.04c.03.41-.27.37-.47.46ZM158.36,343.22c-.39-.1-.35-.45-.26-.82.25-.4.81-.68,1.16-1.35.13.05.34.06.32.2-.15.6-.75,1.38-1.22,1.97ZM156.31,344.46c-.21-.07-.37-.18-.4-.36.47-.37.84-.92,1.38-1.16-.3.55-.68.96-.98,1.52ZM177.14,349.23c-.12-.32.27-1,.67-1.05-.07.59-.41.76-.67,1.05ZM154.39,346.51c.45-.78.94-1.26.9-2.06l.47.12c-.37.42-.35,1.71-1.37,1.94ZM172.94,355.09c-.06.22-.15.38-.28.47-.62-.08-.14-.84-.93-.82.26-.25.36-.77.85-.62-.54.32-.38.9.36.97ZM148.47,349.36c-.33-.08-.17-.42-.3-.61.24.02.33-.27.66-.05-.1.28-.32.28-.37.66ZM154.82,353.83c-.28.03-.16.64-.19.86-.43.03-.22-.27-.39-.37-.06.08-.15.11-.29.05.37-.29.75-.41.31-.82.2-.11.47.08.56.29ZM161.95,359.21c.31.11.27-.45.62-.25.03.41-.6.61-.62.25ZM159.56,360.46c.31-.46.62-.91,1.17-.89-.41.25-.61.92-1.17.89ZM157.77,361.2c.15-.27.31-.54.69-.35-.14.3-.37.42-.69.35ZM158.69,362.63c-.35-.13-.44-.08-.35.18-.52-.05.09-.76.37-.57-.07.17-.05.28-.02.39ZM141.5,367.1c-.1-.29.28-.68.55-.77.08.22-.2.89-.55.77Z"/>
  <path class="cls-1" d="M296.31,218.51c-.07-.19-.2.15-.26-.07.1,1.3-.98,1.77-1.22,2.84.74-.53,1.16-1.27,1.59-2.02-.04-.14-.24-.06-.38-.04.12-.22.08-.54.28-.7Z"/>
  <path class="cls-1" d="M300.8,151.18c-.32.16-.1.59-.24.85.16-.24.42-.43.24-.85Z"/>
  <path class="cls-1" d="M295.25,165.86c-.02-.26-.16-.29-.24-.43-.15.08-.02.32,0,.5-.11-.04-.22-.07-.38-.02.18.34.35.06.61-.05Z"/>
  <path class="cls-1" d="M312.53,160.13c.08-.37-.31.47-.7.23.1.23.32.24.48.36.41-.23-.2-.36.22-.59Z"/>
  <path class="cls-1" d="M305.28,162.91c-.05-.26-.2-.35-.45-.24.2.11.17.33.02.51.11.27.27-.24.43-.27Z"/>
  <path class="cls-1" d="M307.58,162.94c.14.04.2.23.42.12-.04-.29-.15-.45-.28-.55-.22.08.03.42-.25.47.06.13.13.03.12-.04Z"/>
  <path class="cls-1" d="M291,168.22c-.49.08.08.29.13.47.05.31-.24-.1-.46.13.21.65-.12.99-.53,1.29.11.16.25.25.36.4-.04-.46.27-1.21.82-1.62-.24-.36-.05-.52-.3-.67Z"/>
  <path class="cls-1" d="M309.79,163.12c-.4,1.02-.85,1.59-.89,2.76.21-.04.25-.3.35-.11.32-.27,0-.27.07-.67.35.26.7-1.15.83-.66.39-.05-.07-.96-.36-1.31Z"/>
  <path class="cls-1" d="M286.31,170.76c-.42.06-.89.93-1,1.5.31-.51.68-.99,1-1.5Z"/>
  <path class="cls-1" d="M327.94,158.77c-.28-.13,0-.34-.21-.72-.42.46-.14.57-.14.86.1.16.14-.1.35-.13Z"/>
  <path class="cls-1" d="M308.7,165.17c-.07.33-.41.52-.24.99.5-.1.16-.66.24-.99Z"/>
  <path class="cls-1" d="M290.76,172.07c0-.28-.27-.11-.32-.29-.23.1-.16.37-.24.56.14.26.1-.4.56-.27Z"/>
  <path class="cls-1" d="M319.67,165.13c.03.12.17.04.27.04.13.27-.14.34.04.64.28-.27.59-.51.36-1.05-.33.22-.19.44-.67.37Z"/>
  <path class="cls-1" d="M310.56,171.71c-.02.52-.36.26-.59.7.25.38.27.34.41.65,0-.46.4-1.09.17-1.35Z"/>
  <path class="cls-1" d="M284.67,179.8c.35.03-.12.46.25.56.32-.04-.01-.48.39-.47-.34-.11-.25-.61-.87-.53.03.29,0,.54-.22.68.1.27.29-.21.45-.23Z"/>
  <path class="cls-1" d="M283.56,180.93c-.45.2-.12.87-.79.93.13.4.32-.09.41.15.12-.37.36-.66.38-1.08Z"/>
  <path class="cls-1" d="M282.95,182.69c.21-.06.28.09.5,0,.07-.53.39-.91.85-1.2-.65-.3-.61.7-1.34.69.22.48-.17.57-.6.64-.16.5.02.61,0,1.12.16-.1.26-.25.42-.35,0-.28-.26-.12-.31-.3,0-.1.09-.15.06-.27.2,0,.18.35.52.12.1-.21.07-.33-.1-.47Z"/>
  <path class="cls-1" d="M323.5,177.6c-.06-.13-.14-.03-.12.04-.17.07-.33.13-.39,0-.15.09-.03.34,0,.53.23-.15.33-.38.51-.56Z"/>
  <path class="cls-1" d="M317.12,184.28c-.11-.24-1.15.72-.98,1.35.13-.08.16-.74.43-.39.36-.21-.01-.86.55-.96Z"/>
  <path class="cls-1" d="M313.65,187.68c-.33.25-.96.08-.85.77.63.25.61-.82,1.2-.35.06-.44-.41.02-.34-.42Z"/>
  <path class="cls-1" d="M293.61,196.21c-.19-.34-.29.22-.45.24.01.21.26.26.07.36,0,.11.07.1.14.09l.24-.06c-.16.02-.3-.71-.07-.36.18-.09-.15-.19.07-.27Z"/>
  <path class="cls-1" d="M307.66,196.16c-.27-.16-.6.55-.87.75-.37-.35-1.07.09-1.34.23.42.23.96.27,1.46.38-.69-.51.42-.43.7-.96-.17-.14-.19-.27.05-.4Z"/>
  <path class="cls-1" d="M304.7,197.85c-.36-.08-.71.77-1.06,1.05.12.4.46-.46.62-.03,0-.2,0-.81.44-1.02Z"/>
  <path class="cls-1" d="M306.33,197.81c0-.43-.27-.12-.24.06-.2.06-.33,0-.41-.15-.15.09-.15.27-.31.34.21-.07.75.13.07.37.07.16.32.02.5,0-.04-.32.09-.52.39-.62Z"/>
  <path class="cls-1" d="M303.5,201.53c.15-.09.15-.27.31-.34.02-.4-.37-.15-.35-.55-.13.27.04.39.04.9Z"/>
  <path class="cls-1" d="M304.44,206.95c-.24-.2-.01-.16-.08-.49-.36.19-.22-.39-.65-.1l.06.37c.28-.02.58-.02.18.34.08.31.18-.22.48-.12Z"/>
  <path class="cls-1" d="M295.8,209.31c.21-.14-.16-.16-.12.03-.17-.04-.27-.21-.32-.44-.25.19.04.85.36.68-.04-.14-.01-.23.08-.27Z"/>
  <path class="cls-1" d="M281.27,211.93c-.13.05-.05.14.02.12.08.38-.66.19-.38.71.52,0,.42-.43.64-.63-.05-.13-.25-.03-.28-.2Z"/>
  <path class="cls-1" d="M299.51,215.49c.5-.11.69-.42.76-.82-.63.09-.75.52-1.29.68.39.5-.24.84-.31,1.35.03-.09,1.17-.86.83-1.21Z"/>
  <path class="cls-1" d="M298.35,216.13c-.33.37-.26,1.01-.83,1.21.74.61-.99,1.07-.98,1.89.11.09.34,0,.4.17.16-.37.03-.95.74-.94.06-.67.58-1.01.92-1.49-.06-.16-.32-.03-.51-.01.03-.32.43-.37.26-.83Z"/>
  <path class="cls-1" d="M300.53,216.41c-.82-.39-1.94,1.38-1.86,1.96.53-.67.91-1.93,1.86-1.96Z"/>
  <path class="cls-1" d="M295.87,221.56c-.29.24-.54.52-.76.81.29.2.66-.5.76-.81Z"/>
  <path class="cls-1" d="M292.73,225.42c-.62.27-1.43,1.38-1.86,2.16.61-.03.39-.66.95-.45-.46-.41.51-.55.37-1.09.39-.15.34.56.64.12-.46-.12-.39-.39-.09-.74Z"/>
  <path class="cls-1" d="M293.53,225.76c-.38-.27-.52.6-.78.8.15.34.29-.22.61-.12-.1-.47-.23-.45.17-.67Z"/>
  <path class="cls-1" d="M290.77,227.72c-.59.37-1.01.85-1.33,1.41,1.02.38,1.12-.82,1.33-1.41Z"/>
  <path class="cls-1" d="M284.38,235.29c-.22.17-.3.45-.53.86l.37-.06c-.18-.44.27-.41.17-.79Z"/>
  <path class="cls-1" d="M282.27,240.24l-.08-.75c-.38.3.16.72-.4.96.06.29.32-.2.48-.21Z"/>
  <path class="cls-1" d="M278.75,244.22c-.73-.37,0,.69-.95.53.07.09.14.18.15.36.54-.08.51-.61.8-.89Z"/>
  <path class="cls-1" d="M273.56,251.2c.23-.12-.15-.18-.12.02-.26,0-.27-.3-.4-.45-.22.21-.1.7-.58.71.42.82-.31.87-.54,1.33-.13.43.4.04.28.47.15-.55.75-.73.78-1.37.22-.05.27.12.5.06-.22-.16-.09-.57.07-.76Z"/>
  <path class="cls-1" d="M263.88,262.51c-.6.12-.27,1.05-.94,1.11.05.17.31.07.5.07-.14-.64.58-.54.45-1.18Z"/>
  <path class="cls-1" d="M258.05,270.14c-.24-.21-1.03.65-.85.84.3-.26.42-.69.85-.84Z"/>
  <path class="cls-1" d="M250.71,275.79c.07.25.26.38.38.59.24-.1.33-.36.37-.65-.33-.06-.24.28-.37.4-.24,0,.26-.55-.37-.34Z"/>
  <path class="cls-1" d="M227.95,302.63c-.27-.37-.56.38-.89.38-.03.11.04.12.12.12h.25c0-.35.38-.31.53-.5Z"/>
  <path class="cls-1" d="M184.69,301.29c-.41.25-.7.66-1.17.84.17.51-.47.73-.83,1,.01.1.11.13.09.25.1-.01.11.06.11.13.49-.87,1.33-1.32,1.8-2.22Z"/>
  <path class="cls-1" d="M190.09,341.07c-.27.48.36.3.09.78.1-.01.15-.11.28-.1l.05-.25c-.51.13.09-.56-.42-.43Z"/>
  <path class="cls-1" d="M186.41,343.17c-.71-.09.42.5-.14.62.03.35.52,0,.46-.32-.26,0-.39-.08-.32-.3Z"/>
</svg>